  0
SECTION
  2
HEADER
  9
$ANGBASE
  50
0.0
  9
$ANGDIR
  70
1
  9
$MEASUREMENT
  70
0
  0
ENDSEC
  0
SECTION
  2
TABLES
  0
TABLE
  2
LTYPE
  70
4
  0
LTYPE
  5
40F
  2
CONTINUOUS
  70
0
  3
Solid line
  72
65
  73
0
  40
0.0
  0
LTYPE
  5
410
  2
DASHDOT
 70
0
  3
Dash Dot ____ _ ____ _
 72
65
 73
4
 40
2.0
 49
1.25
 49
-0.25
 49
0.25
 49
-0.25
  0
LTYPE
  5
411
  2
DASHED
 70
0
  3
Dashed __ __ __ __ __
 72
65
 73
2
 40
0.75
 49
0.5
 49
-0.25
  0
LTYPE
  5
43B
  2
DOTTED
 70
0
  3
Dotted .  .  .  .
 72
65
 73
2
 40
0.2
 49
0.0
 49
-0.2
  0
ENDTAB
  0
TABLE
  2
STYLE
  70
4
  0
STYLE
  2
KICAD
  70
0
  40
0
  41
1
  42
1
  50
0
  71
0
  3
isocp.shx
  0
STYLE
  2
KICADB
  70
0
  40
0
  41
1
  42
1
  50
0
  71
0
  3
isocp.shx
  0
STYLE
  2
KICADI
  70
0
  40
0
  41
1
  42
1
  50
15
  71
0
  3
isocp.shx
  0
STYLE
  2
KICADBI
  70
0
  40
0
  41
1
  42
1
  50
15
  71
0
  3
isocp.shx
  0
ENDTAB
  0
TABLE
  2
LAYER
  70
1
  0
LAYER
  2
BLACK
  70
0
  62
7
  6
CONTINUOUS
  0
ENDTAB
  0
ENDSEC
  0
SECTION
  2
ENTITIES
0
LINE
8
BLACK
6
CONTINUOUS
10
5.7693201968503933
20
-4.9646781889763778
11
5.7703846062992126
21
-4.9651190944881884
0
LINE
8
BLACK
6
CONTINUOUS
10
5.7703846062992126
20
-4.9651190944881884
11
5.771199251968504
21
-4.9659337401574799
0
LINE
8
BLACK
6
CONTINUOUS
10
5.771199251968504
20
-4.9659337401574799
11
5.7716401574803147
21
-4.9669981496062992
0
LINE
8
BLACK
6
CONTINUOUS
10
5.7716401574803147
20
-4.9669981496062992
11
5.7716401574803147
21
-4.9681502755905509
0
LINE
8
BLACK
6
CONTINUOUS
10
5.7716401574803147
20
-4.9681502755905509
11
5.771199251968504
21
-4.9692146850393701
0
LINE
8
BLACK
6
CONTINUOUS
10
5.771199251968504
20
-4.9692146850393701
11
5.7703846062992126
21
-4.9700293307086616
0
LINE
8
BLACK
6
CONTINUOUS
10
5.7703846062992126
20
-4.9700293307086616
11
5.7693201968503933
21
-4.9704702362204722
0
LINE
8
BLACK
6
CONTINUOUS
10
5.7693201968503933
20
-4.9704702362204722
11
5.7687441338582675
21
-4.970526968503937
0
LINE
8
BLACK
6
CONTINUOUS
10
5.7687441338582675
20
-4.970526968503937
11
5.7237497637795274
21
-4.970526968503937
0
LINE
8
BLACK
6
CONTINUOUS
10
5.7237497637795274
20
-4.970526968503937
11
5.7231737007874015
21
-4.9704702362204722
0
LINE
8
BLACK
6
CONTINUOUS
10
5.7231737007874015
20
-4.9704702362204722
11
5.7221092913385823
21
-4.9700293307086616
0
LINE
8
BLACK
6
CONTINUOUS
10
5.7221092913385823
20
-4.9700293307086616
11
5.7212946456692908
21
-4.9692146850393701
0
LINE
8
BLACK
6
CONTINUOUS
10
5.7212946456692908
20
-4.9692146850393701
11
5.7208537401574802
21
-4.9681502755905509
0
LINE
8
BLACK
6
CONTINUOUS
10
5.7208537401574802
20
-4.9681502755905509
11
5.7208537401574802
21
-4.9669981496062992
0
LINE
8
BLACK
6
CONTINUOUS
10
5.7208537401574802
20
-4.9669981496062992
11
5.7212946456692908
21
-4.9659337401574799
0
LINE
8
BLACK
6
CONTINUOUS
10
5.7212946456692908
20
-4.9659337401574799
11
5.7221092913385823
21
-4.9651190944881884
0
LINE
8
BLACK
6
CONTINUOUS
10
5.7221092913385823
20
-4.9651190944881884
11
5.7231737007874015
21
-4.9646781889763778
0
LINE
8
BLACK
6
CONTINUOUS
10
5.7231737007874015
20
-4.9646781889763778
11
5.7237497637795274
21
-4.964621456692913
0
LINE
8
BLACK
6
CONTINUOUS
10
5.7237497637795274
20
-4.964621456692913
11
5.7687441338582675
21
-4.964621456692913
0
LINE
8
BLACK
6
CONTINUOUS
10
5.7687441338582675
20
-4.964621456692913
11
5.7693201968503933
21
-4.9646781889763778
0
LINE
8
BLACK
6
CONTINUOUS
10
6.0308499606299213
20
-4.9646781889763778
11
6.0319143700787397
21
-4.9651190944881884
0
LINE
8
BLACK
6
CONTINUOUS
10
6.0319143700787397
20
-4.9651190944881884
11
6.0327290157480311
21
-4.9659337401574799
0
LINE
8
BLACK
6
CONTINUOUS
10
6.0327290157480311
20
-4.9659337401574799
11
6.0331699212598426
21
-4.9669981496062992
0
LINE
8
BLACK
6
CONTINUOUS
10
6.0331699212598426
20
-4.9669981496062992
11
6.0331699212598426
21
-4.9681502755905509
0
LINE
8
BLACK
6
CONTINUOUS
10
6.0331699212598426
20
-4.9681502755905509
11
6.0327290157480311
21
-4.9692146850393701
0
LINE
8
BLACK
6
CONTINUOUS
10
6.0327290157480311
20
-4.9692146850393701
11
6.0319143700787397
21
-4.9700293307086616
0
LINE
8
BLACK
6
CONTINUOUS
10
6.0319143700787397
20
-4.9700293307086616
11
6.0308499606299213
21
-4.9704702362204722
0
LINE
8
BLACK
6
CONTINUOUS
10
6.0308499606299213
20
-4.9704702362204722
11
6.0302738976377954
21
-4.970526968503937
0
LINE
8
BLACK
6
CONTINUOUS
10
6.0302738976377954
20
-4.970526968503937
11
5.9852795275590553
21
-4.970526968503937
0
LINE
8
BLACK
6
CONTINUOUS
10
5.9852795275590553
20
-4.970526968503937
11
5.9847034645669286
21
-4.9704702362204722
0
LINE
8
BLACK
6
CONTINUOUS
10
5.9847034645669286
20
-4.9704702362204722
11
5.9836390551181102
21
-4.9700293307086616
0
LINE
8
BLACK
6
CONTINUOUS
10
5.9836390551181102
20
-4.9700293307086616
11
5.9828244094488188
21
-4.9692146850393701
0
LINE
8
BLACK
6
CONTINUOUS
10
5.9828244094488188
20
-4.9692146850393701
11
5.9823835039370081
21
-4.9681502755905509
0
LINE
8
BLACK
6
CONTINUOUS
10
5.9823835039370081
20
-4.9681502755905509
11
5.9823835039370081
21
-4.9669981496062992
0
LINE
8
BLACK
6
CONTINUOUS
10
5.9823835039370081
20
-4.9669981496062992
11
5.9828244094488188
21
-4.9659337401574799
0
LINE
8
BLACK
6
CONTINUOUS
10
5.9828244094488188
20
-4.9659337401574799
11
5.9836390551181102
21
-4.9651190944881884
0
LINE
8
BLACK
6
CONTINUOUS
10
5.9836390551181102
20
-4.9651190944881884
11
5.9847034645669286
21
-4.9646781889763778
0
LINE
8
BLACK
6
CONTINUOUS
10
5.9847034645669286
20
-4.9646781889763778
11
5.9852795275590553
21
-4.964621456692913
0
LINE
8
BLACK
6
CONTINUOUS
10
5.9852795275590553
20
-4.964621456692913
11
6.0302738976377954
21
-4.964621456692913
0
LINE
8
BLACK
6
CONTINUOUS
10
6.0302738976377954
20
-4.964621456692913
11
6.0308499606299213
21
-4.9646781889763778
0
LINE
8
BLACK
6
CONTINUOUS
10
5.4909174803149607
20
-4.899998779527559
11
5.4919818897637791
21
-4.9004396850393697
0
LINE
8
BLACK
6
CONTINUOUS
10
5.4919818897637791
20
-4.9004396850393697
11
5.4927965354330706
21
-4.9012543307086611
0
LINE
8
BLACK
6
CONTINUOUS
10
5.4927965354330706
20
-4.9012543307086611
11
5.4932374409448821
21
-4.9023187401574804
0
LINE
8
BLACK
6
CONTINUOUS
10
5.4932374409448821
20
-4.9023187401574804
11
5.4932374409448821
21
-4.9034708661417321
0
LINE
8
BLACK
6
CONTINUOUS
10
5.4932374409448821
20
-4.9034708661417321
11
5.4927965354330706
21
-4.9045352755905514
0
LINE
8
BLACK
6
CONTINUOUS
10
5.4927965354330706
20
-4.9045352755905514
11
5.4919818897637791
21
-4.9053499212598428
0
LINE
8
BLACK
6
CONTINUOUS
10
5.4919818897637791
20
-4.9053499212598428
11
5.4909174803149607
21
-4.9057908267716535
0
LINE
8
BLACK
6
CONTINUOUS
10
5.4909174803149607
20
-4.9057908267716535
11
5.4903414173228349
21
-4.9058475590551183
0
LINE
8
BLACK
6
CONTINUOUS
10
5.4903414173228349
20
-4.9058475590551183
11
5.4651726771653539
21
-4.9058475590551183
0
LINE
8
BLACK
6
CONTINUOUS
10
5.4651726771653539
20
-4.9058475590551183
11
5.4651726771653539
21
-4.9280635433070863
0
LINE
8
BLACK
6
CONTINUOUS
10
5.4651726771653539
20
-4.9280635433070863
11
5.4819049606299215
21
-4.9280635433070863
0
LINE
8
BLACK
6
CONTINUOUS
10
5.4819049606299215
20
-4.9280635433070863
11
5.4824810236220474
21
-4.9281202755905511
0
LINE
8
BLACK
6
CONTINUOUS
10
5.4824810236220474
20
-4.9281202755905511
11
5.4835454330708657
21
-4.9285611811023617
0
LINE
8
BLACK
6
CONTINUOUS
10
5.4835454330708657
20
-4.9285611811023617
11
5.4843600787401572
21
-4.9293758267716532
0
LINE
8
BLACK
6
CONTINUOUS
10
5.4843600787401572
20
-4.9293758267716532
11
5.4848009842519687
21
-4.9304402362204724
0
LINE
8
BLACK
6
CONTINUOUS
10
5.4848009842519687
20
-4.9304402362204724
11
5.4848009842519687
21
-4.9315923622047242
0
LINE
8
BLACK
6
CONTINUOUS
10
5.4848009842519687
20
-4.9315923622047242
11
5.4843600787401572
21
-4.9326567716535434
0
LINE
8
BLACK
6
CONTINUOUS
10
5.4843600787401572
20
-4.9326567716535434
11
5.4835454330708657
21
-4.9334714173228349
0
LINE
8
BLACK
6
CONTINUOUS
10
5.4835454330708657
20
-4.9334714173228349
11
5.4824810236220474
21
-4.9339123228346455
0
LINE
8
BLACK
6
CONTINUOUS
10
5.4824810236220474
20
-4.9339123228346455
11
5.4819049606299215
21
-4.9339690551181103
0
LINE
8
BLACK
6
CONTINUOUS
10
5.4819049606299215
20
-4.9339690551181103
11
5.4651726771653539
21
-4.9339690551181103
0
LINE
8
BLACK
6
CONTINUOUS
10
5.4651726771653539
20
-4.9339690551181103
11
5.4651726771653539
21
-4.9589971653543303
0
LINE
8
BLACK
6
CONTINUOUS
10
5.4651726771653539
20
-4.9589971653543303
11
5.4903414173228349
21
-4.9589971653543303
0
LINE
8
BLACK
6
CONTINUOUS
10
5.4903414173228349
20
-4.9589971653543303
11
5.4909174803149607
21
-4.9590538976377951
0
LINE
8
BLACK
6
CONTINUOUS
10
5.4909174803149607
20
-4.9590538976377951
11
5.4919818897637791
21
-4.9594948031496058
0
LINE
8
BLACK
6
CONTINUOUS
10
5.4919818897637791
20
-4.9594948031496058
11
5.4927965354330706
21
-4.9603094488188972
0
LINE
8
BLACK
6
CONTINUOUS
10
5.4927965354330706
20
-4.9603094488188972
11
5.4932374409448821
21
-4.9613738582677165
0
LINE
8
BLACK
6
CONTINUOUS
10
5.4932374409448821
20
-4.9613738582677165
11
5.4932374409448821
21
-4.9625259842519682
0
LINE
8
BLACK
6
CONTINUOUS
10
5.4932374409448821
20
-4.9625259842519682
11
5.4927965354330706
21
-4.9635903937007875
0
LINE
8
BLACK
6
CONTINUOUS
10
5.4927965354330706
20
-4.9635903937007875
11
5.4919818897637791
21
-4.9644050393700789
0
LINE
8
BLACK
6
CONTINUOUS
10
5.4919818897637791
20
-4.9644050393700789
11
5.4909174803149607
21
-4.9648459448818896
0
LINE
8
BLACK
6
CONTINUOUS
10
5.4909174803149607
20
-4.9648459448818896
11
5.4903414173228349
21
-4.9649026771653544
0
LINE
8
BLACK
6
CONTINUOUS
10
5.4903414173228349
20
-4.9649026771653544
11
5.4622199212598428
21
-4.9649026771653544
0
LINE
8
BLACK
6
CONTINUOUS
10
5.4622199212598428
20
-4.9649026771653544
11
5.461643858267716
21
-4.9648459448818896
0
LINE
8
BLACK
6
CONTINUOUS
10
5.461643858267716
20
-4.9648459448818896
11
5.4605794488188977
21
-4.9644050393700789
0
LINE
8
BLACK
6
CONTINUOUS
10
5.4605794488188977
20
-4.9644050393700789
11
5.4597648031496062
21
-4.9635903937007875
0
LINE
8
BLACK
6
CONTINUOUS
10
5.4597648031496062
20
-4.9635903937007875
11
5.4593238976377956
21
-4.9625259842519682
0
LINE
8
BLACK
6
CONTINUOUS
10
5.4593238976377956
20
-4.9625259842519682
11
5.4593238976377956
21
-4.9625259448818895
0
LINE
8
BLACK
6
CONTINUOUS
10
5.4593238976377956
20
-4.9625259448818895
11
5.4592671653543308
21
-4.9619499212598424
0
LINE
8
BLACK
6
CONTINUOUS
10
5.4592671653543308
20
-4.9619499212598424
11
5.4592671653543308
21
-4.9028948031496062
0
LINE
8
BLACK
6
CONTINUOUS
10
5.4592671653543308
20
-4.9028948031496062
11
5.4593238976377956
21
-4.9023187401574804
0
LINE
8
BLACK
6
CONTINUOUS
10
5.4593238976377956
20
-4.9023187401574804
11
5.4597648031496062
21
-4.9012543307086611
0
LINE
8
BLACK
6
CONTINUOUS
10
5.4597648031496062
20
-4.9012543307086611
11
5.4605794488188977
21
-4.9004396850393697
0
LINE
8
BLACK
6
CONTINUOUS
10
5.4605794488188977
20
-4.9004396850393697
11
5.461643858267716
21
-4.899998779527559
0
LINE
8
BLACK
6
CONTINUOUS
10
5.461643858267716
20
-4.899998779527559
11
5.4622199212598428
21
-4.8999420472440942
0
LINE
8
BLACK
6
CONTINUOUS
10
5.4622199212598428
20
-4.8999420472440942
11
5.4903414173228349
21
-4.8999420472440942
0
LINE
8
BLACK
6
CONTINUOUS
10
5.4903414173228349
20
-4.8999420472440942
11
5.4909174803149607
21
-4.899998779527559
0
LINE
8
BLACK
6
CONTINUOUS
10
5.5806216929133861
20
-4.899970748031496
11
5.5806994488188977
21
-4.8999652362204724
0
LINE
8
BLACK
6
CONTINUOUS
10
5.5806994488188977
20
-4.8999652362204724
11
5.5808016929133855
21
-4.8999884645669294
0
LINE
8
BLACK
6
CONTINUOUS
10
5.5808016929133855
20
-4.8999884645669294
11
5.5809062204724409
21
-4.899998779527559
0
LINE
8
BLACK
6
CONTINUOUS
10
5.5809062204724409
20
-4.899998779527559
11
5.5809783070866139
21
-4.9000286220472438
0
LINE
8
BLACK
6
CONTINUOUS
10
5.5809783070866139
20
-4.9000286220472438
11
5.5812638976377951
21
-4.9000935826771652
0
LINE
8
BLACK
6
CONTINUOUS
10
5.5812638976377951
20
-4.9000935826771652
11
5.5897003543307084
21
-4.9029057480314959
0
LINE
8
BLACK
6
CONTINUOUS
10
5.5897003543307084
20
-4.9029057480314959
11
5.590228897637795
21
-4.9031417322834647
0
LINE
8
BLACK
6
CONTINUOUS
10
5.590228897637795
20
-4.9031417322834647
11
5.5903090157480317
21
-4.903211220472441
0
LINE
8
BLACK
6
CONTINUOUS
10
5.5903090157480317
20
-4.903211220472441
11
5.5904070866141735
21
-4.9032518503937004
0
LINE
8
BLACK
6
CONTINUOUS
10
5.5904070866141735
20
-4.9032518503937004
11
5.5908545275590553
21
-4.90361905511811
0
LINE
8
BLACK
6
CONTINUOUS
10
5.5908545275590553
20
-4.90361905511811
11
5.596478818897638
21
-4.9092433464566927
0
LINE
8
BLACK
6
CONTINUOUS
10
5.596478818897638
20
-4.9092433464566927
11
5.596664645669291
21
-4.909469803149606
0
LINE
8
BLACK
6
CONTINUOUS
10
5.596664645669291
20
-4.909469803149606
11
5.5967235433070863
21
-4.9095208661417322
0
LINE
8
BLACK
6
CONTINUOUS
10
5.5967235433070863
20
-4.9095208661417322
11
5.5967794094488186
21
-4.9096096062992123
0
LINE
8
BLACK
6
CONTINUOUS
10
5.5967794094488186
20
-4.9096096062992123
11
5.5968460236220468
21
-4.9096907874015745
0
LINE
8
BLACK
6
CONTINUOUS
10
5.5968460236220468
20
-4.9096907874015745
11
5.5968758661417324
21
-4.9097628346456688
0
LINE
8
BLACK
6
CONTINUOUS
10
5.5968758661417324
20
-4.9097628346456688
11
5.5970319291338582
21
-4.9100107480314961
0
LINE
8
BLACK
6
CONTINUOUS
10
5.5970319291338582
20
-4.9100107480314961
11
5.5998440944881889
21
-4.9156350393700787
0
LINE
8
BLACK
6
CONTINUOUS
10
5.5998440944881889
20
-4.9156350393700787
11
5.5998601968503934
21
-4.915677125984252
0
LINE
8
BLACK
6
CONTINUOUS
10
5.5998601968503934
20
-4.915677125984252
11
5.5998729133858269
21
-4.9156942913385828
0
LINE
8
BLACK
6
CONTINUOUS
10
5.5998729133858269
20
-4.9156942913385828
11
5.5999592125984252
21
-4.9159358661417318
0
LINE
8
BLACK
6
CONTINUOUS
10
5.5999592125984252
20
-4.9159358661417318
11
5.6000509842519683
21
-4.91617562992126
0
LINE
8
BLACK
6
CONTINUOUS
10
5.6000509842519683
20
-4.91617562992126
11
5.6000524803149609
21
-4.9161968897637793
0
LINE
8
BLACK
6
CONTINUOUS
10
5.6000524803149609
20
-4.9161968897637793
11
5.6000676771653541
21
-4.9162394094488189
0
LINE
8
BLACK
6
CONTINUOUS
10
5.6000676771653541
20
-4.9162394094488189
11
5.6028798031496061
21
-4.9274879921259842
0
LINE
8
BLACK
6
CONTINUOUS
10
5.6028798031496061
20
-4.9274879921259842
11
5.6028945669291339
21
-4.927587834645669
0
LINE
8
BLACK
6
CONTINUOUS
10
5.6028945669291339
20
-4.927587834645669
11
5.6029112204724409
21
-4.9276280708661417
0
LINE
8
BLACK
6
CONTINUOUS
10
5.6029112204724409
20
-4.9276280708661417
11
5.6029325590551178
21
-4.9278450787401571
0
LINE
8
BLACK
6
CONTINUOUS
10
5.6029325590551178
20
-4.9278450787401571
11
5.6029644488188977
21
-4.9280605905511807
0
LINE
8
BLACK
6
CONTINUOUS
10
5.6029644488188977
20
-4.9280605905511807
11
5.6029580314960628
21
-4.9281035826771653
0
LINE
8
BLACK
6
CONTINUOUS
10
5.6029580314960628
20
-4.9281035826771653
11
5.6029679527559058
21
-4.9282041338582676
0
LINE
8
BLACK
6
CONTINUOUS
10
5.6029679527559058
20
-4.9282041338582676
11
5.6029679527559058
21
-4.936640590551181
0
LINE
8
BLACK
6
CONTINUOUS
10
5.6029679527559058
20
-4.936640590551181
11
5.6029580314960628
21
-4.9367411023622045
0
LINE
8
BLACK
6
CONTINUOUS
10
5.6029580314960628
20
-4.9367411023622045
11
5.6029644488188977
21
-4.9367841338582679
0
LINE
8
BLACK
6
CONTINUOUS
10
5.6029644488188977
20
-4.9367841338582679
11
5.6029325590551178
21
-4.9369996062992128
0
LINE
8
BLACK
6
CONTINUOUS
10
5.6029325590551178
20
-4.9369996062992128
11
5.6029112204724409
21
-4.9372166535433069
0
LINE
8
BLACK
6
CONTINUOUS
10
5.6029112204724409
20
-4.9372166535433069
11
5.6028945669291339
21
-4.9372568503937009
0
LINE
8
BLACK
6
CONTINUOUS
10
5.6028945669291339
20
-4.9372568503937009
11
5.6028798031496061
21
-4.9373567322834644
0
LINE
8
BLACK
6
CONTINUOUS
10
5.6028798031496061
20
-4.9373567322834644
11
5.6000676771653541
21
-4.9486053149606297
0
LINE
8
BLACK
6
CONTINUOUS
10
5.6000676771653541
20
-4.9486053149606297
11
5.6000524803149609
21
-4.9486477952755905
0
LINE
8
BLACK
6
CONTINUOUS
10
5.6000524803149609
20
-4.9486477952755905
11
5.6000509842519683
21
-4.9486690944881886
0
LINE
8
BLACK
6
CONTINUOUS
10
5.6000509842519683
20
-4.9486690944881886
11
5.5999592125984252
21
-4.948908818897638
0
LINE
8
BLACK
6
CONTINUOUS
10
5.5999592125984252
20
-4.948908818897638
11
5.5998729133858269
21
-4.9491504330708658
0
LINE
8
BLACK
6
CONTINUOUS
10
5.5998729133858269
20
-4.9491504330708658
11
5.5998601968503934
21
-4.9491675590551178
0
LINE
8
BLACK
6
CONTINUOUS
10
5.5998601968503934
20
-4.9491675590551178
11
5.5998440944881889
21
-4.9492096850393699
0
LINE
8
BLACK
6
CONTINUOUS
10
5.5998440944881889
20
-4.9492096850393699
11
5.5970319291338582
21
-4.9548339763779525
0
LINE
8
BLACK
6
CONTINUOUS
10
5.5970319291338582
20
-4.9548339763779525
11
5.5968759055118111
21
-4.9550817716535436
0
LINE
8
BLACK
6
CONTINUOUS
10
5.5968759055118111
20
-4.9550817716535436
11
5.5968460629921255
21
-4.9551538976377953
0
LINE
8
BLACK
6
CONTINUOUS
10
5.5968460629921255
20
-4.9551538976377953
11
5.5967793700787398
21
-4.9552350787401576
0
LINE
8
BLACK
6
CONTINUOUS
10
5.5967793700787398
20
-4.9552350787401576
11
5.5967235433070863
21
-4.9553238582677164
0
LINE
8
BLACK
6
CONTINUOUS
10
5.5967235433070863
20
-4.9553238582677164
11
5.596664645669291
21
-4.9553748818897638
0
LINE
8
BLACK
6
CONTINUOUS
10
5.596664645669291
20
-4.9553748818897638
11
5.596478818897638
21
-4.9556013779527559
0
LINE
8
BLACK
6
CONTINUOUS
10
5.596478818897638
20
-4.9556013779527559
11
5.5908545275590553
21
-4.9612257086614173
0
LINE
8
BLACK
6
CONTINUOUS
10
5.5908545275590553
20
-4.9612257086614173
11
5.5904070866141735
21
-4.961592913385827
0
LINE
8
BLACK
6
CONTINUOUS
10
5.5904070866141735
20
-4.961592913385827
11
5.5903090157480317
21
-4.9616335039370076
0
LINE
8
BLACK
6
CONTINUOUS
10
5.5903090157480317
20
-4.9616335039370076
11
5.590228897637795
21
-4.9617030314960626
0
LINE
8
BLACK
6
CONTINUOUS
10
5.590228897637795
20
-4.9617030314960626
11
5.5897003543307084
21
-4.9619390157480314
0
LINE
8
BLACK
6
CONTINUOUS
10
5.5897003543307084
20
-4.9619390157480314
11
5.5812638976377951
21
-4.9647511417322834
0
LINE
8
BLACK
6
CONTINUOUS
10
5.5812638976377951
20
-4.9647511417322834
11
5.5809783070866139
21
-4.9648160629921261
0
LINE
8
BLACK
6
CONTINUOUS
10
5.5809783070866139
20
-4.9648160629921261
11
5.5809062204724409
21
-4.9648459448818896
0
LINE
8
BLACK
6
CONTINUOUS
10
5.5809062204724409
20
-4.9648459448818896
11
5.5808016929133855
21
-4.9648562204724405
0
LINE
8
BLACK
6
CONTINUOUS
10
5.5808016929133855
20
-4.9648562204724405
11
5.5806994488188977
21
-4.9648794881889762
0
LINE
8
BLACK
6
CONTINUOUS
10
5.5806994488188977
20
-4.9648794881889762
11
5.5806216929133861
21
-4.9648739370078738
0
LINE
8
BLACK
6
CONTINUOUS
10
5.5806216929133861
20
-4.9648739370078738
11
5.580330157480315
21
-4.9649026771653544
0
LINE
8
BLACK
6
CONTINUOUS
10
5.580330157480315
20
-4.9649026771653544
11
5.566269409448819
21
-4.9649026771653544
0
LINE
8
BLACK
6
CONTINUOUS
10
5.566269409448819
20
-4.9649026771653544
11
5.5656933464566931
21
-4.9648459448818896
0
LINE
8
BLACK
6
CONTINUOUS
10
5.5656933464566931
20
-4.9648459448818896
11
5.5646289370078739
21
-4.9644050393700789
0
LINE
8
BLACK
6
CONTINUOUS
10
5.5646289370078739
20
-4.9644050393700789
11
5.5638142913385824
21
-4.9635903937007875
0
LINE
8
BLACK
6
CONTINUOUS
10
5.5638142913385824
20
-4.9635903937007875
11
5.5633733858267718
21
-4.9625259842519682
0
LINE
8
BLACK
6
CONTINUOUS
10
5.5633733858267718
20
-4.9625259842519682
11
5.5633733858267718
21
-4.9625259448818895
0
LINE
8
BLACK
6
CONTINUOUS
10
5.5633733858267718
20
-4.9625259448818895
11
5.563316653543307
21
-4.9619499212598424
0
LINE
8
BLACK
6
CONTINUOUS
10
5.563316653543307
20
-4.9619499212598424
11
5.563316653543307
21
-4.9028948031496062
0
LINE
8
BLACK
6
CONTINUOUS
10
5.563316653543307
20
-4.9028948031496062
11
5.5633733858267718
21
-4.9023187401574804
0
LINE
8
BLACK
6
CONTINUOUS
10
5.5633733858267718
20
-4.9023187401574804
11
5.5638142913385824
21
-4.9012543307086611
0
LINE
8
BLACK
6
CONTINUOUS
10
5.5638142913385824
20
-4.9012543307086611
11
5.5646289370078739
21
-4.9004396850393697
0
LINE
8
BLACK
6
CONTINUOUS
10
5.5646289370078739
20
-4.9004396850393697
11
5.5656933464566931
21
-4.899998779527559
0
LINE
8
BLACK
6
CONTINUOUS
10
5.5656933464566931
20
-4.899998779527559
11
5.566269409448819
21
-4.8999420472440942
0
LINE
8
BLACK
6
CONTINUOUS
10
5.566269409448819
20
-4.8999420472440942
11
5.580330157480315
21
-4.8999420472440942
0
LINE
8
BLACK
6
CONTINUOUS
10
5.580330157480315
20
-4.8999420472440942
11
5.5806216929133861
21
-4.899970748031496
0
LINE
8
BLACK
6
CONTINUOUS
10
5.569222165354331
20
-4.9589971653543303
11
5.5798510236220471
21
-4.9589971653543303
0
LINE
8
BLACK
6
CONTINUOUS
10
5.5798510236220471
20
-4.9589971653543303
11
5.5871715354330709
21
-4.9565569685039366
0
LINE
8
BLACK
6
CONTINUOUS
10
5.5871715354330709
20
-4.9565569685039366
11
5.5919641732283463
21
-4.9517643700787399
0
LINE
8
BLACK
6
CONTINUOUS
10
5.5919641732283463
20
-4.9517643700787399
11
5.5944170472440939
21
-4.9468585826771649
0
LINE
8
BLACK
6
CONTINUOUS
10
5.5944170472440939
20
-4.9468585826771649
11
5.5970624409448817
21
-4.9362770472440944
0
LINE
8
BLACK
6
CONTINUOUS
10
5.5970624409448817
20
-4.9362770472440944
11
5.5970624409448817
21
-4.9285676377952754
0
LINE
8
BLACK
6
CONTINUOUS
10
5.5970624409448817
20
-4.9285676377952754
11
5.5944170472440939
21
-4.9179861023622049
0
LINE
8
BLACK
6
CONTINUOUS
10
5.5944170472440939
20
-4.9179861023622049
11
5.5919641732283463
21
-4.9130803543307087
0
LINE
8
BLACK
6
CONTINUOUS
10
5.5919641732283463
20
-4.9130803543307087
11
5.5871715748031496
21
-4.908287755905512
0
LINE
8
BLACK
6
CONTINUOUS
10
5.5871715748031496
20
-4.908287755905512
11
5.5798510236220471
21
-4.9058475590551183
0
LINE
8
BLACK
6
CONTINUOUS
10
5.5798510236220471
20
-4.9058475590551183
11
5.569222165354331
21
-4.9058475590551183
0
LINE
8
BLACK
6
CONTINUOUS
10
5.569222165354331
20
-4.9058475590551183
11
5.569222165354331
21
-4.9589971653543303
0
LINE
8
BLACK
6
CONTINUOUS
10
5.654022086614173
20
-4.899998779527559
11
5.6550864960629923
21
-4.9004396850393697
0
LINE
8
BLACK
6
CONTINUOUS
10
5.6550864960629923
20
-4.9004396850393697
11
5.6559011417322838
21
-4.9012543307086611
0
LINE
8
BLACK
6
CONTINUOUS
10
5.6559011417322838
20
-4.9012543307086611
11
5.6563420472440944
21
-4.9023187401574804
0
LINE
8
BLACK
6
CONTINUOUS
10
5.6563420472440944
20
-4.9023187401574804
11
5.6563420472440944
21
-4.9034708661417321
0
LINE
8
BLACK
6
CONTINUOUS
10
5.6563420472440944
20
-4.9034708661417321
11
5.6559011417322838
21
-4.9045352755905514
0
LINE
8
BLACK
6
CONTINUOUS
10
5.6559011417322838
20
-4.9045352755905514
11
5.6550864960629923
21
-4.9053499212598428
0
LINE
8
BLACK
6
CONTINUOUS
10
5.6550864960629923
20
-4.9053499212598428
11
5.654022086614173
21
-4.9057908267716535
0
LINE
8
BLACK
6
CONTINUOUS
10
5.654022086614173
20
-4.9057908267716535
11
5.6534460236220472
21
-4.9058475590551183
0
LINE
8
BLACK
6
CONTINUOUS
10
5.6534460236220472
20
-4.9058475590551183
11
5.6282772834645671
21
-4.9058475590551183
0
LINE
8
BLACK
6
CONTINUOUS
10
5.6282772834645671
20
-4.9058475590551183
11
5.6282772834645671
21
-4.9280635433070863
0
LINE
8
BLACK
6
CONTINUOUS
10
5.6282772834645671
20
-4.9280635433070863
11
5.6450095669291338
21
-4.9280635433070863
0
LINE
8
BLACK
6
CONTINUOUS
10
5.6450095669291338
20
-4.9280635433070863
11
5.6455856299212597
21
-4.9281202755905511
0
LINE
8
BLACK
6
CONTINUOUS
10
5.6455856299212597
20
-4.9281202755905511
11
5.6466500393700789
21
-4.9285611811023617
0
LINE
8
BLACK
6
CONTINUOUS
10
5.6466500393700789
20
-4.9285611811023617
11
5.6474646850393704
21
-4.9293758267716532
0
LINE
8
BLACK
6
CONTINUOUS
10
5.6474646850393704
20
-4.9293758267716532
11
5.647905590551181
21
-4.9304402362204724
0
LINE
8
BLACK
6
CONTINUOUS
10
5.647905590551181
20
-4.9304402362204724
11
5.647905590551181
21
-4.9315923622047242
0
LINE
8
BLACK
6
CONTINUOUS
10
5.647905590551181
20
-4.9315923622047242
11
5.6474646850393704
21
-4.9326567716535434
0
LINE
8
BLACK
6
CONTINUOUS
10
5.6474646850393704
20
-4.9326567716535434
11
5.6466500393700789
21
-4.9334714173228349
0
LINE
8
BLACK
6
CONTINUOUS
10
5.6466500393700789
20
-4.9334714173228349
11
5.6455856299212597
21
-4.9339123228346455
0
LINE
8
BLACK
6
CONTINUOUS
10
5.6455856299212597
20
-4.9339123228346455
11
5.6450095669291338
21
-4.9339690551181103
0
LINE
8
BLACK
6
CONTINUOUS
10
5.6450095669291338
20
-4.9339690551181103
11
5.6282772834645671
21
-4.9339690551181103
0
LINE
8
BLACK
6
CONTINUOUS
10
5.6282772834645671
20
-4.9339690551181103
11
5.6282772834645671
21
-4.9589971653543303
0
LINE
8
BLACK
6
CONTINUOUS
10
5.6282772834645671
20
-4.9589971653543303
11
5.6534460236220472
21
-4.9589971653543303
0
LINE
8
BLACK
6
CONTINUOUS
10
5.6534460236220472
20
-4.9589971653543303
11
5.654022086614173
21
-4.9590538976377951
0
LINE
8
BLACK
6
CONTINUOUS
10
5.654022086614173
20
-4.9590538976377951
11
5.6550864960629923
21
-4.9594948031496058
0
LINE
8
BLACK
6
CONTINUOUS
10
5.6550864960629923
20
-4.9594948031496058
11
5.6559011417322838
21
-4.9603094488188972
0
LINE
8
BLACK
6
CONTINUOUS
10
5.6559011417322838
20
-4.9603094488188972
11
5.6563420472440944
21
-4.9613738582677165
0
LINE
8
BLACK
6
CONTINUOUS
10
5.6563420472440944
20
-4.9613738582677165
11
5.6563420472440944
21
-4.9625259842519682
0
LINE
8
BLACK
6
CONTINUOUS
10
5.6563420472440944
20
-4.9625259842519682
11
5.6559011417322838
21
-4.9635903937007875
0
LINE
8
BLACK
6
CONTINUOUS
10
5.6559011417322838
20
-4.9635903937007875
11
5.6550864960629923
21
-4.9644050393700789
0
LINE
8
BLACK
6
CONTINUOUS
10
5.6550864960629923
20
-4.9644050393700789
11
5.654022086614173
21
-4.9648459448818896
0
LINE
8
BLACK
6
CONTINUOUS
10
5.654022086614173
20
-4.9648459448818896
11
5.6534460236220472
21
-4.9649026771653544
0
LINE
8
BLACK
6
CONTINUOUS
10
5.6534460236220472
20
-4.9649026771653544
11
5.6253245275590551
21
-4.9649026771653544
0
LINE
8
BLACK
6
CONTINUOUS
10
5.6253245275590551
20
-4.9649026771653544
11
5.6247484645669292
21
-4.9648459448818896
0
LINE
8
BLACK
6
CONTINUOUS
10
5.6247484645669292
20
-4.9648459448818896
11
5.62368405511811
21
-4.9644050393700789
0
LINE
8
BLACK
6
CONTINUOUS
10
5.62368405511811
20
-4.9644050393700789
11
5.6228694094488185
21
-4.9635903937007875
0
LINE
8
BLACK
6
CONTINUOUS
10
5.6228694094488185
20
-4.9635903937007875
11
5.6224285039370079
21
-4.9625259842519682
0
LINE
8
BLACK
6
CONTINUOUS
10
5.6224285039370079
20
-4.9625259842519682
11
5.6224285039370079
21
-4.9625259448818895
0
LINE
8
BLACK
6
CONTINUOUS
10
5.6224285039370079
20
-4.9625259448818895
11
5.6223717716535431
21
-4.9619499212598424
0
LINE
8
BLACK
6
CONTINUOUS
10
5.6223717716535431
20
-4.9619499212598424
11
5.6223717716535431
21
-4.9028948031496062
0
LINE
8
BLACK
6
CONTINUOUS
10
5.6223717716535431
20
-4.9028948031496062
11
5.6224285039370079
21
-4.9023187401574804
0
LINE
8
BLACK
6
CONTINUOUS
10
5.6224285039370079
20
-4.9023187401574804
11
5.6228694094488185
21
-4.9012543307086611
0
LINE
8
BLACK
6
CONTINUOUS
10
5.6228694094488185
20
-4.9012543307086611
11
5.62368405511811
21
-4.9004396850393697
0
LINE
8
BLACK
6
CONTINUOUS
10
5.62368405511811
20
-4.9004396850393697
11
5.6247484645669292
21
-4.899998779527559
0
LINE
8
BLACK
6
CONTINUOUS
10
5.6247484645669292
20
-4.899998779527559
11
5.6253245275590551
21
-4.8999420472440942
0
LINE
8
BLACK
6
CONTINUOUS
10
5.6253245275590551
20
-4.8999420472440942
11
5.6534460236220472
21
-4.8999420472440942
0
LINE
8
BLACK
6
CONTINUOUS
10
5.6534460236220472
20
-4.8999420472440942
11
5.654022086614173
21
-4.899998779527559
0
LINE
8
BLACK
6
CONTINUOUS
10
5.8030659448818893
20
-4.899998779527559
11
5.8031639370078736
21
-4.9000393700787397
0
LINE
8
BLACK
6
CONTINUOUS
10
5.8031639370078736
20
-4.9000393700787397
11
5.8032697637795279
21
-4.9000468897637797
0
LINE
8
BLACK
6
CONTINUOUS
10
5.8032697637795279
20
-4.9000468897637797
11
5.803810393700787
21
-4.9002537795275591
0
LINE
8
BLACK
6
CONTINUOUS
10
5.803810393700787
20
-4.9002537795275591
11
5.8094347244094484
21
-4.9030659448818898
0
LINE
8
BLACK
6
CONTINUOUS
10
5.8094347244094484
20
-4.9030659448818898
11
5.8096827165354332
21
-4.9032220078740156
0
LINE
8
BLACK
6
CONTINUOUS
10
5.8096827165354332
20
-4.9032220078740156
11
5.80975468503937
21
-4.9032518503937004
0
LINE
8
BLACK
6
CONTINUOUS
10
5.80975468503937
20
-4.9032518503937004
11
5.8098356299212597
21
-4.9033183070866144
0
LINE
8
BLACK
6
CONTINUOUS
10
5.8098356299212597
20
-4.9033183070866144
11
5.8099246062992123
21
-4.9033742913385829
0
LINE
8
BLACK
6
CONTINUOUS
10
5.8099246062992123
20
-4.9033742913385829
11
5.809975748031496
21
-4.9034332677165358
0
LINE
8
BLACK
6
CONTINUOUS
10
5.809975748031496
20
-4.9034332677165358
11
5.8102021259842518
21
-4.90361905511811
0
LINE
8
BLACK
6
CONTINUOUS
10
5.8102021259842518
20
-4.90361905511811
11
5.8130142519685037
21
-4.906431181102362
0
LINE
8
BLACK
6
CONTINUOUS
10
5.8130142519685037
20
-4.906431181102362
11
5.8132000787401577
21
-4.9066576377952753
0
LINE
8
BLACK
6
CONTINUOUS
10
5.8132000787401577
20
-4.9066576377952753
11
5.813258976377953
21
-4.9067087007874015
0
LINE
8
BLACK
6
CONTINUOUS
10
5.813258976377953
20
-4.9067087007874015
11
5.8133148425196852
21
-4.9067974409448816
0
LINE
8
BLACK
6
CONTINUOUS
10
5.8133148425196852
20
-4.9067974409448816
11
5.8133814566929134
21
-4.9068786220472438
0
LINE
8
BLACK
6
CONTINUOUS
10
5.8133814566929134
20
-4.9068786220472438
11
5.8134112992125981
21
-4.9069506692913381
0
LINE
8
BLACK
6
CONTINUOUS
10
5.8134112992125981
20
-4.9069506692913381
11
5.8135673622047239
21
-4.9071985826771654
0
LINE
8
BLACK
6
CONTINUOUS
10
5.8135673622047239
20
-4.9071985826771654
11
5.8163795275590546
21
-4.912822874015748
0
LINE
8
BLACK
6
CONTINUOUS
10
5.8163795275590546
20
-4.912822874015748
11
5.8165864173228341
21
-4.9133634645669293
0
LINE
8
BLACK
6
CONTINUOUS
10
5.8165864173228341
20
-4.9133634645669293
11
5.8165939370078741
21
-4.9134693307086614
0
LINE
8
BLACK
6
CONTINUOUS
10
5.8165939370078741
20
-4.9134693307086614
11
5.8166345275590547
21
-4.9135673228346457
0
LINE
8
BLACK
6
CONTINUOUS
10
5.8166345275590547
20
-4.9135673228346457
11
5.8166912598425196
21
-4.9141433858267716
0
LINE
8
BLACK
6
CONTINUOUS
10
5.8166912598425196
20
-4.9141433858267716
11
5.8166912598425196
21
-4.919767716535433
0
LINE
8
BLACK
6
CONTINUOUS
10
5.8166912598425196
20
-4.919767716535433
11
5.816662519685039
21
-4.9200592913385828
0
LINE
8
BLACK
6
CONTINUOUS
10
5.816662519685039
20
-4.9200592913385828
11
5.8166680708661413
21
-4.9201370472440944
0
LINE
8
BLACK
6
CONTINUOUS
10
5.8166680708661413
20
-4.9201370472440944
11
5.8166448031496065
21
-4.9202392913385822
0
LINE
8
BLACK
6
CONTINUOUS
10
5.8166448031496065
20
-4.9202392913385822
11
5.8166345275590547
21
-4.9203437795275589
0
LINE
8
BLACK
6
CONTINUOUS
10
5.8166345275590547
20
-4.9203437795275589
11
5.8166046456692913
21
-4.9204158267716531
0
LINE
8
BLACK
6
CONTINUOUS
10
5.8166046456692913
20
-4.9204158267716531
11
5.8165397244094486
21
-4.9207014960629918
0
LINE
8
BLACK
6
CONTINUOUS
10
5.8165397244094486
20
-4.9207014960629918
11
5.8137275590551178
21
-4.9291378740157477
0
LINE
8
BLACK
6
CONTINUOUS
10
5.8137275590551178
20
-4.9291378740157477
11
5.813491574803149
21
-4.9296664566929129
0
LINE
8
BLACK
6
CONTINUOUS
10
5.813491574803149
20
-4.9296664566929129
11
5.8134220078740153
21
-4.9297466141732285
0
LINE
8
BLACK
6
CONTINUOUS
10
5.8134220078740153
20
-4.9297466141732285
11
5.8133814566929134
21
-4.9298446062992127
0
LINE
8
BLACK
6
CONTINUOUS
10
5.8133814566929134
20
-4.9298446062992127
11
5.8130142519685037
21
-4.9302920472440945
0
LINE
8
BLACK
6
CONTINUOUS
10
5.8130142519685037
20
-4.9302920472440945
11
5.7843091338582679
21
-4.9589971653543303
0
LINE
8
BLACK
6
CONTINUOUS
10
5.7843091338582679
20
-4.9589971653543303
11
5.8137385039370075
21
-4.9589971653543303
0
LINE
8
BLACK
6
CONTINUOUS
10
5.8137385039370075
20
-4.9589971653543303
11
5.8143145669291334
21
-4.9590538976377951
0
LINE
8
BLACK
6
CONTINUOUS
10
5.8143145669291334
20
-4.9590538976377951
11
5.8153789763779526
21
-4.9594948031496058
0
LINE
8
BLACK
6
CONTINUOUS
10
5.8153789763779526
20
-4.9594948031496058
11
5.8161936220472441
21
-4.9603094488188972
0
LINE
8
BLACK
6
CONTINUOUS
10
5.8161936220472441
20
-4.9603094488188972
11
5.8166345275590547
21
-4.9613738582677165
0
LINE
8
BLACK
6
CONTINUOUS
10
5.8166345275590547
20
-4.9613738582677165
11
5.8166345275590547
21
-4.9625259842519682
0
LINE
8
BLACK
6
CONTINUOUS
10
5.8166345275590547
20
-4.9625259842519682
11
5.8161936220472441
21
-4.9635903937007875
0
LINE
8
BLACK
6
CONTINUOUS
10
5.8161936220472441
20
-4.9635903937007875
11
5.8153789763779526
21
-4.9644050393700789
0
LINE
8
BLACK
6
CONTINUOUS
10
5.8153789763779526
20
-4.9644050393700789
11
5.8143145669291334
21
-4.9648459448818896
0
LINE
8
BLACK
6
CONTINUOUS
10
5.8143145669291334
20
-4.9648459448818896
11
5.8137385039370075
21
-4.9649026771653544
0
LINE
8
BLACK
6
CONTINUOUS
10
5.8137385039370075
20
-4.9649026771653544
11
5.7771805511811021
21
-4.9649026771653544
0
LINE
8
BLACK
6
CONTINUOUS
10
5.7771805511811021
20
-4.9649026771653544
11
5.7766044881889762
21
-4.9648459448818896
0
LINE
8
BLACK
6
CONTINUOUS
10
5.7766044881889762
20
-4.9648459448818896
11
5.775540078740157
21
-4.9644050393700789
0
LINE
8
BLACK
6
CONTINUOUS
10
5.775540078740157
20
-4.9644050393700789
11
5.7747254330708664
21
-4.9635903937007875
0
LINE
8
BLACK
6
CONTINUOUS
10
5.7747254330708664
20
-4.9635903937007875
11
5.7742845275590549
21
-4.9625259842519682
0
LINE
8
BLACK
6
CONTINUOUS
10
5.7742845275590549
20
-4.9625259842519682
11
5.7742845275590549
21
-4.9613738582677165
0
LINE
8
BLACK
6
CONTINUOUS
10
5.7742845275590549
20
-4.9613738582677165
11
5.7747254330708664
21
-4.9603094488188972
0
LINE
8
BLACK
6
CONTINUOUS
10
5.7747254330708664
20
-4.9603094488188972
11
5.7750926377952752
21
-4.9598620078740154
0
LINE
8
BLACK
6
CONTINUOUS
10
5.7750926377952752
20
-4.9598620078740154
11
5.8083455511811026
21
-4.9266090551181101
0
LINE
8
BLACK
6
CONTINUOUS
10
5.8083455511811026
20
-4.9266090551181101
11
5.8107857480314955
21
-4.9192885433070863
0
LINE
8
BLACK
6
CONTINUOUS
10
5.8107857480314955
20
-4.9192885433070863
11
5.8107857480314955
21
-4.9148404330708662
0
LINE
8
BLACK
6
CONTINUOUS
10
5.8107857480314955
20
-4.9148404330708662
11
5.808499606299212
21
-4.910268188976378
0
LINE
8
BLACK
6
CONTINUOUS
10
5.808499606299212
20
-4.910268188976378
11
5.8063651181102358
21
-4.9081337007874017
0
LINE
8
BLACK
6
CONTINUOUS
10
5.8063651181102358
20
-4.9081337007874017
11
5.8017928346456689
21
-4.9058475590551183
0
LINE
8
BLACK
6
CONTINUOUS
10
5.8017928346456689
20
-4.9058475590551183
11
5.7891262204724407
21
-4.9058475590551183
0
LINE
8
BLACK
6
CONTINUOUS
10
5.7891262204724407
20
-4.9058475590551183
11
5.7845539370078738
21
-4.9081337007874017
0
LINE
8
BLACK
6
CONTINUOUS
10
5.7845539370078738
20
-4.9081337007874017
11
5.7820806299212597
21
-4.9106070078740158
0
LINE
8
BLACK
6
CONTINUOUS
10
5.7820806299212597
20
-4.9106070078740158
11
5.7816331889763779
21
-4.9109742125984255
0
LINE
8
BLACK
6
CONTINUOUS
10
5.7816331889763779
20
-4.9109742125984255
11
5.7805687401574799
21
-4.9114151181102361
0
LINE
8
BLACK
6
CONTINUOUS
10
5.7805687401574799
20
-4.9114151181102361
11
5.7794166929133857
21
-4.9114151181102361
0
LINE
8
BLACK
6
CONTINUOUS
10
5.7794166929133857
20
-4.9114151181102361
11
5.7783522440944877
21
-4.9109742125984255
0
LINE
8
BLACK
6
CONTINUOUS
10
5.7783522440944877
20
-4.9109742125984255
11
5.7775375984251971
21
-4.910159566929134
0
LINE
8
BLACK
6
CONTINUOUS
10
5.7775375984251971
20
-4.910159566929134
11
5.7770966929133856
21
-4.909095118110236
0
LINE
8
BLACK
6
CONTINUOUS
10
5.7770966929133856
20
-4.909095118110236
11
5.7770966929133856
21
-4.9079430708661418
0
LINE
8
BLACK
6
CONTINUOUS
10
5.7770966929133856
20
-4.9079430708661418
11
5.7775375984251971
21
-4.9068786220472438
0
LINE
8
BLACK
6
CONTINUOUS
10
5.7775375984251971
20
-4.9068786220472438
11
5.7779048031496059
21
-4.906431181102362
0
LINE
8
BLACK
6
CONTINUOUS
10
5.7779048031496059
20
-4.906431181102362
11
5.7807169291338578
21
-4.90361905511811
0
LINE
8
BLACK
6
CONTINUOUS
10
5.7807169291338578
20
-4.90361905511811
11
5.7809432677165349
21
-4.9034332677165358
0
LINE
8
BLACK
6
CONTINUOUS
10
5.7809432677165349
20
-4.9034332677165358
11
5.7809944488188973
21
-4.9033742913385829
0
LINE
8
BLACK
6
CONTINUOUS
10
5.7809944488188973
20
-4.9033742913385829
11
5.7810833858267712
21
-4.9033183070866144
0
LINE
8
BLACK
6
CONTINUOUS
10
5.7810833858267712
20
-4.9033183070866144
11
5.7811643700787396
21
-4.9032518503937004
0
LINE
8
BLACK
6
CONTINUOUS
10
5.7811643700787396
20
-4.9032518503937004
11
5.7812362992125985
21
-4.9032220078740156
0
LINE
8
BLACK
6
CONTINUOUS
10
5.7812362992125985
20
-4.9032220078740156
11
5.7814843307086612
21
-4.9030659448818898
0
LINE
8
BLACK
6
CONTINUOUS
10
5.7814843307086612
20
-4.9030659448818898
11
5.7871086614173226
21
-4.9002537795275591
0
LINE
8
BLACK
6
CONTINUOUS
10
5.7871086614173226
20
-4.9002537795275591
11
5.7876492913385826
21
-4.9000468897637797
0
LINE
8
BLACK
6
CONTINUOUS
10
5.7876492913385826
20
-4.9000468897637797
11
5.7877550787401573
21
-4.9000393700787397
0
LINE
8
BLACK
6
CONTINUOUS
10
5.7877550787401573
20
-4.9000393700787397
11
5.7878531102362203
21
-4.899998779527559
0
LINE
8
BLACK
6
CONTINUOUS
10
5.7878531102362203
20
-4.899998779527559
11
5.7884291732283462
21
-4.8999420472440942
0
LINE
8
BLACK
6
CONTINUOUS
10
5.7884291732283462
20
-4.8999420472440942
11
5.8024898818897634
21
-4.8999420472440942
0
LINE
8
BLACK
6
CONTINUOUS
10
5.8024898818897634
20
-4.8999420472440942
11
5.8030659448818893
21
-4.899998779527559
0
LINE
8
BLACK
6
CONTINUOUS
10
5.9043033070866144
20
-4.899998779527559
11
5.90440125984252
21
-4.9000393307086609
0
LINE
8
BLACK
6
CONTINUOUS
10
5.90440125984252
20
-4.9000393307086609
11
5.9045071653543308
21
-4.9000468897637797
0
LINE
8
BLACK
6
CONTINUOUS
10
5.9045071653543308
20
-4.9000468897637797
11
5.9050477559055121
21
-4.9002537795275591
0
LINE
8
BLACK
6
CONTINUOUS
10
5.9050477559055121
20
-4.9002537795275591
11
5.9106720472440948
21
-4.9030659448818898
0
LINE
8
BLACK
6
CONTINUOUS
10
5.9106720472440948
20
-4.9030659448818898
11
5.9109199212598424
21
-4.9032219685039369
0
LINE
8
BLACK
6
CONTINUOUS
10
5.9109199212598424
20
-4.9032219685039369
11
5.9109919685039367
21
-4.9032518110236216
0
LINE
8
BLACK
6
CONTINUOUS
10
5.9109919685039367
20
-4.9032518110236216
11
5.9110729921259839
21
-4.9033183070866144
0
LINE
8
BLACK
6
CONTINUOUS
10
5.9110729921259839
20
-4.9033183070866144
11
5.9111619291338577
21
-4.9033742913385829
0
LINE
8
BLACK
6
CONTINUOUS
10
5.9111619291338577
20
-4.9033742913385829
11
5.9112130708661415
21
-4.9034332677165358
0
LINE
8
BLACK
6
CONTINUOUS
10
5.9112130708661415
20
-4.9034332677165358
11
5.9114394488188973
21
-4.90361905511811
0
LINE
8
BLACK
6
CONTINUOUS
10
5.9114394488188973
20
-4.90361905511811
11
5.914251614173228
21
-4.906431181102362
0
LINE
8
BLACK
6
CONTINUOUS
10
5.914251614173228
20
-4.906431181102362
11
5.9144373622047244
21
-4.906657519685039
0
LINE
8
BLACK
6
CONTINUOUS
10
5.9144373622047244
20
-4.906657519685039
11
5.914496377952756
21
-4.9067087007874015
0
LINE
8
BLACK
6
CONTINUOUS
10
5.914496377952756
20
-4.9067087007874015
11
5.9145523228346457
21
-4.9067976377952753
0
LINE
8
BLACK
6
CONTINUOUS
10
5.9145523228346457
20
-4.9067976377952753
11
5.9146188188976376
21
-4.9068786220472438
0
LINE
8
BLACK
6
CONTINUOUS
10
5.9146188188976376
20
-4.9068786220472438
11
5.9146486220472436
21
-4.9069505511811027
0
LINE
8
BLACK
6
CONTINUOUS
10
5.9146486220472436
20
-4.9069505511811027
11
5.914804724409449
21
-4.9071985826771654
0
LINE
8
BLACK
6
CONTINUOUS
10
5.914804724409449
20
-4.9071985826771654
11
5.917616850393701
21
-4.912822874015748
0
LINE
8
BLACK
6
CONTINUOUS
10
5.917616850393701
20
-4.912822874015748
11
5.9176329527559055
21
-4.9128649606299213
0
LINE
8
BLACK
6
CONTINUOUS
10
5.9176329527559055
20
-4.9128649606299213
11
5.9176456692913382
21
-4.9128821259842521
0
LINE
8
BLACK
6
CONTINUOUS
10
5.9176456692913382
20
-4.9128821259842521
11
5.9177320866141727
21
-4.9131240551181099
0
LINE
8
BLACK
6
CONTINUOUS
10
5.9177320866141727
20
-4.9131240551181099
11
5.9178237401574805
21
-4.913363503937008
0
LINE
8
BLACK
6
CONTINUOUS
10
5.9178237401574805
20
-4.913363503937008
11
5.9178252362204722
21
-4.9133847244094486
0
LINE
8
BLACK
6
CONTINUOUS
10
5.9178252362204722
20
-4.9133847244094486
11
5.9178404330708663
21
-4.9134272440944882
0
LINE
8
BLACK
6
CONTINUOUS
10
5.9178404330708663
20
-4.9134272440944882
11
5.920652598425197
21
-4.9246758267716535
0
LINE
8
BLACK
6
CONTINUOUS
10
5.920652598425197
20
-4.9246758267716535
11
5.9206673622047239
21
-4.9247757480314958
0
LINE
8
BLACK
6
CONTINUOUS
10
5.9206673622047239
20
-4.9247757480314958
11
5.9206840157480309
21
-4.9248159448818898
0
LINE
8
BLACK
6
CONTINUOUS
10
5.9206840157480309
20
-4.9248159448818898
11
5.9207053543307087
21
-4.9250329133858264
0
LINE
8
BLACK
6
CONTINUOUS
10
5.9207053543307087
20
-4.9250329133858264
11
5.9207372440944877
21
-4.9252484645669288
0
LINE
8
BLACK
6
CONTINUOUS
10
5.9207372440944877
20
-4.9252484645669288
11
5.9207308267716536
21
-4.9252914566929133
0
LINE
8
BLACK
6
CONTINUOUS
10
5.9207308267716536
20
-4.9252914566929133
11
5.9207407480314957
21
-4.9253920078740157
0
LINE
8
BLACK
6
CONTINUOUS
10
5.9207407480314957
20
-4.9253920078740157
11
5.9207407480314957
21
-4.9394527559055117
0
LINE
8
BLACK
6
CONTINUOUS
10
5.9207407480314957
20
-4.9394527559055117
11
5.9207308267716536
21
-4.9395532677165352
0
LINE
8
BLACK
6
CONTINUOUS
10
5.9207308267716536
20
-4.9395532677165352
11
5.9207372440944877
21
-4.9395962992125986
0
LINE
8
BLACK
6
CONTINUOUS
10
5.9207372440944877
20
-4.9395962992125986
11
5.9207053543307087
21
-4.9398118110236222
0
LINE
8
BLACK
6
CONTINUOUS
10
5.9207053543307087
20
-4.9398118110236222
11
5.9206840157480309
21
-4.9400288188976376
0
LINE
8
BLACK
6
CONTINUOUS
10
5.9206840157480309
20
-4.9400288188976376
11
5.9206673622047239
21
-4.9400689763779528
0
LINE
8
BLACK
6
CONTINUOUS
10
5.9206673622047239
20
-4.9400689763779528
11
5.920652598425197
21
-4.9401689370078739
0
LINE
8
BLACK
6
CONTINUOUS
10
5.920652598425197
20
-4.9401689370078739
11
5.9178404330708663
21
-4.9514174803149604
0
LINE
8
BLACK
6
CONTINUOUS
10
5.9178404330708663
20
-4.9514174803149604
11
5.9178252362204722
21
-4.9514599606299212
0
LINE
8
BLACK
6
CONTINUOUS
10
5.9178252362204722
20
-4.9514599606299212
11
5.9178237401574805
21
-4.9514812204724405
0
LINE
8
BLACK
6
CONTINUOUS
10
5.9178237401574805
20
-4.9514812204724405
11
5.9177320866141727
21
-4.9517206299212599
0
LINE
8
BLACK
6
CONTINUOUS
10
5.9177320866141727
20
-4.9517206299212599
11
5.9176456692913382
21
-4.9519625984251965
0
LINE
8
BLACK
6
CONTINUOUS
10
5.9176456692913382
20
-4.9519625984251965
11
5.9176329527559055
21
-4.9519797244094486
0
LINE
8
BLACK
6
CONTINUOUS
10
5.9176329527559055
20
-4.9519797244094486
11
5.917616850393701
21
-4.9520218503937006
0
LINE
8
BLACK
6
CONTINUOUS
10
5.917616850393701
20
-4.9520218503937006
11
5.914804724409449
21
-4.9576461417322832
0
LINE
8
BLACK
6
CONTINUOUS
10
5.914804724409449
20
-4.9576461417322832
11
5.9146487007874011
21
-4.9578939370078743
0
LINE
8
BLACK
6
CONTINUOUS
10
5.9146487007874011
20
-4.9578939370078743
11
5.9146188582677164
21
-4.9579661023622048
0
LINE
8
BLACK
6
CONTINUOUS
10
5.9146188582677164
20
-4.9579661023622048
11
5.9145522440944882
21
-4.9580472440944883
0
LINE
8
BLACK
6
CONTINUOUS
10
5.9145522440944882
20
-4.9580472440944883
11
5.914496377952756
21
-4.9581360236220471
0
LINE
8
BLACK
6
CONTINUOUS
10
5.914496377952756
20
-4.9581360236220471
11
5.9144374409448819
21
-4.958187125984252
0
LINE
8
BLACK
6
CONTINUOUS
10
5.9144374409448819
20
-4.958187125984252
11
5.914251614173228
21
-4.9584135433070866
0
LINE
8
BLACK
6
CONTINUOUS
10
5.914251614173228
20
-4.9584135433070866
11
5.9114394488188973
21
-4.9612257086614173
0
LINE
8
BLACK
6
CONTINUOUS
10
5.9114394488188973
20
-4.9612257086614173
11
5.9112130708661415
21
-4.9614114566929128
0
LINE
8
BLACK
6
CONTINUOUS
10
5.9112130708661415
20
-4.9614114566929128
11
5.9111619291338577
21
-4.9614704724409444
0
LINE
8
BLACK
6
CONTINUOUS
10
5.9111619291338577
20
-4.9614704724409444
11
5.9110729527559052
21
-4.9615264173228342
0
LINE
8
BLACK
6
CONTINUOUS
10
5.9110729527559052
20
-4.9615264173228342
11
5.9109920078740155
21
-4.961592913385827
0
LINE
8
BLACK
6
CONTINUOUS
10
5.9109920078740155
20
-4.961592913385827
11
5.9109200393700787
21
-4.961622716535433
0
LINE
8
BLACK
6
CONTINUOUS
10
5.9109200393700787
20
-4.961622716535433
11
5.9106720472440948
21
-4.9617788188976375
0
LINE
8
BLACK
6
CONTINUOUS
10
5.9106720472440948
20
-4.9617788188976375
11
5.9050477559055121
21
-4.9645909448818895
0
LINE
8
BLACK
6
CONTINUOUS
10
5.9050477559055121
20
-4.9645909448818895
11
5.9045071259842521
21
-4.9647978346456689
0
LINE
8
BLACK
6
CONTINUOUS
10
5.9045071259842521
20
-4.9647978346456689
11
5.9044012992125987
21
-4.9648053149606302
0
LINE
8
BLACK
6
CONTINUOUS
10
5.9044012992125987
20
-4.9648053149606302
11
5.9043033070866144
21
-4.9648459448818896
0
LINE
8
BLACK
6
CONTINUOUS
10
5.9043033070866144
20
-4.9648459448818896
11
5.9037272440944877
21
-4.9649026771653544
0
LINE
8
BLACK
6
CONTINUOUS
10
5.9037272440944877
20
-4.9649026771653544
11
5.898102952755905
21
-4.9649026771653544
0
LINE
8
BLACK
6
CONTINUOUS
10
5.898102952755905
20
-4.9649026771653544
11
5.8975268897637791
21
-4.9648459448818896
0
LINE
8
BLACK
6
CONTINUOUS
10
5.8975268897637791
20
-4.9648459448818896
11
5.8974288582677161
21
-4.9648053149606302
0
LINE
8
BLACK
6
CONTINUOUS
10
5.8974288582677161
20
-4.9648053149606302
11
5.8973230708661415
21
-4.9647978346456689
0
LINE
8
BLACK
6
CONTINUOUS
10
5.8973230708661415
20
-4.9647978346456689
11
5.8967824409448815
21
-4.9645909448818895
0
LINE
8
BLACK
6
CONTINUOUS
10
5.8967824409448815
20
-4.9645909448818895
11
5.8911581496062988
21
-4.9617788188976375
0
LINE
8
BLACK
6
CONTINUOUS
10
5.8911581496062988
20
-4.9617788188976375
11
5.8909103149606299
21
-4.9616227952755905
0
LINE
8
BLACK
6
CONTINUOUS
10
5.8909103149606299
20
-4.9616227952755905
11
5.8908381889763781
21
-4.9615929527559057
0
LINE
8
BLACK
6
CONTINUOUS
10
5.8908381889763781
20
-4.9615929527559057
11
5.8907570078740159
21
-4.9615263385826767
0
LINE
8
BLACK
6
CONTINUOUS
10
5.8907570078740159
20
-4.9615263385826767
11
5.890668267716535
21
-4.9614704724409444
0
LINE
8
BLACK
6
CONTINUOUS
10
5.890668267716535
20
-4.9614704724409444
11
5.8906171259842521
21
-4.9614115354330703
0
LINE
8
BLACK
6
CONTINUOUS
10
5.8906171259842521
20
-4.9614115354330703
11
5.8903907480314963
21
-4.9612257086614173
0
LINE
8
BLACK
6
CONTINUOUS
10
5.8903907480314963
20
-4.9612257086614173
11
5.8875785826771656
21
-4.9584135433070866
0
LINE
8
BLACK
6
CONTINUOUS
10
5.8875785826771656
20
-4.9584135433070866
11
5.8873927952755905
21
-4.9581871653543308
0
LINE
8
BLACK
6
CONTINUOUS
10
5.8873927952755905
20
-4.9581871653543308
11
5.8873338188976376
21
-4.9581360236220471
0
LINE
8
BLACK
6
CONTINUOUS
10
5.8873338188976376
20
-4.9581360236220471
11
5.8872778346456691
21
-4.9580470472440945
0
LINE
8
BLACK
6
CONTINUOUS
10
5.8872778346456691
20
-4.9580470472440945
11
5.887211377952756
21
-4.9579661023622048
0
LINE
8
BLACK
6
CONTINUOUS
10
5.887211377952756
20
-4.9579661023622048
11
5.8871815354330703
21
-4.9578941338582672
0
LINE
8
BLACK
6
CONTINUOUS
10
5.8871815354330703
20
-4.9578941338582672
11
5.8870254724409445
21
-4.9576461417322832
0
LINE
8
BLACK
6
CONTINUOUS
10
5.8870254724409445
20
-4.9576461417322832
11
5.8842133070866138
21
-4.9520218503937006
0
LINE
8
BLACK
6
CONTINUOUS
10
5.8842133070866138
20
-4.9520218503937006
11
5.8841971653543306
21
-4.9519797244094486
0
LINE
8
BLACK
6
CONTINUOUS
10
5.8841971653543306
20
-4.9519797244094486
11
5.8841844881889767
21
-4.9519625984251965
0
LINE
8
BLACK
6
CONTINUOUS
10
5.8841844881889767
20
-4.9519625984251965
11
5.8840981496062987
21
-4.9517209842519687
0
LINE
8
BLACK
6
CONTINUOUS
10
5.8840981496062987
20
-4.9517209842519687
11
5.8840064173228344
21
-4.9514812598425193
0
LINE
8
BLACK
6
CONTINUOUS
10
5.8840064173228344
20
-4.9514812598425193
11
5.8840048818897639
21
-4.9514599606299212
0
LINE
8
BLACK
6
CONTINUOUS
10
5.8840048818897639
20
-4.9514599606299212
11
5.8839897244094486
21
-4.9514174803149604
0
LINE
8
BLACK
6
CONTINUOUS
10
5.8839897244094486
20
-4.9514174803149604
11
5.8811775984251966
21
-4.9401688976377951
0
LINE
8
BLACK
6
CONTINUOUS
10
5.8811775984251966
20
-4.9401688976377951
11
5.8811628346456688
21
-4.9400690157480316
0
LINE
8
BLACK
6
CONTINUOUS
10
5.8811628346456688
20
-4.9400690157480316
11
5.8811461811023618
21
-4.9400288188976376
0
LINE
8
BLACK
6
CONTINUOUS
10
5.8811461811023618
20
-4.9400288188976376
11
5.8811247637795274
21
-4.939811692913386
0
LINE
8
BLACK
6
CONTINUOUS
10
5.8811247637795274
20
-4.939811692913386
11
5.881092952755905
21
-4.9395962598425198
0
LINE
8
BLACK
6
CONTINUOUS
10
5.881092952755905
20
-4.9395962598425198
11
5.8810993307086612
21
-4.9395532677165352
0
LINE
8
BLACK
6
CONTINUOUS
10
5.8810993307086612
20
-4.9395532677165352
11
5.8810894488188978
21
-4.9394527559055117
0
LINE
8
BLACK
6
CONTINUOUS
10
5.8810894488188978
20
-4.9394527559055117
11
5.8810894488188978
21
-4.9253920078740157
0
LINE
8
BLACK
6
CONTINUOUS
10
5.8810894488188978
20
-4.9253920078740157
11
5.8810993307086612
21
-4.9252916141732284
0
LINE
8
BLACK
6
CONTINUOUS
10
5.8810993307086612
20
-4.9252916141732284
11
5.8810929133858263
21
-4.9252485039370075
0
LINE
8
BLACK
6
CONTINUOUS
10
5.8810929133858263
20
-4.9252485039370075
11
5.8811248425196849
21
-4.9250325590551176
0
LINE
8
BLACK
6
CONTINUOUS
10
5.8811248425196849
20
-4.9250325590551176
11
5.8811461811023618
21
-4.9248159448818898
0
LINE
8
BLACK
6
CONTINUOUS
10
5.8811461811023618
20
-4.9248159448818898
11
5.88116279527559
21
-4.9247757480314958
0
LINE
8
BLACK
6
CONTINUOUS
10
5.88116279527559
20
-4.9247757480314958
11
5.8811775984251966
21
-4.9246758661417323
0
LINE
8
BLACK
6
CONTINUOUS
10
5.8811775984251966
20
-4.9246758661417323
11
5.8839897244094486
21
-4.9134272440944882
0
LINE
8
BLACK
6
CONTINUOUS
10
5.8839897244094486
20
-4.9134272440944882
11
5.8840048818897639
21
-4.9133847244094486
0
LINE
8
BLACK
6
CONTINUOUS
10
5.8840048818897639
20
-4.9133847244094486
11
5.8840064173228344
21
-4.9133634645669293
0
LINE
8
BLACK
6
CONTINUOUS
10
5.8840064173228344
20
-4.9133634645669293
11
5.8840981496062987
21
-4.9131237007874011
0
LINE
8
BLACK
6
CONTINUOUS
10
5.8840981496062987
20
-4.9131237007874011
11
5.8841844881889767
21
-4.9128821259842521
0
LINE
8
BLACK
6
CONTINUOUS
10
5.8841844881889767
20
-4.9128821259842521
11
5.8841971653543306
21
-4.9128649606299213
0
LINE
8
BLACK
6
CONTINUOUS
10
5.8841971653543306
20
-4.9128649606299213
11
5.8842133070866138
21
-4.912822874015748
0
LINE
8
BLACK
6
CONTINUOUS
10
5.8842133070866138
20
-4.912822874015748
11
5.8870254724409445
21
-4.9071985826771654
0
LINE
8
BLACK
6
CONTINUOUS
10
5.8870254724409445
20
-4.9071985826771654
11
5.8871815354330703
21
-4.9069505511811027
0
LINE
8
BLACK
6
CONTINUOUS
10
5.8871815354330703
20
-4.9069505511811027
11
5.887211377952756
21
-4.9068786220472438
0
LINE
8
BLACK
6
CONTINUOUS
10
5.887211377952756
20
-4.9068786220472438
11
5.8872778346456691
21
-4.9067976377952753
0
LINE
8
BLACK
6
CONTINUOUS
10
5.8872778346456691
20
-4.9067976377952753
11
5.8873338188976376
21
-4.9067087007874015
0
LINE
8
BLACK
6
CONTINUOUS
10
5.8873338188976376
20
-4.9067087007874015
11
5.8873927952755905
21
-4.906657519685039
0
LINE
8
BLACK
6
CONTINUOUS
10
5.8873927952755905
20
-4.906657519685039
11
5.8875785826771656
21
-4.906431181102362
0
LINE
8
BLACK
6
CONTINUOUS
10
5.8875785826771656
20
-4.906431181102362
11
5.8903907480314963
21
-4.90361905511811
0
LINE
8
BLACK
6
CONTINUOUS
10
5.8903907480314963
20
-4.90361905511811
11
5.8906172047244096
21
-4.9034331889763783
0
LINE
8
BLACK
6
CONTINUOUS
10
5.8906172047244096
20
-4.9034331889763783
11
5.890668267716535
21
-4.9033743307086617
0
LINE
8
BLACK
6
CONTINUOUS
10
5.890668267716535
20
-4.9033743307086617
11
5.8907570078740159
21
-4.9033184645669294
0
LINE
8
BLACK
6
CONTINUOUS
10
5.8907570078740159
20
-4.9033184645669294
11
5.8908382283464569
21
-4.9032518110236216
0
LINE
8
BLACK
6
CONTINUOUS
10
5.8908382283464569
20
-4.9032518110236216
11
5.8909103149606299
21
-4.9032219291338581
0
LINE
8
BLACK
6
CONTINUOUS
10
5.8909103149606299
20
-4.9032219291338581
11
5.8911581496062988
21
-4.9030659448818898
0
LINE
8
BLACK
6
CONTINUOUS
10
5.8911581496062988
20
-4.9030659448818898
11
5.8967824409448815
21
-4.9002537795275591
0
LINE
8
BLACK
6
CONTINUOUS
10
5.8967824409448815
20
-4.9002537795275591
11
5.8973230314960627
21
-4.9000468897637797
0
LINE
8
BLACK
6
CONTINUOUS
10
5.8973230314960627
20
-4.9000468897637797
11
5.8974288976377949
21
-4.9000393307086609
0
LINE
8
BLACK
6
CONTINUOUS
10
5.8974288976377949
20
-4.9000393307086609
11
5.8975268897637791
21
-4.899998779527559
0
LINE
8
BLACK
6
CONTINUOUS
10
5.8975268897637791
20
-4.899998779527559
11
5.898102952755905
21
-4.8999420472440942
0
LINE
8
BLACK
6
CONTINUOUS
10
5.898102952755905
20
-4.8999420472440942
11
5.9037272440944877
21
-4.8999420472440942
0
LINE
8
BLACK
6
CONTINUOUS
10
5.9037272440944877
20
-4.8999420472440942
11
5.9043033070866144
21
-4.899998779527559
0
LINE
8
BLACK
6
CONTINUOUS
10
5.8942277165354326
20
-4.9081337007874017
11
5.8920931889763777
21
-4.910268188976378
0
LINE
8
BLACK
6
CONTINUOUS
10
5.8920931889763777
20
-4.910268188976378
11
5.88964031496063
21
-4.9151739370078742
0
LINE
8
BLACK
6
CONTINUOUS
10
5.88964031496063
20
-4.9151739370078742
11
5.886994960629921
21
-4.9257555118110234
0
LINE
8
BLACK
6
CONTINUOUS
10
5.886994960629921
20
-4.9257555118110234
11
5.886994960629921
21
-4.9390892125984251
0
LINE
8
BLACK
6
CONTINUOUS
10
5.886994960629921
20
-4.9390892125984251
11
5.88964031496063
21
-4.9496707480314956
0
LINE
8
BLACK
6
CONTINUOUS
10
5.88964031496063
20
-4.9496707480314956
11
5.8920931889763777
21
-4.9545764960629919
0
LINE
8
BLACK
6
CONTINUOUS
10
5.8920931889763777
20
-4.9545764960629919
11
5.8942277165354326
21
-4.9567110236220469
0
LINE
8
BLACK
6
CONTINUOUS
10
5.8942277165354326
20
-4.9567110236220469
11
5.8987999999999996
21
-4.9589971653543303
0
LINE
8
BLACK
6
CONTINUOUS
10
5.8987999999999996
20
-4.9589971653543303
11
5.903030196850394
21
-4.9589971653543303
0
LINE
8
BLACK
6
CONTINUOUS
10
5.903030196850394
20
-4.9589971653543303
11
5.9076024409448822
21
-4.9567110236220469
0
LINE
8
BLACK
6
CONTINUOUS
10
5.9076024409448822
20
-4.9567110236220469
11
5.9097369291338584
21
-4.9545765354330706
0
LINE
8
BLACK
6
CONTINUOUS
10
5.9097369291338584
20
-4.9545765354330706
11
5.9121898031496061
21
-4.9496707874015744
0
LINE
8
BLACK
6
CONTINUOUS
10
5.9121898031496061
20
-4.9496707874015744
11
5.9148352362204726
21
-4.9390891732283464
0
LINE
8
BLACK
6
CONTINUOUS
10
5.9148352362204726
20
-4.9390891732283464
11
5.9148352362204726
21
-4.9257555511811022
0
LINE
8
BLACK
6
CONTINUOUS
10
5.9148352362204726
20
-4.9257555511811022
11
5.9121898031496061
21
-4.9151738976377954
0
LINE
8
BLACK
6
CONTINUOUS
10
5.9121898031496061
20
-4.9151738976377954
11
5.9097369685039371
21
-4.910268188976378
0
LINE
8
BLACK
6
CONTINUOUS
10
5.9097369685039371
20
-4.910268188976378
11
5.9076024409448822
21
-4.9081337007874017
0
LINE
8
BLACK
6
CONTINUOUS
10
5.9076024409448822
20
-4.9081337007874017
11
5.903030196850394
21
-4.9058475590551183
0
LINE
8
BLACK
6
CONTINUOUS
10
5.903030196850394
20
-4.9058475590551183
11
5.8987999999999996
21
-4.9058475590551183
0
LINE
8
BLACK
6
CONTINUOUS
10
5.8987999999999996
20
-4.9058475590551183
11
5.8942277165354326
21
-4.9081337007874017
0
LINE
8
BLACK
6
CONTINUOUS
10
5.9689827165354332
20
-4.899998779527559
11
5.9700471259842516
21
-4.9004396850393697
0
LINE
8
BLACK
6
CONTINUOUS
10
5.9700471259842516
20
-4.9004396850393697
11
5.970861771653543
21
-4.9012543307086611
0
LINE
8
BLACK
6
CONTINUOUS
10
5.970861771653543
20
-4.9012543307086611
11
5.9713026771653546
21
-4.9023187401574804
0
LINE
8
BLACK
6
CONTINUOUS
10
5.9713026771653546
20
-4.9023187401574804
11
5.9713026771653546
21
-4.9034708661417321
0
LINE
8
BLACK
6
CONTINUOUS
10
5.9713026771653546
20
-4.9034708661417321
11
5.970861771653543
21
-4.9045352755905514
0
LINE
8
BLACK
6
CONTINUOUS
10
5.970861771653543
20
-4.9045352755905514
11
5.9700471259842516
21
-4.9053499212598428
0
LINE
8
BLACK
6
CONTINUOUS
10
5.9700471259842516
20
-4.9053499212598428
11
5.9689827165354332
21
-4.9057908267716535
0
LINE
8
BLACK
6
CONTINUOUS
10
5.9689827165354332
20
-4.9057908267716535
11
5.9684066535433073
21
-4.9058475590551183
0
LINE
8
BLACK
6
CONTINUOUS
10
5.9684066535433073
20
-4.9058475590551183
11
5.957855078740157
21
-4.9058475590551183
0
LINE
8
BLACK
6
CONTINUOUS
10
5.957855078740157
20
-4.9058475590551183
11
5.9532828346456688
21
-4.908133661417323
0
LINE
8
BLACK
6
CONTINUOUS
10
5.9532828346456688
20
-4.908133661417323
11
5.9510162992125979
21
-4.9104001968503939
0
LINE
8
BLACK
6
CONTINUOUS
10
5.9510162992125979
20
-4.9104001968503939
11
5.9458378346456691
21
-4.9181679133858269
0
LINE
8
BLACK
6
CONTINUOUS
10
5.9458378346456691
20
-4.9181679133858269
11
5.9438583070866144
21
-4.9260860236220472
0
LINE
8
BLACK
6
CONTINUOUS
10
5.9438583070866144
20
-4.9260860236220472
11
5.9440479133858268
21
-4.9259303543307089
0
LINE
8
BLACK
6
CONTINUOUS
10
5.9440479133858268
20
-4.9259303543307089
11
5.9440990551181105
21
-4.9258714566929136
0
LINE
8
BLACK
6
CONTINUOUS
10
5.9440990551181105
20
-4.9258714566929136
11
5.9441877952755906
21
-4.9258155511811026
0
LINE
8
BLACK
6
CONTINUOUS
10
5.9441877952755906
20
-4.9258155511811026
11
5.9442689763779528
21
-4.9257489763779523
0
LINE
8
BLACK
6
CONTINUOUS
10
5.9442689763779528
20
-4.9257489763779523
11
5.9443411023622046
21
-4.9257190944881888
0
LINE
8
BLACK
6
CONTINUOUS
10
5.9443411023622046
20
-4.9257190944881888
11
5.9445889370078735
21
-4.9255631102362205
0
LINE
8
BLACK
6
CONTINUOUS
10
5.9445889370078735
20
-4.9255631102362205
11
5.9502132283464562
21
-4.9227509842519686
0
LINE
8
BLACK
6
CONTINUOUS
10
5.9502132283464562
20
-4.9227509842519686
11
5.9507538582677162
21
-4.9225440944881891
0
LINE
8
BLACK
6
CONTINUOUS
10
5.9507538582677162
20
-4.9225440944881891
11
5.9508596456692908
21
-4.9225365748031491
0
LINE
8
BLACK
6
CONTINUOUS
10
5.9508596456692908
20
-4.9225365748031491
11
5.9509576771653538
21
-4.9224959842519684
0
LINE
8
BLACK
6
CONTINUOUS
10
5.9509576771653538
20
-4.9224959842519684
11
5.9515337401574806
21
-4.9224392519685036
0
LINE
8
BLACK
6
CONTINUOUS
10
5.9515337401574806
20
-4.9224392519685036
11
5.9627823228346459
21
-4.9224392519685036
0
LINE
8
BLACK
6
CONTINUOUS
10
5.9627823228346459
20
-4.9224392519685036
11
5.9633583858267718
21
-4.9224959842519684
0
LINE
8
BLACK
6
CONTINUOUS
10
5.9633583858267718
20
-4.9224959842519684
11
5.9634563779527561
21
-4.9225365748031491
0
LINE
8
BLACK
6
CONTINUOUS
10
5.9634563779527561
20
-4.9225365748031491
11
5.9635622047244095
21
-4.9225440944881891
0
LINE
8
BLACK
6
CONTINUOUS
10
5.9635622047244095
20
-4.9225440944881891
11
5.9641028346456695
21
-4.9227509842519686
0
LINE
8
BLACK
6
CONTINUOUS
10
5.9641028346456695
20
-4.9227509842519686
11
5.9697271653543309
21
-4.9255631102362205
0
LINE
8
BLACK
6
CONTINUOUS
10
5.9697271653543309
20
-4.9255631102362205
11
5.9699751574803148
21
-4.9257191732283463
0
LINE
8
BLACK
6
CONTINUOUS
10
5.9699751574803148
20
-4.9257191732283463
11
5.9700471259842516
21
-4.925749015748031
0
LINE
8
BLACK
6
CONTINUOUS
10
5.9700471259842516
20
-4.925749015748031
11
5.9701280708661413
21
-4.9258154724409451
0
LINE
8
BLACK
6
CONTINUOUS
10
5.9701280708661413
20
-4.9258154724409451
11
5.9702170472440947
21
-4.9258714566929136
0
LINE
8
BLACK
6
CONTINUOUS
10
5.9702170472440947
20
-4.9258714566929136
11
5.9702681889763776
21
-4.9259304330708664
0
LINE
8
BLACK
6
CONTINUOUS
10
5.9702681889763776
20
-4.9259304330708664
11
5.9704945669291334
21
-4.9261162204724407
0
LINE
8
BLACK
6
CONTINUOUS
10
5.9704945669291334
20
-4.9261162204724407
11
5.9733066929133853
21
-4.9289283858267714
0
LINE
8
BLACK
6
CONTINUOUS
10
5.9733066929133853
20
-4.9289283858267714
11
5.9734925196850392
21
-4.9291548425196847
0
LINE
8
BLACK
6
CONTINUOUS
10
5.9734925196850392
20
-4.9291548425196847
11
5.9735514173228346
21
-4.9292059055118109
0
LINE
8
BLACK
6
CONTINUOUS
10
5.9735514173228346
20
-4.9292059055118109
11
5.9736072440944881
21
-4.929294645669291
0
LINE
8
BLACK
6
CONTINUOUS
10
5.9736072440944881
20
-4.929294645669291
11
5.9736739370078737
21
-4.929375866141732
0
LINE
8
BLACK
6
CONTINUOUS
10
5.9736739370078737
20
-4.929375866141732
11
5.9737037795275585
21
-4.929447952755905
0
LINE
8
BLACK
6
CONTINUOUS
10
5.9737037795275585
20
-4.929447952755905
11
5.9738598031496064
21
-4.9296957874015748
0
LINE
8
BLACK
6
CONTINUOUS
10
5.9738598031496064
20
-4.9296957874015748
11
5.9766719685039371
21
-4.9353200787401574
0
LINE
8
BLACK
6
CONTINUOUS
10
5.9766719685039371
20
-4.9353200787401574
11
5.9768788582677166
21
-4.9358606692913387
0
LINE
8
BLACK
6
CONTINUOUS
10
5.9768788582677166
20
-4.9358606692913387
11
5.9768863779527557
21
-4.9359665354330708
0
LINE
8
BLACK
6
CONTINUOUS
10
5.9768863779527557
20
-4.9359665354330708
11
5.9769269685039372
21
-4.9360645275590551
0
LINE
8
BLACK
6
CONTINUOUS
10
5.9769269685039372
20
-4.9360645275590551
11
5.9769837007874012
21
-4.936640590551181
0
LINE
8
BLACK
6
CONTINUOUS
10
5.9769837007874012
20
-4.936640590551181
11
5.9769837007874012
21
-4.950701338582677
0
LINE
8
BLACK
6
CONTINUOUS
10
5.9769837007874012
20
-4.950701338582677
11
5.9769269685039372
21
-4.9512774015748029
0
LINE
8
BLACK
6
CONTINUOUS
10
5.9769269685039372
20
-4.9512774015748029
11
5.9768863779527557
21
-4.9513753543307084
0
LINE
8
BLACK
6
CONTINUOUS
10
5.9768863779527557
20
-4.9513753543307084
11
5.9768788582677166
21
-4.9514812598425193
0
LINE
8
BLACK
6
CONTINUOUS
10
5.9768788582677166
20
-4.9514812598425193
11
5.9766719685039371
21
-4.9520218503937006
0
LINE
8
BLACK
6
CONTINUOUS
10
5.9766719685039371
20
-4.9520218503937006
11
5.9738598031496064
21
-4.9576461417322832
0
LINE
8
BLACK
6
CONTINUOUS
10
5.9738598031496064
20
-4.9576461417322832
11
5.9737037795275585
21
-4.9578939370078743
0
LINE
8
BLACK
6
CONTINUOUS
10
5.9737037795275585
20
-4.9578939370078743
11
5.9736739370078737
21
-4.9579660629921261
0
LINE
8
BLACK
6
CONTINUOUS
10
5.9736739370078737
20
-4.9579660629921261
11
5.9736072440944881
21
-4.9580472440944883
0
LINE
8
BLACK
6
CONTINUOUS
10
5.9736072440944881
20
-4.9580472440944883
11
5.9735514173228346
21
-4.9581360236220471
0
LINE
8
BLACK
6
CONTINUOUS
10
5.9735514173228346
20
-4.9581360236220471
11
5.9734925196850392
21
-4.9581870472440945
0
LINE
8
BLACK
6
CONTINUOUS
10
5.9734925196850392
20
-4.9581870472440945
11
5.9733066929133853
21
-4.9584135433070866
0
LINE
8
BLACK
6
CONTINUOUS
10
5.9733066929133853
20
-4.9584135433070866
11
5.9704945669291334
21
-4.9612257086614173
0
LINE
8
BLACK
6
CONTINUOUS
10
5.9704945669291334
20
-4.9612257086614173
11
5.9702681889763776
21
-4.9614114566929128
0
LINE
8
BLACK
6
CONTINUOUS
10
5.9702681889763776
20
-4.9614114566929128
11
5.9702170472440947
21
-4.9614704724409444
0
LINE
8
BLACK
6
CONTINUOUS
10
5.9702170472440947
20
-4.9614704724409444
11
5.9701280708661413
21
-4.9615264173228342
0
LINE
8
BLACK
6
CONTINUOUS
10
5.9701280708661413
20
-4.9615264173228342
11
5.9700471259842516
21
-4.961592913385827
0
LINE
8
BLACK
6
CONTINUOUS
10
5.9700471259842516
20
-4.961592913385827
11
5.9699751574803148
21
-4.961622716535433
0
LINE
8
BLACK
6
CONTINUOUS
10
5.9699751574803148
20
-4.961622716535433
11
5.9697271653543309
21
-4.9617788188976375
0
LINE
8
BLACK
6
CONTINUOUS
10
5.9697271653543309
20
-4.9617788188976375
11
5.9641028346456695
21
-4.9645909448818895
0
LINE
8
BLACK
6
CONTINUOUS
10
5.9641028346456695
20
-4.9645909448818895
11
5.9635622047244095
21
-4.9647978346456689
0
LINE
8
BLACK
6
CONTINUOUS
10
5.9635622047244095
20
-4.9647978346456689
11
5.9634563779527561
21
-4.9648053149606302
0
LINE
8
BLACK
6
CONTINUOUS
10
5.9634563779527561
20
-4.9648053149606302
11
5.9633583858267718
21
-4.9648459448818896
0
LINE
8
BLACK
6
CONTINUOUS
10
5.9633583858267718
20
-4.9648459448818896
11
5.9627823228346459
21
-4.9649026771653544
0
LINE
8
BLACK
6
CONTINUOUS
10
5.9627823228346459
20
-4.9649026771653544
11
5.9515337401574806
21
-4.9649026771653544
0
LINE
8
BLACK
6
CONTINUOUS
10
5.9515337401574806
20
-4.9649026771653544
11
5.9509576771653538
21
-4.9648459448818896
0
LINE
8
BLACK
6
CONTINUOUS
10
5.9509576771653538
20
-4.9648459448818896
11
5.9508596456692908
21
-4.9648053149606302
0
LINE
8
BLACK
6
CONTINUOUS
10
5.9508596456692908
20
-4.9648053149606302
11
5.9507538582677162
21
-4.9647978346456689
0
LINE
8
BLACK
6
CONTINUOUS
10
5.9507538582677162
20
-4.9647978346456689
11
5.9502132283464562
21
-4.9645909448818895
0
LINE
8
BLACK
6
CONTINUOUS
10
5.9502132283464562
20
-4.9645909448818895
11
5.9445889370078735
21
-4.9617788188976375
0
LINE
8
BLACK
6
CONTINUOUS
10
5.9445889370078735
20
-4.9617788188976375
11
5.9443411023622046
21
-4.9616227952755905
0
LINE
8
BLACK
6
CONTINUOUS
10
5.9443411023622046
20
-4.9616227952755905
11
5.9442689763779528
21
-4.9615929527559057
0
LINE
8
BLACK
6
CONTINUOUS
10
5.9442689763779528
20
-4.9615929527559057
11
5.9441877952755906
21
-4.9615263385826767
0
LINE
8
BLACK
6
CONTINUOUS
10
5.9441877952755906
20
-4.9615263385826767
11
5.9440990551181105
21
-4.9614704724409444
0
LINE
8
BLACK
6
CONTINUOUS
10
5.9440990551181105
20
-4.9614704724409444
11
5.9440479133858268
21
-4.9614115354330703
0
LINE
8
BLACK
6
CONTINUOUS
10
5.9440479133858268
20
-4.9614115354330703
11
5.943821535433071
21
-4.9612257086614173
0
LINE
8
BLACK
6
CONTINUOUS
10
5.943821535433071
20
-4.9612257086614173
11
5.9410093700787403
21
-4.9584135433070866
0
LINE
8
BLACK
6
CONTINUOUS
10
5.9410093700787403
20
-4.9584135433070866
11
5.9408235826771651
21
-4.9581871653543308
0
LINE
8
BLACK
6
CONTINUOUS
10
5.9408235826771651
20
-4.9581871653543308
11
5.9407646062992123
21
-4.9581360236220471
0
LINE
8
BLACK
6
CONTINUOUS
10
5.9407646062992123
20
-4.9581360236220471
11
5.9407086220472438
21
-4.9580470472440945
0
LINE
8
BLACK
6
CONTINUOUS
10
5.9407086220472438
20
-4.9580470472440945
11
5.9406421653543307
21
-4.9579661023622048
0
LINE
8
BLACK
6
CONTINUOUS
10
5.9406421653543307
20
-4.9579661023622048
11
5.9406123228346459
21
-4.9578941338582672
0
LINE
8
BLACK
6
CONTINUOUS
10
5.9406123228346459
20
-4.9578941338582672
11
5.9404562598425192
21
-4.9576461417322832
0
LINE
8
BLACK
6
CONTINUOUS
10
5.9404562598425192
20
-4.9576461417322832
11
5.9376441338582673
21
-4.9520218503937006
0
LINE
8
BLACK
6
CONTINUOUS
10
5.9376441338582673
20
-4.9520218503937006
11
5.9374372440944878
21
-4.9514812204724405
0
LINE
8
BLACK
6
CONTINUOUS
10
5.9374372440944878
20
-4.9514812204724405
11
5.9374297244094487
21
-4.9513753937007872
0
LINE
8
BLACK
6
CONTINUOUS
10
5.9374297244094487
20
-4.9513753937007872
11
5.9373891338582672
21
-4.9512774015748029
0
LINE
8
BLACK
6
CONTINUOUS
10
5.9373891338582672
20
-4.9512774015748029
11
5.9373324015748032
21
-4.950701338582677
0
LINE
8
BLACK
6
CONTINUOUS
10
5.9373324015748032
20
-4.950701338582677
11
5.9373324015748032
21
-4.9282041338582676
0
LINE
8
BLACK
6
CONTINUOUS
10
5.9373324015748032
20
-4.9282041338582676
11
5.9373422834645666
21
-4.9281035826771653
0
LINE
8
BLACK
6
CONTINUOUS
10
5.9373422834645666
20
-4.9281035826771653
11
5.9373359055118105
21
-4.9280606299212595
0
LINE
8
BLACK
6
CONTINUOUS
10
5.9373359055118105
20
-4.9280606299212595
11
5.9373677165354328
21
-4.9278451574803146
0
LINE
8
BLACK
6
CONTINUOUS
10
5.9373677165354328
20
-4.9278451574803146
11
5.9373891338582672
21
-4.9276280708661417
0
LINE
8
BLACK
6
CONTINUOUS
10
5.9373891338582672
20
-4.9276280708661417
11
5.9374057874015751
21
-4.927587834645669
0
LINE
8
BLACK
6
CONTINUOUS
10
5.9374057874015751
20
-4.927587834645669
11
5.937420551181102
21
-4.9274879921259842
0
LINE
8
BLACK
6
CONTINUOUS
10
5.937420551181102
20
-4.9274879921259842
11
5.940232677165354
21
-4.9162394094488189
0
LINE
8
BLACK
6
CONTINUOUS
10
5.940232677165354
20
-4.9162394094488189
11
5.940353937007874
21
-4.9158999212598422
0
LINE
8
BLACK
6
CONTINUOUS
10
5.940353937007874
20
-4.9158999212598422
11
5.9403681102362205
21
-4.9158284251968505
0
LINE
8
BLACK
6
CONTINUOUS
10
5.9403681102362205
20
-4.9158284251968505
11
5.9404026771653546
21
-4.9157635433070865
0
LINE
8
BLACK
6
CONTINUOUS
10
5.9404026771653546
20
-4.9157635433070865
11
5.9404274409448821
21
-4.9156942913385828
0
LINE
8
BLACK
6
CONTINUOUS
10
5.9404274409448821
20
-4.9156942913385828
11
5.940470866141732
21
-4.9156356692913388
0
LINE
8
BLACK
6
CONTINUOUS
10
5.940470866141732
20
-4.9156356692913388
11
5.9406404330708664
21
-4.9153176377952752
0
LINE
8
BLACK
6
CONTINUOUS
10
5.9406404330708664
20
-4.9153176377952752
11
5.9462647637795278
21
-4.9068811811023618
0
LINE
8
BLACK
6
CONTINUOUS
10
5.9462647637795278
20
-4.9068811811023618
11
5.9462661023622045
21
-4.9068794881889763
0
LINE
8
BLACK
6
CONTINUOUS
10
5.9462661023622045
20
-4.9068794881889763
11
5.9462664960629921
21
-4.9068786220472438
0
LINE
8
BLACK
6
CONTINUOUS
10
5.9462664960629921
20
-4.9068786220472438
11
5.946443188976378
21
-4.9066633070866139
0
LINE
8
BLACK
6
CONTINUOUS
10
5.946443188976378
20
-4.9066633070866139
11
5.9466315354330703
21
-4.9064333464566925
0
LINE
8
BLACK
6
CONTINUOUS
10
5.9466315354330703
20
-4.9064333464566925
11
5.9466323622047241
21
-4.9064327559055121
0
LINE
8
BLACK
6
CONTINUOUS
10
5.9466323622047241
20
-4.9064327559055121
11
5.9466337007874017
21
-4.906431181102362
0
LINE
8
BLACK
6
CONTINUOUS
10
5.9466337007874017
20
-4.906431181102362
11
5.9494458267716537
21
-4.90361905511811
0
LINE
8
BLACK
6
CONTINUOUS
10
5.9494458267716537
20
-4.90361905511811
11
5.949672283464567
21
-4.9034331889763783
0
LINE
8
BLACK
6
CONTINUOUS
10
5.949672283464567
20
-4.9034331889763783
11
5.9497233464566932
21
-4.9033743307086617
0
LINE
8
BLACK
6
CONTINUOUS
10
5.9497233464566932
20
-4.9033743307086617
11
5.9498120866141733
21
-4.9033184251968507
0
LINE
8
BLACK
6
CONTINUOUS
10
5.9498120866141733
20
-4.9033184251968507
11
5.9498932677165355
21
-4.9032518503937004
0
LINE
8
BLACK
6
CONTINUOUS
10
5.9498932677165355
20
-4.9032518503937004
11
5.9499653149606297
21
-4.9032219685039369
0
LINE
8
BLACK
6
CONTINUOUS
10
5.9499653149606297
20
-4.9032219685039369
11
5.9502132283464562
21
-4.9030659448818898
0
LINE
8
BLACK
6
CONTINUOUS
10
5.9502132283464562
20
-4.9030659448818898
11
5.9558375196850388
21
-4.9002537795275591
0
LINE
8
BLACK
6
CONTINUOUS
10
5.9558375196850388
20
-4.9002537795275591
11
5.9563781102362201
21
-4.9000468897637797
0
LINE
8
BLACK
6
CONTINUOUS
10
5.9563781102362201
20
-4.9000468897637797
11
5.9564839763779522
21
-4.9000393307086609
0
LINE
8
BLACK
6
CONTINUOUS
10
5.9564839763779522
20
-4.9000393307086609
11
5.9565819685039365
21
-4.899998779527559
0
LINE
8
BLACK
6
CONTINUOUS
10
5.9565819685039365
20
-4.899998779527559
11
5.9571580314960633
21
-4.8999420472440942
0
LINE
8
BLACK
6
CONTINUOUS
10
5.9571580314960633
20
-4.8999420472440942
11
5.9684066535433073
21
-4.8999420472440942
0
LINE
8
BLACK
6
CONTINUOUS
10
5.9684066535433073
20
-4.8999420472440942
11
5.9689827165354332
21
-4.899998779527559
0
LINE
8
BLACK
6
CONTINUOUS
10
5.9476585039370073
20
-4.9306308661417324
11
5.9455240157480311
21
-4.9327653543307086
0
LINE
8
BLACK
6
CONTINUOUS
10
5.9455240157480311
20
-4.9327653543307086
11
5.9432379133858264
21
-4.9373375984251968
0
LINE
8
BLACK
6
CONTINUOUS
10
5.9432379133858264
20
-4.9373375984251968
11
5.9432379133858264
21
-4.9500042913385824
0
LINE
8
BLACK
6
CONTINUOUS
10
5.9432379133858264
20
-4.9500042913385824
11
5.9455240157480311
21
-4.9545765354330706
0
LINE
8
BLACK
6
CONTINUOUS
10
5.9455240157480311
20
-4.9545765354330706
11
5.9476585039370073
21
-4.9567110236220469
0
LINE
8
BLACK
6
CONTINUOUS
10
5.9476585039370073
20
-4.9567110236220469
11
5.9522307874015743
21
-4.9589971653543303
0
LINE
8
BLACK
6
CONTINUOUS
10
5.9522307874015743
20
-4.9589971653543303
11
5.9620852755905513
21
-4.9589971653543303
0
LINE
8
BLACK
6
CONTINUOUS
10
5.9620852755905513
20
-4.9589971653543303
11
5.9666574803149608
21
-4.9567110629921256
0
LINE
8
BLACK
6
CONTINUOUS
10
5.9666574803149608
20
-4.9567110629921256
11
5.9687920078740158
21
-4.9545765354330706
0
LINE
8
BLACK
6
CONTINUOUS
10
5.9687920078740158
20
-4.9545765354330706
11
5.971078188976378
21
-4.9500042519685037
0
LINE
8
BLACK
6
CONTINUOUS
10
5.971078188976378
20
-4.9500042519685037
11
5.971078188976378
21
-4.9373376377952756
0
LINE
8
BLACK
6
CONTINUOUS
10
5.971078188976378
20
-4.9373376377952756
11
5.9687920078740158
21
-4.9327653543307086
0
LINE
8
BLACK
6
CONTINUOUS
10
5.9687920078740158
20
-4.9327653543307086
11
5.9666574803149608
21
-4.9306308267716537
0
LINE
8
BLACK
6
CONTINUOUS
10
5.9666574803149608
20
-4.9306308267716537
11
5.9620852755905513
21
-4.9283447637795277
0
LINE
8
BLACK
6
CONTINUOUS
10
5.9620852755905513
20
-4.9283447637795277
11
5.9522307874015743
21
-4.9283447637795277
0
LINE
8
BLACK
6
CONTINUOUS
10
5.9522307874015743
20
-4.9283447637795277
11
5.9476585039370073
21
-4.9306308661417324
0
LINE
8
BLACK
6
CONTINUOUS
10
6.2653226377952755
20
-4.9004396850393697
11
6.266137283464567
21
-4.9012543307086611
0
LINE
8
BLACK
6
CONTINUOUS
10
6.266137283464567
20
-4.9012543307086611
11
6.2665781889763776
21
-4.9023187401574804
0
LINE
8
BLACK
6
CONTINUOUS
10
6.2665781889763776
20
-4.9023187401574804
11
6.2666349212598425
21
-4.9028948031496062
0
LINE
8
BLACK
6
CONTINUOUS
10
6.2666349212598425
20
-4.9028948031496062
11
6.2666349212598425
21
-4.9589971653543303
0
LINE
8
BLACK
6
CONTINUOUS
10
6.2666349212598425
20
-4.9589971653543303
11
6.2918036614173225
21
-4.9589971653543303
0
LINE
8
BLACK
6
CONTINUOUS
10
6.2918036614173225
20
-4.9589971653543303
11
6.2923797244094484
21
-4.9590538976377951
0
LINE
8
BLACK
6
CONTINUOUS
10
6.2923797244094484
20
-4.9590538976377951
11
6.2934441338582676
21
-4.9594948031496058
0
LINE
8
BLACK
6
CONTINUOUS
10
6.2934441338582676
20
-4.9594948031496058
11
6.2942587795275591
21
-4.9603094488188972
0
LINE
8
BLACK
6
CONTINUOUS
10
6.2942587795275591
20
-4.9603094488188972
11
6.2946996850393697
21
-4.9613738582677165
0
LINE
8
BLACK
6
CONTINUOUS
10
6.2946996850393697
20
-4.9613738582677165
11
6.2946996850393697
21
-4.9625259842519682
0
LINE
8
BLACK
6
CONTINUOUS
10
6.2946996850393697
20
-4.9625259842519682
11
6.2942587795275591
21
-4.9635903937007875
0
LINE
8
BLACK
6
CONTINUOUS
10
6.2942587795275591
20
-4.9635903937007875
11
6.2934441338582676
21
-4.9644050393700789
0
LINE
8
BLACK
6
CONTINUOUS
10
6.2934441338582676
20
-4.9644050393700789
11
6.2923797244094484
21
-4.9648459448818896
0
LINE
8
BLACK
6
CONTINUOUS
10
6.2923797244094484
20
-4.9648459448818896
11
6.2918036614173225
21
-4.9649026771653544
0
LINE
8
BLACK
6
CONTINUOUS
10
6.2918036614173225
20
-4.9649026771653544
11
6.2636821653543304
21
-4.9649026771653544
0
LINE
8
BLACK
6
CONTINUOUS
10
6.2636821653543304
20
-4.9649026771653544
11
6.2631061023622046
21
-4.9648459448818896
0
LINE
8
BLACK
6
CONTINUOUS
10
6.2631061023622046
20
-4.9648459448818896
11
6.2620416929133853
21
-4.9644050393700789
0
LINE
8
BLACK
6
CONTINUOUS
10
6.2620416929133853
20
-4.9644050393700789
11
6.2612270472440947
21
-4.9635903937007875
0
LINE
8
BLACK
6
CONTINUOUS
10
6.2612270472440947
20
-4.9635903937007875
11
6.2607861417322832
21
-4.9625259842519682
0
LINE
8
BLACK
6
CONTINUOUS
10
6.2607861417322832
20
-4.9625259842519682
11
6.2607861417322832
21
-4.9625259448818895
0
LINE
8
BLACK
6
CONTINUOUS
10
6.2607861417322832
20
-4.9625259448818895
11
6.2607294094488184
21
-4.9619499212598424
0
LINE
8
BLACK
6
CONTINUOUS
10
6.2607294094488184
20
-4.9619499212598424
11
6.2607294094488184
21
-4.9028948031496062
0
LINE
8
BLACK
6
CONTINUOUS
10
6.2607294094488184
20
-4.9028948031496062
11
6.2607861417322832
21
-4.9023187401574804
0
LINE
8
BLACK
6
CONTINUOUS
10
6.2607861417322832
20
-4.9023187401574804
11
6.2612270472440947
21
-4.9012543307086611
0
LINE
8
BLACK
6
CONTINUOUS
10
6.2612270472440947
20
-4.9012543307086611
11
6.2620416929133853
21
-4.9004396850393697
0
LINE
8
BLACK
6
CONTINUOUS
10
6.2620416929133853
20
-4.9004396850393697
11
6.2631061023622046
21
-4.899998779527559
0
LINE
8
BLACK
6
CONTINUOUS
10
6.2631061023622046
20
-4.899998779527559
11
6.2642582283464563
21
-4.899998779527559
0
LINE
8
BLACK
6
CONTINUOUS
10
6.2642582283464563
20
-4.899998779527559
11
6.2653226377952755
21
-4.9004396850393697
0
LINE
8
BLACK
6
CONTINUOUS
10
6.3131291732283463
20
-4.9004396850393697
11
6.3139438188976378
21
-4.9012543307086611
0
LINE
8
BLACK
6
CONTINUOUS
10
6.3139438188976378
20
-4.9012543307086611
11
6.3143847244094484
21
-4.9023187401574804
0
LINE
8
BLACK
6
CONTINUOUS
10
6.3143847244094484
20
-4.9023187401574804
11
6.3144414566929132
21
-4.9028948031496062
0
LINE
8
BLACK
6
CONTINUOUS
10
6.3144414566929132
20
-4.9028948031496062
11
6.3144414566929132
21
-4.9589971653543303
0
LINE
8
BLACK
6
CONTINUOUS
10
6.3144414566929132
20
-4.9589971653543303
11
6.3396101968503933
21
-4.9589971653543303
0
LINE
8
BLACK
6
CONTINUOUS
10
6.3396101968503933
20
-4.9589971653543303
11
6.3401862598425192
21
-4.9590538976377951
0
LINE
8
BLACK
6
CONTINUOUS
10
6.3401862598425192
20
-4.9590538976377951
11
6.3412506692913384
21
-4.9594948031496058
0
LINE
8
BLACK
6
CONTINUOUS
10
6.3412506692913384
20
-4.9594948031496058
11
6.3420653149606299
21
-4.9603094488188972
0
LINE
8
BLACK
6
CONTINUOUS
10
6.3420653149606299
20
-4.9603094488188972
11
6.3425062204724405
21
-4.9613738582677165
0
LINE
8
BLACK
6
CONTINUOUS
10
6.3425062204724405
20
-4.9613738582677165
11
6.3425062204724405
21
-4.9625259842519682
0
LINE
8
BLACK
6
CONTINUOUS
10
6.3425062204724405
20
-4.9625259842519682
11
6.3420653149606299
21
-4.9635903937007875
0
LINE
8
BLACK
6
CONTINUOUS
10
6.3420653149606299
20
-4.9635903937007875
11
6.3412506692913384
21
-4.9644050393700789
0
LINE
8
BLACK
6
CONTINUOUS
10
6.3412506692913384
20
-4.9644050393700789
11
6.3401862598425192
21
-4.9648459448818896
0
LINE
8
BLACK
6
CONTINUOUS
10
6.3401862598425192
20
-4.9648459448818896
11
6.3396101968503933
21
-4.9649026771653544
0
LINE
8
BLACK
6
CONTINUOUS
10
6.3396101968503933
20
-4.9649026771653544
11
6.3114887007874012
21
-4.9649026771653544
0
LINE
8
BLACK
6
CONTINUOUS
10
6.3114887007874012
20
-4.9649026771653544
11
6.3109126377952753
21
-4.9648459448818896
0
LINE
8
BLACK
6
CONTINUOUS
10
6.3109126377952753
20
-4.9648459448818896
11
6.309848228346457
21
-4.9644050393700789
0
LINE
8
BLACK
6
CONTINUOUS
10
6.309848228346457
20
-4.9644050393700789
11
6.3090335826771655
21
-4.9635903937007875
0
LINE
8
BLACK
6
CONTINUOUS
10
6.3090335826771655
20
-4.9635903937007875
11
6.308592677165354
21
-4.9625259842519682
0
LINE
8
BLACK
6
CONTINUOUS
10
6.308592677165354
20
-4.9625259842519682
11
6.308592677165354
21
-4.9625259448818895
0
LINE
8
BLACK
6
CONTINUOUS
10
6.308592677165354
20
-4.9625259448818895
11
6.3085359448818892
21
-4.9619499212598424
0
LINE
8
BLACK
6
CONTINUOUS
10
6.3085359448818892
20
-4.9619499212598424
11
6.3085359448818892
21
-4.9028948031496062
0
LINE
8
BLACK
6
CONTINUOUS
10
6.3085359448818892
20
-4.9028948031496062
11
6.308592677165354
21
-4.9023187401574804
0
LINE
8
BLACK
6
CONTINUOUS
10
6.308592677165354
20
-4.9023187401574804
11
6.3090335826771655
21
-4.9012543307086611
0
LINE
8
BLACK
6
CONTINUOUS
10
6.3090335826771655
20
-4.9012543307086611
11
6.309848228346457
21
-4.9004396850393697
0
LINE
8
BLACK
6
CONTINUOUS
10
6.309848228346457
20
-4.9004396850393697
11
6.3109126377952753
21
-4.899998779527559
0
LINE
8
BLACK
6
CONTINUOUS
10
6.3109126377952753
20
-4.899998779527559
11
6.3120647637795271
21
-4.899998779527559
0
LINE
8
BLACK
6
CONTINUOUS
10
6.3120647637795271
20
-4.899998779527559
11
6.3131291732283463
21
-4.9004396850393697
0
LINE
8
BLACK
6
CONTINUOUS
10
6.3879927952755908
20
-4.899998779527559
11
6.3890572047244092
21
-4.9004396850393697
0
LINE
8
BLACK
6
CONTINUOUS
10
6.3890572047244092
20
-4.9004396850393697
11
6.3898718503937006
21
-4.9012543307086611
0
LINE
8
BLACK
6
CONTINUOUS
10
6.3898718503937006
20
-4.9012543307086611
11
6.3903127559055113
21
-4.9023187401574804
0
LINE
8
BLACK
6
CONTINUOUS
10
6.3903127559055113
20
-4.9023187401574804
11
6.3903127559055113
21
-4.9034708661417321
0
LINE
8
BLACK
6
CONTINUOUS
10
6.3903127559055113
20
-4.9034708661417321
11
6.3898718503937006
21
-4.9045352755905514
0
LINE
8
BLACK
6
CONTINUOUS
10
6.3898718503937006
20
-4.9045352755905514
11
6.3890572047244092
21
-4.9053499212598428
0
LINE
8
BLACK
6
CONTINUOUS
10
6.3890572047244092
20
-4.9053499212598428
11
6.3879927952755908
21
-4.9057908267716535
0
LINE
8
BLACK
6
CONTINUOUS
10
6.3879927952755908
20
-4.9057908267716535
11
6.3874167322834641
21
-4.9058475590551183
0
LINE
8
BLACK
6
CONTINUOUS
10
6.3874167322834641
20
-4.9058475590551183
11
6.362247992125984
21
-4.9058475590551183
0
LINE
8
BLACK
6
CONTINUOUS
10
6.362247992125984
20
-4.9058475590551183
11
6.362247992125984
21
-4.9280635433070863
0
LINE
8
BLACK
6
CONTINUOUS
10
6.362247992125984
20
-4.9280635433070863
11
6.3789802755905507
21
-4.9280635433070863
0
LINE
8
BLACK
6
CONTINUOUS
10
6.3789802755905507
20
-4.9280635433070863
11
6.3795563385826775
21
-4.9281202755905511
0
LINE
8
BLACK
6
CONTINUOUS
10
6.3795563385826775
20
-4.9281202755905511
11
6.3806207480314958
21
-4.9285611811023617
0
LINE
8
BLACK
6
CONTINUOUS
10
6.3806207480314958
20
-4.9285611811023617
11
6.3814353937007873
21
-4.9293758267716532
0
LINE
8
BLACK
6
CONTINUOUS
10
6.3814353937007873
20
-4.9293758267716532
11
6.3818762992125979
21
-4.9304402362204724
0
LINE
8
BLACK
6
CONTINUOUS
10
6.3818762992125979
20
-4.9304402362204724
11
6.3818762992125979
21
-4.9315923622047242
0
LINE
8
BLACK
6
CONTINUOUS
10
6.3818762992125979
20
-4.9315923622047242
11
6.3814353937007873
21
-4.9326567716535434
0
LINE
8
BLACK
6
CONTINUOUS
10
6.3814353937007873
20
-4.9326567716535434
11
6.3806207480314958
21
-4.9334714173228349
0
LINE
8
BLACK
6
CONTINUOUS
10
6.3806207480314958
20
-4.9334714173228349
11
6.3795563385826775
21
-4.9339123228346455
0
LINE
8
BLACK
6
CONTINUOUS
10
6.3795563385826775
20
-4.9339123228346455
11
6.3789802755905507
21
-4.9339690551181103
0
LINE
8
BLACK
6
CONTINUOUS
10
6.3789802755905507
20
-4.9339690551181103
11
6.362247992125984
21
-4.9339690551181103
0
LINE
8
BLACK
6
CONTINUOUS
10
6.362247992125984
20
-4.9339690551181103
11
6.362247992125984
21
-4.9589971653543303
0
LINE
8
BLACK
6
CONTINUOUS
10
6.362247992125984
20
-4.9589971653543303
11
6.3874167322834641
21
-4.9589971653543303
0
LINE
8
BLACK
6
CONTINUOUS
10
6.3874167322834641
20
-4.9589971653543303
11
6.3879927952755908
21
-4.9590538976377951
0
LINE
8
BLACK
6
CONTINUOUS
10
6.3879927952755908
20
-4.9590538976377951
11
6.3890572047244092
21
-4.9594948031496058
0
LINE
8
BLACK
6
CONTINUOUS
10
6.3890572047244092
20
-4.9594948031496058
11
6.3898718503937006
21
-4.9603094488188972
0
LINE
8
BLACK
6
CONTINUOUS
10
6.3898718503937006
20
-4.9603094488188972
11
6.3903127559055113
21
-4.9613738582677165
0
LINE
8
BLACK
6
CONTINUOUS
10
6.3903127559055113
20
-4.9613738582677165
11
6.3903127559055113
21
-4.9625259842519682
0
LINE
8
BLACK
6
CONTINUOUS
10
6.3903127559055113
20
-4.9625259842519682
11
6.3898718503937006
21
-4.9635903937007875
0
LINE
8
BLACK
6
CONTINUOUS
10
6.3898718503937006
20
-4.9635903937007875
11
6.3890572047244092
21
-4.9644050393700789
0
LINE
8
BLACK
6
CONTINUOUS
10
6.3890572047244092
20
-4.9644050393700789
11
6.3879927952755908
21
-4.9648459448818896
0
LINE
8
BLACK
6
CONTINUOUS
10
6.3879927952755908
20
-4.9648459448818896
11
6.3874167322834641
21
-4.9649026771653544
0
LINE
8
BLACK
6
CONTINUOUS
10
6.3874167322834641
20
-4.9649026771653544
11
6.359295236220472
21
-4.9649026771653544
0
LINE
8
BLACK
6
CONTINUOUS
10
6.359295236220472
20
-4.9649026771653544
11
6.3587191732283461
21
-4.9648459448818896
0
LINE
8
BLACK
6
CONTINUOUS
10
6.3587191732283461
20
-4.9648459448818896
11
6.3576547637795278
21
-4.9644050393700789
0
LINE
8
BLACK
6
CONTINUOUS
10
6.3576547637795278
20
-4.9644050393700789
11
6.3568401181102363
21
-4.9635903937007875
0
LINE
8
BLACK
6
CONTINUOUS
10
6.3568401181102363
20
-4.9635903937007875
11
6.3563992125984248
21
-4.9625259842519682
0
LINE
8
BLACK
6
CONTINUOUS
10
6.3563992125984248
20
-4.9625259842519682
11
6.3563992125984248
21
-4.9625259448818895
0
LINE
8
BLACK
6
CONTINUOUS
10
6.3563992125984248
20
-4.9625259448818895
11
6.3563424803149609
21
-4.9619499212598424
0
LINE
8
BLACK
6
CONTINUOUS
10
6.3563424803149609
20
-4.9619499212598424
11
6.3563424803149609
21
-4.9028948031496062
0
LINE
8
BLACK
6
CONTINUOUS
10
6.3563424803149609
20
-4.9028948031496062
11
6.3563992125984248
21
-4.9023187401574804
0
LINE
8
BLACK
6
CONTINUOUS
10
6.3563992125984248
20
-4.9023187401574804
11
6.3568401181102363
21
-4.9012543307086611
0
LINE
8
BLACK
6
CONTINUOUS
10
6.3568401181102363
20
-4.9012543307086611
11
6.3576547637795278
21
-4.9004396850393697
0
LINE
8
BLACK
6
CONTINUOUS
10
6.3576547637795278
20
-4.9004396850393697
11
6.3587191732283461
21
-4.899998779527559
0
LINE
8
BLACK
6
CONTINUOUS
10
6.3587191732283461
20
-4.899998779527559
11
6.359295236220472
21
-4.8999420472440942
0
LINE
8
BLACK
6
CONTINUOUS
10
6.359295236220472
20
-4.8999420472440942
11
6.3874167322834641
21
-4.8999420472440942
0
LINE
8
BLACK
6
CONTINUOUS
10
6.3874167322834641
20
-4.8999420472440942
11
6.3879927952755908
21
-4.899998779527559
0
LINE
8
BLACK
6
CONTINUOUS
10
6.4143665354330706
20
-4.9004396850393697
11
6.415181181102362
21
-4.9012543307086611
0
LINE
8
BLACK
6
CONTINUOUS
10
6.415181181102362
20
-4.9012543307086611
11
6.4156220866141727
21
-4.9023187401574804
0
LINE
8
BLACK
6
CONTINUOUS
10
6.4156220866141727
20
-4.9023187401574804
11
6.4156788188976375
21
-4.9028948031496062
0
LINE
8
BLACK
6
CONTINUOUS
10
6.4156788188976375
20
-4.9028948031496062
11
6.4156788188976375
21
-4.9589971653543303
0
LINE
8
BLACK
6
CONTINUOUS
10
6.4156788188976375
20
-4.9589971653543303
11
6.4408475590551175
21
-4.9589971653543303
0
LINE
8
BLACK
6
CONTINUOUS
10
6.4408475590551175
20
-4.9589971653543303
11
6.4414236220472443
21
-4.9590538976377951
0
LINE
8
BLACK
6
CONTINUOUS
10
6.4414236220472443
20
-4.9590538976377951
11
6.4424880314960626
21
-4.9594948031496058
0
LINE
8
BLACK
6
CONTINUOUS
10
6.4424880314960626
20
-4.9594948031496058
11
6.4433026771653541
21
-4.9603094488188972
0
LINE
8
BLACK
6
CONTINUOUS
10
6.4433026771653541
20
-4.9603094488188972
11
6.4437435826771656
21
-4.9613738582677165
0
LINE
8
BLACK
6
CONTINUOUS
10
6.4437435826771656
20
-4.9613738582677165
11
6.4437435826771656
21
-4.9625259842519682
0
LINE
8
BLACK
6
CONTINUOUS
10
6.4437435826771656
20
-4.9625259842519682
11
6.4433026771653541
21
-4.9635903937007875
0
LINE
8
BLACK
6
CONTINUOUS
10
6.4433026771653541
20
-4.9635903937007875
11
6.4424880314960626
21
-4.9644050393700789
0
LINE
8
BLACK
6
CONTINUOUS
10
6.4424880314960626
20
-4.9644050393700789
11
6.4414236220472443
21
-4.9648459448818896
0
LINE
8
BLACK
6
CONTINUOUS
10
6.4414236220472443
20
-4.9648459448818896
11
6.4408475590551175
21
-4.9649026771653544
0
LINE
8
BLACK
6
CONTINUOUS
10
6.4408475590551175
20
-4.9649026771653544
11
6.4127260629921254
21
-4.9649026771653544
0
LINE
8
BLACK
6
CONTINUOUS
10
6.4127260629921254
20
-4.9649026771653544
11
6.4121499999999996
21
-4.9648459448818896
0
LINE
8
BLACK
6
CONTINUOUS
10
6.4121499999999996
20
-4.9648459448818896
11
6.4110855905511812
21
-4.9644050393700789
0
LINE
8
BLACK
6
CONTINUOUS
10
6.4110855905511812
20
-4.9644050393700789
11
6.4102709448818898
21
-4.9635903937007875
0
LINE
8
BLACK
6
CONTINUOUS
10
6.4102709448818898
20
-4.9635903937007875
11
6.4098300393700782
21
-4.9625259842519682
0
LINE
8
BLACK
6
CONTINUOUS
10
6.4098300393700782
20
-4.9625259842519682
11
6.4098300393700782
21
-4.9625259448818895
0
LINE
8
BLACK
6
CONTINUOUS
10
6.4098300393700782
20
-4.9625259448818895
11
6.4097733070866143
21
-4.9619499212598424
0
LINE
8
BLACK
6
CONTINUOUS
10
6.4097733070866143
20
-4.9619499212598424
11
6.4097733070866143
21
-4.9028948031496062
0
LINE
8
BLACK
6
CONTINUOUS
10
6.4097733070866143
20
-4.9028948031496062
11
6.4098300393700782
21
-4.9023187401574804
0
LINE
8
BLACK
6
CONTINUOUS
10
6.4098300393700782
20
-4.9023187401574804
11
6.4102709448818898
21
-4.9012543307086611
0
LINE
8
BLACK
6
CONTINUOUS
10
6.4102709448818898
20
-4.9012543307086611
11
6.4110855905511812
21
-4.9004396850393697
0
LINE
8
BLACK
6
CONTINUOUS
10
6.4110855905511812
20
-4.9004396850393697
11
6.4121499999999996
21
-4.899998779527559
0
LINE
8
BLACK
6
CONTINUOUS
10
6.4121499999999996
20
-4.899998779527559
11
6.4133021259842522
21
-4.899998779527559
0
LINE
8
BLACK
6
CONTINUOUS
10
6.4133021259842522
20
-4.899998779527559
11
6.4143665354330706
21
-4.9004396850393697
0
LINE
8
BLACK
6
CONTINUOUS
10
5.7018286220472438
20
-4.899998779527559
11
5.7019265748031494
21
-4.9000393307086609
0
LINE
8
BLACK
6
CONTINUOUS
10
5.7019265748031494
20
-4.9000393307086609
11
5.7020324803149602
21
-4.9000468897637797
0
LINE
8
BLACK
6
CONTINUOUS
10
5.7020324803149602
20
-4.9000468897637797
11
5.7025730708661415
21
-4.9002537795275591
0
LINE
8
BLACK
6
CONTINUOUS
10
5.7025730708661415
20
-4.9002537795275591
11
5.7081973622047242
21
-4.9030659448818898
0
LINE
8
BLACK
6
CONTINUOUS
10
5.7081973622047242
20
-4.9030659448818898
11
5.7084452362204727
21
-4.9032219685039369
0
LINE
8
BLACK
6
CONTINUOUS
10
5.7084452362204727
20
-4.9032219685039369
11
5.708517283464567
21
-4.9032518110236216
0
LINE
8
BLACK
6
CONTINUOUS
10
5.708517283464567
20
-4.9032518110236216
11
5.7085983070866142
21
-4.9033183070866144
0
LINE
8
BLACK
6
CONTINUOUS
10
5.7085983070866142
20
-4.9033183070866144
11
5.708687244094488
21
-4.9033742913385829
0
LINE
8
BLACK
6
CONTINUOUS
10
5.708687244094488
20
-4.9033742913385829
11
5.7087383858267717
21
-4.9034332677165358
0
LINE
8
BLACK
6
CONTINUOUS
10
5.7087383858267717
20
-4.9034332677165358
11
5.7089647637795276
21
-4.90361905511811
0
LINE
8
BLACK
6
CONTINUOUS
10
5.7089647637795276
20
-4.90361905511811
11
5.7117769291338583
21
-4.906431181102362
0
LINE
8
BLACK
6
CONTINUOUS
10
5.7117769291338583
20
-4.906431181102362
11
5.7119626771653538
21
-4.906657519685039
0
LINE
8
BLACK
6
CONTINUOUS
10
5.7119626771653538
20
-4.906657519685039
11
5.7120216929133854
21
-4.9067087007874015
0
LINE
8
BLACK
6
CONTINUOUS
10
5.7120216929133854
20
-4.9067087007874015
11
5.7120776377952751
21
-4.9067976377952753
0
LINE
8
BLACK
6
CONTINUOUS
10
5.7120776377952751
20
-4.9067976377952753
11
5.7121441338582679
21
-4.9068786220472438
0
LINE
8
BLACK
6
CONTINUOUS
10
5.7121441338582679
20
-4.9068786220472438
11
5.7121739370078739
21
-4.9069505511811027
0
LINE
8
BLACK
6
CONTINUOUS
10
5.7121739370078739
20
-4.9069505511811027
11
5.7123300393700784
21
-4.9071985826771654
0
LINE
8
BLACK
6
CONTINUOUS
10
5.7123300393700784
20
-4.9071985826771654
11
5.7151421653543304
21
-4.912822874015748
0
LINE
8
BLACK
6
CONTINUOUS
10
5.7151421653543304
20
-4.912822874015748
11
5.7153490551181099
21
-4.913363503937008
0
LINE
8
BLACK
6
CONTINUOUS
10
5.7153490551181099
20
-4.913363503937008
11
5.7153565354330711
21
-4.9134692913385827
0
LINE
8
BLACK
6
CONTINUOUS
10
5.7153565354330711
20
-4.9134692913385827
11
5.7153971653543305
21
-4.9135673228346457
0
LINE
8
BLACK
6
CONTINUOUS
10
5.7153971653543305
20
-4.9135673228346457
11
5.7154538976377953
21
-4.9141433858267716
0
LINE
8
BLACK
6
CONTINUOUS
10
5.7154538976377953
20
-4.9141433858267716
11
5.7154538976377953
21
-4.9225798425196849
0
LINE
8
BLACK
6
CONTINUOUS
10
5.7154538976377953
20
-4.9225798425196849
11
5.7153971653543305
21
-4.9231559055118108
0
LINE
8
BLACK
6
CONTINUOUS
10
5.7153971653543305
20
-4.9231559055118108
11
5.7153565354330711
21
-4.9232538976377951
0
LINE
8
BLACK
6
CONTINUOUS
10
5.7153565354330711
20
-4.9232538976377951
11
5.7153490551181099
21
-4.9233597244094485
0
LINE
8
BLACK
6
CONTINUOUS
10
5.7153490551181099
20
-4.9233597244094485
11
5.7151421653543304
21
-4.9239003543307085
0
LINE
8
BLACK
6
CONTINUOUS
10
5.7151421653543304
20
-4.9239003543307085
11
5.7123300393700784
21
-4.9295246456692912
0
LINE
8
BLACK
6
CONTINUOUS
10
5.7123300393700784
20
-4.9295246456692912
11
5.7121740157480314
21
-4.9297724409448822
0
LINE
8
BLACK
6
CONTINUOUS
10
5.7121740157480314
20
-4.9297724409448822
11
5.7121441732283467
21
-4.9298446062992127
0
LINE
8
BLACK
6
CONTINUOUS
10
5.7121441732283467
20
-4.9298446062992127
11
5.7120775590551176
21
-4.9299257480314962
0
LINE
8
BLACK
6
CONTINUOUS
10
5.7120775590551176
20
-4.9299257480314962
11
5.7120216929133854
21
-4.930014527559055
0
LINE
8
BLACK
6
CONTINUOUS
10
5.7120216929133854
20
-4.930014527559055
11
5.7119627559055113
21
-4.93006562992126
0
LINE
8
BLACK
6
CONTINUOUS
10
5.7119627559055113
20
-4.93006562992126
11
5.7117769291338583
21
-4.9302920472440945
0
LINE
8
BLACK
6
CONTINUOUS
10
5.7117769291338583
20
-4.9302920472440945
11
5.7089647637795276
21
-4.9331042125984252
0
LINE
8
BLACK
6
CONTINUOUS
10
5.7089647637795276
20
-4.9331042125984252
11
5.7087383858267717
21
-4.9332899606299208
0
LINE
8
BLACK
6
CONTINUOUS
10
5.7087383858267717
20
-4.9332899606299208
11
5.708687244094488
21
-4.9333489763779523
0
LINE
8
BLACK
6
CONTINUOUS
10
5.708687244094488
20
-4.9333489763779523
11
5.7085982677165354
21
-4.9334049212598421
0
LINE
8
BLACK
6
CONTINUOUS
10
5.7085982677165354
20
-4.9334049212598421
11
5.7085173228346457
21
-4.9334714173228349
0
LINE
8
BLACK
6
CONTINUOUS
10
5.7085173228346457
20
-4.9334714173228349
11
5.7084453543307081
21
-4.9335012204724409
0
LINE
8
BLACK
6
CONTINUOUS
10
5.7084453543307081
20
-4.9335012204724409
11
5.7081973622047242
21
-4.9336573228346454
0
LINE
8
BLACK
6
CONTINUOUS
10
5.7081973622047242
20
-4.9336573228346454
11
5.7025730708661415
21
-4.9364694488188974
0
LINE
8
BLACK
6
CONTINUOUS
10
5.7025730708661415
20
-4.9364694488188974
11
5.7020324409448815
21
-4.9366763385826768
0
LINE
8
BLACK
6
CONTINUOUS
10
5.7020324409448815
20
-4.9366763385826768
11
5.7019266141732281
21
-4.9366838188976381
0
LINE
8
BLACK
6
CONTINUOUS
10
5.7019266141732281
20
-4.9366838188976381
11
5.7018286220472438
21
-4.9367244488188975
0
LINE
8
BLACK
6
CONTINUOUS
10
5.7018286220472438
20
-4.9367244488188975
11
5.701252559055118
21
-4.9367811811023623
0
LINE
8
BLACK
6
CONTINUOUS
10
5.701252559055118
20
-4.9367811811023623
11
5.6984873228346453
21
-4.9367811811023623
0
LINE
8
BLACK
6
CONTINUOUS
10
5.6984873228346453
20
-4.9367811811023623
11
5.7149201181102365
21
-4.9602566141732281
0
LINE
8
BLACK
6
CONTINUOUS
10
5.7149201181102365
20
-4.9602566141732281
11
5.7152040157480313
21
-4.9607611023622047
0
LINE
8
BLACK
6
CONTINUOUS
10
5.7152040157480313
20
-4.9607611023622047
11
5.7154531889763778
21
-4.9618859448818897
0
LINE
8
BLACK
6
CONTINUOUS
10
5.7154531889763778
20
-4.9618859448818897
11
5.7152529921259845
21
-4.9630204724409444
0
LINE
8
BLACK
6
CONTINUOUS
10
5.7152529921259845
20
-4.9630204724409444
11
5.7146338188976378
21
-4.9639920866141729
0
LINE
8
BLACK
6
CONTINUOUS
10
5.7146338188976378
20
-4.9639920866141729
11
5.713689960629921
21
-4.9646527952755903
0
LINE
8
BLACK
6
CONTINUOUS
10
5.713689960629921
20
-4.9646527952755903
11
5.7125651181102359
21
-4.9649019685039368
0
LINE
8
BLACK
6
CONTINUOUS
10
5.7125651181102359
20
-4.9649019685039368
11
5.7114305905511813
21
-4.9647017716535435
0
LINE
8
BLACK
6
CONTINUOUS
10
5.7114305905511813
20
-4.9647017716535435
11
5.7104589763779527
21
-4.9640825984251968
0
LINE
8
BLACK
6
CONTINUOUS
10
5.7104589763779527
20
-4.9640825984251968
11
5.710082165354331
21
-4.9636432283464567
0
LINE
8
BLACK
6
CONTINUOUS
10
5.710082165354331
20
-4.9636432283464567
11
5.6912787401574798
21
-4.9367811811023623
0
LINE
8
BLACK
6
CONTINUOUS
10
5.6912787401574798
20
-4.9367811811023623
11
5.6817081102362206
21
-4.9367811811023623
0
LINE
8
BLACK
6
CONTINUOUS
10
5.6817081102362206
20
-4.9367811811023623
11
5.6817081102362206
21
-4.9619499212598424
0
LINE
8
BLACK
6
CONTINUOUS
10
5.6817081102362206
20
-4.9619499212598424
11
5.6816513779527558
21
-4.9625259842519682
0
LINE
8
BLACK
6
CONTINUOUS
10
5.6816513779527558
20
-4.9625259842519682
11
5.6812104724409451
21
-4.9635903937007875
0
LINE
8
BLACK
6
CONTINUOUS
10
5.6812104724409451
20
-4.9635903937007875
11
5.6803958267716537
21
-4.9644050393700789
0
LINE
8
BLACK
6
CONTINUOUS
10
5.6803958267716537
20
-4.9644050393700789
11
5.6793314173228344
21
-4.9648459448818896
0
LINE
8
BLACK
6
CONTINUOUS
10
5.6793314173228344
20
-4.9648459448818896
11
5.6781792913385827
21
-4.9648459448818896
0
LINE
8
BLACK
6
CONTINUOUS
10
5.6781792913385827
20
-4.9648459448818896
11
5.6771148818897634
21
-4.9644050393700789
0
LINE
8
BLACK
6
CONTINUOUS
10
5.6771148818897634
20
-4.9644050393700789
11
5.676300236220472
21
-4.9635903937007875
0
LINE
8
BLACK
6
CONTINUOUS
10
5.676300236220472
20
-4.9635903937007875
11
5.6758593307086613
21
-4.9625259842519682
0
LINE
8
BLACK
6
CONTINUOUS
10
5.6758593307086613
20
-4.9625259842519682
11
5.6758025984251965
21
-4.9619499212598424
0
LINE
8
BLACK
6
CONTINUOUS
10
5.6758025984251965
20
-4.9619499212598424
11
5.6758025984251965
21
-4.9028948031496062
0
LINE
8
BLACK
6
CONTINUOUS
10
5.6758025984251965
20
-4.9028948031496062
11
5.6758593307086613
21
-4.9023187401574804
0
LINE
8
BLACK
6
CONTINUOUS
10
5.6758593307086613
20
-4.9023187401574804
11
5.676300236220472
21
-4.9012543307086611
0
LINE
8
BLACK
6
CONTINUOUS
10
5.676300236220472
20
-4.9012543307086611
11
5.6771148818897634
21
-4.9004396850393697
0
LINE
8
BLACK
6
CONTINUOUS
10
5.6771148818897634
20
-4.9004396850393697
11
5.6781792913385827
21
-4.899998779527559
0
LINE
8
BLACK
6
CONTINUOUS
10
5.6781792913385827
20
-4.899998779527559
11
5.6787553543307085
21
-4.8999420472440942
0
LINE
8
BLACK
6
CONTINUOUS
10
5.6787553543307085
20
-4.8999420472440942
11
5.701252559055118
21
-4.8999420472440942
0
LINE
8
BLACK
6
CONTINUOUS
10
5.701252559055118
20
-4.8999420472440942
11
5.7018286220472438
21
-4.899998779527559
0
LINE
8
BLACK
6
CONTINUOUS
10
5.6817081102362206
20
-4.9308756692913382
11
5.7005555118110234
21
-4.9308756692913382
0
LINE
8
BLACK
6
CONTINUOUS
10
5.7005555118110234
20
-4.9308756692913382
11
5.7051277559055116
21
-4.9285895275590548
0
LINE
8
BLACK
6
CONTINUOUS
10
5.7051277559055116
20
-4.9285895275590548
11
5.7072622440944878
21
-4.9264550393700786
0
LINE
8
BLACK
6
CONTINUOUS
10
5.7072622440944878
20
-4.9264550393700786
11
5.7095483858267713
21
-4.9218827952755904
0
LINE
8
BLACK
6
CONTINUOUS
10
5.7095483858267713
20
-4.9218827952755904
11
5.7095483858267713
21
-4.9148403937007874
0
LINE
8
BLACK
6
CONTINUOUS
10
5.7095483858267713
20
-4.9148403937007874
11
5.7072622834645665
21
-4.910268188976378
0
LINE
8
BLACK
6
CONTINUOUS
10
5.7072622834645665
20
-4.910268188976378
11
5.7051277559055116
21
-4.9081337007874017
0
LINE
8
BLACK
6
CONTINUOUS
10
5.7051277559055116
20
-4.9081337007874017
11
5.7005555118110234
21
-4.9058475590551183
0
LINE
8
BLACK
6
CONTINUOUS
10
5.7005555118110234
20
-4.9058475590551183
11
5.6817081102362206
21
-4.9058475590551183
0
LINE
8
BLACK
6
CONTINUOUS
10
5.6817081102362206
20
-4.9058475590551183
11
5.6817081102362206
21
-4.9308756692913382
0
LINE
8
BLACK
6
CONTINUOUS
10
6.1770816535433068
20
-4.899998779527559
11
6.1771796062992124
21
-4.9000393307086609
0
LINE
8
BLACK
6
CONTINUOUS
10
6.1771796062992124
20
-4.9000393307086609
11
6.1772855118110233
21
-4.9000468897637797
0
LINE
8
BLACK
6
CONTINUOUS
10
6.1772855118110233
20
-4.9000468897637797
11
6.1778261023622045
21
-4.9002537795275591
0
LINE
8
BLACK
6
CONTINUOUS
10
6.1778261023622045
20
-4.9002537795275591
11
6.1834503937007872
21
-4.9030659448818898
0
LINE
8
BLACK
6
CONTINUOUS
10
6.1834503937007872
20
-4.9030659448818898
11
6.1836982677165349
21
-4.9032219685039369
0
LINE
8
BLACK
6
CONTINUOUS
10
6.1836982677165349
20
-4.9032219685039369
11
6.18377031496063
21
-4.9032518110236216
0
LINE
8
BLACK
6
CONTINUOUS
10
6.18377031496063
20
-4.9032518110236216
11
6.1838513385826772
21
-4.9033183070866144
0
LINE
8
BLACK
6
CONTINUOUS
10
6.1838513385826772
20
-4.9033183070866144
11
6.183940275590551
21
-4.9033742913385829
0
LINE
8
BLACK
6
CONTINUOUS
10
6.183940275590551
20
-4.9033742913385829
11
6.1839914173228347
21
-4.9034332677165358
0
LINE
8
BLACK
6
CONTINUOUS
10
6.1839914173228347
20
-4.9034332677165358
11
6.1842177952755906
21
-4.90361905511811
0
LINE
8
BLACK
6
CONTINUOUS
10
6.1842177952755906
20
-4.90361905511811
11
6.1870299606299213
21
-4.906431181102362
0
LINE
8
BLACK
6
CONTINUOUS
10
6.1870299606299213
20
-4.906431181102362
11
6.1872157086614168
21
-4.906657519685039
0
LINE
8
BLACK
6
CONTINUOUS
10
6.1872157086614168
20
-4.906657519685039
11
6.1872747244094484
21
-4.9067087007874015
0
LINE
8
BLACK
6
CONTINUOUS
10
6.1872747244094484
20
-4.9067087007874015
11
6.1873306692913381
21
-4.9067976377952753
0
LINE
8
BLACK
6
CONTINUOUS
10
6.1873306692913381
20
-4.9067976377952753
11
6.1873971653543309
21
-4.9068786220472438
0
LINE
8
BLACK
6
CONTINUOUS
10
6.1873971653543309
20
-4.9068786220472438
11
6.1874269685039369
21
-4.9069505511811027
0
LINE
8
BLACK
6
CONTINUOUS
10
6.1874269685039369
20
-4.9069505511811027
11
6.1875830708661415
21
-4.9071985826771654
0
LINE
8
BLACK
6
CONTINUOUS
10
6.1875830708661415
20
-4.9071985826771654
11
6.1903951968503934
21
-4.912822874015748
0
LINE
8
BLACK
6
CONTINUOUS
10
6.1903951968503934
20
-4.912822874015748
11
6.1906020866141729
21
-4.913363503937008
0
LINE
8
BLACK
6
CONTINUOUS
10
6.1906020866141729
20
-4.913363503937008
11
6.1906095669291341
21
-4.9134692913385827
0
LINE
8
BLACK
6
CONTINUOUS
10
6.1906095669291341
20
-4.9134692913385827
11
6.1906501968503935
21
-4.9135673228346457
0
LINE
8
BLACK
6
CONTINUOUS
10
6.1906501968503935
20
-4.9135673228346457
11
6.1907069291338583
21
-4.9141433858267716
0
LINE
8
BLACK
6
CONTINUOUS
10
6.1907069291338583
20
-4.9141433858267716
11
6.1907069291338583
21
-4.9225798425196849
0
LINE
8
BLACK
6
CONTINUOUS
10
6.1907069291338583
20
-4.9225798425196849
11
6.1906501968503935
21
-4.9231559055118108
0
LINE
8
BLACK
6
CONTINUOUS
10
6.1906501968503935
20
-4.9231559055118108
11
6.1906095669291341
21
-4.9232538976377951
0
LINE
8
BLACK
6
CONTINUOUS
10
6.1906095669291341
20
-4.9232538976377951
11
6.1906020866141729
21
-4.9233597244094485
0
LINE
8
BLACK
6
CONTINUOUS
10
6.1906020866141729
20
-4.9233597244094485
11
6.1903951968503934
21
-4.9239003543307085
0
LINE
8
BLACK
6
CONTINUOUS
10
6.1903951968503934
20
-4.9239003543307085
11
6.1875830708661415
21
-4.9295246456692912
0
LINE
8
BLACK
6
CONTINUOUS
10
6.1875830708661415
20
-4.9295246456692912
11
6.1874270472440944
21
-4.9297724409448822
0
LINE
8
BLACK
6
CONTINUOUS
10
6.1874270472440944
20
-4.9297724409448822
11
6.1873972047244097
21
-4.9298446062992127
0
LINE
8
BLACK
6
CONTINUOUS
10
6.1873972047244097
20
-4.9298446062992127
11
6.1873305905511806
21
-4.9299257480314962
0
LINE
8
BLACK
6
CONTINUOUS
10
6.1873305905511806
20
-4.9299257480314962
11
6.1872747244094484
21
-4.930014527559055
0
LINE
8
BLACK
6
CONTINUOUS
10
6.1872747244094484
20
-4.930014527559055
11
6.1872157874015743
21
-4.93006562992126
0
LINE
8
BLACK
6
CONTINUOUS
10
6.1872157874015743
20
-4.93006562992126
11
6.1870299606299213
21
-4.9302920472440945
0
LINE
8
BLACK
6
CONTINUOUS
10
6.1870299606299213
20
-4.9302920472440945
11
6.1842177952755906
21
-4.9331042125984252
0
LINE
8
BLACK
6
CONTINUOUS
10
6.1842177952755906
20
-4.9331042125984252
11
6.1839914173228347
21
-4.9332899606299208
0
LINE
8
BLACK
6
CONTINUOUS
10
6.1839914173228347
20
-4.9332899606299208
11
6.183940275590551
21
-4.9333489763779523
0
LINE
8
BLACK
6
CONTINUOUS
10
6.183940275590551
20
-4.9333489763779523
11
6.1838512992125985
21
-4.9334049212598421
0
LINE
8
BLACK
6
CONTINUOUS
10
6.1838512992125985
20
-4.9334049212598421
11
6.1837703543307088
21
-4.9334714173228349
0
LINE
8
BLACK
6
CONTINUOUS
10
6.1837703543307088
20
-4.9334714173228349
11
6.1836983858267711
21
-4.9335012204724409
0
LINE
8
BLACK
6
CONTINUOUS
10
6.1836983858267711
20
-4.9335012204724409
11
6.1834503937007872
21
-4.9336573228346454
0
LINE
8
BLACK
6
CONTINUOUS
10
6.1834503937007872
20
-4.9336573228346454
11
6.1778261023622045
21
-4.9364694488188974
0
LINE
8
BLACK
6
CONTINUOUS
10
6.1778261023622045
20
-4.9364694488188974
11
6.1772854724409445
21
-4.9366763385826768
0
LINE
8
BLACK
6
CONTINUOUS
10
6.1772854724409445
20
-4.9366763385826768
11
6.1771796456692911
21
-4.9366838188976381
0
LINE
8
BLACK
6
CONTINUOUS
10
6.1771796456692911
20
-4.9366838188976381
11
6.1770816535433068
21
-4.9367244488188975
0
LINE
8
BLACK
6
CONTINUOUS
10
6.1770816535433068
20
-4.9367244488188975
11
6.176505590551181
21
-4.9367811811023623
0
LINE
8
BLACK
6
CONTINUOUS
10
6.176505590551181
20
-4.9367811811023623
11
6.1737403543307083
21
-4.9367811811023623
0
LINE
8
BLACK
6
CONTINUOUS
10
6.1737403543307083
20
-4.9367811811023623
11
6.1901731496062995
21
-4.9602566141732281
0
LINE
8
BLACK
6
CONTINUOUS
10
6.1901731496062995
20
-4.9602566141732281
11
6.1904570472440943
21
-4.9607611023622047
0
LINE
8
BLACK
6
CONTINUOUS
10
6.1904570472440943
20
-4.9607611023622047
11
6.1907062204724408
21
-4.9618859448818897
0
LINE
8
BLACK
6
CONTINUOUS
10
6.1907062204724408
20
-4.9618859448818897
11
6.1905060236220475
21
-4.9630204724409444
0
LINE
8
BLACK
6
CONTINUOUS
10
6.1905060236220475
20
-4.9630204724409444
11
6.1898868503937008
21
-4.9639920866141729
0
LINE
8
BLACK
6
CONTINUOUS
10
6.1898868503937008
20
-4.9639920866141729
11
6.188942992125984
21
-4.9646527952755903
0
LINE
8
BLACK
6
CONTINUOUS
10
6.188942992125984
20
-4.9646527952755903
11
6.1878181496062989
21
-4.9649019685039368
0
LINE
8
BLACK
6
CONTINUOUS
10
6.1878181496062989
20
-4.9649019685039368
11
6.1866836220472443
21
-4.9647017716535435
0
LINE
8
BLACK
6
CONTINUOUS
10
6.1866836220472443
20
-4.9647017716535435
11
6.1857120078740158
21
-4.9640825984251968
0
LINE
8
BLACK
6
CONTINUOUS
10
6.1857120078740158
20
-4.9640825984251968
11
6.1853351968503931
21
-4.9636432283464567
0
LINE
8
BLACK
6
CONTINUOUS
10
6.1853351968503931
20
-4.9636432283464567
11
6.1665317716535428
21
-4.9367811811023623
0
LINE
8
BLACK
6
CONTINUOUS
10
6.1665317716535428
20
-4.9367811811023623
11
6.1569611417322836
21
-4.9367811811023623
0
LINE
8
BLACK
6
CONTINUOUS
10
6.1569611417322836
20
-4.9367811811023623
11
6.1569611417322836
21
-4.9619499212598424
0
LINE
8
BLACK
6
CONTINUOUS
10
6.1569611417322836
20
-4.9619499212598424
11
6.1569044094488188
21
-4.9625259842519682
0
LINE
8
BLACK
6
CONTINUOUS
10
6.1569044094488188
20
-4.9625259842519682
11
6.1564635039370081
21
-4.9635903937007875
0
LINE
8
BLACK
6
CONTINUOUS
10
6.1564635039370081
20
-4.9635903937007875
11
6.1556488582677167
21
-4.9644050393700789
0
LINE
8
BLACK
6
CONTINUOUS
10
6.1556488582677167
20
-4.9644050393700789
11
6.1545844488188974
21
-4.9648459448818896
0
LINE
8
BLACK
6
CONTINUOUS
10
6.1545844488188974
20
-4.9648459448818896
11
6.1534323228346457
21
-4.9648459448818896
0
LINE
8
BLACK
6
CONTINUOUS
10
6.1534323228346457
20
-4.9648459448818896
11
6.1523679133858264
21
-4.9644050393700789
0
LINE
8
BLACK
6
CONTINUOUS
10
6.1523679133858264
20
-4.9644050393700789
11
6.151553267716535
21
-4.9635903937007875
0
LINE
8
BLACK
6
CONTINUOUS
10
6.151553267716535
20
-4.9635903937007875
11
6.1511123622047243
21
-4.9625259842519682
0
LINE
8
BLACK
6
CONTINUOUS
10
6.1511123622047243
20
-4.9625259842519682
11
6.1510556299212595
21
-4.9619499212598424
0
LINE
8
BLACK
6
CONTINUOUS
10
6.1510556299212595
20
-4.9619499212598424
11
6.1510556299212595
21
-4.9028948031496062
0
LINE
8
BLACK
6
CONTINUOUS
10
6.1510556299212595
20
-4.9028948031496062
11
6.1511123622047243
21
-4.9023187401574804
0
LINE
8
BLACK
6
CONTINUOUS
10
6.1511123622047243
20
-4.9023187401574804
11
6.151553267716535
21
-4.9012543307086611
0
LINE
8
BLACK
6
CONTINUOUS
10
6.151553267716535
20
-4.9012543307086611
11
6.1523679133858264
21
-4.9004396850393697
0
LINE
8
BLACK
6
CONTINUOUS
10
6.1523679133858264
20
-4.9004396850393697
11
6.1534323228346457
21
-4.899998779527559
0
LINE
8
BLACK
6
CONTINUOUS
10
6.1534323228346457
20
-4.899998779527559
11
6.1540083858267716
21
-4.8999420472440942
0
LINE
8
BLACK
6
CONTINUOUS
10
6.1540083858267716
20
-4.8999420472440942
11
6.176505590551181
21
-4.8999420472440942
0
LINE
8
BLACK
6
CONTINUOUS
10
6.176505590551181
20
-4.8999420472440942
11
6.1770816535433068
21
-4.899998779527559
0
LINE
8
BLACK
6
CONTINUOUS
10
6.1569611417322836
20
-4.9308756692913382
11
6.1758085433070864
21
-4.9308756692913382
0
LINE
8
BLACK
6
CONTINUOUS
10
6.1758085433070864
20
-4.9308756692913382
11
6.1803807874015746
21
-4.9285895275590548
0
LINE
8
BLACK
6
CONTINUOUS
10
6.1803807874015746
20
-4.9285895275590548
11
6.1825152755905508
21
-4.9264550393700786
0
LINE
8
BLACK
6
CONTINUOUS
10
6.1825152755905508
20
-4.9264550393700786
11
6.1848014173228343
21
-4.9218827952755904
0
LINE
8
BLACK
6
CONTINUOUS
10
6.1848014173228343
20
-4.9218827952755904
11
6.1848014173228343
21
-4.9148403937007874
0
LINE
8
BLACK
6
CONTINUOUS
10
6.1848014173228343
20
-4.9148403937007874
11
6.1825153149606296
21
-4.910268188976378
0
LINE
8
BLACK
6
CONTINUOUS
10
6.1825153149606296
20
-4.910268188976378
11
6.1803807874015746
21
-4.9081337007874017
0
LINE
8
BLACK
6
CONTINUOUS
10
6.1803807874015746
20
-4.9081337007874017
11
6.1758085433070864
21
-4.9058475590551183
0
LINE
8
BLACK
6
CONTINUOUS
10
6.1758085433070864
20
-4.9058475590551183
11
6.1569611417322836
21
-4.9058475590551183
0
LINE
8
BLACK
6
CONTINUOUS
10
6.1569611417322836
20
-4.9058475590551183
11
6.1569611417322836
21
-4.9308756692913382
0
LINE
8
BLACK
6
CONTINUOUS
10
5.8656934251968504
20
-4.9199467322834645
11
5.86659937007874
21
-4.9206585433070869
0
LINE
8
BLACK
6
CONTINUOUS
10
5.86659937007874
20
-4.9206585433070869
11
5.8671639370078736
21
-4.9216628740157482
0
LINE
8
BLACK
6
CONTINUOUS
10
5.8671639370078736
20
-4.9216628740157482
11
5.8673011811023619
21
-4.9228067322834645
0
LINE
8
BLACK
6
CONTINUOUS
10
5.8673011811023619
20
-4.9228067322834645
11
5.8669902755905508
21
-4.9239161023622042
0
LINE
8
BLACK
6
CONTINUOUS
10
5.8669902755905508
20
-4.9239161023622042
11
5.866678976377953
21
-4.9244041338582676
0
LINE
8
BLACK
6
CONTINUOUS
10
5.866678976377953
20
-4.9244041338582676
11
5.8526455118110237
21
-4.9422648818897637
0
LINE
8
BLACK
6
CONTINUOUS
10
5.8526455118110237
20
-4.9422648818897637
11
5.866678976377953
21
-4.9601256299212597
0
LINE
8
BLACK
6
CONTINUOUS
10
5.866678976377953
20
-4.9601256299212597
11
5.8669902755905508
21
-4.9606136614173231
0
LINE
8
BLACK
6
CONTINUOUS
10
5.8669902755905508
20
-4.9606136614173231
11
5.8673011811023619
21
-4.9617230314960628
0
LINE
8
BLACK
6
CONTINUOUS
10
5.8673011811023619
20
-4.9617230314960628
11
5.8671639370078736
21
-4.9628668897637791
0
LINE
8
BLACK
6
CONTINUOUS
10
5.8671639370078736
20
-4.9628668897637791
11
5.86659937007874
21
-4.9638712204724404
0
LINE
8
BLACK
6
CONTINUOUS
10
5.86659937007874
20
-4.9638712204724404
11
5.8656934251968504
21
-4.9645830314960628
0
LINE
8
BLACK
6
CONTINUOUS
10
5.8656934251968504
20
-4.9645830314960628
11
5.8645840551181099
21
-4.964893937007874
0
LINE
8
BLACK
6
CONTINUOUS
10
5.8645840551181099
20
-4.964893937007874
11
5.8634401968503935
21
-4.9647566929133857
0
LINE
8
BLACK
6
CONTINUOUS
10
5.8634401968503935
20
-4.9647566929133857
11
5.8624358661417322
21
-4.9641921259842521
0
LINE
8
BLACK
6
CONTINUOUS
10
5.8624358661417322
20
-4.9641921259842521
11
5.8620353543307084
21
-4.963774212598425
0
LINE
8
BLACK
6
CONTINUOUS
10
5.8620353543307084
20
-4.963774212598425
11
5.8488903149606299
21
-4.9470441732283463
0
LINE
8
BLACK
6
CONTINUOUS
10
5.8488903149606299
20
-4.9470441732283463
11
5.8357453149606302
21
-4.963774212598425
0
LINE
8
BLACK
6
CONTINUOUS
10
5.8357453149606302
20
-4.963774212598425
11
5.8353448031496065
21
-4.9641921259842521
0
LINE
8
BLACK
6
CONTINUOUS
10
5.8353448031496065
20
-4.9641921259842521
11
5.8343404724409451
21
-4.9647566929133857
0
LINE
8
BLACK
6
CONTINUOUS
10
5.8343404724409451
20
-4.9647566929133857
11
5.8331966141732279
21
-4.964893937007874
0
LINE
8
BLACK
6
CONTINUOUS
10
5.8331966141732279
20
-4.964893937007874
11
5.8320872440944882
21
-4.9645830314960628
0
LINE
8
BLACK
6
CONTINUOUS
10
5.8320872440944882
20
-4.9645830314960628
11
5.8311812992125986
21
-4.9638712204724404
0
LINE
8
BLACK
6
CONTINUOUS
10
5.8311812992125986
20
-4.9638712204724404
11
5.8306167322834641
21
-4.9628668897637791
0
LINE
8
BLACK
6
CONTINUOUS
10
5.8306167322834641
20
-4.9628668897637791
11
5.8304794881889759
21
-4.9617230314960628
0
LINE
8
BLACK
6
CONTINUOUS
10
5.8304794881889759
20
-4.9617230314960628
11
5.830790393700787
21
-4.9606136614173231
0
LINE
8
BLACK
6
CONTINUOUS
10
5.830790393700787
20
-4.9606136614173231
11
5.8311016929133856
21
-4.9601256299212597
0
LINE
8
BLACK
6
CONTINUOUS
10
5.8311016929133856
20
-4.9601256299212597
11
5.8451351181102362
21
-4.9422648818897637
0
LINE
8
BLACK
6
CONTINUOUS
10
5.8451351181102362
20
-4.9422648818897637
11
5.8311016929133856
21
-4.9244041338582676
0
LINE
8
BLACK
6
CONTINUOUS
10
5.8311016929133856
20
-4.9244041338582676
11
5.830790393700787
21
-4.9239161023622042
0
LINE
8
BLACK
6
CONTINUOUS
10
5.830790393700787
20
-4.9239161023622042
11
5.8304794881889759
21
-4.9228067322834645
0
LINE
8
BLACK
6
CONTINUOUS
10
5.8304794881889759
20
-4.9228067322834645
11
5.8306167322834641
21
-4.9216628740157482
0
LINE
8
BLACK
6
CONTINUOUS
10
5.8306167322834641
20
-4.9216628740157482
11
5.8311812992125986
21
-4.9206585433070869
0
LINE
8
BLACK
6
CONTINUOUS
10
5.8311812992125986
20
-4.9206585433070869
11
5.8320872440944882
21
-4.9199467322834645
0
LINE
8
BLACK
6
CONTINUOUS
10
5.8320872440944882
20
-4.9199467322834645
11
5.8331966141732279
21
-4.9196358267716533
0
LINE
8
BLACK
6
CONTINUOUS
10
5.8331966141732279
20
-4.9196358267716533
11
5.8343404724409451
21
-4.9197730708661416
0
LINE
8
BLACK
6
CONTINUOUS
10
5.8343404724409451
20
-4.9197730708661416
11
5.8353448031496065
21
-4.9203376377952752
0
LINE
8
BLACK
6
CONTINUOUS
10
5.8353448031496065
20
-4.9203376377952752
11
5.8357453149606302
21
-4.9207555511811023
0
LINE
8
BLACK
6
CONTINUOUS
10
5.8357453149606302
20
-4.9207555511811023
11
5.8488903149606299
21
-4.9374855511811022
0
LINE
8
BLACK
6
CONTINUOUS
10
5.8488903149606299
20
-4.9374855511811022
11
5.8620353543307084
21
-4.9207555511811023
0
LINE
8
BLACK
6
CONTINUOUS
10
5.8620353543307084
20
-4.9207555511811023
11
5.8624358661417322
21
-4.9203376377952752
0
LINE
8
BLACK
6
CONTINUOUS
10
5.8624358661417322
20
-4.9203376377952752
11
5.8634401968503935
21
-4.9197730708661416
0
LINE
8
BLACK
6
CONTINUOUS
10
5.8634401968503935
20
-4.9197730708661416
11
5.8645840551181099
21
-4.9196358267716533
0
LINE
8
BLACK
6
CONTINUOUS
10
5.8645840551181099
20
-4.9196358267716533
11
5.8656934251968504
21
-4.9199467322834645
0
LINE
8
BLACK
6
CONTINUOUS
10
5.5274688582677163
20
-4.9000319685039369
11
5.5276792913385826
21
-4.9000469291338584
0
LINE
8
BLACK
6
CONTINUOUS
10
5.5276792913385826
20
-4.9000469291338584
11
5.5280103543307089
21
-4.9002124409448822
0
LINE
8
BLACK
6
CONTINUOUS
10
5.5280103543307089
20
-4.9002124409448822
11
5.5283616929133856
21
-4.900329566929134
0
LINE
8
BLACK
6
CONTINUOUS
10
5.5283616929133856
20
-4.900329566929134
11
5.5285210629921258
21
-4.9004677952755902
0
LINE
8
BLACK
6
CONTINUOUS
10
5.5285210629921258
20
-4.9004677952755902
11
5.528709724409449
21
-4.9005621259842522
0
LINE
8
BLACK
6
CONTINUOUS
10
5.528709724409449
20
-4.9005621259842522
11
5.5289523228346455
21
-4.9008418110236223
0
LINE
8
BLACK
6
CONTINUOUS
10
5.5289523228346455
20
-4.9008418110236223
11
5.5292320472440943
21
-4.9010844488188976
0
LINE
8
BLACK
6
CONTINUOUS
10
5.5292320472440943
20
-4.9010844488188976
11
5.5293263779527555
21
-4.9012731102362199
0
LINE
8
BLACK
6
CONTINUOUS
10
5.5293263779527555
20
-4.9012731102362199
11
5.5294646062992125
21
-4.9014324803149609
0
LINE
8
BLACK
6
CONTINUOUS
10
5.5294646062992125
20
-4.9014324803149609
11
5.5297005905511813
21
-4.9019610629921262
0
LINE
8
BLACK
6
CONTINUOUS
10
5.5297005905511813
20
-4.9019610629921262
11
5.5493856299212601
21
-4.9610161811023623
0
LINE
8
BLACK
6
CONTINUOUS
10
5.5493856299212601
20
-4.9610161811023623
11
5.5495139763779529
21
-4.9615806299212597
0
LINE
8
BLACK
6
CONTINUOUS
10
5.5495139763779529
20
-4.9615806299212597
11
5.5494323228346456
21
-4.9627298425196846
0
LINE
8
BLACK
6
CONTINUOUS
10
5.5494323228346456
20
-4.9627298425196846
11
5.548917086614173
21
-4.963760275590551
0
LINE
8
BLACK
6
CONTINUOUS
10
5.548917086614173
20
-4.963760275590551
11
5.5480467322834643
21
-4.9645151574803146
0
LINE
8
BLACK
6
CONTINUOUS
10
5.5480467322834643
20
-4.9645151574803146
11
5.5469537007874017
21
-4.9648794881889762
0
LINE
8
BLACK
6
CONTINUOUS
10
5.5469537007874017
20
-4.9648794881889762
11
5.5458044881889759
21
-4.9647978346456689
0
LINE
8
BLACK
6
CONTINUOUS
10
5.5458044881889759
20
-4.9647978346456689
11
5.5447740551181104
21
-4.9642825984251964
0
LINE
8
BLACK
6
CONTINUOUS
10
5.5447740551181104
20
-4.9642825984251964
11
5.5440191732283459
21
-4.9634122440944877
0
LINE
8
BLACK
6
CONTINUOUS
10
5.5440191732283459
20
-4.9634122440944877
11
5.543783188976378
21
-4.9628836614173224
0
LINE
8
BLACK
6
CONTINUOUS
10
5.543783188976378
20
-4.9628836614173224
11
5.5388318897637792
21
-4.9480298031496064
0
LINE
8
BLACK
6
CONTINUOUS
10
5.5388318897637792
20
-4.9480298031496064
11
5.5149668503937006
21
-4.9480298031496064
0
LINE
8
BLACK
6
CONTINUOUS
10
5.5149668503937006
20
-4.9480298031496064
11
5.5100155511811026
21
-4.9628836614173224
0
LINE
8
BLACK
6
CONTINUOUS
10
5.5100155511811026
20
-4.9628836614173224
11
5.5097795669291338
21
-4.9634122440944877
0
LINE
8
BLACK
6
CONTINUOUS
10
5.5097795669291338
20
-4.9634122440944877
11
5.5090246850393703
21
-4.9642825984251964
0
LINE
8
BLACK
6
CONTINUOUS
10
5.5090246850393703
20
-4.9642825984251964
11
5.5079942519685039
21
-4.9647977952755902
0
LINE
8
BLACK
6
CONTINUOUS
10
5.5079942519685039
20
-4.9647977952755902
11
5.506845039370079
21
-4.9648794881889762
0
LINE
8
BLACK
6
CONTINUOUS
10
5.506845039370079
20
-4.9648794881889762
11
5.5057520078740154
21
-4.9645151574803146
0
LINE
8
BLACK
6
CONTINUOUS
10
5.5057520078740154
20
-4.9645151574803146
11
5.5048816535433067
21
-4.963760275590551
0
LINE
8
BLACK
6
CONTINUOUS
10
5.5048816535433067
20
-4.963760275590551
11
5.5043664566929129
21
-4.9627298425196846
0
LINE
8
BLACK
6
CONTINUOUS
10
5.5043664566929129
20
-4.9627298425196846
11
5.5042847637795278
21
-4.9615806299212597
0
LINE
8
BLACK
6
CONTINUOUS
10
5.5042847637795278
20
-4.9615806299212597
11
5.5044131102362206
21
-4.9610161811023623
0
LINE
8
BLACK
6
CONTINUOUS
10
5.5044131102362206
20
-4.9610161811023623
11
5.5240981496062993
21
-4.9019610629921262
0
LINE
8
BLACK
6
CONTINUOUS
10
5.5240981496062993
20
-4.9019610629921262
11
5.5243341338582672
21
-4.9014324803149609
0
LINE
8
BLACK
6
CONTINUOUS
10
5.5243341338582672
20
-4.9014324803149609
11
5.5244723622047243
21
-4.9012730708661421
0
LINE
8
BLACK
6
CONTINUOUS
10
5.5244723622047243
20
-4.9012730708661421
11
5.5245666929133854
21
-4.9010844488188976
0
LINE
8
BLACK
6
CONTINUOUS
10
5.5245666929133854
20
-4.9010844488188976
11
5.5248463779527555
21
-4.9008418110236223
0
LINE
8
BLACK
6
CONTINUOUS
10
5.5248463779527555
20
-4.9008418110236223
11
5.5250890157480317
21
-4.9005621259842522
0
LINE
8
BLACK
6
CONTINUOUS
10
5.5250890157480317
20
-4.9005621259842522
11
5.525277677165354
21
-4.9004677559055114
0
LINE
8
BLACK
6
CONTINUOUS
10
5.525277677165354
20
-4.9004677559055114
11
5.5254370472440941
21
-4.900329566929134
0
LINE
8
BLACK
6
CONTINUOUS
10
5.5254370472440941
20
-4.900329566929134
11
5.525788188976378
21
-4.9002124803149609
0
LINE
8
BLACK
6
CONTINUOUS
10
5.525788188976378
20
-4.9002124803149609
11
5.5261194488188972
21
-4.9000468897637797
0
LINE
8
BLACK
6
CONTINUOUS
10
5.5261194488188972
20
-4.9000468897637797
11
5.526329960629921
21
-4.9000319291338581
0
LINE
8
BLACK
6
CONTINUOUS
10
5.526329960629921
20
-4.9000319291338581
11
5.5265300787401577
21
-4.8999652362204724
0
LINE
8
BLACK
6
CONTINUOUS
10
5.5265300787401577
20
-4.8999652362204724
11
5.5268992519685041
21
-4.8999914566929137
0
LINE
8
BLACK
6
CONTINUOUS
10
5.5268992519685041
20
-4.8999914566929137
11
5.527268661417323
21
-4.8999652362204724
0
LINE
8
BLACK
6
CONTINUOUS
10
5.527268661417323
20
-4.8999652362204724
11
5.5274688582677163
21
-4.9000319685039369
0
LINE
8
BLACK
6
CONTINUOUS
10
5.5169353543307089
20
-4.9421242913385823
11
5.5368633858267717
21
-4.9421242913385823
0
LINE
8
BLACK
6
CONTINUOUS
10
5.5368633858267717
20
-4.9421242913385823
11
5.5268993700787403
21
-4.9122322047244094
0
LINE
8
BLACK
6
CONTINUOUS
10
5.5268993700787403
20
-4.9122322047244094
11
5.5169353543307089
21
-4.9421242913385823
0
LINE
8
BLACK
6
CONTINUOUS
10
6.1152078346456689
20
-4.9000319685039369
11
6.1154182677165352
21
-4.9000469291338584
0
LINE
8
BLACK
6
CONTINUOUS
10
6.1154182677165352
20
-4.9000469291338584
11
6.1157493307086614
21
-4.9002124409448822
0
LINE
8
BLACK
6
CONTINUOUS
10
6.1157493307086614
20
-4.9002124409448822
11
6.1161006692913382
21
-4.900329566929134
0
LINE
8
BLACK
6
CONTINUOUS
10
6.1161006692913382
20
-4.900329566929134
11
6.1162600393700783
21
-4.9004677952755902
0
LINE
8
BLACK
6
CONTINUOUS
10
6.1162600393700783
20
-4.9004677952755902
11
6.1164487007874015
21
-4.9005621259842522
0
LINE
8
BLACK
6
CONTINUOUS
10
6.1164487007874015
20
-4.9005621259842522
11
6.1166912992125981
21
-4.9008418110236223
0
LINE
8
BLACK
6
CONTINUOUS
10
6.1166912992125981
20
-4.9008418110236223
11
6.1169710236220469
21
-4.9010844488188976
0
LINE
8
BLACK
6
CONTINUOUS
10
6.1169710236220469
20
-4.9010844488188976
11
6.1170653543307081
21
-4.9012731102362199
0
LINE
8
BLACK
6
CONTINUOUS
10
6.1170653543307081
20
-4.9012731102362199
11
6.1172035826771651
21
-4.9014324803149609
0
LINE
8
BLACK
6
CONTINUOUS
10
6.1172035826771651
20
-4.9014324803149609
11
6.1174395669291339
21
-4.9019610629921262
0
LINE
8
BLACK
6
CONTINUOUS
10
6.1174395669291339
20
-4.9019610629921262
11
6.1371246062992126
21
-4.9610161811023623
0
LINE
8
BLACK
6
CONTINUOUS
10
6.1371246062992126
20
-4.9610161811023623
11
6.1372529527559054
21
-4.9615806299212597
0
LINE
8
BLACK
6
CONTINUOUS
10
6.1372529527559054
20
-4.9615806299212597
11
6.1371712992125982
21
-4.9627298425196846
0
LINE
8
BLACK
6
CONTINUOUS
10
6.1371712992125982
20
-4.9627298425196846
11
6.1366560629921256
21
-4.963760275590551
0
LINE
8
BLACK
6
CONTINUOUS
10
6.1366560629921256
20
-4.963760275590551
11
6.1357857086614169
21
-4.9645151574803146
0
LINE
8
BLACK
6
CONTINUOUS
10
6.1357857086614169
20
-4.9645151574803146
11
6.1346926771653543
21
-4.9648794881889762
0
LINE
8
BLACK
6
CONTINUOUS
10
6.1346926771653543
20
-4.9648794881889762
11
6.1335434645669293
21
-4.9647978346456689
0
LINE
8
BLACK
6
CONTINUOUS
10
6.1335434645669293
20
-4.9647978346456689
11
6.132513031496063
21
-4.9642825984251964
0
LINE
8
BLACK
6
CONTINUOUS
10
6.132513031496063
20
-4.9642825984251964
11
6.1317581496062994
21
-4.9634122440944877
0
LINE
8
BLACK
6
CONTINUOUS
10
6.1317581496062994
20
-4.9634122440944877
11
6.1315221653543306
21
-4.9628836614173224
0
LINE
8
BLACK
6
CONTINUOUS
10
6.1315221653543306
20
-4.9628836614173224
11
6.1265708661417317
21
-4.9480298031496064
0
LINE
8
BLACK
6
CONTINUOUS
10
6.1265708661417317
20
-4.9480298031496064
11
6.1027058267716532
21
-4.9480298031496064
0
LINE
8
BLACK
6
CONTINUOUS
10
6.1027058267716532
20
-4.9480298031496064
11
6.0977545275590552
21
-4.9628836614173224
0
LINE
8
BLACK
6
CONTINUOUS
10
6.0977545275590552
20
-4.9628836614173224
11
6.0975185433070864
21
-4.9634122440944877
0
LINE
8
BLACK
6
CONTINUOUS
10
6.0975185433070864
20
-4.9634122440944877
11
6.0967636614173228
21
-4.9642825984251964
0
LINE
8
BLACK
6
CONTINUOUS
10
6.0967636614173228
20
-4.9642825984251964
11
6.0957332283464565
21
-4.9647977952755902
0
LINE
8
BLACK
6
CONTINUOUS
10
6.0957332283464565
20
-4.9647977952755902
11
6.0945840157480315
21
-4.9648794881889762
0
LINE
8
BLACK
6
CONTINUOUS
10
6.0945840157480315
20
-4.9648794881889762
11
6.093490984251968
21
-4.9645151574803146
0
LINE
8
BLACK
6
CONTINUOUS
10
6.093490984251968
20
-4.9645151574803146
11
6.0926206299212593
21
-4.963760275590551
0
LINE
8
BLACK
6
CONTINUOUS
10
6.0926206299212593
20
-4.963760275590551
11
6.0921054330708664
21
-4.9627298425196846
0
LINE
8
BLACK
6
CONTINUOUS
10
6.0921054330708664
20
-4.9627298425196846
11
6.0920237401574804
21
-4.9615806299212597
0
LINE
8
BLACK
6
CONTINUOUS
10
6.0920237401574804
20
-4.9615806299212597
11
6.0921520866141732
21
-4.9610161811023623
0
LINE
8
BLACK
6
CONTINUOUS
10
6.0921520866141732
20
-4.9610161811023623
11
6.1118371259842519
21
-4.9019610629921262
0
LINE
8
BLACK
6
CONTINUOUS
10
6.1118371259842519
20
-4.9019610629921262
11
6.1120731102362207
21
-4.9014324803149609
0
LINE
8
BLACK
6
CONTINUOUS
10
6.1120731102362207
20
-4.9014324803149609
11
6.1122113385826768
21
-4.9012730708661421
0
LINE
8
BLACK
6
CONTINUOUS
10
6.1122113385826768
20
-4.9012730708661421
11
6.112305669291338
21
-4.9010844488188976
0
LINE
8
BLACK
6
CONTINUOUS
10
6.112305669291338
20
-4.9010844488188976
11
6.1125853543307089
21
-4.9008418110236223
0
LINE
8
BLACK
6
CONTINUOUS
10
6.1125853543307089
20
-4.9008418110236223
11
6.1128279921259843
21
-4.9005621259842522
0
LINE
8
BLACK
6
CONTINUOUS
10
6.1128279921259843
20
-4.9005621259842522
11
6.1130166535433066
21
-4.9004677559055114
0
LINE
8
BLACK
6
CONTINUOUS
10
6.1130166535433066
20
-4.9004677559055114
11
6.1131760236220467
21
-4.900329566929134
0
LINE
8
BLACK
6
CONTINUOUS
10
6.1131760236220467
20
-4.900329566929134
11
6.1135271653543306
21
-4.9002124803149609
0
LINE
8
BLACK
6
CONTINUOUS
10
6.1135271653543306
20
-4.9002124803149609
11
6.1138584251968506
21
-4.9000468897637797
0
LINE
8
BLACK
6
CONTINUOUS
10
6.1138584251968506
20
-4.9000468897637797
11
6.1140689370078736
21
-4.9000319291338581
0
LINE
8
BLACK
6
CONTINUOUS
10
6.1140689370078736
20
-4.9000319291338581
11
6.1142690551181103
21
-4.8999652362204724
0
LINE
8
BLACK
6
CONTINUOUS
10
6.1142690551181103
20
-4.8999652362204724
11
6.1146382283464566
21
-4.8999914566929137
0
LINE
8
BLACK
6
CONTINUOUS
10
6.1146382283464566
20
-4.8999914566929137
11
6.1150076377952756
21
-4.8999652362204724
0
LINE
8
BLACK
6
CONTINUOUS
10
6.1150076377952756
20
-4.8999652362204724
11
6.1152078346456689
21
-4.9000319685039369
0
LINE
8
BLACK
6
CONTINUOUS
10
6.1046743307086615
20
-4.9421242913385823
11
6.1246023622047243
21
-4.9421242913385823
0
LINE
8
BLACK
6
CONTINUOUS
10
6.1246023622047243
20
-4.9421242913385823
11
6.1146383464566929
21
-4.9122322047244094
0
LINE
8
BLACK
6
CONTINUOUS
10
6.1146383464566929
20
-4.9122322047244094
11
6.1046743307086615
21
-4.9421242913385823
0
LINE
8
BLACK
6
CONTINUOUS
10
6.2248816141732286
20
-4.9000319685039369
11
6.225092047244094
21
-4.9000469291338584
0
LINE
8
BLACK
6
CONTINUOUS
10
6.225092047244094
20
-4.9000469291338584
11
6.2254231102362203
21
-4.9002124409448822
0
LINE
8
BLACK
6
CONTINUOUS
10
6.2254231102362203
20
-4.9002124409448822
11
6.2257744488188971
21
-4.900329566929134
0
LINE
8
BLACK
6
CONTINUOUS
10
6.2257744488188971
20
-4.900329566929134
11
6.2259338188976381
21
-4.9004677952755902
0
LINE
8
BLACK
6
CONTINUOUS
10
6.2259338188976381
20
-4.9004677952755902
11
6.2261224803149604
21
-4.9005621259842522
0
LINE
8
BLACK
6
CONTINUOUS
10
6.2261224803149604
20
-4.9005621259842522
11
6.226365078740157
21
-4.9008418110236223
0
LINE
8
BLACK
6
CONTINUOUS
10
6.226365078740157
20
-4.9008418110236223
11
6.2266448031496058
21
-4.9010844488188976
0
LINE
8
BLACK
6
CONTINUOUS
10
6.2266448031496058
20
-4.9010844488188976
11
6.2267391338582678
21
-4.9012731102362199
0
LINE
8
BLACK
6
CONTINUOUS
10
6.2267391338582678
20
-4.9012731102362199
11
6.226877362204724
21
-4.9014324803149609
0
LINE
8
BLACK
6
CONTINUOUS
10
6.226877362204724
20
-4.9014324803149609
11
6.2271133464566928
21
-4.9019610629921262
0
LINE
8
BLACK
6
CONTINUOUS
10
6.2271133464566928
20
-4.9019610629921262
11
6.2467983858267715
21
-4.9610161811023623
0
LINE
8
BLACK
6
CONTINUOUS
10
6.2467983858267715
20
-4.9610161811023623
11
6.2469267322834643
21
-4.9615806299212597
0
LINE
8
BLACK
6
CONTINUOUS
10
6.2469267322834643
20
-4.9615806299212597
11
6.246845078740157
21
-4.9627298425196846
0
LINE
8
BLACK
6
CONTINUOUS
10
6.246845078740157
20
-4.9627298425196846
11
6.2463298425196845
21
-4.963760275590551
0
LINE
8
BLACK
6
CONTINUOUS
10
6.2463298425196845
20
-4.963760275590551
11
6.2454594881889767
21
-4.9645151574803146
0
LINE
8
BLACK
6
CONTINUOUS
10
6.2454594881889767
20
-4.9645151574803146
11
6.2443664566929131
21
-4.9648794881889762
0
LINE
8
BLACK
6
CONTINUOUS
10
6.2443664566929131
20
-4.9648794881889762
11
6.2432172440944882
21
-4.9647978346456689
0
LINE
8
BLACK
6
CONTINUOUS
10
6.2432172440944882
20
-4.9647978346456689
11
6.2421868110236218
21
-4.9642825984251964
0
LINE
8
BLACK
6
CONTINUOUS
10
6.2421868110236218
20
-4.9642825984251964
11
6.2414319291338582
21
-4.9634122440944877
0
LINE
8
BLACK
6
CONTINUOUS
10
6.2414319291338582
20
-4.9634122440944877
11
6.2411959448818894
21
-4.9628836614173224
0
LINE
8
BLACK
6
CONTINUOUS
10
6.2411959448818894
20
-4.9628836614173224
11
6.2362446456692915
21
-4.9480298031496064
0
LINE
8
BLACK
6
CONTINUOUS
10
6.2362446456692915
20
-4.9480298031496064
11
6.212379606299212
21
-4.9480298031496064
0
LINE
8
BLACK
6
CONTINUOUS
10
6.212379606299212
20
-4.9480298031496064
11
6.2074283070866141
21
-4.9628836614173224
0
LINE
8
BLACK
6
CONTINUOUS
10
6.2074283070866141
20
-4.9628836614173224
11
6.2071923228346453
21
-4.9634122440944877
0
LINE
8
BLACK
6
CONTINUOUS
10
6.2071923228346453
20
-4.9634122440944877
11
6.2064374409448817
21
-4.9642825984251964
0
LINE
8
BLACK
6
CONTINUOUS
10
6.2064374409448817
20
-4.9642825984251964
11
6.2054070078740153
21
-4.9647977952755902
0
LINE
8
BLACK
6
CONTINUOUS
10
6.2054070078740153
20
-4.9647977952755902
11
6.2042577952755904
21
-4.9648794881889762
0
LINE
8
BLACK
6
CONTINUOUS
10
6.2042577952755904
20
-4.9648794881889762
11
6.2031647637795277
21
-4.9645151574803146
0
LINE
8
BLACK
6
CONTINUOUS
10
6.2031647637795277
20
-4.9645151574803146
11
6.202294409448819
21
-4.963760275590551
0
LINE
8
BLACK
6
CONTINUOUS
10
6.202294409448819
20
-4.963760275590551
11
6.2017792125984252
21
-4.9627298425196846
0
LINE
8
BLACK
6
CONTINUOUS
10
6.2017792125984252
20
-4.9627298425196846
11
6.2016975196850392
21
-4.9615806299212597
0
LINE
8
BLACK
6
CONTINUOUS
10
6.2016975196850392
20
-4.9615806299212597
11
6.201825866141732
21
-4.9610161811023623
0
LINE
8
BLACK
6
CONTINUOUS
10
6.201825866141732
20
-4.9610161811023623
11
6.2215109055118107
21
-4.9019610629921262
0
LINE
8
BLACK
6
CONTINUOUS
10
6.2215109055118107
20
-4.9019610629921262
11
6.2217468897637795
21
-4.9014324803149609
0
LINE
8
BLACK
6
CONTINUOUS
10
6.2217468897637795
20
-4.9014324803149609
11
6.2218851181102357
21
-4.9012730708661421
0
LINE
8
BLACK
6
CONTINUOUS
10
6.2218851181102357
20
-4.9012730708661421
11
6.2219794488188978
21
-4.9010844488188976
0
LINE
8
BLACK
6
CONTINUOUS
10
6.2219794488188978
20
-4.9010844488188976
11
6.2222591338582678
21
-4.9008418110236223
0
LINE
8
BLACK
6
CONTINUOUS
10
6.2222591338582678
20
-4.9008418110236223
11
6.2225017716535431
21
-4.9005621259842522
0
LINE
8
BLACK
6
CONTINUOUS
10
6.2225017716535431
20
-4.9005621259842522
11
6.2226904330708663
21
-4.9004677559055114
0
LINE
8
BLACK
6
CONTINUOUS
10
6.2226904330708663
20
-4.9004677559055114
11
6.2228498031496065
21
-4.900329566929134
0
LINE
8
BLACK
6
CONTINUOUS
10
6.2228498031496065
20
-4.900329566929134
11
6.2232009448818895
21
-4.9002124803149609
0
LINE
8
BLACK
6
CONTINUOUS
10
6.2232009448818895
20
-4.9002124803149609
11
6.2235322047244095
21
-4.9000468897637797
0
LINE
8
BLACK
6
CONTINUOUS
10
6.2235322047244095
20
-4.9000468897637797
11
6.2237427165354333
21
-4.9000319291338581
0
LINE
8
BLACK
6
CONTINUOUS
10
6.2237427165354333
20
-4.9000319291338581
11
6.2239428346456691
21
-4.8999652362204724
0
LINE
8
BLACK
6
CONTINUOUS
10
6.2239428346456691
20
-4.8999652362204724
11
6.2243120078740155
21
-4.8999914566929137
0
LINE
8
BLACK
6
CONTINUOUS
10
6.2243120078740155
20
-4.8999914566929137
11
6.2246814173228344
21
-4.8999652362204724
0
LINE
8
BLACK
6
CONTINUOUS
10
6.2246814173228344
20
-4.8999652362204724
11
6.2248816141732286
21
-4.9000319685039369
0
LINE
8
BLACK
6
CONTINUOUS
10
6.2143481102362204
20
-4.9421242913385823
11
6.2342761417322832
21
-4.9421242913385823
0
LINE
8
BLACK
6
CONTINUOUS
10
6.2342761417322832
20
-4.9421242913385823
11
6.2243121259842518
21
-4.9122322047244094
0
LINE
8
BLACK
6
CONTINUOUS
10
6.2243121259842518
20
-4.9122322047244094
11
6.2143481102362204
21
-4.9421242913385823
0
LINE
8
BLACK
6
CONTINUOUS
10
5.4019931102362202
20
-4.9004396850393697
11
5.4028077559055117
21
-4.9012543307086611
0
LINE
8
BLACK
6
CONTINUOUS
10
5.4028077559055117
20
-4.9012543307086611
11
5.4032486614173223
21
-4.9023187401574804
0
LINE
8
BLACK
6
CONTINUOUS
10
5.4032486614173223
20
-4.9023187401574804
11
5.4033053937007871
21
-4.9028948031496062
0
LINE
8
BLACK
6
CONTINUOUS
10
5.4033053937007871
20
-4.9028948031496062
11
5.4033053937007871
21
-4.9280635433070863
0
LINE
8
BLACK
6
CONTINUOUS
10
5.4033053937007871
20
-4.9280635433070863
11
5.4311456692913387
21
-4.9280635433070863
0
LINE
8
BLACK
6
CONTINUOUS
10
5.4311456692913387
20
-4.9280635433070863
11
5.4311456692913387
21
-4.9028948031496062
0
LINE
8
BLACK
6
CONTINUOUS
10
5.4311456692913387
20
-4.9028948031496062
11
5.4312024015748026
21
-4.9023187401574804
0
LINE
8
BLACK
6
CONTINUOUS
10
5.4312024015748026
20
-4.9023187401574804
11
5.4316433070866141
21
-4.9012543307086611
0
LINE
8
BLACK
6
CONTINUOUS
10
5.4316433070866141
20
-4.9012543307086611
11
5.4324579527559056
21
-4.9004396850393697
0
LINE
8
BLACK
6
CONTINUOUS
10
5.4324579527559056
20
-4.9004396850393697
11
5.433522362204724
21
-4.899998779527559
0
LINE
8
BLACK
6
CONTINUOUS
10
5.433522362204724
20
-4.899998779527559
11
5.4346744881889766
21
-4.899998779527559
0
LINE
8
BLACK
6
CONTINUOUS
10
5.4346744881889766
20
-4.899998779527559
11
5.4357388976377949
21
-4.9004396850393697
0
LINE
8
BLACK
6
CONTINUOUS
10
5.4357388976377949
20
-4.9004396850393697
11
5.4365535433070864
21
-4.9012543307086611
0
LINE
8
BLACK
6
CONTINUOUS
10
5.4365535433070864
20
-4.9012543307086611
11
5.4369944488188979
21
-4.9023187401574804
0
LINE
8
BLACK
6
CONTINUOUS
10
5.4369944488188979
20
-4.9023187401574804
11
5.4370511811023619
21
-4.9028948031496062
0
LINE
8
BLACK
6
CONTINUOUS
10
5.4370511811023619
20
-4.9028948031496062
11
5.4370511811023619
21
-4.9619499212598424
0
LINE
8
BLACK
6
CONTINUOUS
10
5.4370511811023619
20
-4.9619499212598424
11
5.4369944488188979
21
-4.9625259842519682
0
LINE
8
BLACK
6
CONTINUOUS
10
5.4369944488188979
20
-4.9625259842519682
11
5.4365535433070864
21
-4.9635903937007875
0
LINE
8
BLACK
6
CONTINUOUS
10
5.4365535433070864
20
-4.9635903937007875
11
5.4357388976377949
21
-4.9644050393700789
0
LINE
8
BLACK
6
CONTINUOUS
10
5.4357388976377949
20
-4.9644050393700789
11
5.4346744881889766
21
-4.9648459448818896
0
LINE
8
BLACK
6
CONTINUOUS
10
5.4346744881889766
20
-4.9648459448818896
11
5.433522362204724
21
-4.9648459448818896
0
LINE
8
BLACK
6
CONTINUOUS
10
5.433522362204724
20
-4.9648459448818896
11
5.4324579527559056
21
-4.9644050393700789
0
LINE
8
BLACK
6
CONTINUOUS
10
5.4324579527559056
20
-4.9644050393700789
11
5.4316433070866141
21
-4.9635903937007875
0
LINE
8
BLACK
6
CONTINUOUS
10
5.4316433070866141
20
-4.9635903937007875
11
5.4312024015748026
21
-4.9625259842519682
0
LINE
8
BLACK
6
CONTINUOUS
10
5.4312024015748026
20
-4.9625259842519682
11
5.4311456692913387
21
-4.9619499212598424
0
LINE
8
BLACK
6
CONTINUOUS
10
5.4311456692913387
20
-4.9619499212598424
11
5.4311456692913387
21
-4.9339690551181103
0
LINE
8
BLACK
6
CONTINUOUS
10
5.4311456692913387
20
-4.9339690551181103
11
5.4033053937007871
21
-4.9339690551181103
0
LINE
8
BLACK
6
CONTINUOUS
10
5.4033053937007871
20
-4.9339690551181103
11
5.4033053937007871
21
-4.9619499212598424
0
LINE
8
BLACK
6
CONTINUOUS
10
5.4033053937007871
20
-4.9619499212598424
11
5.4032486614173223
21
-4.9625259842519682
0
LINE
8
BLACK
6
CONTINUOUS
10
5.4032486614173223
20
-4.9625259842519682
11
5.4028077559055117
21
-4.9635903937007875
0
LINE
8
BLACK
6
CONTINUOUS
10
5.4028077559055117
20
-4.9635903937007875
11
5.4019931102362202
21
-4.9644050393700789
0
LINE
8
BLACK
6
CONTINUOUS
10
5.4019931102362202
20
-4.9644050393700789
11
5.4009287007874018
21
-4.9648459448818896
0
LINE
8
BLACK
6
CONTINUOUS
10
5.4009287007874018
20
-4.9648459448818896
11
5.3997765748031492
21
-4.9648459448818896
0
LINE
8
BLACK
6
CONTINUOUS
10
5.3997765748031492
20
-4.9648459448818896
11
5.3987121653543308
21
-4.9644050393700789
0
LINE
8
BLACK
6
CONTINUOUS
10
5.3987121653543308
20
-4.9644050393700789
11
5.3978975196850394
21
-4.9635903937007875
0
LINE
8
BLACK
6
CONTINUOUS
10
5.3978975196850394
20
-4.9635903937007875
11
5.3974566141732279
21
-4.9625259842519682
0
LINE
8
BLACK
6
CONTINUOUS
10
5.3974566141732279
20
-4.9625259842519682
11
5.3973998818897639
21
-4.9619499212598424
0
LINE
8
BLACK
6
CONTINUOUS
10
5.3973998818897639
20
-4.9619499212598424
11
5.3973998818897639
21
-4.9028948031496062
0
LINE
8
BLACK
6
CONTINUOUS
10
5.3973998818897639
20
-4.9028948031496062
11
5.3974566141732279
21
-4.9023187401574804
0
LINE
8
BLACK
6
CONTINUOUS
10
5.3974566141732279
20
-4.9023187401574804
11
5.3978975196850394
21
-4.9012543307086611
0
LINE
8
BLACK
6
CONTINUOUS
10
5.3978975196850394
20
-4.9012543307086611
11
5.3987121653543308
21
-4.9004396850393697
0
LINE
8
BLACK
6
CONTINUOUS
10
5.3987121653543308
20
-4.9004396850393697
11
5.3997765748031492
21
-4.899998779527559
0
LINE
8
BLACK
6
CONTINUOUS
10
5.3997765748031492
20
-4.899998779527559
11
5.4009287007874018
21
-4.899998779527559
0
LINE
8
BLACK
6
CONTINUOUS
10
5.4009287007874018
20
-4.899998779527559
11
5.4019931102362202
21
-4.9004396850393697
0
LINE
8
BLACK
6
CONTINUOUS
10
6.067407874015748
20
-4.899998779527559
11
6.0675058267716535
21
-4.9000393307086609
0
LINE
8
BLACK
6
CONTINUOUS
10
6.0675058267716535
20
-4.9000393307086609
11
6.0676117322834644
21
-4.9000468897637797
0
LINE
8
BLACK
6
CONTINUOUS
10
6.0676117322834644
20
-4.9000468897637797
11
6.0681523228346457
21
-4.9002537795275591
0
LINE
8
BLACK
6
CONTINUOUS
10
6.0681523228346457
20
-4.9002537795275591
11
6.0737766141732283
21
-4.9030659448818898
0
LINE
8
BLACK
6
CONTINUOUS
10
6.0737766141732283
20
-4.9030659448818898
11
6.074024488188976
21
-4.9032219685039369
0
LINE
8
BLACK
6
CONTINUOUS
10
6.074024488188976
20
-4.9032219685039369
11
6.0740965354330712
21
-4.9032518110236216
0
LINE
8
BLACK
6
CONTINUOUS
10
6.0740965354330712
20
-4.9032518110236216
11
6.0741775590551184
21
-4.9033183070866144
0
LINE
8
BLACK
6
CONTINUOUS
10
6.0741775590551184
20
-4.9033183070866144
11
6.0742664960629922
21
-4.9033742913385829
0
LINE
8
BLACK
6
CONTINUOUS
10
6.0742664960629922
20
-4.9033742913385829
11
6.0743176377952759
21
-4.9034332677165358
0
LINE
8
BLACK
6
CONTINUOUS
10
6.0743176377952759
20
-4.9034332677165358
11
6.0745440157480317
21
-4.90361905511811
0
LINE
8
BLACK
6
CONTINUOUS
10
6.0745440157480317
20
-4.90361905511811
11
6.0773561811023624
21
-4.906431181102362
0
LINE
8
BLACK
6
CONTINUOUS
10
6.0773561811023624
20
-4.906431181102362
11
6.0775419291338579
21
-4.906657519685039
0
LINE
8
BLACK
6
CONTINUOUS
10
6.0775419291338579
20
-4.906657519685039
11
6.0776009448818895
21
-4.9067087007874015
0
LINE
8
BLACK
6
CONTINUOUS
10
6.0776009448818895
20
-4.9067087007874015
11
6.0776568897637793
21
-4.9067976377952753
0
LINE
8
BLACK
6
CONTINUOUS
10
6.0776568897637793
20
-4.9067976377952753
11
6.0777233858267712
21
-4.9068786220472438
0
LINE
8
BLACK
6
CONTINUOUS
10
6.0777233858267712
20
-4.9068786220472438
11
6.0777531889763781
21
-4.9069505511811027
0
LINE
8
BLACK
6
CONTINUOUS
10
6.0777531889763781
20
-4.9069505511811027
11
6.0779092913385826
21
-4.9071985826771654
0
LINE
8
BLACK
6
CONTINUOUS
10
6.0779092913385826
20
-4.9071985826771654
11
6.0807214173228346
21
-4.912822874015748
0
LINE
8
BLACK
6
CONTINUOUS
10
6.0807214173228346
20
-4.912822874015748
11
6.080928307086614
21
-4.913363503937008
0
LINE
8
BLACK
6
CONTINUOUS
10
6.080928307086614
20
-4.913363503937008
11
6.0809357874015744
21
-4.9134692913385827
0
LINE
8
BLACK
6
CONTINUOUS
10
6.0809357874015744
20
-4.9134692913385827
11
6.0809764173228347
21
-4.9135673228346457
0
LINE
8
BLACK
6
CONTINUOUS
10
6.0809764173228347
20
-4.9135673228346457
11
6.0810331496062995
21
-4.9141433858267716
0
LINE
8
BLACK
6
CONTINUOUS
10
6.0810331496062995
20
-4.9141433858267716
11
6.0810331496062995
21
-4.9225798425196849
0
LINE
8
BLACK
6
CONTINUOUS
10
6.0810331496062995
20
-4.9225798425196849
11
6.0809764173228347
21
-4.9231559055118108
0
LINE
8
BLACK
6
CONTINUOUS
10
6.0809764173228347
20
-4.9231559055118108
11
6.0809357874015744
21
-4.9232538976377951
0
LINE
8
BLACK
6
CONTINUOUS
10
6.0809357874015744
20
-4.9232538976377951
11
6.080928307086614
21
-4.9233597244094485
0
LINE
8
BLACK
6
CONTINUOUS
10
6.080928307086614
20
-4.9233597244094485
11
6.0807214173228346
21
-4.9239003543307085
0
LINE
8
BLACK
6
CONTINUOUS
10
6.0807214173228346
20
-4.9239003543307085
11
6.0779092913385826
21
-4.9295246456692912
0
LINE
8
BLACK
6
CONTINUOUS
10
6.0779092913385826
20
-4.9295246456692912
11
6.0777532677165356
21
-4.9297724409448822
0
LINE
8
BLACK
6
CONTINUOUS
10
6.0777532677165356
20
-4.9297724409448822
11
6.0777234251968499
21
-4.9298446062992127
0
LINE
8
BLACK
6
CONTINUOUS
10
6.0777234251968499
20
-4.9298446062992127
11
6.0776568110236218
21
-4.9299257480314962
0
LINE
8
BLACK
6
CONTINUOUS
10
6.0776568110236218
20
-4.9299257480314962
11
6.0776009448818895
21
-4.930014527559055
0
LINE
8
BLACK
6
CONTINUOUS
10
6.0776009448818895
20
-4.930014527559055
11
6.0775420078740154
21
-4.93006562992126
0
LINE
8
BLACK
6
CONTINUOUS
10
6.0775420078740154
20
-4.93006562992126
11
6.0773561811023624
21
-4.9302920472440945
0
LINE
8
BLACK
6
CONTINUOUS
10
6.0773561811023624
20
-4.9302920472440945
11
6.0745440157480317
21
-4.9331042125984252
0
LINE
8
BLACK
6
CONTINUOUS
10
6.0745440157480317
20
-4.9331042125984252
11
6.0743176377952759
21
-4.9332899606299208
0
LINE
8
BLACK
6
CONTINUOUS
10
6.0743176377952759
20
-4.9332899606299208
11
6.0742664960629922
21
-4.9333489763779523
0
LINE
8
BLACK
6
CONTINUOUS
10
6.0742664960629922
20
-4.9333489763779523
11
6.0741775196850396
21
-4.9334049212598421
0
LINE
8
BLACK
6
CONTINUOUS
10
6.0741775196850396
20
-4.9334049212598421
11
6.0740965748031499
21
-4.9334714173228349
0
LINE
8
BLACK
6
CONTINUOUS
10
6.0740965748031499
20
-4.9334714173228349
11
6.0740246062992123
21
-4.9335012204724409
0
LINE
8
BLACK
6
CONTINUOUS
10
6.0740246062992123
20
-4.9335012204724409
11
6.0737766141732283
21
-4.9336573228346454
0
LINE
8
BLACK
6
CONTINUOUS
10
6.0737766141732283
20
-4.9336573228346454
11
6.0681523228346457
21
-4.9364694488188974
0
LINE
8
BLACK
6
CONTINUOUS
10
6.0681523228346457
20
-4.9364694488188974
11
6.0676116929133856
21
-4.9366763385826768
0
LINE
8
BLACK
6
CONTINUOUS
10
6.0676116929133856
20
-4.9366763385826768
11
6.0675058661417323
21
-4.9366838188976381
0
LINE
8
BLACK
6
CONTINUOUS
10
6.0675058661417323
20
-4.9366838188976381
11
6.067407874015748
21
-4.9367244488188975
0
LINE
8
BLACK
6
CONTINUOUS
10
6.067407874015748
20
-4.9367244488188975
11
6.0668318110236221
21
-4.9367811811023623
0
LINE
8
BLACK
6
CONTINUOUS
10
6.0668318110236221
20
-4.9367811811023623
11
6.0472873622047238
21
-4.9367811811023623
0
LINE
8
BLACK
6
CONTINUOUS
10
6.0472873622047238
20
-4.9367811811023623
11
6.0472873622047238
21
-4.9619499212598424
0
LINE
8
BLACK
6
CONTINUOUS
10
6.0472873622047238
20
-4.9619499212598424
11
6.0472306299212599
21
-4.9625259842519682
0
LINE
8
BLACK
6
CONTINUOUS
10
6.0472306299212599
20
-4.9625259842519682
11
6.0467897244094484
21
-4.9635903937007875
0
LINE
8
BLACK
6
CONTINUOUS
10
6.0467897244094484
20
-4.9635903937007875
11
6.0459750787401569
21
-4.9644050393700789
0
LINE
8
BLACK
6
CONTINUOUS
10
6.0459750787401569
20
-4.9644050393700789
11
6.0449106692913386
21
-4.9648459448818896
0
LINE
8
BLACK
6
CONTINUOUS
10
6.0449106692913386
20
-4.9648459448818896
11
6.0437585433070868
21
-4.9648459448818896
0
LINE
8
BLACK
6
CONTINUOUS
10
6.0437585433070868
20
-4.9648459448818896
11
6.0426941338582676
21
-4.9644050393700789
0
LINE
8
BLACK
6
CONTINUOUS
10
6.0426941338582676
20
-4.9644050393700789
11
6.0418794881889761
21
-4.9635903937007875
0
LINE
8
BLACK
6
CONTINUOUS
10
6.0418794881889761
20
-4.9635903937007875
11
6.0414385826771655
21
-4.9625259842519682
0
LINE
8
BLACK
6
CONTINUOUS
10
6.0414385826771655
20
-4.9625259842519682
11
6.0413818503937007
21
-4.9619499212598424
0
LINE
8
BLACK
6
CONTINUOUS
10
6.0413818503937007
20
-4.9619499212598424
11
6.0413818503937007
21
-4.9028948031496062
0
LINE
8
BLACK
6
CONTINUOUS
10
6.0413818503937007
20
-4.9028948031496062
11
6.0414385826771655
21
-4.9023187401574804
0
LINE
8
BLACK
6
CONTINUOUS
10
6.0414385826771655
20
-4.9023187401574804
11
6.0418794881889761
21
-4.9012543307086611
0
LINE
8
BLACK
6
CONTINUOUS
10
6.0418794881889761
20
-4.9012543307086611
11
6.0426941338582676
21
-4.9004396850393697
0
LINE
8
BLACK
6
CONTINUOUS
10
6.0426941338582676
20
-4.9004396850393697
11
6.0437585433070868
21
-4.899998779527559
0
LINE
8
BLACK
6
CONTINUOUS
10
6.0437585433070868
20
-4.899998779527559
11
6.0443346062992127
21
-4.8999420472440942
0
LINE
8
BLACK
6
CONTINUOUS
10
6.0443346062992127
20
-4.8999420472440942
11
6.0668318110236221
21
-4.8999420472440942
0
LINE
8
BLACK
6
CONTINUOUS
10
6.0668318110236221
20
-4.8999420472440942
11
6.067407874015748
21
-4.899998779527559
0
LINE
8
BLACK
6
CONTINUOUS
10
6.0472873622047238
20
-4.9308756692913382
11
6.0661347637795275
21
-4.9308756692913382
0
LINE
8
BLACK
6
CONTINUOUS
10
6.0661347637795275
20
-4.9308756692913382
11
6.0707070078740157
21
-4.9285895275590548
0
LINE
8
BLACK
6
CONTINUOUS
10
6.0707070078740157
20
-4.9285895275590548
11
6.072841496062992
21
-4.9264550393700786
0
LINE
8
BLACK
6
CONTINUOUS
10
6.072841496062992
20
-4.9264550393700786
11
6.0751276377952754
21
-4.9218827952755904
0
LINE
8
BLACK
6
CONTINUOUS
10
6.0751276377952754
20
-4.9218827952755904
11
6.0751276377952754
21
-4.9148403937007874
0
LINE
8
BLACK
6
CONTINUOUS
10
6.0751276377952754
20
-4.9148403937007874
11
6.0728415354330707
21
-4.910268188976378
0
LINE
8
BLACK
6
CONTINUOUS
10
6.0728415354330707
20
-4.910268188976378
11
6.0707070078740157
21
-4.9081337007874017
0
LINE
8
BLACK
6
CONTINUOUS
10
6.0707070078740157
20
-4.9081337007874017
11
6.0661347637795275
21
-4.9058475590551183
0
LINE
8
BLACK
6
CONTINUOUS
10
6.0661347637795275
20
-4.9058475590551183
11
6.0472873622047238
21
-4.9058475590551183
0
LINE
8
BLACK
6
CONTINUOUS
10
6.0472873622047238
20
-4.9058475590551183
11
6.0472873622047238
21
-4.9308756692913382
0
LINE
8
BLACK
6
CONTINUOUS
10
5.896381889763779
20
-4.8649370078740155
11
5.8363818897637794
21
-4.8649370078740155
0
LINE
8
BLACK
6
CONTINUOUS
10
5.8363818897637794
20
-4.8649370078740155
11
5.8363818897637794
21
-4.8049370078740159
0
LINE
8
BLACK
6
CONTINUOUS
10
5.8363818897637794
20
-4.8049370078740159
11
5.896381889763779
21
-4.8049370078740159
0
LINE
8
BLACK
6
CONTINUOUS
10
5.896381889763779
20
-4.8049370078740159
11
5.896381889763779
21
-4.8649370078740155
0
LINE
8
BLACK
6
CONTINUOUS
10
5.9963818897637795
20
-4.8649370078740155
11
5.936381889763779
21
-4.8649370078740155
0
LINE
8
BLACK
6
CONTINUOUS
10
5.936381889763779
20
-4.8649370078740155
11
5.936381889763779
21
-4.8049370078740159
0
LINE
8
BLACK
6
CONTINUOUS
10
5.936381889763779
20
-4.8049370078740159
11
5.9963818897637795
21
-4.8049370078740159
0
LINE
8
BLACK
6
CONTINUOUS
10
5.9963818897637795
20
-4.8049370078740159
11
5.9963818897637795
21
-4.8649370078740155
0
LINE
8
BLACK
6
CONTINUOUS
10
5.896381889763779
20
-4.7649370078740159
11
5.8363818897637794
21
-4.7649370078740159
0
LINE
8
BLACK
6
CONTINUOUS
10
5.8363818897637794
20
-4.7649370078740159
11
5.8363818897637794
21
-4.7049370078740154
0
LINE
8
BLACK
6
CONTINUOUS
10
5.8363818897637794
20
-4.7049370078740154
11
5.896381889763779
21
-4.7049370078740154
0
LINE
8
BLACK
6
CONTINUOUS
10
5.896381889763779
20
-4.7049370078740154
11
5.896381889763779
21
-4.7649370078740159
0
LINE
8
BLACK
6
CONTINUOUS
10
5.9963818897637795
20
-4.7649370078740159
11
5.936381889763779
21
-4.7649370078740159
0
LINE
8
BLACK
6
CONTINUOUS
10
5.936381889763779
20
-4.7649370078740159
11
5.936381889763779
21
-4.7049370078740154
0
LINE
8
BLACK
6
CONTINUOUS
10
5.936381889763779
20
-4.7049370078740154
11
5.9963818897637795
21
-4.7049370078740154
0
LINE
8
BLACK
6
CONTINUOUS
10
5.9963818897637795
20
-4.7049370078740154
11
5.9963818897637795
21
-4.7649370078740159
0
LINE
8
BLACK
6
CONTINUOUS
10
5.896381889763779
20
-4.6649370078740153
11
5.8363818897637794
21
-4.6649370078740153
0
LINE
8
BLACK
6
CONTINUOUS
10
5.8363818897637794
20
-4.6649370078740153
11
5.8363818897637794
21
-4.6049370078740157
0
LINE
8
BLACK
6
CONTINUOUS
10
5.8363818897637794
20
-4.6049370078740157
11
5.896381889763779
21
-4.6049370078740157
0
LINE
8
BLACK
6
CONTINUOUS
10
5.896381889763779
20
-4.6049370078740157
11
5.896381889763779
21
-4.6649370078740153
0
LINE
8
BLACK
6
CONTINUOUS
10
5.9963818897637795
20
-4.6649370078740153
11
5.936381889763779
21
-4.6649370078740153
0
LINE
8
BLACK
6
CONTINUOUS
10
5.936381889763779
20
-4.6649370078740153
11
5.936381889763779
21
-4.6049370078740157
0
LINE
8
BLACK
6
CONTINUOUS
10
5.936381889763779
20
-4.6049370078740157
11
5.9963818897637795
21
-4.6049370078740157
0
LINE
8
BLACK
6
CONTINUOUS
10
5.9963818897637795
20
-4.6049370078740157
11
5.9963818897637795
21
-4.6649370078740153
0
LINE
8
BLACK
6
CONTINUOUS
10
5.896381889763779
20
-4.5649370078740157
11
5.8363818897637794
21
-4.5649370078740157
0
LINE
8
BLACK
6
CONTINUOUS
10
5.8363818897637794
20
-4.5649370078740157
11
5.8363818897637794
21
-4.5049370078740161
0
LINE
8
BLACK
6
CONTINUOUS
10
5.8363818897637794
20
-4.5049370078740161
11
5.896381889763779
21
-4.5049370078740161
0
LINE
8
BLACK
6
CONTINUOUS
10
5.896381889763779
20
-4.5049370078740161
11
5.896381889763779
21
-4.5649370078740157
0
LINE
8
BLACK
6
CONTINUOUS
10
5.9963818897637795
20
-4.5649370078740157
11
5.936381889763779
21
-4.5649370078740157
0
LINE
8
BLACK
6
CONTINUOUS
10
5.936381889763779
20
-4.5649370078740157
11
5.936381889763779
21
-4.5049370078740161
0
LINE
8
BLACK
6
CONTINUOUS
10
5.936381889763779
20
-4.5049370078740161
11
5.9963818897637795
21
-4.5049370078740161
0
LINE
8
BLACK
6
CONTINUOUS
10
5.9963818897637795
20
-4.5049370078740161
11
5.9963818897637795
21
-4.5649370078740157
0
LINE
8
BLACK
6
CONTINUOUS
10
5.896381889763779
20
-4.464937007874016
11
5.8363818897637794
21
-4.464937007874016
0
LINE
8
BLACK
6
CONTINUOUS
10
5.8363818897637794
20
-4.464937007874016
11
5.8363818897637794
21
-4.4049370078740155
0
LINE
8
BLACK
6
CONTINUOUS
10
5.8363818897637794
20
-4.4049370078740155
11
5.896381889763779
21
-4.4049370078740155
0
LINE
8
BLACK
6
CONTINUOUS
10
5.896381889763779
20
-4.4049370078740155
11
5.896381889763779
21
-4.464937007874016
0
LINE
8
BLACK
6
CONTINUOUS
10
5.9963818897637795
20
-4.464937007874016
11
5.936381889763779
21
-4.464937007874016
0
LINE
8
BLACK
6
CONTINUOUS
10
5.936381889763779
20
-4.464937007874016
11
5.936381889763779
21
-4.4049370078740155
0
LINE
8
BLACK
6
CONTINUOUS
10
5.936381889763779
20
-4.4049370078740155
11
5.9963818897637795
21
-4.4049370078740155
0
LINE
8
BLACK
6
CONTINUOUS
10
5.9963818897637795
20
-4.4049370078740155
11
5.9963818897637795
21
-4.464937007874016
0
LINE
8
BLACK
6
CONTINUOUS
10
5.896381889763779
20
-4.3649370078740155
11
5.8363818897637794
21
-4.3649370078740155
0
LINE
8
BLACK
6
CONTINUOUS
10
5.8363818897637794
20
-4.3649370078740155
11
5.8363818897637794
21
-4.3049370078740159
0
LINE
8
BLACK
6
CONTINUOUS
10
5.8363818897637794
20
-4.3049370078740159
11
5.896381889763779
21
-4.3049370078740159
0
LINE
8
BLACK
6
CONTINUOUS
10
5.896381889763779
20
-4.3049370078740159
11
5.896381889763779
21
-4.3649370078740155
0
LINE
8
BLACK
6
CONTINUOUS
10
5.9963818897637795
20
-4.3649370078740155
11
5.936381889763779
21
-4.3649370078740155
0
LINE
8
BLACK
6
CONTINUOUS
10
5.936381889763779
20
-4.3649370078740155
11
5.936381889763779
21
-4.3049370078740159
0
LINE
8
BLACK
6
CONTINUOUS
10
5.936381889763779
20
-4.3049370078740159
11
5.9963818897637795
21
-4.3049370078740159
0
LINE
8
BLACK
6
CONTINUOUS
10
5.9963818897637795
20
-4.3049370078740159
11
5.9963818897637795
21
-4.3649370078740155
0
LINE
8
BLACK
6
CONTINUOUS
10
6.0169579527559049
20
-4.2820409842519682
11
6.0180223622047242
21
-4.2824818897637797
0
LINE
8
BLACK
6
CONTINUOUS
10
6.0180223622047242
20
-4.2824818897637797
11
6.0188370078740157
21
-4.2832965354330712
0
LINE
8
BLACK
6
CONTINUOUS
10
6.0188370078740157
20
-4.2832965354330712
11
6.0192779133858263
21
-4.2843609448818896
0
LINE
8
BLACK
6
CONTINUOUS
10
6.0192779133858263
20
-4.2843609448818896
11
6.0193346456692911
21
-4.2849370078740154
0
LINE
8
BLACK
6
CONTINUOUS
10
6.0193346456692911
20
-4.2849370078740154
11
6.0193346456692911
21
-4.884937007874016
0
LINE
8
BLACK
6
CONTINUOUS
10
6.0193346456692911
20
-4.884937007874016
11
6.0192779133858263
21
-4.8855130708661418
0
LINE
8
BLACK
6
CONTINUOUS
10
6.0192779133858263
20
-4.8855130708661418
11
6.0188370078740157
21
-4.8865774803149602
0
LINE
8
BLACK
6
CONTINUOUS
10
6.0188370078740157
20
-4.8865774803149602
11
6.0180223622047242
21
-4.8873921259842517
0
LINE
8
BLACK
6
CONTINUOUS
10
6.0180223622047242
20
-4.8873921259842517
11
6.0169579527559049
21
-4.8878330314960632
0
LINE
8
BLACK
6
CONTINUOUS
10
6.0169579527559049
20
-4.8878330314960632
11
6.0163818897637791
21
-4.8878897637795271
0
LINE
8
BLACK
6
CONTINUOUS
10
6.0163818897637791
20
-4.8878897637795271
11
5.8163818897637798
21
-4.8878897637795271
0
LINE
8
BLACK
6
CONTINUOUS
10
5.8163818897637798
20
-4.8878897637795271
11
5.815805826771653
21
-4.8878330314960632
0
LINE
8
BLACK
6
CONTINUOUS
10
5.815805826771653
20
-4.8878330314960632
11
5.8147414173228347
21
-4.8873921259842517
0
LINE
8
BLACK
6
CONTINUOUS
10
5.8147414173228347
20
-4.8873921259842517
11
5.8139267716535432
21
-4.8865774803149602
0
LINE
8
BLACK
6
CONTINUOUS
10
5.8139267716535432
20
-4.8865774803149602
11
5.8134858661417326
21
-4.8855130708661418
0
LINE
8
BLACK
6
CONTINUOUS
10
5.8134858661417326
20
-4.8855130708661418
11
5.8134291338582678
21
-4.884937007874016
0
LINE
8
BLACK
6
CONTINUOUS
10
5.8134291338582678
20
-4.884937007874016
11
5.8134291338582678
21
-4.2849370078740154
0
LINE
8
BLACK
6
CONTINUOUS
10
5.8134291338582678
20
-4.2849370078740154
11
5.8134858661417326
21
-4.2843609448818896
0
LINE
8
BLACK
6
CONTINUOUS
10
5.8134858661417326
20
-4.2843609448818896
11
5.8139267716535432
21
-4.2832965354330712
0
LINE
8
BLACK
6
CONTINUOUS
10
5.8139267716535432
20
-4.2832965354330712
11
5.8147414173228347
21
-4.2824818897637797
0
LINE
8
BLACK
6
CONTINUOUS
10
5.8147414173228347
20
-4.2824818897637797
11
5.815805826771653
21
-4.2820409842519682
0
LINE
8
BLACK
6
CONTINUOUS
10
5.815805826771653
20
-4.2820409842519682
11
5.8163818897637798
21
-4.2819842519685034
0
LINE
8
BLACK
6
CONTINUOUS
10
5.8163818897637798
20
-4.2819842519685034
11
6.0163818897637791
21
-4.2819842519685034
0
LINE
8
BLACK
6
CONTINUOUS
10
6.0163818897637791
20
-4.2819842519685034
11
6.0169579527559049
21
-4.2820409842519682
0
LINE
8
BLACK
6
CONTINUOUS
10
5.8193346456692909
20
-4.2878897637795275
11
5.8193346456692909
21
-4.8819842519685039
0
LINE
8
BLACK
6
CONTINUOUS
10
5.8193346456692909
20
-4.8819842519685039
11
6.0134291338582679
21
-4.8819842519685039
0
LINE
8
BLACK
6
CONTINUOUS
10
6.0134291338582679
20
-4.8819842519685039
11
6.0134291338582679
21
-4.2878897637795275
0
LINE
8
BLACK
6
CONTINUOUS
10
6.0134291338582679
20
-4.2878897637795275
11
5.8193346456692909
21
-4.2878897637795275
0
LINE
8
BLACK
6
CONTINUOUS
10
6.6067217322834644
20
-4.4820409842519684
11
6.6077861417322836
21
-4.482481889763779
0
LINE
8
BLACK
6
CONTINUOUS
10
6.6077861417322836
20
-4.482481889763779
11
6.6086007874015751
21
-4.4832965354330705
0
LINE
8
BLACK
6
CONTINUOUS
10
6.6086007874015751
20
-4.4832965354330705
11
6.6090416929133857
21
-4.4843609448818897
0
LINE
8
BLACK
6
CONTINUOUS
10
6.6090416929133857
20
-4.4843609448818897
11
6.6090984251968505
21
-4.4849370078740156
0
LINE
8
BLACK
6
CONTINUOUS
10
6.6090984251968505
20
-4.4849370078740156
11
6.6090984251968505
21
-4.884937007874016
0
LINE
8
BLACK
6
CONTINUOUS
10
6.6090984251968505
20
-4.884937007874016
11
6.6090416929133857
21
-4.8855130708661418
0
LINE
8
BLACK
6
CONTINUOUS
10
6.6090416929133857
20
-4.8855130708661418
11
6.6086007874015751
21
-4.8865774803149602
0
LINE
8
BLACK
6
CONTINUOUS
10
6.6086007874015751
20
-4.8865774803149602
11
6.6077861417322836
21
-4.8873921259842517
0
LINE
8
BLACK
6
CONTINUOUS
10
6.6077861417322836
20
-4.8873921259842517
11
6.6067217322834644
21
-4.8878330314960632
0
LINE
8
BLACK
6
CONTINUOUS
10
6.6067217322834644
20
-4.8878330314960632
11
6.6061456692913385
21
-4.8878897637795271
0
LINE
8
BLACK
6
CONTINUOUS
10
6.6061456692913385
20
-4.8878897637795271
11
6.4061456692913383
21
-4.8878897637795271
0
LINE
8
BLACK
6
CONTINUOUS
10
6.4061456692913383
20
-4.8878897637795271
11
6.4055696062992125
21
-4.8878330314960632
0
LINE
8
BLACK
6
CONTINUOUS
10
6.4055696062992125
20
-4.8878330314960632
11
6.4045051968503932
21
-4.8873921259842517
0
LINE
8
BLACK
6
CONTINUOUS
10
6.4045051968503932
20
-4.8873921259842517
11
6.4036905511811026
21
-4.8865774803149602
0
LINE
8
BLACK
6
CONTINUOUS
10
6.4036905511811026
20
-4.8865774803149602
11
6.4032496456692911
21
-4.8855130708661418
0
LINE
8
BLACK
6
CONTINUOUS
10
6.4032496456692911
20
-4.8855130708661418
11
6.4031929133858263
21
-4.884937007874016
0
LINE
8
BLACK
6
CONTINUOUS
10
6.4031929133858263
20
-4.884937007874016
11
6.4031929133858263
21
-4.4849370078740156
0
LINE
8
BLACK
6
CONTINUOUS
10
6.4031929133858263
20
-4.4849370078740156
11
6.4032496456692911
21
-4.4843609448818897
0
LINE
8
BLACK
6
CONTINUOUS
10
6.4032496456692911
20
-4.4843609448818897
11
6.4036905511811026
21
-4.4832965354330705
0
LINE
8
BLACK
6
CONTINUOUS
10
6.4036905511811026
20
-4.4832965354330705
11
6.4045051968503932
21
-4.482481889763779
0
LINE
8
BLACK
6
CONTINUOUS
10
6.4045051968503932
20
-4.482481889763779
11
6.4055696062992125
21
-4.4820409842519684
0
LINE
8
BLACK
6
CONTINUOUS
10
6.4055696062992125
20
-4.4820409842519684
11
6.4061456692913383
21
-4.4819842519685036
0
LINE
8
BLACK
6
CONTINUOUS
10
6.4061456692913383
20
-4.4819842519685036
11
6.6061456692913385
21
-4.4819842519685036
0
LINE
8
BLACK
6
CONTINUOUS
10
6.6061456692913385
20
-4.4819842519685036
11
6.6067217322834644
21
-4.4820409842519684
0
LINE
8
BLACK
6
CONTINUOUS
10
6.4090984251968504
20
-4.4878897637795276
11
6.4090984251968504
21
-4.8819842519685039
0
LINE
8
BLACK
6
CONTINUOUS
10
6.4090984251968504
20
-4.8819842519685039
11
6.6031929133858265
21
-4.8819842519685039
0
LINE
8
BLACK
6
CONTINUOUS
10
6.6031929133858265
20
-4.8819842519685039
11
6.6031929133858265
21
-4.4878897637795276
0
LINE
8
BLACK
6
CONTINUOUS
10
6.6031929133858265
20
-4.4878897637795276
11
6.4090984251968504
21
-4.4878897637795276
0
LINE
8
BLACK
6
CONTINUOUS
10
5.424871338582677
20
-4.3745449212598428
11
5.4259357480314963
21
-4.3749858267716535
0
LINE
8
BLACK
6
CONTINUOUS
10
5.4259357480314963
20
-4.3749858267716535
11
5.4267503937007877
21
-4.3758004724409449
0
LINE
8
BLACK
6
CONTINUOUS
10
5.4267503937007877
20
-4.3758004724409449
11
5.4271912992125984
21
-4.3768648818897633
0
LINE
8
BLACK
6
CONTINUOUS
10
5.4271912992125984
20
-4.3768648818897633
11
5.4271912992125984
21
-4.3780170078740159
0
LINE
8
BLACK
6
CONTINUOUS
10
5.4271912992125984
20
-4.3780170078740159
11
5.4267503937007877
21
-4.3790814173228343
0
LINE
8
BLACK
6
CONTINUOUS
10
5.4267503937007877
20
-4.3790814173228343
11
5.4259357480314963
21
-4.3798960629921257
0
LINE
8
BLACK
6
CONTINUOUS
10
5.4259357480314963
20
-4.3798960629921257
11
5.424871338582677
21
-4.3803369685039373
0
LINE
8
BLACK
6
CONTINUOUS
10
5.424871338582677
20
-4.3803369685039373
11
5.4242952755905511
21
-4.3803937007874012
0
LINE
8
BLACK
6
CONTINUOUS
10
5.4242952755905511
20
-4.3803937007874012
11
5.3442952755905511
21
-4.3803937007874012
0
LINE
8
BLACK
6
CONTINUOUS
10
5.3442952755905511
20
-4.3803937007874012
11
5.3437192125984252
21
-4.3803369685039373
0
LINE
8
BLACK
6
CONTINUOUS
10
5.3437192125984252
20
-4.3803369685039373
11
5.3426548031496059
21
-4.3798960629921257
0
LINE
8
BLACK
6
CONTINUOUS
10
5.3426548031496059
20
-4.3798960629921257
11
5.3418401574803145
21
-4.3790814173228343
0
LINE
8
BLACK
6
CONTINUOUS
10
5.3418401574803145
20
-4.3790814173228343
11
5.3413992519685038
21
-4.3780170078740159
0
LINE
8
BLACK
6
CONTINUOUS
10
5.3413992519685038
20
-4.3780170078740159
11
5.3413992519685038
21
-4.3768648818897633
0
LINE
8
BLACK
6
CONTINUOUS
10
5.3413992519685038
20
-4.3768648818897633
11
5.3418401574803145
21
-4.3758004724409449
0
LINE
8
BLACK
6
CONTINUOUS
10
5.3418401574803145
20
-4.3758004724409449
11
5.3426548031496059
21
-4.3749858267716535
0
LINE
8
BLACK
6
CONTINUOUS
10
5.3426548031496059
20
-4.3749858267716535
11
5.3437192125984252
21
-4.3745449212598428
0
LINE
8
BLACK
6
CONTINUOUS
10
5.3437192125984252
20
-4.3745449212598428
11
5.3442952755905511
21
-4.374488188976378
0
LINE
8
BLACK
6
CONTINUOUS
10
5.3442952755905511
20
-4.374488188976378
11
5.4242952755905511
21
-4.374488188976378
0
LINE
8
BLACK
6
CONTINUOUS
10
5.4242952755905511
20
-4.374488188976378
11
5.424871338582677
21
-4.3745449212598428
0
LINE
8
BLACK
6
CONTINUOUS
10
5.8016572440944882
20
-4.3233469291338578
11
5.8017585433070868
21
-4.3233469291338578
0
LINE
8
BLACK
6
CONTINUOUS
10
5.8017585433070868
20
-4.3233469291338578
11
5.8019611811023619
21
-4.3235495669291337
0
LINE
8
BLACK
6
CONTINUOUS
10
5.8019611811023619
20
-4.3235495669291337
11
5.80219968503937
21
-4.3237085826771651
0
LINE
8
BLACK
6
CONTINUOUS
10
5.80219968503937
20
-4.3237085826771651
11
5.8022195275590551
21
-4.3238079133858269
0
LINE
8
BLACK
6
CONTINUOUS
10
5.8022195275590551
20
-4.3238079133858269
11
5.8022912204724406
21
-4.3238796062992124
0
LINE
8
BLACK
6
CONTINUOUS
10
5.8022912204724406
20
-4.3238796062992124
11
5.8023661417322829
21
-4.3242562598425192
0
LINE
8
BLACK
6
CONTINUOUS
10
5.8023661417322829
20
-4.3242562598425192
11
5.8023661417322829
21
-4.3429570472440941
0
LINE
8
BLACK
6
CONTINUOUS
10
5.8023661417322829
20
-4.3429570472440941
11
5.8070061811023619
21
-4.3429570472440941
0
LINE
8
BLACK
6
CONTINUOUS
10
5.8070061811023619
20
-4.3429570472440941
11
5.8073828346456695
21
-4.3430319685039365
0
LINE
8
BLACK
6
CONTINUOUS
10
5.8073828346456695
20
-4.3430319685039365
11
5.8079155118110233
21
-4.3435646456692911
0
LINE
8
BLACK
6
CONTINUOUS
10
5.8079155118110233
20
-4.3435646456692911
11
5.8079155118110233
21
-4.3443179527559055
0
LINE
8
BLACK
6
CONTINUOUS
10
5.8079155118110233
20
-4.3443179527559055
11
5.8073828346456695
21
-4.3448506299212601
0
LINE
8
BLACK
6
CONTINUOUS
10
5.8073828346456695
20
-4.3448506299212601
11
5.8070061811023619
21
-4.3449255511811025
0
LINE
8
BLACK
6
CONTINUOUS
10
5.8070061811023619
20
-4.3449255511811025
11
5.7957575984251966
21
-4.3449255511811025
0
LINE
8
BLACK
6
CONTINUOUS
10
5.7957575984251966
20
-4.3449255511811025
11
5.7953809448818898
21
-4.3448506299212601
0
LINE
8
BLACK
6
CONTINUOUS
10
5.7953809448818898
20
-4.3448506299212601
11
5.7948482677165352
21
-4.3443179527559055
0
LINE
8
BLACK
6
CONTINUOUS
10
5.7948482677165352
20
-4.3443179527559055
11
5.7948482677165352
21
-4.3435646456692911
0
LINE
8
BLACK
6
CONTINUOUS
10
5.7948482677165352
20
-4.3435646456692911
11
5.7953809448818898
21
-4.3430319685039365
0
LINE
8
BLACK
6
CONTINUOUS
10
5.7953809448818898
20
-4.3430319685039365
11
5.7957575984251966
21
-4.3429570472440941
0
LINE
8
BLACK
6
CONTINUOUS
10
5.7957575984251966
20
-4.3429570472440941
11
5.8003976377952755
21
-4.3429570472440941
0
LINE
8
BLACK
6
CONTINUOUS
10
5.8003976377952755
20
-4.3429570472440941
11
5.8003976377952755
21
-4.3275069685039371
0
LINE
8
BLACK
6
CONTINUOUS
10
5.8003976377952755
20
-4.3275069685039371
11
5.8003260629921263
21
-4.3276143700787397
0
LINE
8
BLACK
6
CONTINUOUS
10
5.8003260629921263
20
-4.3276143700787397
11
5.800257244094488
21
-4.3276833070866143
0
LINE
8
BLACK
6
CONTINUOUS
10
5.800257244094488
20
-4.3276833070866143
11
5.8002030708661412
21
-4.327764409448819
0
LINE
8
BLACK
6
CONTINUOUS
10
5.8002030708661412
20
-4.327764409448819
11
5.7983283464566924
21
-4.3296391732283466
0
LINE
8
BLACK
6
CONTINUOUS
10
5.7983283464566924
20
-4.3296391732283466
11
5.7981970078740153
21
-4.3297268897637791
0
LINE
8
BLACK
6
CONTINUOUS
10
5.7981970078740153
20
-4.3297268897637791
11
5.7980725196850393
21
-4.3298235433070866
0
LINE
8
BLACK
6
CONTINUOUS
10
5.7980725196850393
20
-4.3298235433070866
11
5.7961977559055118
21
-4.330760905511811
0
LINE
8
BLACK
6
CONTINUOUS
10
5.7961977559055118
20
-4.330760905511811
11
5.7958273622047241
21
-4.3308623228346459
0
LINE
8
BLACK
6
CONTINUOUS
10
5.7958273622047241
20
-4.3308623228346459
11
5.7951127165354333
21
-4.3306240944881891
0
LINE
8
BLACK
6
CONTINUOUS
10
5.7951127165354333
20
-4.3306240944881891
11
5.7947758267716534
21
-4.3299503149606302
0
LINE
8
BLACK
6
CONTINUOUS
10
5.7947758267716534
20
-4.3299503149606302
11
5.7950140551181102
21
-4.3292356692913385
0
LINE
8
BLACK
6
CONTINUOUS
10
5.7950140551181102
20
-4.3292356692913385
11
5.7953174409448813
21
-4.3290001968503935
0
LINE
8
BLACK
6
CONTINUOUS
10
5.7953174409448813
20
-4.3290001968503935
11
5.7970493307086617
21
-4.3281342125984255
0
LINE
8
BLACK
6
CONTINUOUS
10
5.7970493307086617
20
-4.3281342125984255
11
5.7987422440944885
21
-4.3264412992125987
0
LINE
8
BLACK
6
CONTINUOUS
10
5.7987422440944885
20
-4.3264412992125987
11
5.8005629527559055
21
-4.3237102755905514
0
LINE
8
BLACK
6
CONTINUOUS
10
5.8005629527559055
20
-4.3237102755905514
11
5.8008342125984251
21
-4.3234384645669293
0
LINE
8
BLACK
6
CONTINUOUS
10
5.8008342125984251
20
-4.3234384645669293
11
5.8009335433070861
21
-4.3234185826771654
0
LINE
8
BLACK
6
CONTINUOUS
10
5.8009335433070861
20
-4.3234185826771654
11
5.8010052362204725
21
-4.3233469291338578
0
LINE
8
BLACK
6
CONTINUOUS
10
5.8010052362204725
20
-4.3233469291338578
11
5.8012918503937003
21
-4.3233469291338578
0
LINE
8
BLACK
6
CONTINUOUS
10
5.8012918503937003
20
-4.3233469291338578
11
5.8015729133858267
21
-4.3232907086614176
0
LINE
8
BLACK
6
CONTINUOUS
10
5.8015729133858267
20
-4.3232907086614176
11
5.8016572440944882
21
-4.3233469291338578
0
LINE
8
BLACK
6
CONTINUOUS
10
5.2481404724409444
20
-4.198190551181102
11
5.2489551181102359
21
-4.1990051968503934
0
LINE
8
BLACK
6
CONTINUOUS
10
5.2489551181102359
20
-4.1990051968503934
11
5.2493960236220474
21
-4.2000696062992127
0
LINE
8
BLACK
6
CONTINUOUS
10
5.2493960236220474
20
-4.2000696062992127
11
5.2494527559055113
21
-4.2006456692913385
0
LINE
8
BLACK
6
CONTINUOUS
10
5.2494527559055113
20
-4.2006456692913385
11
5.2494527559055113
21
-4.2806456692913386
0
LINE
8
BLACK
6
CONTINUOUS
10
5.2494527559055113
20
-4.2806456692913386
11
5.2493960236220474
21
-4.2812217322834645
0
LINE
8
BLACK
6
CONTINUOUS
10
5.2493960236220474
20
-4.2812217322834645
11
5.2489551181102359
21
-4.2822861417322837
0
LINE
8
BLACK
6
CONTINUOUS
10
5.2489551181102359
20
-4.2822861417322837
11
5.2481404724409444
21
-4.2831007874015743
0
LINE
8
BLACK
6
CONTINUOUS
10
5.2481404724409444
20
-4.2831007874015743
11
5.247076062992126
21
-4.2835416929133858
0
LINE
8
BLACK
6
CONTINUOUS
10
5.247076062992126
20
-4.2835416929133858
11
5.2459239370078743
21
-4.2835416929133858
0
LINE
8
BLACK
6
CONTINUOUS
10
5.2459239370078743
20
-4.2835416929133858
11
5.244859527559055
21
-4.2831007874015743
0
LINE
8
BLACK
6
CONTINUOUS
10
5.244859527559055
20
-4.2831007874015743
11
5.2440448818897636
21
-4.2822861417322837
0
LINE
8
BLACK
6
CONTINUOUS
10
5.2440448818897636
20
-4.2822861417322837
11
5.2436039763779529
21
-4.2812217322834645
0
LINE
8
BLACK
6
CONTINUOUS
10
5.2436039763779529
20
-4.2812217322834645
11
5.2435472440944881
21
-4.2806456692913386
0
LINE
8
BLACK
6
CONTINUOUS
10
5.2435472440944881
20
-4.2806456692913386
11
5.2435472440944881
21
-4.2006456692913385
0
LINE
8
BLACK
6
CONTINUOUS
10
5.2435472440944881
20
-4.2006456692913385
11
5.2436039763779529
21
-4.2000696062992127
0
LINE
8
BLACK
6
CONTINUOUS
10
5.2436039763779529
20
-4.2000696062992127
11
5.2440448818897636
21
-4.1990051968503934
0
LINE
8
BLACK
6
CONTINUOUS
10
5.2440448818897636
20
-4.1990051968503934
11
5.244859527559055
21
-4.198190551181102
0
LINE
8
BLACK
6
CONTINUOUS
10
5.244859527559055
20
-4.198190551181102
11
5.2459239370078743
21
-4.1977496456692913
0
LINE
8
BLACK
6
CONTINUOUS
10
5.2459239370078743
20
-4.1977496456692913
11
5.247076062992126
21
-4.1977496456692913
0
LINE
8
BLACK
6
CONTINUOUS
10
5.247076062992126
20
-4.1977496456692913
11
5.2481404724409444
21
-4.198190551181102
0
LINE
8
BLACK
6
CONTINUOUS
10
5.5237310236220472
20
-4.198190551181102
11
5.5245456692913386
21
-4.1990051968503934
0
LINE
8
BLACK
6
CONTINUOUS
10
5.5245456692913386
20
-4.1990051968503934
11
5.5249865748031493
21
-4.2000696062992127
0
LINE
8
BLACK
6
CONTINUOUS
10
5.5249865748031493
20
-4.2000696062992127
11
5.5250433070866141
21
-4.2006456692913385
0
LINE
8
BLACK
6
CONTINUOUS
10
5.5250433070866141
20
-4.2006456692913385
11
5.5250433070866141
21
-4.2806456692913386
0
LINE
8
BLACK
6
CONTINUOUS
10
5.5250433070866141
20
-4.2806456692913386
11
5.5249865748031493
21
-4.2812217322834645
0
LINE
8
BLACK
6
CONTINUOUS
10
5.5249865748031493
20
-4.2812217322834645
11
5.5245456692913386
21
-4.2822861417322837
0
LINE
8
BLACK
6
CONTINUOUS
10
5.5245456692913386
20
-4.2822861417322837
11
5.5237310236220472
21
-4.2831007874015743
0
LINE
8
BLACK
6
CONTINUOUS
10
5.5237310236220472
20
-4.2831007874015743
11
5.5226666141732279
21
-4.2835416929133858
0
LINE
8
BLACK
6
CONTINUOUS
10
5.5226666141732279
20
-4.2835416929133858
11
5.5215144881889762
21
-4.2835416929133858
0
LINE
8
BLACK
6
CONTINUOUS
10
5.5215144881889762
20
-4.2835416929133858
11
5.5204500787401569
21
-4.2831007874015743
0
LINE
8
BLACK
6
CONTINUOUS
10
5.5204500787401569
20
-4.2831007874015743
11
5.5196354330708663
21
-4.2822861417322837
0
LINE
8
BLACK
6
CONTINUOUS
10
5.5196354330708663
20
-4.2822861417322837
11
5.5191945275590548
21
-4.2812217322834645
0
LINE
8
BLACK
6
CONTINUOUS
10
5.5191945275590548
20
-4.2812217322834645
11
5.51913779527559
21
-4.2806456692913386
0
LINE
8
BLACK
6
CONTINUOUS
10
5.51913779527559
20
-4.2806456692913386
11
5.51913779527559
21
-4.2006456692913385
0
LINE
8
BLACK
6
CONTINUOUS
10
5.51913779527559
20
-4.2006456692913385
11
5.5191945275590548
21
-4.2000696062992127
0
LINE
8
BLACK
6
CONTINUOUS
10
5.5191945275590548
20
-4.2000696062992127
11
5.5196354330708663
21
-4.1990051968503934
0
LINE
8
BLACK
6
CONTINUOUS
10
5.5196354330708663
20
-4.1990051968503934
11
5.5204500787401569
21
-4.198190551181102
0
LINE
8
BLACK
6
CONTINUOUS
10
5.5204500787401569
20
-4.198190551181102
11
5.5215144881889762
21
-4.1977496456692913
0
LINE
8
BLACK
6
CONTINUOUS
10
5.5215144881889762
20
-4.1977496456692913
11
5.5226666141732279
21
-4.1977496456692913
0
LINE
8
BLACK
6
CONTINUOUS
10
5.5226666141732279
20
-4.1977496456692913
11
5.5237310236220472
21
-4.198190551181102
0
LINE
8
BLACK
6
CONTINUOUS
10
5.424871338582677
20
-4.0999543700787404
11
5.4259357480314963
21
-4.1003952755905511
0
LINE
8
BLACK
6
CONTINUOUS
10
5.4259357480314963
20
-4.1003952755905511
11
5.4267503937007877
21
-4.1012099212598425
0
LINE
8
BLACK
6
CONTINUOUS
10
5.4267503937007877
20
-4.1012099212598425
11
5.4271912992125984
21
-4.1022743307086618
0
LINE
8
BLACK
6
CONTINUOUS
10
5.4271912992125984
20
-4.1022743307086618
11
5.4271912992125984
21
-4.1034264566929135
0
LINE
8
BLACK
6
CONTINUOUS
10
5.4271912992125984
20
-4.1034264566929135
11
5.4267503937007877
21
-4.1044908661417319
0
LINE
8
BLACK
6
CONTINUOUS
10
5.4267503937007877
20
-4.1044908661417319
11
5.4259357480314963
21
-4.1053055118110233
0
LINE
8
BLACK
6
CONTINUOUS
10
5.4259357480314963
20
-4.1053055118110233
11
5.424871338582677
21
-4.1057464173228349
0
LINE
8
BLACK
6
CONTINUOUS
10
5.424871338582677
20
-4.1057464173228349
11
5.4242952755905511
21
-4.1058031496062988
0
LINE
8
BLACK
6
CONTINUOUS
10
5.4242952755905511
20
-4.1058031496062988
11
5.3442952755905511
21
-4.1058031496062988
0
LINE
8
BLACK
6
CONTINUOUS
10
5.3442952755905511
20
-4.1058031496062988
11
5.3437192125984252
21
-4.1057464173228349
0
LINE
8
BLACK
6
CONTINUOUS
10
5.3437192125984252
20
-4.1057464173228349
11
5.3426548031496059
21
-4.1053055118110233
0
LINE
8
BLACK
6
CONTINUOUS
10
5.3426548031496059
20
-4.1053055118110233
11
5.3418401574803145
21
-4.1044908661417319
0
LINE
8
BLACK
6
CONTINUOUS
10
5.3418401574803145
20
-4.1044908661417319
11
5.3413992519685038
21
-4.1034264566929135
0
LINE
8
BLACK
6
CONTINUOUS
10
5.3413992519685038
20
-4.1034264566929135
11
5.3413992519685038
21
-4.1022743307086618
0
LINE
8
BLACK
6
CONTINUOUS
10
5.3413992519685038
20
-4.1022743307086618
11
5.3418401574803145
21
-4.1012099212598425
0
LINE
8
BLACK
6
CONTINUOUS
10
5.3418401574803145
20
-4.1012099212598425
11
5.3426548031496059
21
-4.1003952755905511
0
LINE
8
BLACK
6
CONTINUOUS
10
5.3426548031496059
20
-4.1003952755905511
11
5.3437192125984252
21
-4.0999543700787404
0
LINE
8
BLACK
6
CONTINUOUS
10
5.3437192125984252
20
-4.0999543700787404
11
5.3442952755905511
21
-4.0998976377952756
0
LINE
8
BLACK
6
CONTINUOUS
10
5.3442952755905511
20
-4.0998976377952756
11
5.4242952755905511
21
-4.0998976377952756
0
LINE
8
BLACK
6
CONTINUOUS
10
5.4242952755905511
20
-4.0998976377952756
11
5.424871338582677
21
-4.0999543700787404
0
LINE
8
BLACK
6
CONTINUOUS
10
5.3662507086614175
20
-4.0053609448818897
11
5.367065354330709
21
-4.0061755905511811
0
LINE
8
BLACK
6
CONTINUOUS
10
5.367065354330709
20
-4.0061755905511811
11
5.3675062598425196
21
-4.0072399999999995
0
LINE
8
BLACK
6
CONTINUOUS
10
5.3675062598425196
20
-4.0072399999999995
11
5.3675629921259844
21
-4.0078160629921262
0
LINE
8
BLACK
6
CONTINUOUS
10
5.3675629921259844
20
-4.0078160629921262
11
5.3675629921259844
21
-4.0499983070866143
0
LINE
8
BLACK
6
CONTINUOUS
10
5.3675629921259844
20
-4.0499983070866143
11
5.3675342519685039
21
-4.0502898818897632
0
LINE
8
BLACK
6
CONTINUOUS
10
5.3675342519685039
20
-4.0502898818897632
11
5.3675398031496062
21
-4.0503676377952758
0
LINE
8
BLACK
6
CONTINUOUS
10
5.3675398031496062
20
-4.0503676377952758
11
5.3675165354330705
21
-4.0504698818897635
0
LINE
8
BLACK
6
CONTINUOUS
10
5.3675165354330705
20
-4.0504698818897635
11
5.3675062598425196
21
-4.0505743700787402
0
LINE
8
BLACK
6
CONTINUOUS
10
5.3675062598425196
20
-4.0505743700787402
11
5.3674763779527561
21
-4.0506464173228345
0
LINE
8
BLACK
6
CONTINUOUS
10
5.3674763779527561
20
-4.0506464173228345
11
5.3674114566929134
21
-4.0509320866141731
0
LINE
8
BLACK
6
CONTINUOUS
10
5.3674114566929134
20
-4.0509320866141731
11
5.3645992913385827
21
-4.059368464566929
0
LINE
8
BLACK
6
CONTINUOUS
10
5.3645992913385827
20
-4.059368464566929
11
5.3643633070866139
21
-4.0598970472440943
0
LINE
8
BLACK
6
CONTINUOUS
10
5.3643633070866139
20
-4.0598970472440943
11
5.3642937795275589
21
-4.0599771653543302
0
LINE
8
BLACK
6
CONTINUOUS
10
5.3642937795275589
20
-4.0599771653543302
11
5.364253228346457
21
-4.0600751574803144
0
LINE
8
BLACK
6
CONTINUOUS
10
5.364253228346457
20
-4.0600751574803144
11
5.3638859842519686
21
-4.0605226377952759
0
LINE
8
BLACK
6
CONTINUOUS
10
5.3638859842519686
20
-4.0605226377952759
11
5.3582616929133859
21
-4.0661469685039373
0
LINE
8
BLACK
6
CONTINUOUS
10
5.3582616929133859
20
-4.0661469685039373
11
5.3578142519685041
21
-4.0665141732283461
0
LINE
8
BLACK
6
CONTINUOUS
10
5.3578142519685041
20
-4.0665141732283461
11
5.3577161811023624
21
-4.0665547637795276
0
LINE
8
BLACK
6
CONTINUOUS
10
5.3577161811023624
20
-4.0665547637795276
11
5.3576360629921256
21
-4.0666242913385826
0
LINE
8
BLACK
6
CONTINUOUS
10
5.3576360629921256
20
-4.0666242913385826
11
5.3571075196850391
21
-4.0668602755905514
0
LINE
8
BLACK
6
CONTINUOUS
10
5.3571075196850391
20
-4.0668602755905514
11
5.3486710629921257
21
-4.0696724015748034
0
LINE
8
BLACK
6
CONTINUOUS
10
5.3486710629921257
20
-4.0696724015748034
11
5.3483854724409445
21
-4.0697373228346452
0
LINE
8
BLACK
6
CONTINUOUS
10
5.3483854724409445
20
-4.0697373228346452
11
5.3483133858267715
21
-4.0697672047244096
0
LINE
8
BLACK
6
CONTINUOUS
10
5.3483133858267715
20
-4.0697672047244096
11
5.3482088582677161
21
-4.0697774803149604
0
LINE
8
BLACK
6
CONTINUOUS
10
5.3482088582677161
20
-4.0697774803149604
11
5.3481066141732283
21
-4.0698007480314962
0
LINE
8
BLACK
6
CONTINUOUS
10
5.3481066141732283
20
-4.0698007480314962
11
5.3480288582677167
21
-4.0697951968503938
0
LINE
8
BLACK
6
CONTINUOUS
10
5.3480288582677167
20
-4.0697951968503938
11
5.3477373228346456
21
-4.0698239370078735
0
LINE
8
BLACK
6
CONTINUOUS
10
5.3477373228346456
20
-4.0698239370078735
11
5.342113031496063
21
-4.0698239370078735
0
LINE
8
BLACK
6
CONTINUOUS
10
5.342113031496063
20
-4.0698239370078735
11
5.3415369685039371
21
-4.0697672047244096
0
LINE
8
BLACK
6
CONTINUOUS
10
5.3415369685039371
20
-4.0697672047244096
11
5.3404725590551179
21
-4.069326299212598
0
LINE
8
BLACK
6
CONTINUOUS
10
5.3404725590551179
20
-4.069326299212598
11
5.3396579133858264
21
-4.0685116535433066
0
LINE
8
BLACK
6
CONTINUOUS
10
5.3396579133858264
20
-4.0685116535433066
11
5.3392170078740158
21
-4.0674472440944882
0
LINE
8
BLACK
6
CONTINUOUS
10
5.3392170078740158
20
-4.0674472440944882
11
5.3392170078740158
21
-4.0662951181102365
0
LINE
8
BLACK
6
CONTINUOUS
10
5.3392170078740158
20
-4.0662951181102365
11
5.3396579133858264
21
-4.0652307086614172
0
LINE
8
BLACK
6
CONTINUOUS
10
5.3396579133858264
20
-4.0652307086614172
11
5.3404725590551179
21
-4.0644160629921258
0
LINE
8
BLACK
6
CONTINUOUS
10
5.3404725590551179
20
-4.0644160629921258
11
5.3415369685039371
21
-4.0639751574803151
0
LINE
8
BLACK
6
CONTINUOUS
10
5.3415369685039371
20
-4.0639751574803151
11
5.342113031496063
21
-4.0639184251968503
0
LINE
8
BLACK
6
CONTINUOUS
10
5.342113031496063
20
-4.0639184251968503
11
5.3472581889763777
21
-4.0639184251968503
0
LINE
8
BLACK
6
CONTINUOUS
10
5.3472581889763777
20
-4.0639184251968503
11
5.3545787007874015
21
-4.0614782283464566
0
LINE
8
BLACK
6
CONTINUOUS
10
5.3545787007874015
20
-4.0614782283464566
11
5.3592172834645666
21
-4.0568396850393702
0
LINE
8
BLACK
6
CONTINUOUS
10
5.3592172834645666
20
-4.0568396850393702
11
5.3616574803149604
21
-4.0495191338582677
0
LINE
8
BLACK
6
CONTINUOUS
10
5.3616574803149604
20
-4.0495191338582677
11
5.3616574803149604
21
-4.0078160629921262
0
LINE
8
BLACK
6
CONTINUOUS
10
5.3616574803149604
20
-4.0078160629921262
11
5.3617142125984252
21
-4.0072399999999995
0
LINE
8
BLACK
6
CONTINUOUS
10
5.3617142125984252
20
-4.0072399999999995
11
5.3621551181102358
21
-4.0061755905511811
0
LINE
8
BLACK
6
CONTINUOUS
10
5.3621551181102358
20
-4.0061755905511811
11
5.3629697637795273
21
-4.0053609448818897
0
LINE
8
BLACK
6
CONTINUOUS
10
5.3629697637795273
20
-4.0053609448818897
11
5.3640341732283465
21
-4.004920039370079
0
LINE
8
BLACK
6
CONTINUOUS
10
5.3640341732283465
20
-4.004920039370079
11
5.3651862992125983
21
-4.004920039370079
0
LINE
8
BLACK
6
CONTINUOUS
10
5.3651862992125983
20
-4.004920039370079
11
5.3662507086614175
21
-4.0053609448818897
0
LINE
8
BLACK
6
CONTINUOUS
10
5.4054425984251964
20
-4.0024387007874012
11
5.4063129921259838
21
-4.0031935826771656
0
LINE
8
BLACK
6
CONTINUOUS
10
5.4063129921259838
20
-4.0031935826771656
11
5.4068281889763776
21
-4.0042240551181099
0
LINE
8
BLACK
6
CONTINUOUS
10
5.4068281889763776
20
-4.0042240551181099
11
5.4069098818897636
21
-4.0053732677165357
0
LINE
8
BLACK
6
CONTINUOUS
10
5.4069098818897636
20
-4.0053732677165357
11
5.4067815354330708
21
-4.0059376771653543
0
LINE
8
BLACK
6
CONTINUOUS
10
5.4067815354330708
20
-4.0059376771653543
11
5.3940162992125984
21
-4.0442333858267716
0
LINE
8
BLACK
6
CONTINUOUS
10
5.3940162992125984
20
-4.0442333858267716
11
5.4150883070866138
21
-4.0442333858267716
0
LINE
8
BLACK
6
CONTINUOUS
10
5.4150883070866138
20
-4.0442333858267716
11
5.4150883070866138
21
-4.0275011023622049
0
LINE
8
BLACK
6
CONTINUOUS
10
5.4150883070866138
20
-4.0275011023622049
11
5.4151450393700786
21
-4.0269250393700791
0
LINE
8
BLACK
6
CONTINUOUS
10
5.4151450393700786
20
-4.0269250393700791
11
5.4155859448818893
21
-4.0258606299212598
0
LINE
8
BLACK
6
CONTINUOUS
10
5.4155859448818893
20
-4.0258606299212598
11
5.4164005905511807
21
-4.0250459842519684
0
LINE
8
BLACK
6
CONTINUOUS
10
5.4164005905511807
20
-4.0250459842519684
11
5.417465
21
-4.0246050787401577
0
LINE
8
BLACK
6
CONTINUOUS
10
5.417465
20
-4.0246050787401577
11
5.4186171259842517
21
-4.0246050787401577
0
LINE
8
BLACK
6
CONTINUOUS
10
5.4186171259842517
20
-4.0246050787401577
11
5.419681535433071
21
-4.0250459842519684
0
LINE
8
BLACK
6
CONTINUOUS
10
5.419681535433071
20
-4.0250459842519684
11
5.4204961811023624
21
-4.0258606299212598
0
LINE
8
BLACK
6
CONTINUOUS
10
5.4204961811023624
20
-4.0258606299212598
11
5.4209370866141731
21
-4.0269250393700791
0
LINE
8
BLACK
6
CONTINUOUS
10
5.4209370866141731
20
-4.0269250393700791
11
5.4209938188976379
21
-4.0275011023622049
0
LINE
8
BLACK
6
CONTINUOUS
10
5.4209938188976379
20
-4.0275011023622049
11
5.4209938188976379
21
-4.0442333858267716
0
LINE
8
BLACK
6
CONTINUOUS
10
5.4209938188976379
20
-4.0442333858267716
11
5.4264774803149605
21
-4.0442333858267716
0
LINE
8
BLACK
6
CONTINUOUS
10
5.4264774803149605
20
-4.0442333858267716
11
5.4270535433070863
21
-4.0442901181102364
0
LINE
8
BLACK
6
CONTINUOUS
10
5.4270535433070863
20
-4.0442901181102364
11
5.4281179527559056
21
-4.0447310236220471
0
LINE
8
BLACK
6
CONTINUOUS
10
5.4281179527559056
20
-4.0447310236220471
11
5.428932598425197
21
-4.0455456692913385
0
LINE
8
BLACK
6
CONTINUOUS
10
5.428932598425197
20
-4.0455456692913385
11
5.4293735039370077
21
-4.0466100787401578
0
LINE
8
BLACK
6
CONTINUOUS
10
5.4293735039370077
20
-4.0466100787401578
11
5.4293735039370077
21
-4.0477622047244095
0
LINE
8
BLACK
6
CONTINUOUS
10
5.4293735039370077
20
-4.0477622047244095
11
5.428932598425197
21
-4.0488266141732279
0
LINE
8
BLACK
6
CONTINUOUS
10
5.428932598425197
20
-4.0488266141732279
11
5.4281179527559056
21
-4.0496412598425193
0
LINE
8
BLACK
6
CONTINUOUS
10
5.4281179527559056
20
-4.0496412598425193
11
5.4270535433070863
21
-4.0500821653543309
0
LINE
8
BLACK
6
CONTINUOUS
10
5.4270535433070863
20
-4.0500821653543309
11
5.4264774803149605
21
-4.0501388976377948
0
LINE
8
BLACK
6
CONTINUOUS
10
5.4264774803149605
20
-4.0501388976377948
11
5.4209938188976379
21
-4.0501388976377948
0
LINE
8
BLACK
6
CONTINUOUS
10
5.4209938188976379
20
-4.0501388976377948
11
5.4209938188976379
21
-4.0668711811023623
0
LINE
8
BLACK
6
CONTINUOUS
10
5.4209938188976379
20
-4.0668711811023623
11
5.4209370866141731
21
-4.0674472440944882
0
LINE
8
BLACK
6
CONTINUOUS
10
5.4209370866141731
20
-4.0674472440944882
11
5.4204961811023624
21
-4.0685116535433066
0
LINE
8
BLACK
6
CONTINUOUS
10
5.4204961811023624
20
-4.0685116535433066
11
5.419681535433071
21
-4.069326299212598
0
LINE
8
BLACK
6
CONTINUOUS
10
5.419681535433071
20
-4.069326299212598
11
5.4186171259842517
21
-4.0697672047244096
0
LINE
8
BLACK
6
CONTINUOUS
10
5.4186171259842517
20
-4.0697672047244096
11
5.417465
21
-4.0697672047244096
0
LINE
8
BLACK
6
CONTINUOUS
10
5.417465
20
-4.0697672047244096
11
5.4164005905511807
21
-4.069326299212598
0
LINE
8
BLACK
6
CONTINUOUS
10
5.4164005905511807
20
-4.069326299212598
11
5.4155859448818893
21
-4.0685116535433066
0
LINE
8
BLACK
6
CONTINUOUS
10
5.4155859448818893
20
-4.0685116535433066
11
5.4151450393700786
21
-4.0674472440944882
0
LINE
8
BLACK
6
CONTINUOUS
10
5.4151450393700786
20
-4.0674472440944882
11
5.4150883070866138
21
-4.0668711811023623
0
LINE
8
BLACK
6
CONTINUOUS
10
5.4150883070866138
20
-4.0668711811023623
11
5.4150883070866138
21
-4.0501388976377948
0
LINE
8
BLACK
6
CONTINUOUS
10
5.4150883070866138
20
-4.0501388976377948
11
5.3899195669291338
21
-4.0501388976377948
0
LINE
8
BLACK
6
CONTINUOUS
10
5.3899195669291338
20
-4.0501388976377948
11
5.389627992125984
21
-4.0501101574803151
0
LINE
8
BLACK
6
CONTINUOUS
10
5.389627992125984
20
-4.0501101574803151
11
5.3895502755905511
21
-4.0501157086614175
0
LINE
8
BLACK
6
CONTINUOUS
10
5.3895502755905511
20
-4.0501157086614175
11
5.3894941338582676
21
-4.0500969685039365
0
LINE
8
BLACK
6
CONTINUOUS
10
5.3894941338582676
20
-4.0500969685039365
11
5.3893435039370079
21
-4.0500821653543309
0
LINE
8
BLACK
6
CONTINUOUS
10
5.3893435039370079
20
-4.0500821653543309
11
5.388906181102362
21
-4.0499010236220467
0
LINE
8
BLACK
6
CONTINUOUS
10
5.388906181102362
20
-4.0499010236220467
11
5.3884572440944885
21
-4.0497513779527559
0
LINE
8
BLACK
6
CONTINUOUS
10
5.3884572440944885
20
-4.0497513779527559
11
5.3883770472440942
21
-4.0496818110236221
0
LINE
8
BLACK
6
CONTINUOUS
10
5.3883770472440942
20
-4.0496818110236221
11
5.3882790944881886
21
-4.0496412598425193
0
LINE
8
BLACK
6
CONTINUOUS
10
5.3882790944881886
20
-4.0496412598425193
11
5.3879444488188977
21
-4.0493066141732283
0
LINE
8
BLACK
6
CONTINUOUS
10
5.3879444488188977
20
-4.0493066141732283
11
5.3875868897637798
21
-4.0489964960629923
0
LINE
8
BLACK
6
CONTINUOUS
10
5.3875868897637798
20
-4.0489964960629923
11
5.3875394488188979
21
-4.0489016141732286
0
LINE
8
BLACK
6
CONTINUOUS
10
5.3875394488188979
20
-4.0489016141732286
11
5.3874644488188972
21
-4.0488266141732279
0
LINE
8
BLACK
6
CONTINUOUS
10
5.3874644488188972
20
-4.0488266141732279
11
5.3872832677165352
21
-4.0483892519685041
0
LINE
8
BLACK
6
CONTINUOUS
10
5.3872832677165352
20
-4.0483892519685041
11
5.3870716929133859
21
-4.0479660629921259
0
LINE
8
BLACK
6
CONTINUOUS
10
5.3870716929133859
20
-4.0479660629921259
11
5.387064173228346
21
-4.0478602755905513
0
LINE
8
BLACK
6
CONTINUOUS
10
5.387064173228346
20
-4.0478602755905513
11
5.3870235433070865
21
-4.0477622047244095
0
LINE
8
BLACK
6
CONTINUOUS
10
5.3870235433070865
20
-4.0477622047244095
11
5.3870235433070865
21
-4.0472887007874014
0
LINE
8
BLACK
6
CONTINUOUS
10
5.3870235433070865
20
-4.0472887007874014
11
5.3869899999999999
21
-4.046816850393701
0
LINE
8
BLACK
6
CONTINUOUS
10
5.3869899999999999
20
-4.046816850393701
11
5.3870235433070865
21
-4.046669330708661
0
LINE
8
BLACK
6
CONTINUOUS
10
5.3870235433070865
20
-4.046669330708661
11
5.3870235433070865
21
-4.0466100787401578
0
LINE
8
BLACK
6
CONTINUOUS
10
5.3870235433070865
20
-4.0466100787401578
11
5.3870533858267713
21
-4.0465379527559051
0
LINE
8
BLACK
6
CONTINUOUS
10
5.3870533858267713
20
-4.0465379527559051
11
5.3871183464566927
21
-4.0462524015748027
0
LINE
8
BLACK
6
CONTINUOUS
10
5.3871183464566927
20
-4.0462524015748027
11
5.4011790944881888
21
-4.0040701968503933
0
LINE
8
BLACK
6
CONTINUOUS
10
5.4011790944881888
20
-4.0040701968503933
11
5.4014150787401576
21
-4.0035416535433068
0
LINE
8
BLACK
6
CONTINUOUS
10
5.4014150787401576
20
-4.0035416535433068
11
5.4021699606299212
21
-4.0026712992125981
0
LINE
8
BLACK
6
CONTINUOUS
10
5.4021699606299212
20
-4.0026712992125981
11
5.4032003937007875
21
-4.0021560629921256
0
LINE
8
BLACK
6
CONTINUOUS
10
5.4032003937007875
20
-4.0021560629921256
11
5.4043496062992125
21
-4.0020743700787405
0
LINE
8
BLACK
6
CONTINUOUS
10
5.4043496062992125
20
-4.0020743700787405
11
5.4054425984251964
21
-4.0024387007874012
0
CIRCLE
8
BLACK
10
4.9323165354330705
20
-3.9293
40
0.0068897637795276
0
CIRCLE
8
BLACK
10
6.4561456692913382
20
-4.5349370078740154
40
0.0068897637795276
0
CIRCLE
8
BLACK
10
6.5561456692913387
20
-4.5349370078740154
40
0.0068897637795276
0
CIRCLE
8
BLACK
10
6.4561456692913382
20
-4.634937007874016
40
0.0068897637795276
0
CIRCLE
8
BLACK
10
6.5561456692913387
20
-4.634937007874016
40
0.0068897637795276
0
CIRCLE
8
BLACK
10
6.4561456692913382
20
-4.7349370078740156
40
0.0068897637795276
0
CIRCLE
8
BLACK
10
6.5561456692913387
20
-4.7349370078740156
40
0.0068897637795276
0
CIRCLE
8
BLACK
10
6.4561456692913382
20
-4.8349370078740153
40
0.0068897637795276
0
CIRCLE
8
BLACK
10
6.5561456692913387
20
-4.8349370078740153
40
0.0068897637795276
0
CIRCLE
8
BLACK
10
4.9323165354330705
20
-4.7678212598425196
40
0.0068897637795276
0
CIRCLE
8
BLACK
10
5.8663818897637796
20
-4.3349370078740153
40
0.0068897637795276
0
CIRCLE
8
BLACK
10
5.9663818897637793
20
-4.3349370078740153
40
0.0068897637795276
0
CIRCLE
8
BLACK
10
5.8663818897637796
20
-4.4349370078740158
40
0.0068897637795276
0
CIRCLE
8
BLACK
10
5.9663818897637793
20
-4.4349370078740158
40
0.0068897637795276
0
CIRCLE
8
BLACK
10
5.8663818897637796
20
-4.5349370078740154
40
0.0068897637795276
0
CIRCLE
8
BLACK
10
5.9663818897637793
20
-4.5349370078740154
40
0.0068897637795276
0
CIRCLE
8
BLACK
10
5.8663818897637796
20
-4.634937007874016
40
0.0068897637795276
0
CIRCLE
8
BLACK
10
5.9663818897637793
20
-4.634937007874016
40
0.0068897637795276
0
CIRCLE
8
BLACK
10
5.8663818897637796
20
-4.7349370078740156
40
0.0068897637795276
0
CIRCLE
8
BLACK
10
5.9663818897637793
20
-4.7349370078740156
40
0.0068897637795276
0
CIRCLE
8
BLACK
10
5.8663818897637796
20
-4.8349370078740153
40
0.0068897637795276
0
CIRCLE
8
BLACK
10
5.9663818897637793
20
-4.8349370078740153
40
0.0068897637795276
0
CIRCLE
8
BLACK
10
4.9323165354330705
20
-4.2088070866141729
40
0.0068897637795276
0
CIRCLE
8
BLACK
10
4.9323165354330705
20
-4.4883141732283462
40
0.0068897637795276
0
CIRCLE
8
BLACK
10
5.3842952755905511
20
-4.2406456692913386
40
0.0068897637795276
0
CIRCLE
8
BLACK
10
5.2842952755905515
20
-4.1406456692913389
40
0.0068897637795276
0
CIRCLE
8
BLACK
10
5.2842952755905515
20
-4.3406456692913382
40
0.0068897637795276
0
CIRCLE
8
BLACK
10
5.4842952755905507
20
-4.1406456692913389
40
0.0068897637795276
0
CIRCLE
8
BLACK
10
5.4842952755905507
20
-4.3406456692913382
40
0.0068897637795276
0
CIRCLE
8
BLACK
10
6.1116574803149604
20
-4.3061968503937003
40
0.0068897637795276
0
CIRCLE
8
BLACK
10
6.2116574803149609
20
-4.3061968503937003
40
0.0068897637795276
0
CIRCLE
8
BLACK
10
6.1116574803149604
20
-4.2061968503937006
40
0.0068897637795276
0
CIRCLE
8
BLACK
10
6.2116574803149609
20
-4.2061968503937006
40
0.0068897637795276
0
CIRCLE
8
BLACK
10
6.1116574803149604
20
-4.106196850393701
40
0.0068897637795276
0
CIRCLE
8
BLACK
10
6.2116574803149609
20
-4.106196850393701
40
0.0068897637795276
0
CIRCLE
8
BLACK
10
4.9323165354330705
20
-3.9293
40
0.0068897637795276
0
CIRCLE
8
BLACK
10
6.4561456692913382
20
-4.5349370078740154
40
0.0068897637795276
0
CIRCLE
8
BLACK
10
6.5561456692913387
20
-4.5349370078740154
40
0.0068897637795276
0
CIRCLE
8
BLACK
10
6.4561456692913382
20
-4.634937007874016
40
0.0068897637795276
0
CIRCLE
8
BLACK
10
6.5561456692913387
20
-4.634937007874016
40
0.0068897637795276
0
CIRCLE
8
BLACK
10
6.4561456692913382
20
-4.7349370078740156
40
0.0068897637795276
0
CIRCLE
8
BLACK
10
6.5561456692913387
20
-4.7349370078740156
40
0.0068897637795276
0
CIRCLE
8
BLACK
10
6.4561456692913382
20
-4.8349370078740153
40
0.0068897637795276
0
CIRCLE
8
BLACK
10
6.5561456692913387
20
-4.8349370078740153
40
0.0068897637795276
0
CIRCLE
8
BLACK
10
4.9323165354330705
20
-4.7678212598425196
40
0.0068897637795276
0
CIRCLE
8
WHITE
10
5.8663818897637796
20
-4.3349370078740153
40
0.0068897637795276
0
CIRCLE
8
WHITE
10
5.9663818897637793
20
-4.3349370078740153
40
0.0068897637795276
0
CIRCLE
8
WHITE
10
5.8663818897637796
20
-4.4349370078740158
40
0.0068897637795276
0
CIRCLE
8
WHITE
10
5.9663818897637793
20
-4.4349370078740158
40
0.0068897637795276
0
CIRCLE
8
WHITE
10
5.8663818897637796
20
-4.5349370078740154
40
0.0068897637795276
0
CIRCLE
8
WHITE
10
5.9663818897637793
20
-4.5349370078740154
40
0.0068897637795276
0
CIRCLE
8
WHITE
10
5.8663818897637796
20
-4.634937007874016
40
0.0068897637795276
0
CIRCLE
8
WHITE
10
5.9663818897637793
20
-4.634937007874016
40
0.0068897637795276
0
CIRCLE
8
WHITE
10
5.8663818897637796
20
-4.7349370078740156
40
0.0068897637795276
0
CIRCLE
8
WHITE
10
5.9663818897637793
20
-4.7349370078740156
40
0.0068897637795276
0
CIRCLE
8
WHITE
10
5.8663818897637796
20
-4.8349370078740153
40
0.0068897637795276
0
CIRCLE
8
WHITE
10
5.9663818897637793
20
-4.8349370078740153
40
0.0068897637795276
0
CIRCLE
8
BLACK
10
4.9323165354330705
20
-4.2088070866141729
40
0.0068897637795276
0
CIRCLE
8
BLACK
10
4.9323165354330705
20
-4.4883141732283462
40
0.0068897637795276
0
CIRCLE
8
BLACK
10
5.3842952755905511
20
-4.2406456692913386
40
0.0068897637795276
0
CIRCLE
8
BLACK
10
5.2842952755905515
20
-4.1406456692913389
40
0.0068897637795276
0
CIRCLE
8
BLACK
10
5.2842952755905515
20
-4.3406456692913382
40
0.0068897637795276
0
CIRCLE
8
BLACK
10
5.4842952755905507
20
-4.1406456692913389
40
0.0068897637795276
0
CIRCLE
8
BLACK
10
5.4842952755905507
20
-4.3406456692913382
40
0.0068897637795276
0
CIRCLE
8
BLACK
10
6.1116574803149604
20
-4.3061968503937003
40
0.0068897637795276
0
CIRCLE
8
BLACK
10
6.2116574803149609
20
-4.3061968503937003
40
0.0068897637795276
0
CIRCLE
8
BLACK
10
6.1116574803149604
20
-4.2061968503937006
40
0.0068897637795276
0
CIRCLE
8
BLACK
10
6.2116574803149609
20
-4.2061968503937006
40
0.0068897637795276
0
CIRCLE
8
BLACK
10
6.1116574803149604
20
-4.106196850393701
40
0.0068897637795276
0
CIRCLE
8
BLACK
10
6.2116574803149609
20
-4.106196850393701
40
0.0068897637795276
  0
ENDSEC
  0
EOF
