  0
SECTION
  2
HEADER
  9
$ANGBASE
  50
0.0
  9
$ANGDIR
  70
1
  9
$MEASUREMENT
  70
0
  0
ENDSEC
  0
SECTION
  2
TABLES
  0
TABLE
  2
LTYPE
  70
4
  0
LTYPE
  5
40F
  2
CONTINUOUS
  70
0
  3
Solid line
  72
65
  73
0
  40
0.0
  0
LTYPE
  5
410
  2
DASHDOT
 70
0
  3
Dash Dot ____ _ ____ _
 72
65
 73
4
 40
2.0
 49
1.25
 49
-0.25
 49
0.25
 49
-0.25
  0
LTYPE
  5
411
  2
DASHED
 70
0
  3
Dashed __ __ __ __ __
 72
65
 73
2
 40
0.75
 49
0.5
 49
-0.25
  0
LTYPE
  5
43B
  2
DOTTED
 70
0
  3
Dotted .  .  .  .
 72
65
 73
2
 40
0.2
 49
0.0
 49
-0.2
  0
ENDTAB
  0
TABLE
  2
STYLE
  70
4
  0
STYLE
  2
KICAD
  70
0
  40
0
  41
1
  42
1
  50
0
  71
0
  3
isocp.shx
  0
STYLE
  2
KICADB
  70
0
  40
0
  41
1
  42
1
  50
0
  71
0
  3
isocp.shx
  0
STYLE
  2
KICADI
  70
0
  40
0
  41
1
  42
1
  50
15
  71
0
  3
isocp.shx
  0
STYLE
  2
KICADBI
  70
0
  40
0
  41
1
  42
1
  50
15
  71
0
  3
isocp.shx
  0
ENDTAB
  0
TABLE
  2
LAYER
  70
1
  0
LAYER
  2
BLACK
  70
0
  62
7
  6
CONTINUOUS
  0
ENDTAB
  0
ENDSEC
  0
SECTION
  2
ENTITIES
0
LINE
8
BLACK
6
CONTINUOUS
10
4.9524287401574805
20
-4.6494492125984248
11
4.9655557480314956
21
-4.6524453543307089
0
LINE
8
BLACK
6
CONTINUOUS
10
4.9655557480314956
20
-4.6524453543307089
11
4.9782647637795279
21
-4.6568924409448815
0
LINE
8
BLACK
6
CONTINUOUS
10
4.9782647637795279
20
-4.6568924409448815
11
4.9903959448818895
21
-4.6627344881889758
0
LINE
8
BLACK
6
CONTINUOUS
10
4.9903959448818895
20
-4.6627344881889758
11
5.0017967322834647
21
-4.6698980708661413
0
LINE
8
BLACK
6
CONTINUOUS
10
5.0017967322834647
20
-4.6698980708661413
11
5.0123237795275593
21
-4.6782931102362202
0
LINE
8
BLACK
6
CONTINUOUS
10
5.0123237795275593
20
-4.6782931102362202
11
5.0218446850393699
21
-4.6878140157480317
0
LINE
8
BLACK
6
CONTINUOUS
10
5.0218446850393699
20
-4.6878140157480317
11
5.0302397244094488
21
-4.6983410629921263
0
LINE
8
BLACK
6
CONTINUOUS
10
5.0302397244094488
20
-4.6983410629921263
11
5.0374033070866142
21
-4.7097418503937005
0
LINE
8
BLACK
6
CONTINUOUS
10
5.0374033070866142
20
-4.7097418503937005
11
5.0432453543307085
21
-4.7218730314960631
0
LINE
8
BLACK
6
CONTINUOUS
10
5.0432453543307085
20
-4.7218730314960631
11
5.047692440944882
21
-4.7345820472440945
0
LINE
8
BLACK
6
CONTINUOUS
10
5.047692440944882
20
-4.7345820472440945
11
5.0506885826771653
21
-4.7477090551181105
0
LINE
8
BLACK
6
CONTINUOUS
10
5.0506885826771653
20
-4.7477090551181105
11
5.0521961417322832
21
-4.7610889763779527
0
LINE
8
BLACK
6
CONTINUOUS
10
5.0521961417322832
20
-4.7610889763779527
11
5.0521961417322832
21
-4.7745535433070865
0
LINE
8
BLACK
6
CONTINUOUS
10
5.0521961417322832
20
-4.7745535433070865
11
5.0506885826771653
21
-4.7879334645669287
0
LINE
8
BLACK
6
CONTINUOUS
10
5.0506885826771653
20
-4.7879334645669287
11
5.047692440944882
21
-4.8010604724409447
0
LINE
8
BLACK
6
CONTINUOUS
10
5.047692440944882
20
-4.8010604724409447
11
5.0432453543307085
21
-4.8137694881889761
0
LINE
8
BLACK
6
CONTINUOUS
10
5.0432453543307085
20
-4.8137694881889761
11
5.0374033070866142
21
-4.8259006692913387
0
LINE
8
BLACK
6
CONTINUOUS
10
5.0374033070866142
20
-4.8259006692913387
11
5.0302397244094488
21
-4.8373014566929129
0
LINE
8
BLACK
6
CONTINUOUS
10
5.0302397244094488
20
-4.8373014566929129
11
5.0218446850393699
21
-4.8478285039370075
0
LINE
8
BLACK
6
CONTINUOUS
10
5.0218446850393699
20
-4.8478285039370075
11
5.0123237795275593
21
-4.857349409448819
0
LINE
8
BLACK
6
CONTINUOUS
10
5.0123237795275593
20
-4.857349409448819
11
5.0017967322834647
21
-4.8657444488188979
0
LINE
8
BLACK
6
CONTINUOUS
10
5.0017967322834647
20
-4.8657444488188979
11
4.9903959448818895
21
-4.8729080314960624
0
LINE
8
BLACK
6
CONTINUOUS
10
4.9903959448818895
20
-4.8729080314960624
11
4.9782647637795279
21
-4.8787500787401576
0
LINE
8
BLACK
6
CONTINUOUS
10
4.9782647637795279
20
-4.8787500787401576
11
4.9655557480314956
21
-4.8831971653543302
0
LINE
8
BLACK
6
CONTINUOUS
10
4.9655557480314956
20
-4.8831971653543302
11
4.9524287401574805
21
-4.8861933070866144
0
LINE
8
BLACK
6
CONTINUOUS
10
4.9524287401574805
20
-4.8861933070866144
11
4.9390488188976374
21
-4.8877008661417323
0
LINE
8
BLACK
6
CONTINUOUS
10
4.9390488188976374
20
-4.8877008661417323
11
4.9255842519685036
21
-4.8877008661417323
0
LINE
8
BLACK
6
CONTINUOUS
10
4.9255842519685036
20
-4.8877008661417323
11
4.9122043307086614
21
-4.8861933070866144
0
LINE
8
BLACK
6
CONTINUOUS
10
4.9122043307086614
20
-4.8861933070866144
11
4.8990773228346454
21
-4.8831971653543302
0
LINE
8
BLACK
6
CONTINUOUS
10
4.8990773228346454
20
-4.8831971653543302
11
4.886368307086614
21
-4.8787500787401576
0
LINE
8
BLACK
6
CONTINUOUS
10
4.886368307086614
20
-4.8787500787401576
11
4.8742371259842523
21
-4.8729080314960624
0
LINE
8
BLACK
6
CONTINUOUS
10
4.8742371259842523
20
-4.8729080314960624
11
4.8628363385826772
21
-4.8657444488188979
0
LINE
8
BLACK
6
CONTINUOUS
10
4.8628363385826772
20
-4.8657444488188979
11
4.8523092913385826
21
-4.857349409448819
0
LINE
8
BLACK
6
CONTINUOUS
10
4.8523092913385826
20
-4.857349409448819
11
4.842788385826772
21
-4.8478285039370075
0
LINE
8
BLACK
6
CONTINUOUS
10
4.842788385826772
20
-4.8478285039370075
11
4.8343933464566931
21
-4.8373014566929129
0
LINE
8
BLACK
6
CONTINUOUS
10
4.8343933464566931
20
-4.8373014566929129
11
4.8272297637795276
21
-4.8259006692913387
0
LINE
8
BLACK
6
CONTINUOUS
10
4.8272297637795276
20
-4.8259006692913387
11
4.8213877165354333
21
-4.8137694881889761
0
LINE
8
BLACK
6
CONTINUOUS
10
4.8213877165354333
20
-4.8137694881889761
11
4.8169406299212598
21
-4.8010604724409447
0
LINE
8
BLACK
6
CONTINUOUS
10
4.8169406299212598
20
-4.8010604724409447
11
4.8139444881889766
21
-4.7879334645669287
0
LINE
8
BLACK
6
CONTINUOUS
10
4.8139444881889766
20
-4.7879334645669287
11
4.8124369291338578
21
-4.7745535433070865
0
LINE
8
BLACK
6
CONTINUOUS
10
4.8124369291338578
20
-4.7745535433070865
11
4.8124369291338578
21
-4.7612994488188978
0
LINE
8
BLACK
6
CONTINUOUS
10
4.8124369291338578
20
-4.7612994488188978
11
4.8124369291338578
21
-4.7610889763779527
0
LINE
8
BLACK
6
CONTINUOUS
10
4.8124369291338578
20
-4.7610889763779527
11
4.8139444881889766
21
-4.7477090551181105
0
LINE
8
BLACK
6
CONTINUOUS
10
4.8139444881889766
20
-4.7477090551181105
11
4.8169406299212598
21
-4.7345820472440945
0
LINE
8
BLACK
6
CONTINUOUS
10
4.8169406299212598
20
-4.7345820472440945
11
4.8213877165354333
21
-4.7218730314960631
0
LINE
8
BLACK
6
CONTINUOUS
10
4.8213877165354333
20
-4.7218730314960631
11
4.8272297637795276
21
-4.7097418503937005
0
LINE
8
BLACK
6
CONTINUOUS
10
4.8272297637795276
20
-4.7097418503937005
11
4.8343933464566931
21
-4.6983410629921263
0
LINE
8
BLACK
6
CONTINUOUS
10
4.8343933464566931
20
-4.6983410629921263
11
4.842788385826772
21
-4.6878140157480317
0
LINE
8
BLACK
6
CONTINUOUS
10
4.842788385826772
20
-4.6878140157480317
11
4.8523092913385826
21
-4.6782931102362202
0
LINE
8
BLACK
6
CONTINUOUS
10
4.8523092913385826
20
-4.6782931102362202
11
4.8628363385826772
21
-4.6698980708661413
0
LINE
8
BLACK
6
CONTINUOUS
10
4.8628363385826772
20
-4.6698980708661413
11
4.8742371259842523
21
-4.6627344881889758
0
LINE
8
BLACK
6
CONTINUOUS
10
4.8742371259842523
20
-4.6627344881889758
11
4.886368307086614
21
-4.6568924409448815
0
LINE
8
BLACK
6
CONTINUOUS
10
4.886368307086614
20
-4.6568924409448815
11
4.8990773228346454
21
-4.6524453543307089
0
LINE
8
BLACK
6
CONTINUOUS
10
4.8990773228346454
20
-4.6524453543307089
11
4.9122043307086614
21
-4.6494492125984248
0
LINE
8
BLACK
6
CONTINUOUS
10
4.9122043307086614
20
-4.6494492125984248
11
4.9255842519685036
21
-4.6479416535433069
0
LINE
8
BLACK
6
CONTINUOUS
10
4.9255842519685036
20
-4.6479416535433069
11
4.9390488188976374
21
-4.6479416535433069
0
LINE
8
BLACK
6
CONTINUOUS
10
4.9390488188976374
20
-4.6479416535433069
11
4.9524287401574805
21
-4.6494492125984248
0
LINE
8
BLACK
6
CONTINUOUS
10
4.8161850393700787
20
-4.7743430708661414
11
4.817645433070866
21
-4.7873046456692911
0
LINE
8
BLACK
6
CONTINUOUS
10
4.817645433070866
20
-4.7873046456692911
11
4.8205479133858269
21
-4.8000212598425192
0
LINE
8
BLACK
6
CONTINUOUS
10
4.8205479133858269
20
-4.8000212598425192
11
4.8248559448818895
21
-4.8123328740157483
0
LINE
8
BLACK
6
CONTINUOUS
10
4.8248559448818895
20
-4.8123328740157483
11
4.8305153543307089
21
-4.8240847637795277
0
LINE
8
BLACK
6
CONTINUOUS
10
4.8305153543307089
20
-4.8240847637795277
11
4.8374550000000003
21
-4.8351291338582678
0
LINE
8
BLACK
6
CONTINUOUS
10
4.8374550000000003
20
-4.8351291338582678
11
4.8455875590551178
21
-4.8453270078740154
0
LINE
8
BLACK
6
CONTINUOUS
10
4.8455875590551178
20
-4.8453270078740154
11
4.8548107874015747
21
-4.8545502362204722
0
LINE
8
BLACK
6
CONTINUOUS
10
4.8548107874015747
20
-4.8545502362204722
11
4.8650086614173231
21
-4.8626827952755907
0
LINE
8
BLACK
6
CONTINUOUS
10
4.8650086614173231
20
-4.8626827952755907
11
4.8760530314960633
21
-4.8696224409448821
0
LINE
8
BLACK
6
CONTINUOUS
10
4.8760530314960633
20
-4.8696224409448821
11
4.8878049212598427
21
-4.8752818503937005
0
LINE
8
BLACK
6
CONTINUOUS
10
4.8878049212598427
20
-4.8752818503937005
11
4.9001165354330709
21
-4.8795898818897641
0
LINE
8
BLACK
6
CONTINUOUS
10
4.9001165354330709
20
-4.8795898818897641
11
4.9128331496062989
21
-4.882492362204724
0
LINE
8
BLACK
6
CONTINUOUS
10
4.9128331496062989
20
-4.882492362204724
11
4.9257947244094487
21
-4.8839527559055114
0
LINE
8
BLACK
6
CONTINUOUS
10
4.9257947244094487
20
-4.8839527559055114
11
4.9388383464566932
21
-4.8839527559055114
0
LINE
8
BLACK
6
CONTINUOUS
10
4.9388383464566932
20
-4.8839527559055114
11
4.951799921259842
21
-4.882492362204724
0
LINE
8
BLACK
6
CONTINUOUS
10
4.951799921259842
20
-4.882492362204724
11
4.9645165354330709
21
-4.8795898818897641
0
LINE
8
BLACK
6
CONTINUOUS
10
4.9645165354330709
20
-4.8795898818897641
11
4.9768281496062992
21
-4.8752818503937005
0
LINE
8
BLACK
6
CONTINUOUS
10
4.9768281496062992
20
-4.8752818503937005
11
4.9885800393700785
21
-4.8696224409448821
0
LINE
8
BLACK
6
CONTINUOUS
10
4.9885800393700785
20
-4.8696224409448821
11
4.9996244094488187
21
-4.8626827952755907
0
LINE
8
BLACK
6
CONTINUOUS
10
4.9996244094488187
20
-4.8626827952755907
11
5.0098222834645671
21
-4.8545502362204722
0
LINE
8
BLACK
6
CONTINUOUS
10
5.0098222834645671
20
-4.8545502362204722
11
5.0190455118110231
21
-4.8453270078740154
0
LINE
8
BLACK
6
CONTINUOUS
10
5.0190455118110231
20
-4.8453270078740154
11
5.0271780708661415
21
-4.8351291338582678
0
LINE
8
BLACK
6
CONTINUOUS
10
5.0271780708661415
20
-4.8351291338582678
11
5.0341177165354329
21
-4.8240847637795277
0
LINE
8
BLACK
6
CONTINUOUS
10
5.0341177165354329
20
-4.8240847637795277
11
5.0397771259842514
21
-4.8123328740157483
0
LINE
8
BLACK
6
CONTINUOUS
10
5.0397771259842514
20
-4.8123328740157483
11
5.0440851574803149
21
-4.8000212598425192
0
LINE
8
BLACK
6
CONTINUOUS
10
5.0440851574803149
20
-4.8000212598425192
11
5.0469876377952758
21
-4.7873046456692911
0
LINE
8
BLACK
6
CONTINUOUS
10
5.0469876377952758
20
-4.7873046456692911
11
5.0484480314960631
21
-4.7743430708661414
0
LINE
8
BLACK
6
CONTINUOUS
10
5.0484480314960631
20
-4.7743430708661414
11
5.0484480314960631
21
-4.7612994488188978
0
LINE
8
BLACK
6
CONTINUOUS
10
5.0484480314960631
20
-4.7612994488188978
11
5.0469876377952758
21
-4.748337874015748
0
LINE
8
BLACK
6
CONTINUOUS
10
5.0469876377952758
20
-4.748337874015748
11
5.0440851574803149
21
-4.7356212598425191
0
LINE
8
BLACK
6
CONTINUOUS
10
5.0440851574803149
20
-4.7356212598425191
11
5.0397771259842514
21
-4.7233096456692909
0
LINE
8
BLACK
6
CONTINUOUS
10
5.0397771259842514
20
-4.7233096456692909
11
5.0341177165354329
21
-4.7115577559055115
0
LINE
8
BLACK
6
CONTINUOUS
10
5.0341177165354329
20
-4.7115577559055115
11
5.0271780708661415
21
-4.7005133858267714
0
LINE
8
BLACK
6
CONTINUOUS
10
5.0271780708661415
20
-4.7005133858267714
11
5.0190455118110231
21
-4.6903155118110238
0
LINE
8
BLACK
6
CONTINUOUS
10
5.0190455118110231
20
-4.6903155118110238
11
5.0098222834645671
21
-4.681092283464567
0
LINE
8
BLACK
6
CONTINUOUS
10
5.0098222834645671
20
-4.681092283464567
11
4.9996244094488187
21
-4.6729597244094485
0
LINE
8
BLACK
6
CONTINUOUS
10
4.9996244094488187
20
-4.6729597244094485
11
4.9885800393700785
21
-4.6660200787401571
0
LINE
8
BLACK
6
CONTINUOUS
10
4.9885800393700785
20
-4.6660200787401571
11
4.9768281496062992
21
-4.6603606692913386
0
LINE
8
BLACK
6
CONTINUOUS
10
4.9768281496062992
20
-4.6603606692913386
11
4.9645165354330709
21
-4.6560526377952751
0
LINE
8
BLACK
6
CONTINUOUS
10
4.9645165354330709
20
-4.6560526377952751
11
4.951799921259842
21
-4.6531501574803151
0
LINE
8
BLACK
6
CONTINUOUS
10
4.951799921259842
20
-4.6531501574803151
11
4.9388383464566932
21
-4.6516897637795278
0
LINE
8
BLACK
6
CONTINUOUS
10
4.9388383464566932
20
-4.6516897637795278
11
4.9257947244094487
21
-4.6516897637795278
0
LINE
8
BLACK
6
CONTINUOUS
10
4.9257947244094487
20
-4.6516897637795278
11
4.9128331496062989
21
-4.6531501574803151
0
LINE
8
BLACK
6
CONTINUOUS
10
4.9128331496062989
20
-4.6531501574803151
11
4.9001165354330709
21
-4.6560526377952751
0
LINE
8
BLACK
6
CONTINUOUS
10
4.9001165354330709
20
-4.6560526377952751
11
4.8878049212598427
21
-4.6603606692913386
0
LINE
8
BLACK
6
CONTINUOUS
10
4.8878049212598427
20
-4.6603606692913386
11
4.8760530314960633
21
-4.6660200787401571
0
LINE
8
BLACK
6
CONTINUOUS
10
4.8760530314960633
20
-4.6660200787401571
11
4.8650086614173231
21
-4.6729597244094485
0
LINE
8
BLACK
6
CONTINUOUS
10
4.8650086614173231
20
-4.6729597244094485
11
4.8548107874015747
21
-4.681092283464567
0
LINE
8
BLACK
6
CONTINUOUS
10
4.8548107874015747
20
-4.681092283464567
11
4.8455875590551178
21
-4.6903155118110238
0
LINE
8
BLACK
6
CONTINUOUS
10
4.8455875590551178
20
-4.6903155118110238
11
4.8374550000000003
21
-4.7005133858267714
0
LINE
8
BLACK
6
CONTINUOUS
10
4.8374550000000003
20
-4.7005133858267714
11
4.8305153543307089
21
-4.7115577559055115
0
LINE
8
BLACK
6
CONTINUOUS
10
4.8305153543307089
20
-4.7115577559055115
11
4.8248559448818895
21
-4.7233096456692909
0
LINE
8
BLACK
6
CONTINUOUS
10
4.8248559448818895
20
-4.7233096456692909
11
4.8205479133858269
21
-4.7356212598425191
0
LINE
8
BLACK
6
CONTINUOUS
10
4.8205479133858269
20
-4.7356212598425191
11
4.817645433070866
21
-4.748337874015748
0
LINE
8
BLACK
6
CONTINUOUS
10
4.817645433070866
20
-4.748337874015748
11
4.8161850393700787
21
-4.7612994488188978
0
LINE
8
BLACK
6
CONTINUOUS
10
4.8161850393700787
20
-4.7612994488188978
11
4.8161850393700787
21
-4.7743430708661414
0
LINE
8
BLACK
6
CONTINUOUS
10
4.9524287401574805
20
-4.3699421259842515
11
4.9655557480314956
21
-4.3729382677165356
0
LINE
8
BLACK
6
CONTINUOUS
10
4.9655557480314956
20
-4.3729382677165356
11
4.9782647637795279
21
-4.3773853543307082
0
LINE
8
BLACK
6
CONTINUOUS
10
4.9782647637795279
20
-4.3773853543307082
11
4.9903959448818895
21
-4.3832274015748034
0
LINE
8
BLACK
6
CONTINUOUS
10
4.9903959448818895
20
-4.3832274015748034
11
5.0017967322834647
21
-4.3903909842519688
0
LINE
8
BLACK
6
CONTINUOUS
10
5.0017967322834647
20
-4.3903909842519688
11
5.0123237795275593
21
-4.3987860236220468
0
LINE
8
BLACK
6
CONTINUOUS
10
5.0123237795275593
20
-4.3987860236220468
11
5.0218446850393699
21
-4.4083069291338584
0
LINE
8
BLACK
6
CONTINUOUS
10
5.0218446850393699
20
-4.4083069291338584
11
5.0302397244094488
21
-4.4188339763779529
0
LINE
8
BLACK
6
CONTINUOUS
10
5.0302397244094488
20
-4.4188339763779529
11
5.0374033070866142
21
-4.4302347637795272
0
LINE
8
BLACK
6
CONTINUOUS
10
5.0374033070866142
20
-4.4302347637795272
11
5.0432453543307085
21
-4.4423659448818897
0
LINE
8
BLACK
6
CONTINUOUS
10
5.0432453543307085
20
-4.4423659448818897
11
5.047692440944882
21
-4.4550749606299211
0
LINE
8
BLACK
6
CONTINUOUS
10
5.047692440944882
20
-4.4550749606299211
11
5.0506885826771653
21
-4.4682019685039371
0
LINE
8
BLACK
6
CONTINUOUS
10
5.0506885826771653
20
-4.4682019685039371
11
5.0521961417322832
21
-4.4815818897637794
0
LINE
8
BLACK
6
CONTINUOUS
10
5.0521961417322832
20
-4.4815818897637794
11
5.0521961417322832
21
-4.4950464566929131
0
LINE
8
BLACK
6
CONTINUOUS
10
5.0521961417322832
20
-4.4950464566929131
11
5.0506885826771653
21
-4.5084263779527554
0
LINE
8
BLACK
6
CONTINUOUS
10
5.0506885826771653
20
-4.5084263779527554
11
5.047692440944882
21
-4.5215533858267714
0
LINE
8
BLACK
6
CONTINUOUS
10
5.047692440944882
20
-4.5215533858267714
11
5.0432453543307085
21
-4.5342624015748028
0
LINE
8
BLACK
6
CONTINUOUS
10
5.0432453543307085
20
-4.5342624015748028
11
5.0374033070866142
21
-4.5463935826771653
0
LINE
8
BLACK
6
CONTINUOUS
10
5.0374033070866142
20
-4.5463935826771653
11
5.0302397244094488
21
-4.5577943700787404
0
LINE
8
BLACK
6
CONTINUOUS
10
5.0302397244094488
20
-4.5577943700787404
11
5.0218446850393699
21
-4.5683214173228341
0
LINE
8
BLACK
6
CONTINUOUS
10
5.0218446850393699
20
-4.5683214173228341
11
5.0123237795275593
21
-4.5778423228346456
0
LINE
8
BLACK
6
CONTINUOUS
10
5.0123237795275593
20
-4.5778423228346456
11
5.0017967322834647
21
-4.5862373622047246
0
LINE
8
BLACK
6
CONTINUOUS
10
5.0017967322834647
20
-4.5862373622047246
11
4.9903959448818895
21
-4.59340094488189
0
LINE
8
BLACK
6
CONTINUOUS
10
4.9903959448818895
20
-4.59340094488189
11
4.9782647637795279
21
-4.5992429921259843
0
LINE
8
BLACK
6
CONTINUOUS
10
4.9782647637795279
20
-4.5992429921259843
11
4.9655557480314956
21
-4.6036900787401578
0
LINE
8
BLACK
6
CONTINUOUS
10
4.9655557480314956
20
-4.6036900787401578
11
4.9524287401574805
21
-4.606686220472441
0
LINE
8
BLACK
6
CONTINUOUS
10
4.9524287401574805
20
-4.606686220472441
11
4.9390488188976374
21
-4.6081937795275589
0
LINE
8
BLACK
6
CONTINUOUS
10
4.9390488188976374
20
-4.6081937795275589
11
4.9255842519685036
21
-4.6081937795275589
0
LINE
8
BLACK
6
CONTINUOUS
10
4.9255842519685036
20
-4.6081937795275589
11
4.9122043307086614
21
-4.606686220472441
0
LINE
8
BLACK
6
CONTINUOUS
10
4.9122043307086614
20
-4.606686220472441
11
4.8990773228346454
21
-4.6036900787401578
0
LINE
8
BLACK
6
CONTINUOUS
10
4.8990773228346454
20
-4.6036900787401578
11
4.886368307086614
21
-4.5992429921259843
0
LINE
8
BLACK
6
CONTINUOUS
10
4.886368307086614
20
-4.5992429921259843
11
4.8742371259842523
21
-4.59340094488189
0
LINE
8
BLACK
6
CONTINUOUS
10
4.8742371259842523
20
-4.59340094488189
11
4.8628363385826772
21
-4.5862373622047246
0
LINE
8
BLACK
6
CONTINUOUS
10
4.8628363385826772
20
-4.5862373622047246
11
4.8523092913385826
21
-4.5778423228346456
0
LINE
8
BLACK
6
CONTINUOUS
10
4.8523092913385826
20
-4.5778423228346456
11
4.842788385826772
21
-4.5683214173228341
0
LINE
8
BLACK
6
CONTINUOUS
10
4.842788385826772
20
-4.5683214173228341
11
4.8343933464566931
21
-4.5577943700787404
0
LINE
8
BLACK
6
CONTINUOUS
10
4.8343933464566931
20
-4.5577943700787404
11
4.8272297637795276
21
-4.5463935826771653
0
LINE
8
BLACK
6
CONTINUOUS
10
4.8272297637795276
20
-4.5463935826771653
11
4.8213877165354333
21
-4.5342624015748028
0
LINE
8
BLACK
6
CONTINUOUS
10
4.8213877165354333
20
-4.5342624015748028
11
4.8169406299212598
21
-4.5215533858267714
0
LINE
8
BLACK
6
CONTINUOUS
10
4.8169406299212598
20
-4.5215533858267714
11
4.8139444881889766
21
-4.5084263779527554
0
LINE
8
BLACK
6
CONTINUOUS
10
4.8139444881889766
20
-4.5084263779527554
11
4.8124369291338578
21
-4.4950464566929131
0
LINE
8
BLACK
6
CONTINUOUS
10
4.8124369291338578
20
-4.4950464566929131
11
4.8124369291338578
21
-4.4817923622047244
0
LINE
8
BLACK
6
CONTINUOUS
10
4.8124369291338578
20
-4.4817923622047244
11
4.8124369291338578
21
-4.4815818897637794
0
LINE
8
BLACK
6
CONTINUOUS
10
4.8124369291338578
20
-4.4815818897637794
11
4.8139444881889766
21
-4.4682019685039371
0
LINE
8
BLACK
6
CONTINUOUS
10
4.8139444881889766
20
-4.4682019685039371
11
4.8169406299212598
21
-4.4550749606299211
0
LINE
8
BLACK
6
CONTINUOUS
10
4.8169406299212598
20
-4.4550749606299211
11
4.8213877165354333
21
-4.4423659448818897
0
LINE
8
BLACK
6
CONTINUOUS
10
4.8213877165354333
20
-4.4423659448818897
11
4.8272297637795276
21
-4.4302347637795272
0
LINE
8
BLACK
6
CONTINUOUS
10
4.8272297637795276
20
-4.4302347637795272
11
4.8343933464566931
21
-4.4188339763779529
0
LINE
8
BLACK
6
CONTINUOUS
10
4.8343933464566931
20
-4.4188339763779529
11
4.842788385826772
21
-4.4083069291338584
0
LINE
8
BLACK
6
CONTINUOUS
10
4.842788385826772
20
-4.4083069291338584
11
4.8523092913385826
21
-4.3987860236220468
0
LINE
8
BLACK
6
CONTINUOUS
10
4.8523092913385826
20
-4.3987860236220468
11
4.8628363385826772
21
-4.3903909842519688
0
LINE
8
BLACK
6
CONTINUOUS
10
4.8628363385826772
20
-4.3903909842519688
11
4.8742371259842523
21
-4.3832274015748034
0
LINE
8
BLACK
6
CONTINUOUS
10
4.8742371259842523
20
-4.3832274015748034
11
4.886368307086614
21
-4.3773853543307082
0
LINE
8
BLACK
6
CONTINUOUS
10
4.886368307086614
20
-4.3773853543307082
11
4.8990773228346454
21
-4.3729382677165356
0
LINE
8
BLACK
6
CONTINUOUS
10
4.8990773228346454
20
-4.3729382677165356
11
4.9122043307086614
21
-4.3699421259842515
0
LINE
8
BLACK
6
CONTINUOUS
10
4.9122043307086614
20
-4.3699421259842515
11
4.9255842519685036
21
-4.3684345669291336
0
LINE
8
BLACK
6
CONTINUOUS
10
4.9255842519685036
20
-4.3684345669291336
11
4.9390488188976374
21
-4.3684345669291336
0
LINE
8
BLACK
6
CONTINUOUS
10
4.9390488188976374
20
-4.3684345669291336
11
4.9524287401574805
21
-4.3699421259842515
0
LINE
8
BLACK
6
CONTINUOUS
10
4.8161850393700787
20
-4.4948359842519681
11
4.817645433070866
21
-4.5077975590551178
0
LINE
8
BLACK
6
CONTINUOUS
10
4.817645433070866
20
-4.5077975590551178
11
4.8205479133858269
21
-4.5205141732283467
0
LINE
8
BLACK
6
CONTINUOUS
10
4.8205479133858269
20
-4.5205141732283467
11
4.8248559448818895
21
-4.5328257874015749
0
LINE
8
BLACK
6
CONTINUOUS
10
4.8248559448818895
20
-4.5328257874015749
11
4.8305153543307089
21
-4.5445776771653543
0
LINE
8
BLACK
6
CONTINUOUS
10
4.8305153543307089
20
-4.5445776771653543
11
4.8374550000000003
21
-4.5556220472440945
0
LINE
8
BLACK
6
CONTINUOUS
10
4.8374550000000003
20
-4.5556220472440945
11
4.8455875590551178
21
-4.565819921259842
0
LINE
8
BLACK
6
CONTINUOUS
10
4.8455875590551178
20
-4.565819921259842
11
4.8548107874015747
21
-4.5750431496062989
0
LINE
8
BLACK
6
CONTINUOUS
10
4.8548107874015747
20
-4.5750431496062989
11
4.8650086614173231
21
-4.5831757086614173
0
LINE
8
BLACK
6
CONTINUOUS
10
4.8650086614173231
20
-4.5831757086614173
11
4.8760530314960633
21
-4.5901153543307087
0
LINE
8
BLACK
6
CONTINUOUS
10
4.8760530314960633
20
-4.5901153543307087
11
4.8878049212598427
21
-4.5957747637795272
0
LINE
8
BLACK
6
CONTINUOUS
10
4.8878049212598427
20
-4.5957747637795272
11
4.9001165354330709
21
-4.6000827952755907
0
LINE
8
BLACK
6
CONTINUOUS
10
4.9001165354330709
20
-4.6000827952755907
11
4.9128331496062989
21
-4.6029852755905507
0
LINE
8
BLACK
6
CONTINUOUS
10
4.9128331496062989
20
-4.6029852755905507
11
4.9257947244094487
21
-4.6044456692913389
0
LINE
8
BLACK
6
CONTINUOUS
10
4.9257947244094487
20
-4.6044456692913389
11
4.9388383464566932
21
-4.6044456692913389
0
LINE
8
BLACK
6
CONTINUOUS
10
4.9388383464566932
20
-4.6044456692913389
11
4.951799921259842
21
-4.6029852755905507
0
LINE
8
BLACK
6
CONTINUOUS
10
4.951799921259842
20
-4.6029852755905507
11
4.9645165354330709
21
-4.6000827952755907
0
LINE
8
BLACK
6
CONTINUOUS
10
4.9645165354330709
20
-4.6000827952755907
11
4.9768281496062992
21
-4.5957747637795272
0
LINE
8
BLACK
6
CONTINUOUS
10
4.9768281496062992
20
-4.5957747637795272
11
4.9885800393700785
21
-4.5901153543307087
0
LINE
8
BLACK
6
CONTINUOUS
10
4.9885800393700785
20
-4.5901153543307087
11
4.9996244094488187
21
-4.5831757086614173
0
LINE
8
BLACK
6
CONTINUOUS
10
4.9996244094488187
20
-4.5831757086614173
11
5.0098222834645671
21
-4.5750431496062989
0
LINE
8
BLACK
6
CONTINUOUS
10
5.0098222834645671
20
-4.5750431496062989
11
5.0190455118110231
21
-4.565819921259842
0
LINE
8
BLACK
6
CONTINUOUS
10
5.0190455118110231
20
-4.565819921259842
11
5.0271780708661415
21
-4.5556220472440945
0
LINE
8
BLACK
6
CONTINUOUS
10
5.0271780708661415
20
-4.5556220472440945
11
5.0341177165354329
21
-4.5445776771653543
0
LINE
8
BLACK
6
CONTINUOUS
10
5.0341177165354329
20
-4.5445776771653543
11
5.0397771259842514
21
-4.5328257874015749
0
LINE
8
BLACK
6
CONTINUOUS
10
5.0397771259842514
20
-4.5328257874015749
11
5.0440851574803149
21
-4.5205141732283467
0
LINE
8
BLACK
6
CONTINUOUS
10
5.0440851574803149
20
-4.5205141732283467
11
5.0469876377952758
21
-4.5077975590551178
0
LINE
8
BLACK
6
CONTINUOUS
10
5.0469876377952758
20
-4.5077975590551178
11
5.0484480314960631
21
-4.4948359842519681
0
LINE
8
BLACK
6
CONTINUOUS
10
5.0484480314960631
20
-4.4948359842519681
11
5.0484480314960631
21
-4.4817923622047244
0
LINE
8
BLACK
6
CONTINUOUS
10
5.0484480314960631
20
-4.4817923622047244
11
5.0469876377952758
21
-4.4688307874015747
0
LINE
8
BLACK
6
CONTINUOUS
10
5.0469876377952758
20
-4.4688307874015747
11
5.0440851574803149
21
-4.4561141732283467
0
LINE
8
BLACK
6
CONTINUOUS
10
5.0440851574803149
20
-4.4561141732283467
11
5.0397771259842514
21
-4.4438025590551185
0
LINE
8
BLACK
6
CONTINUOUS
10
5.0397771259842514
20
-4.4438025590551185
11
5.0341177165354329
21
-4.4320506692913382
0
LINE
8
BLACK
6
CONTINUOUS
10
5.0341177165354329
20
-4.4320506692913382
11
5.0271780708661415
21
-4.421006299212598
0
LINE
8
BLACK
6
CONTINUOUS
10
5.0271780708661415
20
-4.421006299212598
11
5.0190455118110231
21
-4.4108084251968505
0
LINE
8
BLACK
6
CONTINUOUS
10
5.0190455118110231
20
-4.4108084251968505
11
5.0098222834645671
21
-4.4015851968503936
0
LINE
8
BLACK
6
CONTINUOUS
10
5.0098222834645671
20
-4.4015851968503936
11
4.9996244094488187
21
-4.3934526377952752
0
LINE
8
BLACK
6
CONTINUOUS
10
4.9996244094488187
20
-4.3934526377952752
11
4.9885800393700785
21
-4.3865129921259838
0
LINE
8
BLACK
6
CONTINUOUS
10
4.9885800393700785
20
-4.3865129921259838
11
4.9768281496062992
21
-4.3808535826771653
0
LINE
8
BLACK
6
CONTINUOUS
10
4.9768281496062992
20
-4.3808535826771653
11
4.9645165354330709
21
-4.3765455511811027
0
LINE
8
BLACK
6
CONTINUOUS
10
4.9645165354330709
20
-4.3765455511811027
11
4.951799921259842
21
-4.3736430708661418
0
LINE
8
BLACK
6
CONTINUOUS
10
4.951799921259842
20
-4.3736430708661418
11
4.9388383464566932
21
-4.3721826771653545
0
LINE
8
BLACK
6
CONTINUOUS
10
4.9388383464566932
20
-4.3721826771653545
11
4.9257947244094487
21
-4.3721826771653545
0
LINE
8
BLACK
6
CONTINUOUS
10
4.9257947244094487
20
-4.3721826771653545
11
4.9128331496062989
21
-4.3736430708661418
0
LINE
8
BLACK
6
CONTINUOUS
10
4.9128331496062989
20
-4.3736430708661418
11
4.9001165354330709
21
-4.3765455511811027
0
LINE
8
BLACK
6
CONTINUOUS
10
4.9001165354330709
20
-4.3765455511811027
11
4.8878049212598427
21
-4.3808535826771653
0
LINE
8
BLACK
6
CONTINUOUS
10
4.8878049212598427
20
-4.3808535826771653
11
4.8760530314960633
21
-4.3865129921259838
0
LINE
8
BLACK
6
CONTINUOUS
10
4.8760530314960633
20
-4.3865129921259838
11
4.8650086614173231
21
-4.3934526377952752
0
LINE
8
BLACK
6
CONTINUOUS
10
4.8650086614173231
20
-4.3934526377952752
11
4.8548107874015747
21
-4.4015851968503936
0
LINE
8
BLACK
6
CONTINUOUS
10
4.8548107874015747
20
-4.4015851968503936
11
4.8455875590551178
21
-4.4108084251968505
0
LINE
8
BLACK
6
CONTINUOUS
10
4.8455875590551178
20
-4.4108084251968505
11
4.8374550000000003
21
-4.421006299212598
0
LINE
8
BLACK
6
CONTINUOUS
10
4.8374550000000003
20
-4.421006299212598
11
4.8305153543307089
21
-4.4320506692913382
0
LINE
8
BLACK
6
CONTINUOUS
10
4.8305153543307089
20
-4.4320506692913382
11
4.8248559448818895
21
-4.4438025590551185
0
LINE
8
BLACK
6
CONTINUOUS
10
4.8248559448818895
20
-4.4438025590551185
11
4.8205479133858269
21
-4.4561141732283467
0
LINE
8
BLACK
6
CONTINUOUS
10
4.8205479133858269
20
-4.4561141732283467
11
4.817645433070866
21
-4.4688307874015747
0
LINE
8
BLACK
6
CONTINUOUS
10
4.817645433070866
20
-4.4688307874015747
11
4.8161850393700787
21
-4.4817923622047244
0
LINE
8
BLACK
6
CONTINUOUS
10
4.8161850393700787
20
-4.4817923622047244
11
4.8161850393700787
21
-4.4948359842519681
0
LINE
8
BLACK
6
CONTINUOUS
10
5.3692690944881889
20
-4.2110144094488184
11
5.3700837401574804
21
-4.2118290551181099
0
LINE
8
BLACK
6
CONTINUOUS
10
5.3700837401574804
20
-4.2118290551181099
11
5.370524645669291
21
-4.2128934645669291
0
LINE
8
BLACK
6
CONTINUOUS
10
5.370524645669291
20
-4.2128934645669291
11
5.3705813779527558
21
-4.213469527559055
0
LINE
8
BLACK
6
CONTINUOUS
10
5.3705813779527558
20
-4.213469527559055
11
5.3705813779527558
21
-4.2491838188976381
0
LINE
8
BLACK
6
CONTINUOUS
10
5.3705813779527558
20
-4.2491838188976381
11
5.3705526377952753
21
-4.249475393700787
0
LINE
8
BLACK
6
CONTINUOUS
10
5.3705526377952753
20
-4.249475393700787
11
5.3705581889763776
21
-4.2495531496062995
0
LINE
8
BLACK
6
CONTINUOUS
10
5.3705581889763776
20
-4.2495531496062995
11
5.3705349212598428
21
-4.2496553937007873
0
LINE
8
BLACK
6
CONTINUOUS
10
5.3705349212598428
20
-4.2496553937007873
11
5.370524645669291
21
-4.2497598818897639
0
LINE
8
BLACK
6
CONTINUOUS
10
5.370524645669291
20
-4.2497598818897639
11
5.3704947637795275
21
-4.2498319291338582
0
LINE
8
BLACK
6
CONTINUOUS
10
5.3704947637795275
20
-4.2498319291338582
11
5.3704298425196848
21
-4.2501175984251969
0
LINE
8
BLACK
6
CONTINUOUS
10
5.3704298425196848
20
-4.2501175984251969
11
5.3680488582677164
21
-4.2572603937007871
0
LINE
8
BLACK
6
CONTINUOUS
10
5.3680488582677164
20
-4.2572603937007871
11
5.3678128740157476
21
-4.2577889763779524
0
LINE
8
BLACK
6
CONTINUOUS
10
5.3678128740157476
20
-4.2577889763779524
11
5.3677433464566926
21
-4.2578690944881892
0
LINE
8
BLACK
6
CONTINUOUS
10
5.3677433464566926
20
-4.2578690944881892
11
5.3677027952755907
21
-4.2579670866141734
0
LINE
8
BLACK
6
CONTINUOUS
10
5.3677027952755907
20
-4.2579670866141734
11
5.3673355511811023
21
-4.258414566929134
0
LINE
8
BLACK
6
CONTINUOUS
10
5.3673355511811023
20
-4.258414566929134
11
5.3625736614173229
21
-4.2631764960629921
0
LINE
8
BLACK
6
CONTINUOUS
10
5.3625736614173229
20
-4.2631764960629921
11
5.3621262204724411
21
-4.2635437007874017
0
LINE
8
BLACK
6
CONTINUOUS
10
5.3621262204724411
20
-4.2635437007874017
11
5.3620282283464569
21
-4.2635842519685037
0
LINE
8
BLACK
6
CONTINUOUS
10
5.3620282283464569
20
-4.2635842519685037
11
5.3619480708661413
21
-4.2636538188976374
0
LINE
8
BLACK
6
CONTINUOUS
10
5.3619480708661413
20
-4.2636538188976374
11
5.3614194881889761
21
-4.2638898031496062
0
LINE
8
BLACK
6
CONTINUOUS
10
5.3614194881889761
20
-4.2638898031496062
11
5.3542766141732283
21
-4.2662707480314959
0
LINE
8
BLACK
6
CONTINUOUS
10
5.3542766141732283
20
-4.2662707480314959
11
5.3539910236220472
21
-4.2663356692913386
0
LINE
8
BLACK
6
CONTINUOUS
10
5.3539910236220472
20
-4.2663356692913386
11
5.3539189370078741
21
-4.2663655511811021
0
LINE
8
BLACK
6
CONTINUOUS
10
5.3539189370078741
20
-4.2663655511811021
11
5.3538144094488187
21
-4.2663758267716538
0
LINE
8
BLACK
6
CONTINUOUS
10
5.3538144094488187
20
-4.2663758267716538
11
5.3537121653543309
21
-4.2663990944881887
0
LINE
8
BLACK
6
CONTINUOUS
10
5.3537121653543309
20
-4.2663990944881887
11
5.3536344094488184
21
-4.2663935433070863
0
LINE
8
BLACK
6
CONTINUOUS
10
5.3536344094488184
20
-4.2663935433070863
11
5.3533428740157483
21
-4.2664222834645669
0
LINE
8
BLACK
6
CONTINUOUS
10
5.3533428740157483
20
-4.2664222834645669
11
5.348580984251968
21
-4.2664222834645669
0
LINE
8
BLACK
6
CONTINUOUS
10
5.348580984251968
20
-4.2664222834645669
11
5.3480049212598422
21
-4.2663655511811021
0
LINE
8
BLACK
6
CONTINUOUS
10
5.3480049212598422
20
-4.2663655511811021
11
5.3469405118110238
21
-4.2659246456692914
0
LINE
8
BLACK
6
CONTINUOUS
10
5.3469405118110238
20
-4.2659246456692914
11
5.3461258661417324
21
-4.26511
0
LINE
8
BLACK
6
CONTINUOUS
10
5.3461258661417324
20
-4.26511
11
5.3456849606299208
21
-4.2640455905511807
0
LINE
8
BLACK
6
CONTINUOUS
10
5.3456849606299208
20
-4.2640455905511807
11
5.3456849606299208
21
-4.262893464566929
0
LINE
8
BLACK
6
CONTINUOUS
10
5.3456849606299208
20
-4.262893464566929
11
5.3461258661417324
21
-4.2618290551181097
0
LINE
8
BLACK
6
CONTINUOUS
10
5.3461258661417324
20
-4.2618290551181097
11
5.3469405118110238
21
-4.2610144094488192
0
LINE
8
BLACK
6
CONTINUOUS
10
5.3469405118110238
20
-4.2610144094488192
11
5.3480049212598422
21
-4.2605735039370076
0
LINE
8
BLACK
6
CONTINUOUS
10
5.3480049212598422
20
-4.2605735039370076
11
5.348580984251968
21
-4.2605167716535428
0
LINE
8
BLACK
6
CONTINUOUS
10
5.348580984251968
20
-4.2605167716535428
11
5.3528637401574803
21
-4.2605167716535428
0
LINE
8
BLACK
6
CONTINUOUS
10
5.3528637401574803
20
-4.2605167716535428
11
5.3588906692913385
21
-4.2585077952755901
0
LINE
8
BLACK
6
CONTINUOUS
10
5.3588906692913385
20
-4.2585077952755901
11
5.3626668503937003
21
-4.2547316141732283
0
LINE
8
BLACK
6
CONTINUOUS
10
5.3626668503937003
20
-4.2547316141732283
11
5.3646758661417318
21
-4.2487046456692914
0
LINE
8
BLACK
6
CONTINUOUS
10
5.3646758661417318
20
-4.2487046456692914
11
5.3646758661417318
21
-4.213469527559055
0
LINE
8
BLACK
6
CONTINUOUS
10
5.3646758661417318
20
-4.213469527559055
11
5.3647325984251966
21
-4.2128934645669291
0
LINE
8
BLACK
6
CONTINUOUS
10
5.3647325984251966
20
-4.2128934645669291
11
5.3651735039370081
21
-4.2118290551181099
0
LINE
8
BLACK
6
CONTINUOUS
10
5.3651735039370081
20
-4.2118290551181099
11
5.3659881496062987
21
-4.2110144094488184
0
LINE
8
BLACK
6
CONTINUOUS
10
5.3659881496062987
20
-4.2110144094488184
11
5.3670525590551179
21
-4.2105735039370078
0
LINE
8
BLACK
6
CONTINUOUS
10
5.3670525590551179
20
-4.2105735039370078
11
5.3682046850393697
21
-4.2105735039370078
0
LINE
8
BLACK
6
CONTINUOUS
10
5.3682046850393697
20
-4.2105735039370078
11
5.3692690944881889
21
-4.2110144094488184
0
LINE
8
BLACK
6
CONTINUOUS
10
5.4024242519685037
20
-4.2085233464566931
11
5.4032946062992124
21
-4.209278188976378
0
LINE
8
BLACK
6
CONTINUOUS
10
5.4032946062992124
20
-4.209278188976378
11
5.403809842519685
21
-4.2103086614173231
0
LINE
8
BLACK
6
CONTINUOUS
10
5.403809842519685
20
-4.2103086614173231
11
5.4038914960629922
21
-4.211457874015748
0
LINE
8
BLACK
6
CONTINUOUS
10
5.4038914960629922
20
-4.211457874015748
11
5.4037631496062994
21
-4.2120223228346454
0
LINE
8
BLACK
6
CONTINUOUS
10
5.4037631496062994
20
-4.2120223228346454
11
5.3931538976377951
21
-4.2438500787401576
0
LINE
8
BLACK
6
CONTINUOUS
10
5.3931538976377951
20
-4.2438500787401576
11
5.4099139370078735
21
-4.2438500787401576
0
LINE
8
BLACK
6
CONTINUOUS
10
5.4099139370078735
20
-4.2438500787401576
11
5.4099139370078735
21
-4.2301361811023623
0
LINE
8
BLACK
6
CONTINUOUS
10
5.4099139370078735
20
-4.2301361811023623
11
5.4099706692913383
21
-4.2295601181102365
0
LINE
8
BLACK
6
CONTINUOUS
10
5.4099706692913383
20
-4.2295601181102365
11
5.4104115748031498
21
-4.2284957086614172
0
LINE
8
BLACK
6
CONTINUOUS
10
5.4104115748031498
20
-4.2284957086614172
11
5.4112262204724404
21
-4.2276810629921258
0
LINE
8
BLACK
6
CONTINUOUS
10
5.4112262204724404
20
-4.2276810629921258
11
5.4122906299212596
21
-4.2272401574803151
0
LINE
8
BLACK
6
CONTINUOUS
10
5.4122906299212596
20
-4.2272401574803151
11
5.4134427559055114
21
-4.2272401574803151
0
LINE
8
BLACK
6
CONTINUOUS
10
5.4134427559055114
20
-4.2272401574803151
11
5.4145071653543306
21
-4.2276810629921258
0
LINE
8
BLACK
6
CONTINUOUS
10
5.4145071653543306
20
-4.2276810629921258
11
5.4153218110236221
21
-4.2284957086614172
0
LINE
8
BLACK
6
CONTINUOUS
10
5.4153218110236221
20
-4.2284957086614172
11
5.4157627165354327
21
-4.2295601181102365
0
LINE
8
BLACK
6
CONTINUOUS
10
5.4157627165354327
20
-4.2295601181102365
11
5.4158194488188975
21
-4.2301361811023623
0
LINE
8
BLACK
6
CONTINUOUS
10
5.4158194488188975
20
-4.2301361811023623
11
5.4158194488188975
21
-4.2438500787401576
0
LINE
8
BLACK
6
CONTINUOUS
10
5.4158194488188975
20
-4.2438500787401576
11
5.4200095669291342
21
-4.2438500787401576
0
LINE
8
BLACK
6
CONTINUOUS
10
5.4200095669291342
20
-4.2438500787401576
11
5.42058562992126
21
-4.2439068110236216
0
LINE
8
BLACK
6
CONTINUOUS
10
5.42058562992126
20
-4.2439068110236216
11
5.4216500393700784
21
-4.2443477165354331
0
LINE
8
BLACK
6
CONTINUOUS
10
5.4216500393700784
20
-4.2443477165354331
11
5.4224646850393698
21
-4.2451623622047245
0
LINE
8
BLACK
6
CONTINUOUS
10
5.4224646850393698
20
-4.2451623622047245
11
5.4229055905511814
21
-4.2462267716535429
0
LINE
8
BLACK
6
CONTINUOUS
10
5.4229055905511814
20
-4.2462267716535429
11
5.4229055905511814
21
-4.2473788976377955
0
LINE
8
BLACK
6
CONTINUOUS
10
5.4229055905511814
20
-4.2473788976377955
11
5.4224646850393698
21
-4.2484433070866139
0
LINE
8
BLACK
6
CONTINUOUS
10
5.4224646850393698
20
-4.2484433070866139
11
5.4216500393700784
21
-4.2492579527559053
0
LINE
8
BLACK
6
CONTINUOUS
10
5.4216500393700784
20
-4.2492579527559053
11
5.42058562992126
21
-4.2496988582677169
0
LINE
8
BLACK
6
CONTINUOUS
10
5.42058562992126
20
-4.2496988582677169
11
5.4200095669291342
21
-4.2497555905511808
0
LINE
8
BLACK
6
CONTINUOUS
10
5.4200095669291342
20
-4.2497555905511808
11
5.4158194488188975
21
-4.2497555905511808
0
LINE
8
BLACK
6
CONTINUOUS
10
5.4158194488188975
20
-4.2497555905511808
11
5.4158194488188975
21
-4.2634695275590548
0
LINE
8
BLACK
6
CONTINUOUS
10
5.4158194488188975
20
-4.2634695275590548
11
5.4157627165354327
21
-4.2640455905511807
0
LINE
8
BLACK
6
CONTINUOUS
10
5.4157627165354327
20
-4.2640455905511807
11
5.4153218110236221
21
-4.26511
0
LINE
8
BLACK
6
CONTINUOUS
10
5.4153218110236221
20
-4.26511
11
5.4145071653543306
21
-4.2659246456692914
0
LINE
8
BLACK
6
CONTINUOUS
10
5.4145071653543306
20
-4.2659246456692914
11
5.4134427559055114
21
-4.2663655511811021
0
LINE
8
BLACK
6
CONTINUOUS
10
5.4134427559055114
20
-4.2663655511811021
11
5.4122906299212596
21
-4.2663655511811021
0
LINE
8
BLACK
6
CONTINUOUS
10
5.4122906299212596
20
-4.2663655511811021
11
5.4112262204724404
21
-4.2659246456692914
0
LINE
8
BLACK
6
CONTINUOUS
10
5.4112262204724404
20
-4.2659246456692914
11
5.4104115748031498
21
-4.26511
0
LINE
8
BLACK
6
CONTINUOUS
10
5.4104115748031498
20
-4.26511
11
5.4099706692913383
21
-4.2640455905511807
0
LINE
8
BLACK
6
CONTINUOUS
10
5.4099706692913383
20
-4.2640455905511807
11
5.4099139370078735
21
-4.2634695275590548
0
LINE
8
BLACK
6
CONTINUOUS
10
5.4099139370078735
20
-4.2634695275590548
11
5.4099139370078735
21
-4.2497555905511808
0
LINE
8
BLACK
6
CONTINUOUS
10
5.4099139370078735
20
-4.2497555905511808
11
5.3890571653543304
21
-4.2497555905511808
0
LINE
8
BLACK
6
CONTINUOUS
10
5.3890571653543304
20
-4.2497555905511808
11
5.3887655905511807
21
-4.2497268503937011
0
LINE
8
BLACK
6
CONTINUOUS
10
5.3887655905511807
20
-4.2497268503937011
11
5.3886878740157478
21
-4.2497324015748035
0
LINE
8
BLACK
6
CONTINUOUS
10
5.3886878740157478
20
-4.2497324015748035
11
5.3886317322834643
21
-4.2497136614173225
0
LINE
8
BLACK
6
CONTINUOUS
10
5.3886317322834643
20
-4.2497136614173225
11
5.3884811023622046
21
-4.2496988582677169
0
LINE
8
BLACK
6
CONTINUOUS
10
5.3884811023622046
20
-4.2496988582677169
11
5.3880437795275586
21
-4.2495177165354328
0
LINE
8
BLACK
6
CONTINUOUS
10
5.3880437795275586
20
-4.2495177165354328
11
5.3875948425196851
21
-4.2493680708661419
0
LINE
8
BLACK
6
CONTINUOUS
10
5.3875948425196851
20
-4.2493680708661419
11
5.3875146456692908
21
-4.2492985039370081
0
LINE
8
BLACK
6
CONTINUOUS
10
5.3875146456692908
20
-4.2492985039370081
11
5.3874166929133853
21
-4.2492579527559053
0
LINE
8
BLACK
6
CONTINUOUS
10
5.3874166929133853
20
-4.2492579527559053
11
5.3870820472440943
21
-4.2489233070866144
0
LINE
8
BLACK
6
CONTINUOUS
10
5.3870820472440943
20
-4.2489233070866144
11
5.3867244881889764
21
-4.2486131889763783
0
LINE
8
BLACK
6
CONTINUOUS
10
5.3867244881889764
20
-4.2486131889763783
11
5.3866770472440946
21
-4.2485183070866137
0
LINE
8
BLACK
6
CONTINUOUS
10
5.3866770472440946
20
-4.2485183070866137
11
5.3866020472440947
21
-4.2484433070866139
0
LINE
8
BLACK
6
CONTINUOUS
10
5.3866020472440947
20
-4.2484433070866139
11
5.3864208661417319
21
-4.2480059448818901
0
LINE
8
BLACK
6
CONTINUOUS
10
5.3864208661417319
20
-4.2480059448818901
11
5.3862092913385826
21
-4.2475827559055119
0
LINE
8
BLACK
6
CONTINUOUS
10
5.3862092913385826
20
-4.2475827559055119
11
5.3862017716535435
21
-4.2474769685039373
0
LINE
8
BLACK
6
CONTINUOUS
10
5.3862017716535435
20
-4.2474769685039373
11
5.3861611417322832
21
-4.2473788976377955
0
LINE
8
BLACK
6
CONTINUOUS
10
5.3861611417322832
20
-4.2473788976377955
11
5.3861611417322832
21
-4.2469053937007875
0
LINE
8
BLACK
6
CONTINUOUS
10
5.3861611417322832
20
-4.2469053937007875
11
5.3861275984251966
21
-4.2464335433070861
0
LINE
8
BLACK
6
CONTINUOUS
10
5.3861275984251966
20
-4.2464335433070861
11
5.3861611417322832
21
-4.246286023622047
0
LINE
8
BLACK
6
CONTINUOUS
10
5.3861611417322832
20
-4.246286023622047
11
5.3861611417322832
21
-4.2462267716535429
0
LINE
8
BLACK
6
CONTINUOUS
10
5.3861611417322832
20
-4.2462267716535429
11
5.386190984251968
21
-4.2461546456692911
0
LINE
8
BLACK
6
CONTINUOUS
10
5.386190984251968
20
-4.2461546456692911
11
5.3862559448818894
21
-4.2458690944881887
0
LINE
8
BLACK
6
CONTINUOUS
10
5.3862559448818894
20
-4.2458690944881887
11
5.3981607086614174
21
-4.2101548425196853
0
LINE
8
BLACK
6
CONTINUOUS
10
5.3981607086614174
20
-4.2101548425196853
11
5.3983966929133853
21
-4.2096262598425191
0
LINE
8
BLACK
6
CONTINUOUS
10
5.3983966929133853
20
-4.2096262598425191
11
5.3991515748031498
21
-4.2087559055118113
0
LINE
8
BLACK
6
CONTINUOUS
10
5.3991515748031498
20
-4.2087559055118113
11
5.4001820078740153
21
-4.2082406692913388
0
LINE
8
BLACK
6
CONTINUOUS
10
5.4001820078740153
20
-4.2082406692913388
11
5.4013312204724411
21
-4.2081590157480315
0
LINE
8
BLACK
6
CONTINUOUS
10
5.4013312204724411
20
-4.2081590157480315
11
5.4024242519685037
21
-4.2085233464566931
0
LINE
8
BLACK
6
CONTINUOUS
10
5.4014831889763775
20
-4.1542362204724412
11
5.4126148425196847
21
-4.1572189370078743
0
LINE
8
BLACK
6
CONTINUOUS
10
5.4126148425196847
20
-4.1572189370078743
11
5.423261929133858
21
-4.1616290944881893
0
LINE
8
BLACK
6
CONTINUOUS
10
5.423261929133858
20
-4.1616290944881893
11
5.4332423228346451
21
-4.1673912598425193
0
LINE
8
BLACK
6
CONTINUOUS
10
5.4332423228346451
20
-4.1673912598425193
11
5.4423851574803148
21
-4.1744068503937006
0
LINE
8
BLACK
6
CONTINUOUS
10
5.4423851574803148
20
-4.1744068503937006
11
5.450534094488189
21
-4.1825557874015749
0
LINE
8
BLACK
6
CONTINUOUS
10
5.450534094488189
20
-4.1825557874015749
11
5.4575496850393703
21
-4.1916986220472436
0
LINE
8
BLACK
6
CONTINUOUS
10
5.4575496850393703
20
-4.1916986220472436
11
5.4633118503937004
21
-4.2016790157480317
0
LINE
8
BLACK
6
CONTINUOUS
10
5.4633118503937004
20
-4.2016790157480317
11
5.4677220078740154
21
-4.2123261023622049
0
LINE
8
BLACK
6
CONTINUOUS
10
5.4677220078740154
20
-4.2123261023622049
11
5.4707047244094484
21
-4.2234577559055113
0
LINE
8
BLACK
6
CONTINUOUS
10
5.4707047244094484
20
-4.2234577559055113
11
5.4722089763779529
21
-4.2348835039370076
0
LINE
8
BLACK
6
CONTINUOUS
10
5.4722089763779529
20
-4.2348835039370076
11
5.4722089763779529
21
-4.2464078346456695
0
LINE
8
BLACK
6
CONTINUOUS
10
5.4722089763779529
20
-4.2464078346456695
11
5.4707047244094484
21
-4.2578335826771649
0
LINE
8
BLACK
6
CONTINUOUS
10
5.4707047244094484
20
-4.2578335826771649
11
5.4677220078740154
21
-4.2689652362204722
0
LINE
8
BLACK
6
CONTINUOUS
10
5.4677220078740154
20
-4.2689652362204722
11
5.4633118503937004
21
-4.2796123228346454
0
LINE
8
BLACK
6
CONTINUOUS
10
5.4633118503937004
20
-4.2796123228346454
11
5.4575496850393703
21
-4.2895927165354326
0
LINE
8
BLACK
6
CONTINUOUS
10
5.4575496850393703
20
-4.2895927165354326
11
5.450534094488189
21
-4.2987355511811023
0
LINE
8
BLACK
6
CONTINUOUS
10
5.450534094488189
20
-4.2987355511811023
11
5.4423851574803148
21
-4.3068844881889765
0
LINE
8
BLACK
6
CONTINUOUS
10
5.4423851574803148
20
-4.3068844881889765
11
5.4332423228346451
21
-4.3139000787401578
0
LINE
8
BLACK
6
CONTINUOUS
10
5.4332423228346451
20
-4.3139000787401578
11
5.423261929133858
21
-4.3196622440944878
0
LINE
8
BLACK
6
CONTINUOUS
10
5.423261929133858
20
-4.3196622440944878
11
5.4126148425196847
21
-4.3240724015748029
0
LINE
8
BLACK
6
CONTINUOUS
10
5.4126148425196847
20
-4.3240724015748029
11
5.4014831889763775
21
-4.3270551181102359
0
LINE
8
BLACK
6
CONTINUOUS
10
5.4014831889763775
20
-4.3270551181102359
11
5.390057440944882
21
-4.3285593700787404
0
LINE
8
BLACK
6
CONTINUOUS
10
5.390057440944882
20
-4.3285593700787404
11
5.3785331102362202
21
-4.3285593700787404
0
LINE
8
BLACK
6
CONTINUOUS
10
5.3785331102362202
20
-4.3285593700787404
11
5.3671073622047247
21
-4.3270551181102359
0
LINE
8
BLACK
6
CONTINUOUS
10
5.3671073622047247
20
-4.3270551181102359
11
5.3559757086614175
21
-4.3240724015748029
0
LINE
8
BLACK
6
CONTINUOUS
10
5.3559757086614175
20
-4.3240724015748029
11
5.3453286220472442
21
-4.3196622440944878
0
LINE
8
BLACK
6
CONTINUOUS
10
5.3453286220472442
20
-4.3196622440944878
11
5.3353482283464562
21
-4.3139000787401578
0
LINE
8
BLACK
6
CONTINUOUS
10
5.3353482283464562
20
-4.3139000787401578
11
5.3262053937007874
21
-4.3068844881889765
0
LINE
8
BLACK
6
CONTINUOUS
10
5.3262053937007874
20
-4.3068844881889765
11
5.3180564566929132
21
-4.2987355511811023
0
LINE
8
BLACK
6
CONTINUOUS
10
5.3180564566929132
20
-4.2987355511811023
11
5.3110408661417319
21
-4.2895927165354326
0
LINE
8
BLACK
6
CONTINUOUS
10
5.3110408661417319
20
-4.2895927165354326
11
5.3052787007874018
21
-4.2796123228346454
0
LINE
8
BLACK
6
CONTINUOUS
10
5.3052787007874018
20
-4.2796123228346454
11
5.3008685433070868
21
-4.2689652362204722
0
LINE
8
BLACK
6
CONTINUOUS
10
5.3008685433070868
20
-4.2689652362204722
11
5.2978858267716538
21
-4.2578335826771649
0
LINE
8
BLACK
6
CONTINUOUS
10
5.2978858267716538
20
-4.2578335826771649
11
5.2963815748031493
21
-4.2464078346456695
0
LINE
8
BLACK
6
CONTINUOUS
10
5.2963815748031493
20
-4.2464078346456695
11
5.2963815748031493
21
-4.2352581889763776
0
LINE
8
BLACK
6
CONTINUOUS
10
5.2963815748031493
20
-4.2352581889763776
11
5.2963815748031493
21
-4.2348835039370076
0
LINE
8
BLACK
6
CONTINUOUS
10
5.2963815748031493
20
-4.2348835039370076
11
5.2978858267716538
21
-4.2234577559055113
0
LINE
8
BLACK
6
CONTINUOUS
10
5.2978858267716538
20
-4.2234577559055113
11
5.3008685433070868
21
-4.2123261023622049
0
LINE
8
BLACK
6
CONTINUOUS
10
5.3008685433070868
20
-4.2123261023622049
11
5.3052787007874018
21
-4.2016790157480317
0
LINE
8
BLACK
6
CONTINUOUS
10
5.3052787007874018
20
-4.2016790157480317
11
5.3110408661417319
21
-4.1916986220472436
0
LINE
8
BLACK
6
CONTINUOUS
10
5.3110408661417319
20
-4.1916986220472436
11
5.3180564566929132
21
-4.1825557874015749
0
LINE
8
BLACK
6
CONTINUOUS
10
5.3180564566929132
20
-4.1825557874015749
11
5.3262053937007874
21
-4.1744068503937006
0
LINE
8
BLACK
6
CONTINUOUS
10
5.3262053937007874
20
-4.1744068503937006
11
5.3353482283464562
21
-4.1673912598425193
0
LINE
8
BLACK
6
CONTINUOUS
10
5.3353482283464562
20
-4.1673912598425193
11
5.3453286220472442
21
-4.1616290944881893
0
LINE
8
BLACK
6
CONTINUOUS
10
5.3453286220472442
20
-4.1616290944881893
11
5.3559757086614175
21
-4.1572189370078743
0
LINE
8
BLACK
6
CONTINUOUS
10
5.3559757086614175
20
-4.1572189370078743
11
5.3671073622047247
21
-4.1542362204724412
0
LINE
8
BLACK
6
CONTINUOUS
10
5.3671073622047247
20
-4.1542362204724412
11
5.3785331102362202
21
-4.1527319685039368
0
LINE
8
BLACK
6
CONTINUOUS
10
5.3785331102362202
20
-4.1527319685039368
11
5.390057440944882
21
-4.1527319685039368
0
LINE
8
BLACK
6
CONTINUOUS
10
5.390057440944882
20
-4.1527319685039368
11
5.4014831889763775
21
-4.1542362204724412
0
LINE
8
BLACK
6
CONTINUOUS
10
5.3020984645669289
20
-4.2460331496062995
11
5.3035048818897641
21
-4.2567158661417324
0
LINE
8
BLACK
6
CONTINUOUS
10
5.3035048818897641
20
-4.2567158661417324
11
5.3062936220472441
21
-4.2671236614173225
0
LINE
8
BLACK
6
CONTINUOUS
10
5.3062936220472441
20
-4.2671236614173225
11
5.3104170078740154
21
-4.2770783858267718
0
LINE
8
BLACK
6
CONTINUOUS
10
5.3104170078740154
20
-4.2770783858267718
11
5.3158044881889763
21
-4.2864097637795275
0
LINE
8
BLACK
6
CONTINUOUS
10
5.3158044881889763
20
-4.2864097637795275
11
5.3223638188976379
21
-4.2949580708661417
0
LINE
8
BLACK
6
CONTINUOUS
10
5.3223638188976379
20
-4.2949580708661417
11
5.329982874015748
21
-4.3025771259842518
0
LINE
8
BLACK
6
CONTINUOUS
10
5.329982874015748
20
-4.3025771259842518
11
5.3385311811023621
21
-4.3091364566929133
0
LINE
8
BLACK
6
CONTINUOUS
10
5.3385311811023621
20
-4.3091364566929133
11
5.3478625590551179
21
-4.3145239370078743
0
LINE
8
BLACK
6
CONTINUOUS
10
5.3478625590551179
20
-4.3145239370078743
11
5.3578172834645672
21
-4.3186473228346456
0
LINE
8
BLACK
6
CONTINUOUS
10
5.3578172834645672
20
-4.3186473228346456
11
5.3682250787401573
21
-4.3214360629921256
0
LINE
8
BLACK
6
CONTINUOUS
10
5.3682250787401573
20
-4.3214360629921256
11
5.3789077952755902
21
-4.3228424803149608
0
LINE
8
BLACK
6
CONTINUOUS
10
5.3789077952755902
20
-4.3228424803149608
11
5.389682755905512
21
-4.3228424803149608
0
LINE
8
BLACK
6
CONTINUOUS
10
5.389682755905512
20
-4.3228424803149608
11
5.4003654724409449
21
-4.3214360629921256
0
LINE
8
BLACK
6
CONTINUOUS
10
5.4003654724409449
20
-4.3214360629921256
11
5.410773267716535
21
-4.3186473228346456
0
LINE
8
BLACK
6
CONTINUOUS
10
5.410773267716535
20
-4.3186473228346456
11
5.4207279921259843
21
-4.3145239370078743
0
LINE
8
BLACK
6
CONTINUOUS
10
5.4207279921259843
20
-4.3145239370078743
11
5.4300593700787401
21
-4.3091364566929133
0
LINE
8
BLACK
6
CONTINUOUS
10
5.4300593700787401
20
-4.3091364566929133
11
5.4386076771653542
21
-4.3025771259842518
0
LINE
8
BLACK
6
CONTINUOUS
10
5.4386076771653542
20
-4.3025771259842518
11
5.4462267322834643
21
-4.2949580708661417
0
LINE
8
BLACK
6
CONTINUOUS
10
5.4462267322834643
20
-4.2949580708661417
11
5.4527860629921259
21
-4.2864097637795275
0
LINE
8
BLACK
6
CONTINUOUS
10
5.4527860629921259
20
-4.2864097637795275
11
5.4581735433070868
21
-4.2770783858267718
0
LINE
8
BLACK
6
CONTINUOUS
10
5.4581735433070868
20
-4.2770783858267718
11
5.4622969291338581
21
-4.2671236614173225
0
LINE
8
BLACK
6
CONTINUOUS
10
5.4622969291338581
20
-4.2671236614173225
11
5.4650856692913381
21
-4.2567158661417324
0
LINE
8
BLACK
6
CONTINUOUS
10
5.4650856692913381
20
-4.2567158661417324
11
5.4664920866141733
21
-4.2460331496062995
0
LINE
8
BLACK
6
CONTINUOUS
10
5.4664920866141733
20
-4.2460331496062995
11
5.4664920866141733
21
-4.2352581889763776
0
LINE
8
BLACK
6
CONTINUOUS
10
5.4664920866141733
20
-4.2352581889763776
11
5.4650856692913381
21
-4.2245754724409448
0
LINE
8
BLACK
6
CONTINUOUS
10
5.4650856692913381
20
-4.2245754724409448
11
5.4622969291338581
21
-4.2141676771653547
0
LINE
8
BLACK
6
CONTINUOUS
10
5.4622969291338581
20
-4.2141676771653547
11
5.4581735433070868
21
-4.2042129527559053
0
LINE
8
BLACK
6
CONTINUOUS
10
5.4581735433070868
20
-4.2042129527559053
11
5.4527860629921259
21
-4.1948815748031496
0
LINE
8
BLACK
6
CONTINUOUS
10
5.4527860629921259
20
-4.1948815748031496
11
5.4462267322834643
21
-4.1863332677165355
0
LINE
8
BLACK
6
CONTINUOUS
10
5.4462267322834643
20
-4.1863332677165355
11
5.4386076771653542
21
-4.1787142125984253
0
LINE
8
BLACK
6
CONTINUOUS
10
5.4386076771653542
20
-4.1787142125984253
11
5.4300593700787401
21
-4.1721548818897638
0
LINE
8
BLACK
6
CONTINUOUS
10
5.4300593700787401
20
-4.1721548818897638
11
5.4207279921259843
21
-4.1667674015748029
0
LINE
8
BLACK
6
CONTINUOUS
10
5.4207279921259843
20
-4.1667674015748029
11
5.410773267716535
21
-4.1626440157480316
0
LINE
8
BLACK
6
CONTINUOUS
10
5.410773267716535
20
-4.1626440157480316
11
5.4003654724409449
21
-4.1598552755905507
0
LINE
8
BLACK
6
CONTINUOUS
10
5.4003654724409449
20
-4.1598552755905507
11
5.389682755905512
21
-4.1584488582677164
0
LINE
8
BLACK
6
CONTINUOUS
10
5.389682755905512
20
-4.1584488582677164
11
5.3789077952755902
21
-4.1584488582677164
0
LINE
8
BLACK
6
CONTINUOUS
10
5.3789077952755902
20
-4.1584488582677164
11
5.3682250787401573
21
-4.1598552755905507
0
LINE
8
BLACK
6
CONTINUOUS
10
5.3682250787401573
20
-4.1598552755905507
11
5.3578172834645672
21
-4.1626440157480316
0
LINE
8
BLACK
6
CONTINUOUS
10
5.3578172834645672
20
-4.1626440157480316
11
5.3478625590551179
21
-4.1667674015748029
0
LINE
8
BLACK
6
CONTINUOUS
10
5.3478625590551179
20
-4.1667674015748029
11
5.3385311811023621
21
-4.1721548818897638
0
LINE
8
BLACK
6
CONTINUOUS
10
5.3385311811023621
20
-4.1721548818897638
11
5.329982874015748
21
-4.1787142125984253
0
LINE
8
BLACK
6
CONTINUOUS
10
5.329982874015748
20
-4.1787142125984253
11
5.3223638188976379
21
-4.1863332677165355
0
LINE
8
BLACK
6
CONTINUOUS
10
5.3223638188976379
20
-4.1863332677165355
11
5.3158044881889763
21
-4.1948815748031496
0
LINE
8
BLACK
6
CONTINUOUS
10
5.3158044881889763
20
-4.1948815748031496
11
5.3104170078740154
21
-4.2042129527559053
0
LINE
8
BLACK
6
CONTINUOUS
10
5.3104170078740154
20
-4.2042129527559053
11
5.3062936220472441
21
-4.2141676771653547
0
LINE
8
BLACK
6
CONTINUOUS
10
5.3062936220472441
20
-4.2141676771653547
11
5.3035048818897641
21
-4.2245754724409448
0
LINE
8
BLACK
6
CONTINUOUS
10
5.3035048818897641
20
-4.2245754724409448
11
5.3020984645669289
21
-4.2352581889763776
0
LINE
8
BLACK
6
CONTINUOUS
10
5.3020984645669289
20
-4.2352581889763776
11
5.3020984645669289
21
-4.2460331496062995
0
LINE
8
BLACK
6
CONTINUOUS
10
5.5226666141732279
20
-4.0999543700787404
11
5.5237310236220472
21
-4.1003952755905511
0
LINE
8
BLACK
6
CONTINUOUS
10
5.5237310236220472
20
-4.1003952755905511
11
5.5245456692913386
21
-4.1012099212598425
0
LINE
8
BLACK
6
CONTINUOUS
10
5.5245456692913386
20
-4.1012099212598425
11
5.5249865748031493
21
-4.1022743307086618
0
LINE
8
BLACK
6
CONTINUOUS
10
5.5249865748031493
20
-4.1022743307086618
11
5.5250433070866141
21
-4.1028503937007876
0
LINE
8
BLACK
6
CONTINUOUS
10
5.5250433070866141
20
-4.1028503937007876
11
5.5250433070866141
21
-4.3784409448818895
0
LINE
8
BLACK
6
CONTINUOUS
10
5.5250433070866141
20
-4.3784409448818895
11
5.5249865748031493
21
-4.3790170078740154
0
LINE
8
BLACK
6
CONTINUOUS
10
5.5249865748031493
20
-4.3790170078740154
11
5.5245456692913386
21
-4.3800814173228346
0
LINE
8
BLACK
6
CONTINUOUS
10
5.5245456692913386
20
-4.3800814173228346
11
5.5237310236220472
21
-4.3808960629921261
0
LINE
8
BLACK
6
CONTINUOUS
10
5.5237310236220472
20
-4.3808960629921261
11
5.5226666141732279
21
-4.3813369685039367
0
LINE
8
BLACK
6
CONTINUOUS
10
5.5226666141732279
20
-4.3813369685039367
11
5.522090551181102
21
-4.3813937007874015
0
LINE
8
BLACK
6
CONTINUOUS
10
5.522090551181102
20
-4.3813937007874015
11
5.2465000000000002
21
-4.3813937007874015
0
LINE
8
BLACK
6
CONTINUOUS
10
5.2465000000000002
20
-4.3813937007874015
11
5.2459239370078743
21
-4.3813369685039367
0
LINE
8
BLACK
6
CONTINUOUS
10
5.2459239370078743
20
-4.3813369685039367
11
5.244859527559055
21
-4.3808960629921261
0
LINE
8
BLACK
6
CONTINUOUS
10
5.244859527559055
20
-4.3808960629921261
11
5.2440448818897636
21
-4.3800814173228346
0
LINE
8
BLACK
6
CONTINUOUS
10
5.2440448818897636
20
-4.3800814173228346
11
5.2436039763779529
21
-4.3790170078740154
0
LINE
8
BLACK
6
CONTINUOUS
10
5.2436039763779529
20
-4.3790170078740154
11
5.2435472440944881
21
-4.3784409448818895
0
LINE
8
BLACK
6
CONTINUOUS
10
5.2435472440944881
20
-4.3784409448818895
11
5.2435472440944881
21
-4.1028503937007876
0
LINE
8
BLACK
6
CONTINUOUS
10
5.2435472440944881
20
-4.1028503937007876
11
5.2436039763779529
21
-4.1022743307086618
0
LINE
8
BLACK
6
CONTINUOUS
10
5.2436039763779529
20
-4.1022743307086618
11
5.2440448818897636
21
-4.1012099212598425
0
LINE
8
BLACK
6
CONTINUOUS
10
5.2440448818897636
20
-4.1012099212598425
11
5.244859527559055
21
-4.1003952755905511
0
LINE
8
BLACK
6
CONTINUOUS
10
5.244859527559055
20
-4.1003952755905511
11
5.2459239370078743
21
-4.0999543700787404
0
LINE
8
BLACK
6
CONTINUOUS
10
5.2459239370078743
20
-4.0999543700787404
11
5.2465000000000002
21
-4.0998976377952756
0
LINE
8
BLACK
6
CONTINUOUS
10
5.2465000000000002
20
-4.0998976377952756
11
5.522090551181102
21
-4.0998976377952756
0
LINE
8
BLACK
6
CONTINUOUS
10
5.522090551181102
20
-4.0998976377952756
11
5.5226666141732279
21
-4.0999543700787404
0
LINE
8
BLACK
6
CONTINUOUS
10
5.2494527559055113
20
-4.3235196850393702
11
5.2494527559055113
21
-4.3754881889763775
0
LINE
8
BLACK
6
CONTINUOUS
10
5.2494527559055113
20
-4.3754881889763775
11
5.3014212598425194
21
-4.3754881889763775
0
LINE
8
BLACK
6
CONTINUOUS
10
5.3014212598425194
20
-4.3754881889763775
11
5.3014212598425194
21
-4.3636771653543303
0
LINE
8
BLACK
6
CONTINUOUS
10
5.3014212598425194
20
-4.3636771653543303
11
5.2642165354330706
21
-4.3636771653543303
0
LINE
8
BLACK
6
CONTINUOUS
10
5.2642165354330706
20
-4.3636771653543303
11
5.2636404724409447
21
-4.3636204330708663
0
LINE
8
BLACK
6
CONTINUOUS
10
5.2636404724409447
20
-4.3636204330708663
11
5.2625760629921254
21
-4.3631795275590548
0
LINE
8
BLACK
6
CONTINUOUS
10
5.2625760629921254
20
-4.3631795275590548
11
5.2617614173228349
21
-4.3623648818897633
0
LINE
8
BLACK
6
CONTINUOUS
10
5.2617614173228349
20
-4.3623648818897633
11
5.2613205118110233
21
-4.361300472440945
0
LINE
8
BLACK
6
CONTINUOUS
10
5.2613205118110233
20
-4.361300472440945
11
5.2612637795275585
21
-4.3607244094488191
0
LINE
8
BLACK
6
CONTINUOUS
10
5.2612637795275585
20
-4.3607244094488191
11
5.2612637795275585
21
-4.3235196850393702
0
LINE
8
BLACK
6
CONTINUOUS
10
5.2612637795275585
20
-4.3235196850393702
11
5.2494527559055113
21
-4.3235196850393702
0
LINE
8
BLACK
6
CONTINUOUS
10
5.3073267716535435
20
-4.1058031496062988
11
5.3073267716535435
21
-4.1607244094488189
0
LINE
8
BLACK
6
CONTINUOUS
10
5.3073267716535435
20
-4.1607244094488189
11
5.3072700393700787
21
-4.1613004724409448
0
LINE
8
BLACK
6
CONTINUOUS
10
5.3072700393700787
20
-4.1613004724409448
11
5.3068291338582672
21
-4.1623648818897641
0
LINE
8
BLACK
6
CONTINUOUS
10
5.3068291338582672
20
-4.1623648818897641
11
5.3060144881889766
21
-4.1631795275590546
0
LINE
8
BLACK
6
CONTINUOUS
10
5.3060144881889766
20
-4.1631795275590546
11
5.3049500787401573
21
-4.1636204330708662
0
LINE
8
BLACK
6
CONTINUOUS
10
5.3049500787401573
20
-4.1636204330708662
11
5.3043740157480315
21
-4.163677165354331
0
LINE
8
BLACK
6
CONTINUOUS
10
5.3043740157480315
20
-4.163677165354331
11
5.2494527559055113
21
-4.163677165354331
0
LINE
8
BLACK
6
CONTINUOUS
10
5.2494527559055113
20
-4.163677165354331
11
5.2494527559055113
21
-4.3176141732283462
0
LINE
8
BLACK
6
CONTINUOUS
10
5.2494527559055113
20
-4.3176141732283462
11
5.3043740157480315
21
-4.3176141732283462
0
LINE
8
BLACK
6
CONTINUOUS
10
5.3043740157480315
20
-4.3176141732283462
11
5.3049500787401573
21
-4.317670905511811
0
LINE
8
BLACK
6
CONTINUOUS
10
5.3049500787401573
20
-4.317670905511811
11
5.3060144881889766
21
-4.3181118110236216
0
LINE
8
BLACK
6
CONTINUOUS
10
5.3060144881889766
20
-4.3181118110236216
11
5.3068291338582672
21
-4.3189264566929131
0
LINE
8
BLACK
6
CONTINUOUS
10
5.3068291338582672
20
-4.3189264566929131
11
5.3072700393700787
21
-4.3199908661417323
0
LINE
8
BLACK
6
CONTINUOUS
10
5.3072700393700787
20
-4.3199908661417323
11
5.3073267716535435
21
-4.3205669291338582
0
LINE
8
BLACK
6
CONTINUOUS
10
5.3073267716535435
20
-4.3205669291338582
11
5.3073267716535435
21
-4.3754881889763775
0
LINE
8
BLACK
6
CONTINUOUS
10
5.3073267716535435
20
-4.3754881889763775
11
5.4612637795275587
21
-4.3754881889763775
0
LINE
8
BLACK
6
CONTINUOUS
10
5.4612637795275587
20
-4.3754881889763775
11
5.4612637795275587
21
-4.3205669291338582
0
LINE
8
BLACK
6
CONTINUOUS
10
5.4612637795275587
20
-4.3205669291338582
11
5.4613205118110235
21
-4.3199908661417323
0
LINE
8
BLACK
6
CONTINUOUS
10
5.4613205118110235
20
-4.3199908661417323
11
5.4617614173228342
21
-4.3189264566929131
0
LINE
8
BLACK
6
CONTINUOUS
10
5.4617614173228342
20
-4.3189264566929131
11
5.4625760629921256
21
-4.3181118110236216
0
LINE
8
BLACK
6
CONTINUOUS
10
5.4625760629921256
20
-4.3181118110236216
11
5.4636404724409449
21
-4.317670905511811
0
LINE
8
BLACK
6
CONTINUOUS
10
5.4636404724409449
20
-4.317670905511811
11
5.4642165354330707
21
-4.3176141732283462
0
LINE
8
BLACK
6
CONTINUOUS
10
5.4642165354330707
20
-4.3176141732283462
11
5.51913779527559
21
-4.3176141732283462
0
LINE
8
BLACK
6
CONTINUOUS
10
5.51913779527559
20
-4.3176141732283462
11
5.51913779527559
21
-4.163677165354331
0
LINE
8
BLACK
6
CONTINUOUS
10
5.51913779527559
20
-4.163677165354331
11
5.4642165354330707
21
-4.163677165354331
0
LINE
8
BLACK
6
CONTINUOUS
10
5.4642165354330707
20
-4.163677165354331
11
5.4636404724409449
21
-4.1636204330708662
0
LINE
8
BLACK
6
CONTINUOUS
10
5.4636404724409449
20
-4.1636204330708662
11
5.4625760629921256
21
-4.1631795275590546
0
LINE
8
BLACK
6
CONTINUOUS
10
5.4625760629921256
20
-4.1631795275590546
11
5.4617614173228342
21
-4.1623648818897641
0
LINE
8
BLACK
6
CONTINUOUS
10
5.4617614173228342
20
-4.1623648818897641
11
5.4613205118110235
21
-4.1613004724409448
0
LINE
8
BLACK
6
CONTINUOUS
10
5.4613205118110235
20
-4.1613004724409448
11
5.4612637795275587
21
-4.1607244094488189
0
LINE
8
BLACK
6
CONTINUOUS
10
5.4612637795275587
20
-4.1607244094488189
11
5.4612637795275587
21
-4.1058031496062988
0
LINE
8
BLACK
6
CONTINUOUS
10
5.4612637795275587
20
-4.1058031496062988
11
5.3073267716535435
21
-4.1058031496062988
0
LINE
8
BLACK
6
CONTINUOUS
10
5.5073267716535428
20
-4.3235196850393702
11
5.5073267716535428
21
-4.3607244094488191
0
LINE
8
BLACK
6
CONTINUOUS
10
5.5073267716535428
20
-4.3607244094488191
11
5.5072700393700789
21
-4.361300472440945
0
LINE
8
BLACK
6
CONTINUOUS
10
5.5072700393700789
20
-4.361300472440945
11
5.5068291338582673
21
-4.3623648818897633
0
LINE
8
BLACK
6
CONTINUOUS
10
5.5068291338582673
20
-4.3623648818897633
11
5.5060144881889759
21
-4.3631795275590548
0
LINE
8
BLACK
6
CONTINUOUS
10
5.5060144881889759
20
-4.3631795275590548
11
5.5049500787401575
21
-4.3636204330708663
0
LINE
8
BLACK
6
CONTINUOUS
10
5.5049500787401575
20
-4.3636204330708663
11
5.5043740157480316
21
-4.3636771653543303
0
LINE
8
BLACK
6
CONTINUOUS
10
5.5043740157480316
20
-4.3636771653543303
11
5.4671692913385828
21
-4.3636771653543303
0
LINE
8
BLACK
6
CONTINUOUS
10
5.4671692913385828
20
-4.3636771653543303
11
5.4671692913385828
21
-4.3754881889763775
0
LINE
8
BLACK
6
CONTINUOUS
10
5.4671692913385828
20
-4.3754881889763775
11
5.51913779527559
21
-4.3754881889763775
0
LINE
8
BLACK
6
CONTINUOUS
10
5.51913779527559
20
-4.3754881889763775
11
5.51913779527559
21
-4.3235196850393702
0
LINE
8
BLACK
6
CONTINUOUS
10
5.51913779527559
20
-4.3235196850393702
11
5.5073267716535428
21
-4.3235196850393702
0
LINE
8
BLACK
6
CONTINUOUS
10
5.4671692913385828
20
-4.3235196850393702
11
5.4671692913385828
21
-4.3577716535433071
0
LINE
8
BLACK
6
CONTINUOUS
10
5.4671692913385828
20
-4.3577716535433071
11
5.5014212598425196
21
-4.3577716535433071
0
LINE
8
BLACK
6
CONTINUOUS
10
5.5014212598425196
20
-4.3577716535433071
11
5.5014212598425196
21
-4.3235196850393702
0
LINE
8
BLACK
6
CONTINUOUS
10
5.5014212598425196
20
-4.3235196850393702
11
5.4671692913385828
21
-4.3235196850393702
0
LINE
8
BLACK
6
CONTINUOUS
10
5.2671692913385826
20
-4.3235196850393702
11
5.2671692913385826
21
-4.3577716535433071
0
LINE
8
BLACK
6
CONTINUOUS
10
5.2671692913385826
20
-4.3577716535433071
11
5.3014212598425194
21
-4.3577716535433071
0
LINE
8
BLACK
6
CONTINUOUS
10
5.3014212598425194
20
-4.3577716535433071
11
5.3014212598425194
21
-4.3235196850393702
0
LINE
8
BLACK
6
CONTINUOUS
10
5.3014212598425194
20
-4.3235196850393702
11
5.2671692913385826
21
-4.3235196850393702
0
LINE
8
BLACK
6
CONTINUOUS
10
5.4671692913385828
20
-4.1235196850393701
11
5.4671692913385828
21
-4.1577716535433069
0
LINE
8
BLACK
6
CONTINUOUS
10
5.4671692913385828
20
-4.1577716535433069
11
5.5014212598425196
21
-4.1577716535433069
0
LINE
8
BLACK
6
CONTINUOUS
10
5.5014212598425196
20
-4.1577716535433069
11
5.5014212598425196
21
-4.1235196850393701
0
LINE
8
BLACK
6
CONTINUOUS
10
5.5014212598425196
20
-4.1235196850393701
11
5.4671692913385828
21
-4.1235196850393701
0
LINE
8
BLACK
6
CONTINUOUS
10
5.4671692913385828
20
-4.1058031496062988
11
5.4671692913385828
21
-4.117614173228346
0
LINE
8
BLACK
6
CONTINUOUS
10
5.4671692913385828
20
-4.117614173228346
11
5.5043740157480316
21
-4.117614173228346
0
LINE
8
BLACK
6
CONTINUOUS
10
5.5043740157480316
20
-4.117614173228346
11
5.5049500787401575
21
-4.1176709055118108
0
LINE
8
BLACK
6
CONTINUOUS
10
5.5049500787401575
20
-4.1176709055118108
11
5.5060144881889759
21
-4.1181118110236223
0
LINE
8
BLACK
6
CONTINUOUS
10
5.5060144881889759
20
-4.1181118110236223
11
5.5068291338582673
21
-4.1189264566929129
0
LINE
8
BLACK
6
CONTINUOUS
10
5.5068291338582673
20
-4.1189264566929129
11
5.5072700393700789
21
-4.1199908661417322
0
LINE
8
BLACK
6
CONTINUOUS
10
5.5072700393700789
20
-4.1199908661417322
11
5.5073267716535428
21
-4.120566929133858
0
LINE
8
BLACK
6
CONTINUOUS
10
5.5073267716535428
20
-4.120566929133858
11
5.5073267716535428
21
-4.1577716535433069
0
LINE
8
BLACK
6
CONTINUOUS
10
5.5073267716535428
20
-4.1577716535433069
11
5.51913779527559
21
-4.1577716535433069
0
LINE
8
BLACK
6
CONTINUOUS
10
5.51913779527559
20
-4.1577716535433069
11
5.51913779527559
21
-4.1058031496062988
0
LINE
8
BLACK
6
CONTINUOUS
10
5.51913779527559
20
-4.1058031496062988
11
5.4671692913385828
21
-4.1058031496062988
0
LINE
8
BLACK
6
CONTINUOUS
10
5.2494527559055113
20
-4.1058031496062988
11
5.2494527559055113
21
-4.1577716535433069
0
LINE
8
BLACK
6
CONTINUOUS
10
5.2494527559055113
20
-4.1577716535433069
11
5.2612637795275585
21
-4.1577716535433069
0
LINE
8
BLACK
6
CONTINUOUS
10
5.2612637795275585
20
-4.1577716535433069
11
5.2612637795275585
21
-4.120566929133858
0
LINE
8
BLACK
6
CONTINUOUS
10
5.2612637795275585
20
-4.120566929133858
11
5.2613205118110233
21
-4.1199908661417322
0
LINE
8
BLACK
6
CONTINUOUS
10
5.2613205118110233
20
-4.1199908661417322
11
5.2617614173228349
21
-4.1189264566929129
0
LINE
8
BLACK
6
CONTINUOUS
10
5.2617614173228349
20
-4.1189264566929129
11
5.2625760629921254
21
-4.1181118110236223
0
LINE
8
BLACK
6
CONTINUOUS
10
5.2625760629921254
20
-4.1181118110236223
11
5.2636404724409447
21
-4.1176709055118108
0
LINE
8
BLACK
6
CONTINUOUS
10
5.2636404724409447
20
-4.1176709055118108
11
5.2642165354330706
21
-4.117614173228346
0
LINE
8
BLACK
6
CONTINUOUS
10
5.2642165354330706
20
-4.117614173228346
11
5.3014212598425194
21
-4.117614173228346
0
LINE
8
BLACK
6
CONTINUOUS
10
5.3014212598425194
20
-4.117614173228346
11
5.3014212598425194
21
-4.1058031496062988
0
LINE
8
BLACK
6
CONTINUOUS
10
5.3014212598425194
20
-4.1058031496062988
11
5.2494527559055113
21
-4.1058031496062988
0
LINE
8
BLACK
6
CONTINUOUS
10
5.2671692913385826
20
-4.1235196850393701
11
5.2671692913385826
21
-4.1577716535433069
0
LINE
8
BLACK
6
CONTINUOUS
10
5.2671692913385826
20
-4.1577716535433069
11
5.3014212598425194
21
-4.1577716535433069
0
LINE
8
BLACK
6
CONTINUOUS
10
5.3014212598425194
20
-4.1577716535433069
11
5.3014212598425194
21
-4.1235196850393701
0
LINE
8
BLACK
6
CONTINUOUS
10
5.3014212598425194
20
-4.1235196850393701
11
5.2671692913385826
21
-4.1235196850393701
0
LINE
8
BLACK
6
CONTINUOUS
10
4.9524287401574805
20
-4.090435039370079
11
4.9655557480314956
21
-4.0934311811023623
0
LINE
8
BLACK
6
CONTINUOUS
10
4.9655557480314956
20
-4.0934311811023623
11
4.9782647637795279
21
-4.0978782677165357
0
LINE
8
BLACK
6
CONTINUOUS
10
4.9782647637795279
20
-4.0978782677165357
11
4.9903959448818895
21
-4.1037203149606301
0
LINE
8
BLACK
6
CONTINUOUS
10
4.9903959448818895
20
-4.1037203149606301
11
5.0017967322834647
21
-4.1108838976377955
0
LINE
8
BLACK
6
CONTINUOUS
10
5.0017967322834647
20
-4.1108838976377955
11
5.0123237795275593
21
-4.1192789370078735
0
LINE
8
BLACK
6
CONTINUOUS
10
5.0123237795275593
20
-4.1192789370078735
11
5.0218446850393699
21
-4.128799842519685
0
LINE
8
BLACK
6
CONTINUOUS
10
5.0218446850393699
20
-4.128799842519685
11
5.0302397244094488
21
-4.1393268897637796
0
LINE
8
BLACK
6
CONTINUOUS
10
5.0302397244094488
20
-4.1393268897637796
11
5.0374033070866142
21
-4.1507276771653538
0
LINE
8
BLACK
6
CONTINUOUS
10
5.0374033070866142
20
-4.1507276771653538
11
5.0432453543307085
21
-4.1628588582677164
0
LINE
8
BLACK
6
CONTINUOUS
10
5.0432453543307085
20
-4.1628588582677164
11
5.047692440944882
21
-4.1755678740157478
0
LINE
8
BLACK
6
CONTINUOUS
10
5.047692440944882
20
-4.1755678740157478
11
5.0506885826771653
21
-4.1886948818897638
0
LINE
8
BLACK
6
CONTINUOUS
10
5.0506885826771653
20
-4.1886948818897638
11
5.0521961417322832
21
-4.202074803149606
0
LINE
8
BLACK
6
CONTINUOUS
10
5.0521961417322832
20
-4.202074803149606
11
5.0521961417322832
21
-4.2155393700787398
0
LINE
8
BLACK
6
CONTINUOUS
10
5.0521961417322832
20
-4.2155393700787398
11
5.0506885826771653
21
-4.2289192913385829
0
LINE
8
BLACK
6
CONTINUOUS
10
5.0506885826771653
20
-4.2289192913385829
11
5.047692440944882
21
-4.242046299212598
0
LINE
8
BLACK
6
CONTINUOUS
10
5.047692440944882
20
-4.242046299212598
11
5.0432453543307085
21
-4.2547553149606294
0
LINE
8
BLACK
6
CONTINUOUS
10
5.0432453543307085
20
-4.2547553149606294
11
5.0374033070866142
21
-4.266886496062992
0
LINE
8
BLACK
6
CONTINUOUS
10
5.0374033070866142
20
-4.266886496062992
11
5.0302397244094488
21
-4.2782872834645671
0
LINE
8
BLACK
6
CONTINUOUS
10
5.0302397244094488
20
-4.2782872834645671
11
5.0218446850393699
21
-4.2888143307086617
0
LINE
8
BLACK
6
CONTINUOUS
10
5.0218446850393699
20
-4.2888143307086617
11
5.0123237795275593
21
-4.2983352362204723
0
LINE
8
BLACK
6
CONTINUOUS
10
5.0123237795275593
20
-4.2983352362204723
11
5.0017967322834647
21
-4.3067302755905512
0
LINE
8
BLACK
6
CONTINUOUS
10
5.0017967322834647
20
-4.3067302755905512
11
4.9903959448818895
21
-4.3138938582677167
0
LINE
8
BLACK
6
CONTINUOUS
10
4.9903959448818895
20
-4.3138938582677167
11
4.9782647637795279
21
-4.319735905511811
0
LINE
8
BLACK
6
CONTINUOUS
10
4.9782647637795279
20
-4.319735905511811
11
4.9655557480314956
21
-4.3241829921259844
0
LINE
8
BLACK
6
CONTINUOUS
10
4.9655557480314956
20
-4.3241829921259844
11
4.9524287401574805
21
-4.3271791338582677
0
LINE
8
BLACK
6
CONTINUOUS
10
4.9524287401574805
20
-4.3271791338582677
11
4.9390488188976374
21
-4.3286866929133856
0
LINE
8
BLACK
6
CONTINUOUS
10
4.9390488188976374
20
-4.3286866929133856
11
4.9255842519685036
21
-4.3286866929133856
0
LINE
8
BLACK
6
CONTINUOUS
10
4.9255842519685036
20
-4.3286866929133856
11
4.9122043307086614
21
-4.3271791338582677
0
LINE
8
BLACK
6
CONTINUOUS
10
4.9122043307086614
20
-4.3271791338582677
11
4.8990773228346454
21
-4.3241829921259844
0
LINE
8
BLACK
6
CONTINUOUS
10
4.8990773228346454
20
-4.3241829921259844
11
4.886368307086614
21
-4.319735905511811
0
LINE
8
BLACK
6
CONTINUOUS
10
4.886368307086614
20
-4.319735905511811
11
4.8742371259842523
21
-4.3138938582677167
0
LINE
8
BLACK
6
CONTINUOUS
10
4.8742371259842523
20
-4.3138938582677167
11
4.8628363385826772
21
-4.3067302755905512
0
LINE
8
BLACK
6
CONTINUOUS
10
4.8628363385826772
20
-4.3067302755905512
11
4.8523092913385826
21
-4.2983352362204723
0
LINE
8
BLACK
6
CONTINUOUS
10
4.8523092913385826
20
-4.2983352362204723
11
4.842788385826772
21
-4.2888143307086617
0
LINE
8
BLACK
6
CONTINUOUS
10
4.842788385826772
20
-4.2888143307086617
11
4.8343933464566931
21
-4.2782872834645671
0
LINE
8
BLACK
6
CONTINUOUS
10
4.8343933464566931
20
-4.2782872834645671
11
4.8272297637795276
21
-4.266886496062992
0
LINE
8
BLACK
6
CONTINUOUS
10
4.8272297637795276
20
-4.266886496062992
11
4.8213877165354333
21
-4.2547553149606294
0
LINE
8
BLACK
6
CONTINUOUS
10
4.8213877165354333
20
-4.2547553149606294
11
4.8169406299212598
21
-4.242046299212598
0
LINE
8
BLACK
6
CONTINUOUS
10
4.8169406299212598
20
-4.242046299212598
11
4.8139444881889766
21
-4.2289192913385829
0
LINE
8
BLACK
6
CONTINUOUS
10
4.8139444881889766
20
-4.2289192913385829
11
4.8124369291338578
21
-4.2155393700787398
0
LINE
8
BLACK
6
CONTINUOUS
10
4.8124369291338578
20
-4.2155393700787398
11
4.8124369291338578
21
-4.2022852755905511
0
LINE
8
BLACK
6
CONTINUOUS
10
4.8124369291338578
20
-4.2022852755905511
11
4.8124369291338578
21
-4.202074803149606
0
LINE
8
BLACK
6
CONTINUOUS
10
4.8124369291338578
20
-4.202074803149606
11
4.8139444881889766
21
-4.1886948818897638
0
LINE
8
BLACK
6
CONTINUOUS
10
4.8139444881889766
20
-4.1886948818897638
11
4.8169406299212598
21
-4.1755678740157478
0
LINE
8
BLACK
6
CONTINUOUS
10
4.8169406299212598
20
-4.1755678740157478
11
4.8213877165354333
21
-4.1628588582677164
0
LINE
8
BLACK
6
CONTINUOUS
10
4.8213877165354333
20
-4.1628588582677164
11
4.8272297637795276
21
-4.1507276771653538
0
LINE
8
BLACK
6
CONTINUOUS
10
4.8272297637795276
20
-4.1507276771653538
11
4.8343933464566931
21
-4.1393268897637796
0
LINE
8
BLACK
6
CONTINUOUS
10
4.8343933464566931
20
-4.1393268897637796
11
4.842788385826772
21
-4.128799842519685
0
LINE
8
BLACK
6
CONTINUOUS
10
4.842788385826772
20
-4.128799842519685
11
4.8523092913385826
21
-4.1192789370078735
0
LINE
8
BLACK
6
CONTINUOUS
10
4.8523092913385826
20
-4.1192789370078735
11
4.8628363385826772
21
-4.1108838976377955
0
LINE
8
BLACK
6
CONTINUOUS
10
4.8628363385826772
20
-4.1108838976377955
11
4.8742371259842523
21
-4.1037203149606301
0
LINE
8
BLACK
6
CONTINUOUS
10
4.8742371259842523
20
-4.1037203149606301
11
4.886368307086614
21
-4.0978782677165357
0
LINE
8
BLACK
6
CONTINUOUS
10
4.886368307086614
20
-4.0978782677165357
11
4.8990773228346454
21
-4.0934311811023623
0
LINE
8
BLACK
6
CONTINUOUS
10
4.8990773228346454
20
-4.0934311811023623
11
4.9122043307086614
21
-4.090435039370079
0
LINE
8
BLACK
6
CONTINUOUS
10
4.9122043307086614
20
-4.090435039370079
11
4.9255842519685036
21
-4.0889274803149602
0
LINE
8
BLACK
6
CONTINUOUS
10
4.9255842519685036
20
-4.0889274803149602
11
4.9390488188976374
21
-4.0889274803149602
0
LINE
8
BLACK
6
CONTINUOUS
10
4.9390488188976374
20
-4.0889274803149602
11
4.9524287401574805
21
-4.090435039370079
0
LINE
8
BLACK
6
CONTINUOUS
10
4.8161850393700787
20
-4.2153288976377956
11
4.817645433070866
21
-4.2282904724409445
0
LINE
8
BLACK
6
CONTINUOUS
10
4.817645433070866
20
-4.2282904724409445
11
4.8205479133858269
21
-4.2410070866141734
0
LINE
8
BLACK
6
CONTINUOUS
10
4.8205479133858269
20
-4.2410070866141734
11
4.8248559448818895
21
-4.2533187007874016
0
LINE
8
BLACK
6
CONTINUOUS
10
4.8248559448818895
20
-4.2533187007874016
11
4.8305153543307089
21
-4.265070590551181
0
LINE
8
BLACK
6
CONTINUOUS
10
4.8305153543307089
20
-4.265070590551181
11
4.8374550000000003
21
-4.2761149606299211
0
LINE
8
BLACK
6
CONTINUOUS
10
4.8374550000000003
20
-4.2761149606299211
11
4.8455875590551178
21
-4.2863128346456696
0
LINE
8
BLACK
6
CONTINUOUS
10
4.8455875590551178
20
-4.2863128346456696
11
4.8548107874015747
21
-4.2955360629921255
0
LINE
8
BLACK
6
CONTINUOUS
10
4.8548107874015747
20
-4.2955360629921255
11
4.8650086614173231
21
-4.303668622047244
0
LINE
8
BLACK
6
CONTINUOUS
10
4.8650086614173231
20
-4.303668622047244
11
4.8760530314960633
21
-4.3106082677165354
0
LINE
8
BLACK
6
CONTINUOUS
10
4.8760530314960633
20
-4.3106082677165354
11
4.8878049212598427
21
-4.3162676771653539
0
LINE
8
BLACK
6
CONTINUOUS
10
4.8878049212598427
20
-4.3162676771653539
11
4.9001165354330709
21
-4.3205757086614174
0
LINE
8
BLACK
6
CONTINUOUS
10
4.9001165354330709
20
-4.3205757086614174
11
4.9128331496062989
21
-4.3234781889763783
0
LINE
8
BLACK
6
CONTINUOUS
10
4.9128331496062989
20
-4.3234781889763783
11
4.9257947244094487
21
-4.3249385826771656
0
LINE
8
BLACK
6
CONTINUOUS
10
4.9257947244094487
20
-4.3249385826771656
11
4.9388383464566932
21
-4.3249385826771656
0
LINE
8
BLACK
6
CONTINUOUS
10
4.9388383464566932
20
-4.3249385826771656
11
4.951799921259842
21
-4.3234781889763783
0
LINE
8
BLACK
6
CONTINUOUS
10
4.951799921259842
20
-4.3234781889763783
11
4.9645165354330709
21
-4.3205757086614174
0
LINE
8
BLACK
6
CONTINUOUS
10
4.9645165354330709
20
-4.3205757086614174
11
4.9768281496062992
21
-4.3162676771653539
0
LINE
8
BLACK
6
CONTINUOUS
10
4.9768281496062992
20
-4.3162676771653539
11
4.9885800393700785
21
-4.3106082677165354
0
LINE
8
BLACK
6
CONTINUOUS
10
4.9885800393700785
20
-4.3106082677165354
11
4.9996244094488187
21
-4.303668622047244
0
LINE
8
BLACK
6
CONTINUOUS
10
4.9996244094488187
20
-4.303668622047244
11
5.0098222834645671
21
-4.2955360629921255
0
LINE
8
BLACK
6
CONTINUOUS
10
5.0098222834645671
20
-4.2955360629921255
11
5.0190455118110231
21
-4.2863128346456696
0
LINE
8
BLACK
6
CONTINUOUS
10
5.0190455118110231
20
-4.2863128346456696
11
5.0271780708661415
21
-4.2761149606299211
0
LINE
8
BLACK
6
CONTINUOUS
10
5.0271780708661415
20
-4.2761149606299211
11
5.0341177165354329
21
-4.265070590551181
0
LINE
8
BLACK
6
CONTINUOUS
10
5.0341177165354329
20
-4.265070590551181
11
5.0397771259842514
21
-4.2533187007874016
0
LINE
8
BLACK
6
CONTINUOUS
10
5.0397771259842514
20
-4.2533187007874016
11
5.0440851574803149
21
-4.2410070866141734
0
LINE
8
BLACK
6
CONTINUOUS
10
5.0440851574803149
20
-4.2410070866141734
11
5.0469876377952758
21
-4.2282904724409445
0
LINE
8
BLACK
6
CONTINUOUS
10
5.0469876377952758
20
-4.2282904724409445
11
5.0484480314960631
21
-4.2153288976377956
0
LINE
8
BLACK
6
CONTINUOUS
10
5.0484480314960631
20
-4.2153288976377956
11
5.0484480314960631
21
-4.2022852755905511
0
LINE
8
BLACK
6
CONTINUOUS
10
5.0484480314960631
20
-4.2022852755905511
11
5.0469876377952758
21
-4.1893237007874013
0
LINE
8
BLACK
6
CONTINUOUS
10
5.0469876377952758
20
-4.1893237007874013
11
5.0440851574803149
21
-4.1766070866141733
0
LINE
8
BLACK
6
CONTINUOUS
10
5.0440851574803149
20
-4.1766070866141733
11
5.0397771259842514
21
-4.1642954724409451
0
LINE
8
BLACK
6
CONTINUOUS
10
5.0397771259842514
20
-4.1642954724409451
11
5.0341177165354329
21
-4.1525435826771648
0
LINE
8
BLACK
6
CONTINUOUS
10
5.0341177165354329
20
-4.1525435826771648
11
5.0271780708661415
21
-4.1414992125984247
0
LINE
8
BLACK
6
CONTINUOUS
10
5.0271780708661415
20
-4.1414992125984247
11
5.0190455118110231
21
-4.1313013385826771
0
LINE
8
BLACK
6
CONTINUOUS
10
5.0190455118110231
20
-4.1313013385826771
11
5.0098222834645671
21
-4.1220781102362203
0
LINE
8
BLACK
6
CONTINUOUS
10
5.0098222834645671
20
-4.1220781102362203
11
4.9996244094488187
21
-4.1139455511811018
0
LINE
8
BLACK
6
CONTINUOUS
10
4.9996244094488187
20
-4.1139455511811018
11
4.9885800393700785
21
-4.1070059055118113
0
LINE
8
BLACK
6
CONTINUOUS
10
4.9885800393700785
20
-4.1070059055118113
11
4.9768281496062992
21
-4.101346496062992
0
LINE
8
BLACK
6
CONTINUOUS
10
4.9768281496062992
20
-4.101346496062992
11
4.9645165354330709
21
-4.0970384645669293
0
LINE
8
BLACK
6
CONTINUOUS
10
4.9645165354330709
20
-4.0970384645669293
11
4.951799921259842
21
-4.0941359842519685
0
LINE
8
BLACK
6
CONTINUOUS
10
4.951799921259842
20
-4.0941359842519685
11
4.9388383464566932
21
-4.0926755905511811
0
LINE
8
BLACK
6
CONTINUOUS
10
4.9388383464566932
20
-4.0926755905511811
11
4.9257947244094487
21
-4.0926755905511811
0
LINE
8
BLACK
6
CONTINUOUS
10
4.9257947244094487
20
-4.0926755905511811
11
4.9128331496062989
21
-4.0941359842519685
0
LINE
8
BLACK
6
CONTINUOUS
10
4.9128331496062989
20
-4.0941359842519685
11
4.9001165354330709
21
-4.0970384645669293
0
LINE
8
BLACK
6
CONTINUOUS
10
4.9001165354330709
20
-4.0970384645669293
11
4.8878049212598427
21
-4.101346496062992
0
LINE
8
BLACK
6
CONTINUOUS
10
4.8878049212598427
20
-4.101346496062992
11
4.8760530314960633
21
-4.1070059055118113
0
LINE
8
BLACK
6
CONTINUOUS
10
4.8760530314960633
20
-4.1070059055118113
11
4.8650086614173231
21
-4.1139455511811018
0
LINE
8
BLACK
6
CONTINUOUS
10
4.8650086614173231
20
-4.1139455511811018
11
4.8548107874015747
21
-4.1220781102362203
0
LINE
8
BLACK
6
CONTINUOUS
10
4.8548107874015747
20
-4.1220781102362203
11
4.8455875590551178
21
-4.1313013385826771
0
LINE
8
BLACK
6
CONTINUOUS
10
4.8455875590551178
20
-4.1313013385826771
11
4.8374550000000003
21
-4.1414992125984247
0
LINE
8
BLACK
6
CONTINUOUS
10
4.8374550000000003
20
-4.1414992125984247
11
4.8305153543307089
21
-4.1525435826771648
0
LINE
8
BLACK
6
CONTINUOUS
10
4.8305153543307089
20
-4.1525435826771648
11
4.8248559448818895
21
-4.1642954724409451
0
LINE
8
BLACK
6
CONTINUOUS
10
4.8248559448818895
20
-4.1642954724409451
11
4.8205479133858269
21
-4.1766070866141733
0
LINE
8
BLACK
6
CONTINUOUS
10
4.8205479133858269
20
-4.1766070866141733
11
4.817645433070866
21
-4.1893237007874013
0
LINE
8
BLACK
6
CONTINUOUS
10
4.817645433070866
20
-4.1893237007874013
11
4.8161850393700787
21
-4.2022852755905511
0
LINE
8
BLACK
6
CONTINUOUS
10
4.8161850393700787
20
-4.2022852755905511
11
4.8161850393700787
21
-4.2153288976377956
0
LINE
8
BLACK
6
CONTINUOUS
10
4.9524287401574805
20
-3.8109279527559052
11
4.9655557480314956
21
-3.8139240944881889
0
LINE
8
BLACK
6
CONTINUOUS
10
4.9655557480314956
20
-3.8139240944881889
11
4.9782647637795279
21
-3.818371181102362
0
LINE
8
BLACK
6
CONTINUOUS
10
4.9782647637795279
20
-3.818371181102362
11
4.9903959448818895
21
-3.8242132283464567
0
LINE
8
BLACK
6
CONTINUOUS
10
4.9903959448818895
20
-3.8242132283464567
11
5.0017967322834647
21
-3.8313768110236222
0
LINE
8
BLACK
6
CONTINUOUS
10
5.0017967322834647
20
-3.8313768110236222
11
5.0123237795275593
21
-3.8397718503937006
0
LINE
8
BLACK
6
CONTINUOUS
10
5.0123237795275593
20
-3.8397718503937006
11
5.0218446850393699
21
-3.8492927559055117
0
LINE
8
BLACK
6
CONTINUOUS
10
5.0218446850393699
20
-3.8492927559055117
11
5.0302397244094488
21
-3.8598198031496063
0
LINE
8
BLACK
6
CONTINUOUS
10
5.0302397244094488
20
-3.8598198031496063
11
5.0374033070866142
21
-3.871220590551181
0
LINE
8
BLACK
6
CONTINUOUS
10
5.0374033070866142
20
-3.871220590551181
11
5.0432453543307085
21
-3.8833517716535431
0
LINE
8
BLACK
6
CONTINUOUS
10
5.0432453543307085
20
-3.8833517716535431
11
5.047692440944882
21
-3.8960607874015749
0
LINE
8
BLACK
6
CONTINUOUS
10
5.047692440944882
20
-3.8960607874015749
11
5.0506885826771653
21
-3.9091877952755905
0
LINE
8
BLACK
6
CONTINUOUS
10
5.0506885826771653
20
-3.9091877952755905
11
5.0521961417322832
21
-3.9225677165354331
0
LINE
8
BLACK
6
CONTINUOUS
10
5.0521961417322832
20
-3.9225677165354331
11
5.0521961417322832
21
-3.9360322834645669
0
LINE
8
BLACK
6
CONTINUOUS
10
5.0521961417322832
20
-3.9360322834645669
11
5.0506885826771653
21
-3.9494122047244096
0
LINE
8
BLACK
6
CONTINUOUS
10
5.0506885826771653
20
-3.9494122047244096
11
5.047692440944882
21
-3.9625392125984251
0
LINE
8
BLACK
6
CONTINUOUS
10
5.047692440944882
20
-3.9625392125984251
11
5.0432453543307085
21
-3.9752482283464565
0
LINE
8
BLACK
6
CONTINUOUS
10
5.0432453543307085
20
-3.9752482283464565
11
5.0374033070866142
21
-3.9873794094488186
0
LINE
8
BLACK
6
CONTINUOUS
10
5.0374033070866142
20
-3.9873794094488186
11
5.0302397244094488
21
-3.9987801968503938
0
LINE
8
BLACK
6
CONTINUOUS
10
5.0302397244094488
20
-3.9987801968503938
11
5.0218446850393699
21
-4.0093072440944884
0
LINE
8
BLACK
6
CONTINUOUS
10
5.0218446850393699
20
-4.0093072440944884
11
5.0123237795275593
21
-4.018828149606299
0
LINE
8
BLACK
6
CONTINUOUS
10
5.0123237795275593
20
-4.018828149606299
11
5.0017967322834647
21
-4.0272231889763779
0
LINE
8
BLACK
6
CONTINUOUS
10
5.0017967322834647
20
-4.0272231889763779
11
4.9903959448818895
21
-4.0343867716535433
0
LINE
8
BLACK
6
CONTINUOUS
10
4.9903959448818895
20
-4.0343867716535433
11
4.9782647637795279
21
-4.0402288188976376
0
LINE
8
BLACK
6
CONTINUOUS
10
4.9782647637795279
20
-4.0402288188976376
11
4.9655557480314956
21
-4.0446759055118111
0
LINE
8
BLACK
6
CONTINUOUS
10
4.9655557480314956
20
-4.0446759055118111
11
4.9524287401574805
21
-4.0476720472440944
0
LINE
8
BLACK
6
CONTINUOUS
10
4.9524287401574805
20
-4.0476720472440944
11
4.9390488188976374
21
-4.0491796062992123
0
LINE
8
BLACK
6
CONTINUOUS
10
4.9390488188976374
20
-4.0491796062992123
11
4.9255842519685036
21
-4.0491796062992123
0
LINE
8
BLACK
6
CONTINUOUS
10
4.9255842519685036
20
-4.0491796062992123
11
4.9122043307086614
21
-4.0476720472440944
0
LINE
8
BLACK
6
CONTINUOUS
10
4.9122043307086614
20
-4.0476720472440944
11
4.8990773228346454
21
-4.0446759055118111
0
LINE
8
BLACK
6
CONTINUOUS
10
4.8990773228346454
20
-4.0446759055118111
11
4.886368307086614
21
-4.0402288188976376
0
LINE
8
BLACK
6
CONTINUOUS
10
4.886368307086614
20
-4.0402288188976376
11
4.8742371259842523
21
-4.0343867716535433
0
LINE
8
BLACK
6
CONTINUOUS
10
4.8742371259842523
20
-4.0343867716535433
11
4.8628363385826772
21
-4.0272231889763779
0
LINE
8
BLACK
6
CONTINUOUS
10
4.8628363385826772
20
-4.0272231889763779
11
4.8523092913385826
21
-4.018828149606299
0
LINE
8
BLACK
6
CONTINUOUS
10
4.8523092913385826
20
-4.018828149606299
11
4.842788385826772
21
-4.0093072440944884
0
LINE
8
BLACK
6
CONTINUOUS
10
4.842788385826772
20
-4.0093072440944884
11
4.8343933464566931
21
-3.9987801968503938
0
LINE
8
BLACK
6
CONTINUOUS
10
4.8343933464566931
20
-3.9987801968503938
11
4.8272297637795276
21
-3.9873794094488186
0
LINE
8
BLACK
6
CONTINUOUS
10
4.8272297637795276
20
-3.9873794094488186
11
4.8213877165354333
21
-3.9752482283464565
0
LINE
8
BLACK
6
CONTINUOUS
10
4.8213877165354333
20
-3.9752482283464565
11
4.8169406299212598
21
-3.9625392125984251
0
LINE
8
BLACK
6
CONTINUOUS
10
4.8169406299212598
20
-3.9625392125984251
11
4.8139444881889766
21
-3.9494122047244096
0
LINE
8
BLACK
6
CONTINUOUS
10
4.8139444881889766
20
-3.9494122047244096
11
4.8124369291338578
21
-3.9360322834645669
0
LINE
8
BLACK
6
CONTINUOUS
10
4.8124369291338578
20
-3.9360322834645669
11
4.8124369291338578
21
-3.9227781889763778
0
LINE
8
BLACK
6
CONTINUOUS
10
4.8124369291338578
20
-3.9227781889763778
11
4.8124369291338578
21
-3.9225677165354331
0
LINE
8
BLACK
6
CONTINUOUS
10
4.8124369291338578
20
-3.9225677165354331
11
4.8139444881889766
21
-3.9091877952755905
0
LINE
8
BLACK
6
CONTINUOUS
10
4.8139444881889766
20
-3.9091877952755905
11
4.8169406299212598
21
-3.8960607874015749
0
LINE
8
BLACK
6
CONTINUOUS
10
4.8169406299212598
20
-3.8960607874015749
11
4.8213877165354333
21
-3.8833517716535431
0
LINE
8
BLACK
6
CONTINUOUS
10
4.8213877165354333
20
-3.8833517716535431
11
4.8272297637795276
21
-3.871220590551181
0
LINE
8
BLACK
6
CONTINUOUS
10
4.8272297637795276
20
-3.871220590551181
11
4.8343933464566931
21
-3.8598198031496063
0
LINE
8
BLACK
6
CONTINUOUS
10
4.8343933464566931
20
-3.8598198031496063
11
4.842788385826772
21
-3.8492927559055117
0
LINE
8
BLACK
6
CONTINUOUS
10
4.842788385826772
20
-3.8492927559055117
11
4.8523092913385826
21
-3.8397718503937006
0
LINE
8
BLACK
6
CONTINUOUS
10
4.8523092913385826
20
-3.8397718503937006
11
4.8628363385826772
21
-3.8313768110236222
0
LINE
8
BLACK
6
CONTINUOUS
10
4.8628363385826772
20
-3.8313768110236222
11
4.8742371259842523
21
-3.8242132283464567
0
LINE
8
BLACK
6
CONTINUOUS
10
4.8742371259842523
20
-3.8242132283464567
11
4.886368307086614
21
-3.818371181102362
0
LINE
8
BLACK
6
CONTINUOUS
10
4.886368307086614
20
-3.818371181102362
11
4.8990773228346454
21
-3.8139240944881889
0
LINE
8
BLACK
6
CONTINUOUS
10
4.8990773228346454
20
-3.8139240944881889
11
4.9122043307086614
21
-3.8109279527559052
0
LINE
8
BLACK
6
CONTINUOUS
10
4.9122043307086614
20
-3.8109279527559052
11
4.9255842519685036
21
-3.8094203937007873
0
LINE
8
BLACK
6
CONTINUOUS
10
4.9255842519685036
20
-3.8094203937007873
11
4.9390488188976374
21
-3.8094203937007873
0
LINE
8
BLACK
6
CONTINUOUS
10
4.9390488188976374
20
-3.8094203937007873
11
4.9524287401574805
21
-3.8109279527559052
0
LINE
8
BLACK
6
CONTINUOUS
10
4.8161850393700787
20
-3.9358218110236218
11
4.817645433070866
21
-3.9487833858267716
0
LINE
8
BLACK
6
CONTINUOUS
10
4.817645433070866
20
-3.9487833858267716
11
4.8205479133858269
21
-3.9615
0
LINE
8
BLACK
6
CONTINUOUS
10
4.8205479133858269
20
-3.9615
11
4.8248559448818895
21
-3.9738116141732283
0
LINE
8
BLACK
6
CONTINUOUS
10
4.8248559448818895
20
-3.9738116141732283
11
4.8305153543307089
21
-3.9855635039370076
0
LINE
8
BLACK
6
CONTINUOUS
10
4.8305153543307089
20
-3.9855635039370076
11
4.8374550000000003
21
-3.9966078740157478
0
LINE
8
BLACK
6
CONTINUOUS
10
4.8374550000000003
20
-3.9966078740157478
11
4.8455875590551178
21
-4.0068057480314963
0
LINE
8
BLACK
6
CONTINUOUS
10
4.8455875590551178
20
-4.0068057480314963
11
4.8548107874015747
21
-4.0160289763779531
0
LINE
8
BLACK
6
CONTINUOUS
10
4.8548107874015747
20
-4.0160289763779531
11
4.8650086614173231
21
-4.0241615354330706
0
LINE
8
BLACK
6
CONTINUOUS
10
4.8650086614173231
20
-4.0241615354330706
11
4.8760530314960633
21
-4.031101181102362
0
LINE
8
BLACK
6
CONTINUOUS
10
4.8760530314960633
20
-4.031101181102362
11
4.8878049212598427
21
-4.0367605905511814
0
LINE
8
BLACK
6
CONTINUOUS
10
4.8878049212598427
20
-4.0367605905511814
11
4.9001165354330709
21
-4.041068622047244
0
LINE
8
BLACK
6
CONTINUOUS
10
4.9001165354330709
20
-4.041068622047244
11
4.9128331496062989
21
-4.0439711023622049
0
LINE
8
BLACK
6
CONTINUOUS
10
4.9128331496062989
20
-4.0439711023622049
11
4.9257947244094487
21
-4.0454314960629922
0
LINE
8
BLACK
6
CONTINUOUS
10
4.9257947244094487
20
-4.0454314960629922
11
4.9388383464566932
21
-4.0454314960629922
0
LINE
8
BLACK
6
CONTINUOUS
10
4.9388383464566932
20
-4.0454314960629922
11
4.951799921259842
21
-4.0439711023622049
0
LINE
8
BLACK
6
CONTINUOUS
10
4.951799921259842
20
-4.0439711023622049
11
4.9645165354330709
21
-4.041068622047244
0
LINE
8
BLACK
6
CONTINUOUS
10
4.9645165354330709
20
-4.041068622047244
11
4.9768281496062992
21
-4.0367605905511814
0
LINE
8
BLACK
6
CONTINUOUS
10
4.9768281496062992
20
-4.0367605905511814
11
4.9885800393700785
21
-4.031101181102362
0
LINE
8
BLACK
6
CONTINUOUS
10
4.9885800393700785
20
-4.031101181102362
11
4.9996244094488187
21
-4.0241615354330706
0
LINE
8
BLACK
6
CONTINUOUS
10
4.9996244094488187
20
-4.0241615354330706
11
5.0098222834645671
21
-4.0160289763779531
0
LINE
8
BLACK
6
CONTINUOUS
10
5.0098222834645671
20
-4.0160289763779531
11
5.0190455118110231
21
-4.0068057480314963
0
LINE
8
BLACK
6
CONTINUOUS
10
5.0190455118110231
20
-4.0068057480314963
11
5.0271780708661415
21
-3.9966078740157478
0
LINE
8
BLACK
6
CONTINUOUS
10
5.0271780708661415
20
-3.9966078740157478
11
5.0341177165354329
21
-3.9855635039370076
0
LINE
8
BLACK
6
CONTINUOUS
10
5.0341177165354329
20
-3.9855635039370076
11
5.0397771259842514
21
-3.9738116141732283
0
LINE
8
BLACK
6
CONTINUOUS
10
5.0397771259842514
20
-3.9738116141732283
11
5.0440851574803149
21
-3.9615
0
LINE
8
BLACK
6
CONTINUOUS
10
5.0440851574803149
20
-3.9615
11
5.0469876377952758
21
-3.9487833858267716
0
LINE
8
BLACK
6
CONTINUOUS
10
5.0469876377952758
20
-3.9487833858267716
11
5.0484480314960631
21
-3.9358218110236218
0
LINE
8
BLACK
6
CONTINUOUS
10
5.0484480314960631
20
-3.9358218110236218
11
5.0484480314960631
21
-3.9227781889763778
0
LINE
8
BLACK
6
CONTINUOUS
10
5.0484480314960631
20
-3.9227781889763778
11
5.0469876377952758
21
-3.9098166141732285
0
LINE
8
BLACK
6
CONTINUOUS
10
5.0469876377952758
20
-3.9098166141732285
11
5.0440851574803149
21
-3.8971
0
LINE
8
BLACK
6
CONTINUOUS
10
5.0440851574803149
20
-3.8971
11
5.0397771259842514
21
-3.8847883858267718
0
LINE
8
BLACK
6
CONTINUOUS
10
5.0397771259842514
20
-3.8847883858267718
11
5.0341177165354329
21
-3.8730364960629919
0
LINE
8
BLACK
6
CONTINUOUS
10
5.0341177165354329
20
-3.8730364960629919
11
5.0271780708661415
21
-3.8619921259842518
0
LINE
8
BLACK
6
CONTINUOUS
10
5.0271780708661415
20
-3.8619921259842518
11
5.0190455118110231
21
-3.8517942519685038
0
LINE
8
BLACK
6
CONTINUOUS
10
5.0190455118110231
20
-3.8517942519685038
11
5.0098222834645671
21
-3.8425710236220469
0
LINE
8
BLACK
6
CONTINUOUS
10
5.0098222834645671
20
-3.8425710236220469
11
4.9996244094488187
21
-3.8344384645669289
0
LINE
8
BLACK
6
CONTINUOUS
10
4.9996244094488187
20
-3.8344384645669289
11
4.9885800393700785
21
-3.8274988188976375
0
LINE
8
BLACK
6
CONTINUOUS
10
4.9885800393700785
20
-3.8274988188976375
11
4.9768281496062992
21
-3.8218394094488186
0
LINE
8
BLACK
6
CONTINUOUS
10
4.9768281496062992
20
-3.8218394094488186
11
4.9645165354330709
21
-3.817531377952756
0
LINE
8
BLACK
6
CONTINUOUS
10
4.9645165354330709
20
-3.817531377952756
11
4.951799921259842
21
-3.8146288976377951
0
LINE
8
BLACK
6
CONTINUOUS
10
4.951799921259842
20
-3.8146288976377951
11
4.9388383464566932
21
-3.8131685039370078
0
LINE
8
BLACK
6
CONTINUOUS
10
4.9388383464566932
20
-3.8131685039370078
11
4.9257947244094487
21
-3.8131685039370078
0
LINE
8
BLACK
6
CONTINUOUS
10
4.9257947244094487
20
-3.8131685039370078
11
4.9128331496062989
21
-3.8146288976377951
0
LINE
8
BLACK
6
CONTINUOUS
10
4.9128331496062989
20
-3.8146288976377951
11
4.9001165354330709
21
-3.817531377952756
0
LINE
8
BLACK
6
CONTINUOUS
10
4.9001165354330709
20
-3.817531377952756
11
4.8878049212598427
21
-3.8218394094488186
0
LINE
8
BLACK
6
CONTINUOUS
10
4.8878049212598427
20
-3.8218394094488186
11
4.8760530314960633
21
-3.8274988188976375
0
LINE
8
BLACK
6
CONTINUOUS
10
4.8760530314960633
20
-3.8274988188976375
11
4.8650086614173231
21
-3.8344384645669289
0
LINE
8
BLACK
6
CONTINUOUS
10
4.8650086614173231
20
-3.8344384645669289
11
4.8548107874015747
21
-3.8425710236220469
0
LINE
8
BLACK
6
CONTINUOUS
10
4.8548107874015747
20
-3.8425710236220469
11
4.8455875590551178
21
-3.8517942519685038
0
LINE
8
BLACK
6
CONTINUOUS
10
4.8455875590551178
20
-3.8517942519685038
11
4.8374550000000003
21
-3.8619921259842518
0
LINE
8
BLACK
6
CONTINUOUS
10
4.8374550000000003
20
-3.8619921259842518
11
4.8305153543307089
21
-3.8730364960629919
0
LINE
8
BLACK
6
CONTINUOUS
10
4.8305153543307089
20
-3.8730364960629919
11
4.8248559448818895
21
-3.8847883858267718
0
LINE
8
BLACK
6
CONTINUOUS
10
4.8248559448818895
20
-3.8847883858267718
11
4.8205479133858269
21
-3.8971
0
LINE
8
BLACK
6
CONTINUOUS
10
4.8205479133858269
20
-3.8971
11
4.817645433070866
21
-3.9098166141732285
0
LINE
8
BLACK
6
CONTINUOUS
10
4.817645433070866
20
-3.9098166141732285
11
4.8161850393700787
21
-3.9227781889763778
0
LINE
8
BLACK
6
CONTINUOUS
10
4.8161850393700787
20
-3.9227781889763778
11
4.8161850393700787
21
-3.9358218110236218
0
CIRCLE
8
BLACK
10
4.9323165354330705
20
-3.9293
40
0.0068897637795276
0
CIRCLE
8
BLACK
10
6.4561456692913382
20
-4.5349370078740154
40
0.0068897637795276
0
CIRCLE
8
BLACK
10
6.5561456692913387
20
-4.5349370078740154
40
0.0068897637795276
0
CIRCLE
8
BLACK
10
6.4561456692913382
20
-4.634937007874016
40
0.0068897637795276
0
CIRCLE
8
BLACK
10
6.5561456692913387
20
-4.634937007874016
40
0.0068897637795276
0
CIRCLE
8
BLACK
10
6.4561456692913382
20
-4.7349370078740156
40
0.0068897637795276
0
CIRCLE
8
BLACK
10
6.5561456692913387
20
-4.7349370078740156
40
0.0068897637795276
0
CIRCLE
8
BLACK
10
6.4561456692913382
20
-4.8349370078740153
40
0.0068897637795276
0
CIRCLE
8
BLACK
10
6.5561456692913387
20
-4.8349370078740153
40
0.0068897637795276
0
CIRCLE
8
BLACK
10
4.9323165354330705
20
-4.7678212598425196
40
0.0068897637795276
0
CIRCLE
8
BLACK
10
5.8663818897637796
20
-4.3349370078740153
40
0.0068897637795276
0
CIRCLE
8
BLACK
10
5.9663818897637793
20
-4.3349370078740153
40
0.0068897637795276
0
CIRCLE
8
BLACK
10
5.8663818897637796
20
-4.4349370078740158
40
0.0068897637795276
0
CIRCLE
8
BLACK
10
5.9663818897637793
20
-4.4349370078740158
40
0.0068897637795276
0
CIRCLE
8
BLACK
10
5.8663818897637796
20
-4.5349370078740154
40
0.0068897637795276
0
CIRCLE
8
BLACK
10
5.9663818897637793
20
-4.5349370078740154
40
0.0068897637795276
0
CIRCLE
8
BLACK
10
5.8663818897637796
20
-4.634937007874016
40
0.0068897637795276
0
CIRCLE
8
BLACK
10
5.9663818897637793
20
-4.634937007874016
40
0.0068897637795276
0
CIRCLE
8
BLACK
10
5.8663818897637796
20
-4.7349370078740156
40
0.0068897637795276
0
CIRCLE
8
BLACK
10
5.9663818897637793
20
-4.7349370078740156
40
0.0068897637795276
0
CIRCLE
8
BLACK
10
5.8663818897637796
20
-4.8349370078740153
40
0.0068897637795276
0
CIRCLE
8
BLACK
10
5.9663818897637793
20
-4.8349370078740153
40
0.0068897637795276
0
CIRCLE
8
BLACK
10
4.9323165354330705
20
-4.2088070866141729
40
0.0068897637795276
0
CIRCLE
8
BLACK
10
4.9323165354330705
20
-4.4883141732283462
40
0.0068897637795276
0
CIRCLE
8
BLACK
10
5.3842952755905511
20
-4.2406456692913386
40
0.0068897637795276
0
CIRCLE
8
BLACK
10
5.2842952755905515
20
-4.1406456692913389
40
0.0068897637795276
0
CIRCLE
8
BLACK
10
5.2842952755905515
20
-4.3406456692913382
40
0.0068897637795276
0
CIRCLE
8
BLACK
10
5.4842952755905507
20
-4.1406456692913389
40
0.0068897637795276
0
CIRCLE
8
BLACK
10
5.4842952755905507
20
-4.3406456692913382
40
0.0068897637795276
0
CIRCLE
8
BLACK
10
6.1116574803149604
20
-4.3061968503937003
40
0.0068897637795276
0
CIRCLE
8
BLACK
10
6.2116574803149609
20
-4.3061968503937003
40
0.0068897637795276
0
CIRCLE
8
BLACK
10
6.1116574803149604
20
-4.2061968503937006
40
0.0068897637795276
0
CIRCLE
8
BLACK
10
6.2116574803149609
20
-4.2061968503937006
40
0.0068897637795276
0
CIRCLE
8
BLACK
10
6.1116574803149604
20
-4.106196850393701
40
0.0068897637795276
0
CIRCLE
8
BLACK
10
6.2116574803149609
20
-4.106196850393701
40
0.0068897637795276
0
CIRCLE
8
BLACK
10
4.9323165354330705
20
-3.9293
40
0.0068897637795276
0
CIRCLE
8
BLACK
10
6.4561456692913382
20
-4.5349370078740154
40
0.0068897637795276
0
CIRCLE
8
BLACK
10
6.5561456692913387
20
-4.5349370078740154
40
0.0068897637795276
0
CIRCLE
8
BLACK
10
6.4561456692913382
20
-4.634937007874016
40
0.0068897637795276
0
CIRCLE
8
BLACK
10
6.5561456692913387
20
-4.634937007874016
40
0.0068897637795276
0
CIRCLE
8
BLACK
10
6.4561456692913382
20
-4.7349370078740156
40
0.0068897637795276
0
CIRCLE
8
BLACK
10
6.5561456692913387
20
-4.7349370078740156
40
0.0068897637795276
0
CIRCLE
8
BLACK
10
6.4561456692913382
20
-4.8349370078740153
40
0.0068897637795276
0
CIRCLE
8
BLACK
10
6.5561456692913387
20
-4.8349370078740153
40
0.0068897637795276
0
CIRCLE
8
BLACK
10
4.9323165354330705
20
-4.7678212598425196
40
0.0068897637795276
0
CIRCLE
8
BLACK
10
5.8663818897637796
20
-4.3349370078740153
40
0.0068897637795276
0
CIRCLE
8
BLACK
10
5.9663818897637793
20
-4.3349370078740153
40
0.0068897637795276
0
CIRCLE
8
BLACK
10
5.8663818897637796
20
-4.4349370078740158
40
0.0068897637795276
0
CIRCLE
8
BLACK
10
5.9663818897637793
20
-4.4349370078740158
40
0.0068897637795276
0
CIRCLE
8
BLACK
10
5.8663818897637796
20
-4.5349370078740154
40
0.0068897637795276
0
CIRCLE
8
BLACK
10
5.9663818897637793
20
-4.5349370078740154
40
0.0068897637795276
0
CIRCLE
8
BLACK
10
5.8663818897637796
20
-4.634937007874016
40
0.0068897637795276
0
CIRCLE
8
BLACK
10
5.9663818897637793
20
-4.634937007874016
40
0.0068897637795276
0
CIRCLE
8
BLACK
10
5.8663818897637796
20
-4.7349370078740156
40
0.0068897637795276
0
CIRCLE
8
BLACK
10
5.9663818897637793
20
-4.7349370078740156
40
0.0068897637795276
0
CIRCLE
8
BLACK
10
5.8663818897637796
20
-4.8349370078740153
40
0.0068897637795276
0
CIRCLE
8
BLACK
10
5.9663818897637793
20
-4.8349370078740153
40
0.0068897637795276
0
CIRCLE
8
BLACK
10
4.9323165354330705
20
-4.2088070866141729
40
0.0068897637795276
0
CIRCLE
8
BLACK
10
4.9323165354330705
20
-4.4883141732283462
40
0.0068897637795276
0
CIRCLE
8
BLACK
10
5.3842952755905511
20
-4.2406456692913386
40
0.0068897637795276
0
CIRCLE
8
BLACK
10
5.2842952755905515
20
-4.1406456692913389
40
0.0068897637795276
0
CIRCLE
8
BLACK
10
5.2842952755905515
20
-4.3406456692913382
40
0.0068897637795276
0
CIRCLE
8
BLACK
10
5.4842952755905507
20
-4.1406456692913389
40
0.0068897637795276
0
CIRCLE
8
BLACK
10
5.4842952755905507
20
-4.3406456692913382
40
0.0068897637795276
0
CIRCLE
8
BLACK
10
6.1116574803149604
20
-4.3061968503937003
40
0.0068897637795276
0
CIRCLE
8
BLACK
10
6.2116574803149609
20
-4.3061968503937003
40
0.0068897637795276
0
CIRCLE
8
BLACK
10
6.1116574803149604
20
-4.2061968503937006
40
0.0068897637795276
0
CIRCLE
8
BLACK
10
6.2116574803149609
20
-4.2061968503937006
40
0.0068897637795276
0
CIRCLE
8
BLACK
10
6.1116574803149604
20
-4.106196850393701
40
0.0068897637795276
0
CIRCLE
8
BLACK
10
6.2116574803149609
20
-4.106196850393701
40
0.0068897637795276
  0
ENDSEC
  0
EOF
