  0
SECTION
  2
HEADER
  9
$ANGBASE
  50
0.0
  9
$ANGDIR
  70
1
  9
$MEASUREMENT
  70
0
  0
ENDSEC
  0
SECTION
  2
TABLES
  0
TABLE
  2
LTYPE
  70
4
  0
LTYPE
  5
40F
  2
CONTINUOUS
  70
0
  3
Solid line
  72
65
  73
0
  40
0.0
  0
LTYPE
  5
410
  2
DASHDOT
 70
0
  3
Dash Dot ____ _ ____ _
 72
65
 73
4
 40
2.0
 49
1.25
 49
-0.25
 49
0.25
 49
-0.25
  0
LTYPE
  5
411
  2
DASHED
 70
0
  3
Dashed __ __ __ __ __
 72
65
 73
2
 40
0.75
 49
0.5
 49
-0.25
  0
LTYPE
  5
43B
  2
DOTTED
 70
0
  3
Dotted .  .  .  .
 72
65
 73
2
 40
0.2
 49
0.0
 49
-0.2
  0
ENDTAB
  0
TABLE
  2
STYLE
  70
4
  0
STYLE
  2
KICAD
  70
0
  40
0
  41
1
  42
1
  50
0
  71
0
  3
isocp.shx
  0
STYLE
  2
KICADB
  70
0
  40
0
  41
1
  42
1
  50
0
  71
0
  3
isocp.shx
  0
STYLE
  2
KICADI
  70
0
  40
0
  41
1
  42
1
  50
15
  71
0
  3
isocp.shx
  0
STYLE
  2
KICADBI
  70
0
  40
0
  41
1
  42
1
  50
15
  71
0
  3
isocp.shx
  0
ENDTAB
  0
TABLE
  2
LAYER
  70
1
  0
LAYER
  2
BLACK
  70
0
  62
7
  6
CONTINUOUS
  0
ENDTAB
  0
ENDSEC
  0
SECTION
  2
ENTITIES
0
LINE
8
BLACK
6
CONTINUOUS
10
4.952100748031496
20
-4.6513798031496059
11
4.9650136614173226
21
-4.654327086614173
0
LINE
8
BLACK
6
CONTINUOUS
10
4.9650136614173226
20
-4.654327086614173
11
4.9775153543307082
21
-4.6587016141732285
0
LINE
8
BLACK
6
CONTINUOUS
10
4.9775153543307082
20
-4.6587016141732285
11
4.9894487007874018
21
-4.6644484251968503
0
LINE
8
BLACK
6
CONTINUOUS
10
4.9894487007874018
20
-4.6644484251968503
11
5.0006635433070867
21
-4.6714951574803152
0
LINE
8
BLACK
6
CONTINUOUS
10
5.0006635433070867
20
-4.6714951574803152
11
5.0110188976377952
21
-4.6797533070866137
0
LINE
8
BLACK
6
CONTINUOUS
10
5.0110188976377952
20
-4.6797533070866137
11
5.0203844881889763
21
-4.6891188976377949
0
LINE
8
BLACK
6
CONTINUOUS
10
5.0203844881889763
20
-4.6891188976377949
11
5.0286426377952758
21
-4.6994742519685042
0
LINE
8
BLACK
6
CONTINUOUS
10
5.0286426377952758
20
-4.6994742519685042
11
5.0356893700787397
21
-4.7106890944881892
0
LINE
8
BLACK
6
CONTINUOUS
10
5.0356893700787397
20
-4.7106890944881892
11
5.0414361811023625
21
-4.7226224409448818
0
LINE
8
BLACK
6
CONTINUOUS
10
5.0414361811023625
20
-4.7226224409448818
11
5.045810708661417
21
-4.7351241338582675
0
LINE
8
BLACK
6
CONTINUOUS
10
5.045810708661417
20
-4.7351241338582675
11
5.0487579921259842
21
-4.748037047244094
0
LINE
8
BLACK
6
CONTINUOUS
10
5.0487579921259842
20
-4.748037047244094
11
5.0502409448818897
21
-4.7611987795275592
0
LINE
8
BLACK
6
CONTINUOUS
10
5.0502409448818897
20
-4.7611987795275592
11
5.0502409448818897
21
-4.77444374015748
0
LINE
8
BLACK
6
CONTINUOUS
10
5.0502409448818897
20
-4.77444374015748
11
5.0487579921259842
21
-4.7876054724409451
0
LINE
8
BLACK
6
CONTINUOUS
10
5.0487579921259842
20
-4.7876054724409451
11
5.045810708661417
21
-4.8005183858267717
0
LINE
8
BLACK
6
CONTINUOUS
10
5.045810708661417
20
-4.8005183858267717
11
5.0414361811023625
21
-4.8130200787401574
0
LINE
8
BLACK
6
CONTINUOUS
10
5.0414361811023625
20
-4.8130200787401574
11
5.0356893700787397
21
-4.82495342519685
0
LINE
8
BLACK
6
CONTINUOUS
10
5.0356893700787397
20
-4.82495342519685
11
5.0286426377952758
21
-4.836168267716535
0
LINE
8
BLACK
6
CONTINUOUS
10
5.0286426377952758
20
-4.836168267716535
11
5.0203844881889763
21
-4.8465236220472443
0
LINE
8
BLACK
6
CONTINUOUS
10
5.0203844881889763
20
-4.8465236220472443
11
5.0110188976377952
21
-4.8558892125984254
0
LINE
8
BLACK
6
CONTINUOUS
10
5.0110188976377952
20
-4.8558892125984254
11
5.0006635433070867
21
-4.864147362204724
0
LINE
8
BLACK
6
CONTINUOUS
10
5.0006635433070867
20
-4.864147362204724
11
4.9894487007874018
21
-4.8711940944881889
0
LINE
8
BLACK
6
CONTINUOUS
10
4.9894487007874018
20
-4.8711940944881889
11
4.9775153543307082
21
-4.8769409055118107
0
LINE
8
BLACK
6
CONTINUOUS
10
4.9775153543307082
20
-4.8769409055118107
11
4.9650136614173226
21
-4.8813154330708661
0
LINE
8
BLACK
6
CONTINUOUS
10
4.9650136614173226
20
-4.8813154330708661
11
4.952100748031496
21
-4.8842627165354333
0
LINE
8
BLACK
6
CONTINUOUS
10
4.952100748031496
20
-4.8842627165354333
11
4.9389390157480317
21
-4.8857456692913388
0
LINE
8
BLACK
6
CONTINUOUS
10
4.9389390157480317
20
-4.8857456692913388
11
4.9256940551181101
21
-4.8857456692913388
0
LINE
8
BLACK
6
CONTINUOUS
10
4.9256940551181101
20
-4.8857456692913388
11
4.9125323228346458
21
-4.8842627165354333
0
LINE
8
BLACK
6
CONTINUOUS
10
4.9125323228346458
20
-4.8842627165354333
11
4.8996194094488184
21
-4.8813154330708661
0
LINE
8
BLACK
6
CONTINUOUS
10
4.8996194094488184
20
-4.8813154330708661
11
4.8871177165354327
21
-4.8769409055118107
0
LINE
8
BLACK
6
CONTINUOUS
10
4.8871177165354327
20
-4.8769409055118107
11
4.8751843700787401
21
-4.8711940944881889
0
LINE
8
BLACK
6
CONTINUOUS
10
4.8751843700787401
20
-4.8711940944881889
11
4.8639695275590551
21
-4.864147362204724
0
LINE
8
BLACK
6
CONTINUOUS
10
4.8639695275590551
20
-4.864147362204724
11
4.8536141732283467
21
-4.8558892125984254
0
LINE
8
BLACK
6
CONTINUOUS
10
4.8536141732283467
20
-4.8558892125984254
11
4.8442485826771655
21
-4.8465236220472443
0
LINE
8
BLACK
6
CONTINUOUS
10
4.8442485826771655
20
-4.8465236220472443
11
4.8359904330708661
21
-4.836168267716535
0
LINE
8
BLACK
6
CONTINUOUS
10
4.8359904330708661
20
-4.836168267716535
11
4.8289437007874012
21
-4.82495342519685
0
LINE
8
BLACK
6
CONTINUOUS
10
4.8289437007874012
20
-4.82495342519685
11
4.8231968897637794
21
-4.8130200787401574
0
LINE
8
BLACK
6
CONTINUOUS
10
4.8231968897637794
20
-4.8130200787401574
11
4.8188223622047239
21
-4.8005183858267717
0
LINE
8
BLACK
6
CONTINUOUS
10
4.8188223622047239
20
-4.8005183858267717
11
4.8158750787401576
21
-4.7876054724409451
0
LINE
8
BLACK
6
CONTINUOUS
10
4.8158750787401576
20
-4.7876054724409451
11
4.8143921259842521
21
-4.77444374015748
0
LINE
8
BLACK
6
CONTINUOUS
10
4.8143921259842521
20
-4.77444374015748
11
4.8143921259842521
21
-4.7611987795275592
0
LINE
8
BLACK
6
CONTINUOUS
10
4.8143921259842521
20
-4.7611987795275592
11
4.8158750787401576
21
-4.748037047244094
0
LINE
8
BLACK
6
CONTINUOUS
10
4.8158750787401576
20
-4.748037047244094
11
4.8188223622047239
21
-4.7351241338582675
0
LINE
8
BLACK
6
CONTINUOUS
10
4.8188223622047239
20
-4.7351241338582675
11
4.8231968897637794
21
-4.7226224409448818
0
LINE
8
BLACK
6
CONTINUOUS
10
4.8231968897637794
20
-4.7226224409448818
11
4.8289437007874012
21
-4.7106890944881892
0
LINE
8
BLACK
6
CONTINUOUS
10
4.8289437007874012
20
-4.7106890944881892
11
4.8359904330708661
21
-4.6994742519685042
0
LINE
8
BLACK
6
CONTINUOUS
10
4.8359904330708661
20
-4.6994742519685042
11
4.8442485826771655
21
-4.6891188976377949
0
LINE
8
BLACK
6
CONTINUOUS
10
4.8442485826771655
20
-4.6891188976377949
11
4.8536141732283467
21
-4.6797533070866137
0
LINE
8
BLACK
6
CONTINUOUS
10
4.8536141732283467
20
-4.6797533070866137
11
4.8639695275590551
21
-4.6714951574803152
0
LINE
8
BLACK
6
CONTINUOUS
10
4.8639695275590551
20
-4.6714951574803152
11
4.8751843700787401
21
-4.6644484251968503
0
LINE
8
BLACK
6
CONTINUOUS
10
4.8751843700787401
20
-4.6644484251968503
11
4.8871177165354327
21
-4.6587016141732285
0
LINE
8
BLACK
6
CONTINUOUS
10
4.8871177165354327
20
-4.6587016141732285
11
4.8996194094488184
21
-4.654327086614173
0
LINE
8
BLACK
6
CONTINUOUS
10
4.8996194094488184
20
-4.654327086614173
11
4.9125323228346458
21
-4.6513798031496059
0
LINE
8
BLACK
6
CONTINUOUS
10
4.9125323228346458
20
-4.6513798031496059
11
4.9256940551181101
21
-4.6498968503937004
0
LINE
8
BLACK
6
CONTINUOUS
10
4.9256940551181101
20
-4.6498968503937004
11
4.9389390157480317
21
-4.6498968503937004
0
LINE
8
BLACK
6
CONTINUOUS
10
4.9389390157480317
20
-4.6498968503937004
11
4.952100748031496
21
-4.6513798031496059
0
LINE
8
BLACK
6
CONTINUOUS
10
5.896381889763779
20
-4.8649370078740155
11
5.8363818897637794
21
-4.8649370078740155
0
LINE
8
BLACK
6
CONTINUOUS
10
5.8363818897637794
20
-4.8649370078740155
11
5.8363818897637794
21
-4.8049370078740159
0
LINE
8
BLACK
6
CONTINUOUS
10
5.8363818897637794
20
-4.8049370078740159
11
5.896381889763779
21
-4.8049370078740159
0
LINE
8
BLACK
6
CONTINUOUS
10
5.896381889763779
20
-4.8049370078740159
11
5.896381889763779
21
-4.8649370078740155
0
LINE
8
BLACK
6
CONTINUOUS
10
5.9963818897637795
20
-4.8649370078740155
11
5.936381889763779
21
-4.8649370078740155
0
LINE
8
BLACK
6
CONTINUOUS
10
5.936381889763779
20
-4.8649370078740155
11
5.936381889763779
21
-4.8049370078740159
0
LINE
8
BLACK
6
CONTINUOUS
10
5.936381889763779
20
-4.8049370078740159
11
5.9963818897637795
21
-4.8049370078740159
0
LINE
8
BLACK
6
CONTINUOUS
10
5.9963818897637795
20
-4.8049370078740159
11
5.9963818897637795
21
-4.8649370078740155
0
LINE
8
BLACK
6
CONTINUOUS
10
6.4861456692913384
20
-4.8649370078740155
11
6.4261456692913388
21
-4.8649370078740155
0
LINE
8
BLACK
6
CONTINUOUS
10
6.4261456692913388
20
-4.8649370078740155
11
6.4261456692913388
21
-4.8049370078740159
0
LINE
8
BLACK
6
CONTINUOUS
10
6.4261456692913388
20
-4.8049370078740159
11
6.4861456692913384
21
-4.8049370078740159
0
LINE
8
BLACK
6
CONTINUOUS
10
6.4861456692913384
20
-4.8049370078740159
11
6.4861456692913384
21
-4.8649370078740155
0
LINE
8
BLACK
6
CONTINUOUS
10
6.586145669291338
20
-4.8649370078740155
11
6.5261456692913384
21
-4.8649370078740155
0
LINE
8
BLACK
6
CONTINUOUS
10
6.5261456692913384
20
-4.8649370078740155
11
6.5261456692913384
21
-4.8049370078740159
0
LINE
8
BLACK
6
CONTINUOUS
10
6.5261456692913384
20
-4.8049370078740159
11
6.586145669291338
21
-4.8049370078740159
0
LINE
8
BLACK
6
CONTINUOUS
10
6.586145669291338
20
-4.8049370078740159
11
6.586145669291338
21
-4.8649370078740155
0
LINE
8
BLACK
6
CONTINUOUS
10
5.896381889763779
20
-4.7649370078740159
11
5.8363818897637794
21
-4.7649370078740159
0
LINE
8
BLACK
6
CONTINUOUS
10
5.8363818897637794
20
-4.7649370078740159
11
5.8363818897637794
21
-4.7049370078740154
0
LINE
8
BLACK
6
CONTINUOUS
10
5.8363818897637794
20
-4.7049370078740154
11
5.896381889763779
21
-4.7049370078740154
0
LINE
8
BLACK
6
CONTINUOUS
10
5.896381889763779
20
-4.7049370078740154
11
5.896381889763779
21
-4.7649370078740159
0
LINE
8
BLACK
6
CONTINUOUS
10
5.9963818897637795
20
-4.7649370078740159
11
5.936381889763779
21
-4.7649370078740159
0
LINE
8
BLACK
6
CONTINUOUS
10
5.936381889763779
20
-4.7649370078740159
11
5.936381889763779
21
-4.7049370078740154
0
LINE
8
BLACK
6
CONTINUOUS
10
5.936381889763779
20
-4.7049370078740154
11
5.9963818897637795
21
-4.7049370078740154
0
LINE
8
BLACK
6
CONTINUOUS
10
5.9963818897637795
20
-4.7049370078740154
11
5.9963818897637795
21
-4.7649370078740159
0
LINE
8
BLACK
6
CONTINUOUS
10
6.4861456692913384
20
-4.7649370078740159
11
6.4261456692913388
21
-4.7649370078740159
0
LINE
8
BLACK
6
CONTINUOUS
10
6.4261456692913388
20
-4.7649370078740159
11
6.4261456692913388
21
-4.7049370078740154
0
LINE
8
BLACK
6
CONTINUOUS
10
6.4261456692913388
20
-4.7049370078740154
11
6.4861456692913384
21
-4.7049370078740154
0
LINE
8
BLACK
6
CONTINUOUS
10
6.4861456692913384
20
-4.7049370078740154
11
6.4861456692913384
21
-4.7649370078740159
0
LINE
8
BLACK
6
CONTINUOUS
10
6.586145669291338
20
-4.7649370078740159
11
6.5261456692913384
21
-4.7649370078740159
0
LINE
8
BLACK
6
CONTINUOUS
10
6.5261456692913384
20
-4.7649370078740159
11
6.5261456692913384
21
-4.7049370078740154
0
LINE
8
BLACK
6
CONTINUOUS
10
6.5261456692913384
20
-4.7049370078740154
11
6.586145669291338
21
-4.7049370078740154
0
LINE
8
BLACK
6
CONTINUOUS
10
6.586145669291338
20
-4.7049370078740154
11
6.586145669291338
21
-4.7649370078740159
0
LINE
8
BLACK
6
CONTINUOUS
10
5.896381889763779
20
-4.6649370078740153
11
5.8363818897637794
21
-4.6649370078740153
0
LINE
8
BLACK
6
CONTINUOUS
10
5.8363818897637794
20
-4.6649370078740153
11
5.8363818897637794
21
-4.6049370078740157
0
LINE
8
BLACK
6
CONTINUOUS
10
5.8363818897637794
20
-4.6049370078740157
11
5.896381889763779
21
-4.6049370078740157
0
LINE
8
BLACK
6
CONTINUOUS
10
5.896381889763779
20
-4.6049370078740157
11
5.896381889763779
21
-4.6649370078740153
0
LINE
8
BLACK
6
CONTINUOUS
10
5.9963818897637795
20
-4.6649370078740153
11
5.936381889763779
21
-4.6649370078740153
0
LINE
8
BLACK
6
CONTINUOUS
10
5.936381889763779
20
-4.6649370078740153
11
5.936381889763779
21
-4.6049370078740157
0
LINE
8
BLACK
6
CONTINUOUS
10
5.936381889763779
20
-4.6049370078740157
11
5.9963818897637795
21
-4.6049370078740157
0
LINE
8
BLACK
6
CONTINUOUS
10
5.9963818897637795
20
-4.6049370078740157
11
5.9963818897637795
21
-4.6649370078740153
0
LINE
8
BLACK
6
CONTINUOUS
10
6.4861456692913384
20
-4.6649370078740153
11
6.4261456692913388
21
-4.6649370078740153
0
LINE
8
BLACK
6
CONTINUOUS
10
6.4261456692913388
20
-4.6649370078740153
11
6.4261456692913388
21
-4.6049370078740157
0
LINE
8
BLACK
6
CONTINUOUS
10
6.4261456692913388
20
-4.6049370078740157
11
6.4861456692913384
21
-4.6049370078740157
0
LINE
8
BLACK
6
CONTINUOUS
10
6.4861456692913384
20
-4.6049370078740157
11
6.4861456692913384
21
-4.6649370078740153
0
LINE
8
BLACK
6
CONTINUOUS
10
6.586145669291338
20
-4.6649370078740153
11
6.5261456692913384
21
-4.6649370078740153
0
LINE
8
BLACK
6
CONTINUOUS
10
6.5261456692913384
20
-4.6649370078740153
11
6.5261456692913384
21
-4.6049370078740157
0
LINE
8
BLACK
6
CONTINUOUS
10
6.5261456692913384
20
-4.6049370078740157
11
6.586145669291338
21
-4.6049370078740157
0
LINE
8
BLACK
6
CONTINUOUS
10
6.586145669291338
20
-4.6049370078740157
11
6.586145669291338
21
-4.6649370078740153
0
LINE
8
BLACK
6
CONTINUOUS
10
4.952100748031496
20
-4.3718727165354334
11
4.9650136614173226
21
-4.3748199999999997
0
LINE
8
BLACK
6
CONTINUOUS
10
4.9650136614173226
20
-4.3748199999999997
11
4.9775153543307082
21
-4.3791945275590551
0
LINE
8
BLACK
6
CONTINUOUS
10
4.9775153543307082
20
-4.3791945275590551
11
4.9894487007874018
21
-4.384941338582677
0
LINE
8
BLACK
6
CONTINUOUS
10
4.9894487007874018
20
-4.384941338582677
11
5.0006635433070867
21
-4.3919880708661418
0
LINE
8
BLACK
6
CONTINUOUS
10
5.0006635433070867
20
-4.3919880708661418
11
5.0110188976377952
21
-4.4002462204724404
0
LINE
8
BLACK
6
CONTINUOUS
10
5.0110188976377952
20
-4.4002462204724404
11
5.0203844881889763
21
-4.4096118110236215
0
LINE
8
BLACK
6
CONTINUOUS
10
5.0203844881889763
20
-4.4096118110236215
11
5.0286426377952758
21
-4.4199671653543309
0
LINE
8
BLACK
6
CONTINUOUS
10
5.0286426377952758
20
-4.4199671653543309
11
5.0356893700787397
21
-4.4311820078740158
0
LINE
8
BLACK
6
CONTINUOUS
10
5.0356893700787397
20
-4.4311820078740158
11
5.0414361811023625
21
-4.4431153543307085
0
LINE
8
BLACK
6
CONTINUOUS
10
5.0414361811023625
20
-4.4431153543307085
11
5.045810708661417
21
-4.4556170472440941
0
LINE
8
BLACK
6
CONTINUOUS
10
5.045810708661417
20
-4.4556170472440941
11
5.0487579921259842
21
-4.4685299606299216
0
LINE
8
BLACK
6
CONTINUOUS
10
5.0487579921259842
20
-4.4685299606299216
11
5.0502409448818897
21
-4.4816916929133859
0
LINE
8
BLACK
6
CONTINUOUS
10
5.0502409448818897
20
-4.4816916929133859
11
5.0502409448818897
21
-4.4949366535433066
0
LINE
8
BLACK
6
CONTINUOUS
10
5.0502409448818897
20
-4.4949366535433066
11
5.0487579921259842
21
-4.5080983858267718
0
LINE
8
BLACK
6
CONTINUOUS
10
5.0487579921259842
20
-4.5080983858267718
11
5.045810708661417
21
-4.5210112992125984
0
LINE
8
BLACK
6
CONTINUOUS
10
5.045810708661417
20
-4.5210112992125984
11
5.0414361811023625
21
-4.533512992125984
0
LINE
8
BLACK
6
CONTINUOUS
10
5.0414361811023625
20
-4.533512992125984
11
5.0356893700787397
21
-4.5454463385826767
0
LINE
8
BLACK
6
CONTINUOUS
10
5.0356893700787397
20
-4.5454463385826767
11
5.0286426377952758
21
-4.5566611811023625
0
LINE
8
BLACK
6
CONTINUOUS
10
5.0286426377952758
20
-4.5566611811023625
11
5.0203844881889763
21
-4.567016535433071
0
LINE
8
BLACK
6
CONTINUOUS
10
5.0203844881889763
20
-4.567016535433071
11
5.0110188976377952
21
-4.5763821259842521
0
LINE
8
BLACK
6
CONTINUOUS
10
5.0110188976377952
20
-4.5763821259842521
11
5.0006635433070867
21
-4.5846402755905507
0
LINE
8
BLACK
6
CONTINUOUS
10
5.0006635433070867
20
-4.5846402755905507
11
4.9894487007874018
21
-4.5916870078740155
0
LINE
8
BLACK
6
CONTINUOUS
10
4.9894487007874018
20
-4.5916870078740155
11
4.9775153543307082
21
-4.5974338188976374
0
LINE
8
BLACK
6
CONTINUOUS
10
4.9775153543307082
20
-4.5974338188976374
11
4.9650136614173226
21
-4.6018083464566928
0
LINE
8
BLACK
6
CONTINUOUS
10
4.9650136614173226
20
-4.6018083464566928
11
4.952100748031496
21
-4.60475562992126
0
LINE
8
BLACK
6
CONTINUOUS
10
4.952100748031496
20
-4.60475562992126
11
4.9389390157480317
21
-4.6062385826771655
0
LINE
8
BLACK
6
CONTINUOUS
10
4.9389390157480317
20
-4.6062385826771655
11
4.9256940551181101
21
-4.6062385826771655
0
LINE
8
BLACK
6
CONTINUOUS
10
4.9256940551181101
20
-4.6062385826771655
11
4.9125323228346458
21
-4.60475562992126
0
LINE
8
BLACK
6
CONTINUOUS
10
4.9125323228346458
20
-4.60475562992126
11
4.8996194094488184
21
-4.6018083464566928
0
LINE
8
BLACK
6
CONTINUOUS
10
4.8996194094488184
20
-4.6018083464566928
11
4.8871177165354327
21
-4.5974338188976374
0
LINE
8
BLACK
6
CONTINUOUS
10
4.8871177165354327
20
-4.5974338188976374
11
4.8751843700787401
21
-4.5916870078740155
0
LINE
8
BLACK
6
CONTINUOUS
10
4.8751843700787401
20
-4.5916870078740155
11
4.8639695275590551
21
-4.5846402755905507
0
LINE
8
BLACK
6
CONTINUOUS
10
4.8639695275590551
20
-4.5846402755905507
11
4.8536141732283467
21
-4.5763821259842521
0
LINE
8
BLACK
6
CONTINUOUS
10
4.8536141732283467
20
-4.5763821259842521
11
4.8442485826771655
21
-4.567016535433071
0
LINE
8
BLACK
6
CONTINUOUS
10
4.8442485826771655
20
-4.567016535433071
11
4.8359904330708661
21
-4.5566611811023625
0
LINE
8
BLACK
6
CONTINUOUS
10
4.8359904330708661
20
-4.5566611811023625
11
4.8289437007874012
21
-4.5454463385826767
0
LINE
8
BLACK
6
CONTINUOUS
10
4.8289437007874012
20
-4.5454463385826767
11
4.8231968897637794
21
-4.533512992125984
0
LINE
8
BLACK
6
CONTINUOUS
10
4.8231968897637794
20
-4.533512992125984
11
4.8188223622047239
21
-4.5210112992125984
0
LINE
8
BLACK
6
CONTINUOUS
10
4.8188223622047239
20
-4.5210112992125984
11
4.8158750787401576
21
-4.5080983858267718
0
LINE
8
BLACK
6
CONTINUOUS
10
4.8158750787401576
20
-4.5080983858267718
11
4.8143921259842521
21
-4.4949366535433066
0
LINE
8
BLACK
6
CONTINUOUS
10
4.8143921259842521
20
-4.4949366535433066
11
4.8143921259842521
21
-4.4816916929133859
0
LINE
8
BLACK
6
CONTINUOUS
10
4.8143921259842521
20
-4.4816916929133859
11
4.8158750787401576
21
-4.4685299606299216
0
LINE
8
BLACK
6
CONTINUOUS
10
4.8158750787401576
20
-4.4685299606299216
11
4.8188223622047239
21
-4.4556170472440941
0
LINE
8
BLACK
6
CONTINUOUS
10
4.8188223622047239
20
-4.4556170472440941
11
4.8231968897637794
21
-4.4431153543307085
0
LINE
8
BLACK
6
CONTINUOUS
10
4.8231968897637794
20
-4.4431153543307085
11
4.8289437007874012
21
-4.4311820078740158
0
LINE
8
BLACK
6
CONTINUOUS
10
4.8289437007874012
20
-4.4311820078740158
11
4.8359904330708661
21
-4.4199671653543309
0
LINE
8
BLACK
6
CONTINUOUS
10
4.8359904330708661
20
-4.4199671653543309
11
4.8442485826771655
21
-4.4096118110236215
0
LINE
8
BLACK
6
CONTINUOUS
10
4.8442485826771655
20
-4.4096118110236215
11
4.8536141732283467
21
-4.4002462204724404
0
LINE
8
BLACK
6
CONTINUOUS
10
4.8536141732283467
20
-4.4002462204724404
11
4.8639695275590551
21
-4.3919880708661418
0
LINE
8
BLACK
6
CONTINUOUS
10
4.8639695275590551
20
-4.3919880708661418
11
4.8751843700787401
21
-4.384941338582677
0
LINE
8
BLACK
6
CONTINUOUS
10
4.8751843700787401
20
-4.384941338582677
11
4.8871177165354327
21
-4.3791945275590551
0
LINE
8
BLACK
6
CONTINUOUS
10
4.8871177165354327
20
-4.3791945275590551
11
4.8996194094488184
21
-4.3748199999999997
0
LINE
8
BLACK
6
CONTINUOUS
10
4.8996194094488184
20
-4.3748199999999997
11
4.9125323228346458
21
-4.3718727165354334
0
LINE
8
BLACK
6
CONTINUOUS
10
4.9125323228346458
20
-4.3718727165354334
11
4.9256940551181101
21
-4.370389763779527
0
LINE
8
BLACK
6
CONTINUOUS
10
4.9256940551181101
20
-4.370389763779527
11
4.9389390157480317
21
-4.370389763779527
0
LINE
8
BLACK
6
CONTINUOUS
10
4.9389390157480317
20
-4.370389763779527
11
4.952100748031496
21
-4.3718727165354334
0
LINE
8
BLACK
6
CONTINUOUS
10
5.896381889763779
20
-4.5649370078740157
11
5.8363818897637794
21
-4.5649370078740157
0
LINE
8
BLACK
6
CONTINUOUS
10
5.8363818897637794
20
-4.5649370078740157
11
5.8363818897637794
21
-4.5049370078740161
0
LINE
8
BLACK
6
CONTINUOUS
10
5.8363818897637794
20
-4.5049370078740161
11
5.896381889763779
21
-4.5049370078740161
0
LINE
8
BLACK
6
CONTINUOUS
10
5.896381889763779
20
-4.5049370078740161
11
5.896381889763779
21
-4.5649370078740157
0
LINE
8
BLACK
6
CONTINUOUS
10
5.9963818897637795
20
-4.5649370078740157
11
5.936381889763779
21
-4.5649370078740157
0
LINE
8
BLACK
6
CONTINUOUS
10
5.936381889763779
20
-4.5649370078740157
11
5.936381889763779
21
-4.5049370078740161
0
LINE
8
BLACK
6
CONTINUOUS
10
5.936381889763779
20
-4.5049370078740161
11
5.9963818897637795
21
-4.5049370078740161
0
LINE
8
BLACK
6
CONTINUOUS
10
5.9963818897637795
20
-4.5049370078740161
11
5.9963818897637795
21
-4.5649370078740157
0
LINE
8
BLACK
6
CONTINUOUS
10
6.4861456692913384
20
-4.5649370078740157
11
6.4261456692913388
21
-4.5649370078740157
0
LINE
8
BLACK
6
CONTINUOUS
10
6.4261456692913388
20
-4.5649370078740157
11
6.4261456692913388
21
-4.5049370078740161
0
LINE
8
BLACK
6
CONTINUOUS
10
6.4261456692913388
20
-4.5049370078740161
11
6.4861456692913384
21
-4.5049370078740161
0
LINE
8
BLACK
6
CONTINUOUS
10
6.4861456692913384
20
-4.5049370078740161
11
6.4861456692913384
21
-4.5649370078740157
0
LINE
8
BLACK
6
CONTINUOUS
10
6.586145669291338
20
-4.5649370078740157
11
6.5261456692913384
21
-4.5649370078740157
0
LINE
8
BLACK
6
CONTINUOUS
10
6.5261456692913384
20
-4.5649370078740157
11
6.5261456692913384
21
-4.5049370078740161
0
LINE
8
BLACK
6
CONTINUOUS
10
6.5261456692913384
20
-4.5049370078740161
11
6.586145669291338
21
-4.5049370078740161
0
LINE
8
BLACK
6
CONTINUOUS
10
6.586145669291338
20
-4.5049370078740161
11
6.586145669291338
21
-4.5649370078740157
0
LINE
8
BLACK
6
CONTINUOUS
10
5.896381889763779
20
-4.464937007874016
11
5.8363818897637794
21
-4.464937007874016
0
LINE
8
BLACK
6
CONTINUOUS
10
5.8363818897637794
20
-4.464937007874016
11
5.8363818897637794
21
-4.4049370078740155
0
LINE
8
BLACK
6
CONTINUOUS
10
5.8363818897637794
20
-4.4049370078740155
11
5.896381889763779
21
-4.4049370078740155
0
LINE
8
BLACK
6
CONTINUOUS
10
5.896381889763779
20
-4.4049370078740155
11
5.896381889763779
21
-4.464937007874016
0
LINE
8
BLACK
6
CONTINUOUS
10
5.9963818897637795
20
-4.464937007874016
11
5.936381889763779
21
-4.464937007874016
0
LINE
8
BLACK
6
CONTINUOUS
10
5.936381889763779
20
-4.464937007874016
11
5.936381889763779
21
-4.4049370078740155
0
LINE
8
BLACK
6
CONTINUOUS
10
5.936381889763779
20
-4.4049370078740155
11
5.9963818897637795
21
-4.4049370078740155
0
LINE
8
BLACK
6
CONTINUOUS
10
5.9963818897637795
20
-4.4049370078740155
11
5.9963818897637795
21
-4.464937007874016
0
LINE
8
BLACK
6
CONTINUOUS
10
5.2967027952755901
20
-4.2889646062992126
11
5.3046347637795277
21
-4.2915418503937008
0
LINE
8
BLACK
6
CONTINUOUS
10
5.3046347637795277
20
-4.2915418503937008
11
5.3120658661417322
21
-4.2953281889763781
0
LINE
8
BLACK
6
CONTINUOUS
10
5.3120658661417322
20
-4.2953281889763781
11
5.3188131889763781
21
-4.3002303937007875
0
LINE
8
BLACK
6
CONTINUOUS
10
5.3188131889763781
20
-4.3002303937007875
11
5.3247105511811021
21
-4.3061277559055116
0
LINE
8
BLACK
6
CONTINUOUS
10
5.3247105511811021
20
-4.3061277559055116
11
5.3296127559055115
21
-4.3128750787401575
0
LINE
8
BLACK
6
CONTINUOUS
10
5.3296127559055115
20
-4.3128750787401575
11
5.3333990944881888
21
-4.320306181102362
0
LINE
8
BLACK
6
CONTINUOUS
10
5.3333990944881888
20
-4.320306181102362
11
5.3359763385826771
21
-4.3282381496062987
0
LINE
8
BLACK
6
CONTINUOUS
10
5.3359763385826771
20
-4.3282381496062987
11
5.3372810236220474
21
-4.3364755905511814
0
LINE
8
BLACK
6
CONTINUOUS
10
5.3372810236220474
20
-4.3364755905511814
11
5.3372810236220474
21
-4.3448157480314959
0
LINE
8
BLACK
6
CONTINUOUS
10
5.3372810236220474
20
-4.3448157480314959
11
5.3359763385826771
21
-4.3530531889763777
0
LINE
8
BLACK
6
CONTINUOUS
10
5.3359763385826771
20
-4.3530531889763777
11
5.3333990944881888
21
-4.3609851574803145
0
LINE
8
BLACK
6
CONTINUOUS
10
5.3333990944881888
20
-4.3609851574803145
11
5.3296127559055115
21
-4.3684162598425198
0
LINE
8
BLACK
6
CONTINUOUS
10
5.3296127559055115
20
-4.3684162598425198
11
5.3247105511811021
21
-4.3751635826771649
0
LINE
8
BLACK
6
CONTINUOUS
10
5.3247105511811021
20
-4.3751635826771649
11
5.3188131889763781
21
-4.3810609448818898
0
LINE
8
BLACK
6
CONTINUOUS
10
5.3188131889763781
20
-4.3810609448818898
11
5.3120658661417322
21
-4.3859631496062992
0
LINE
8
BLACK
6
CONTINUOUS
10
5.3120658661417322
20
-4.3859631496062992
11
5.3046347637795277
21
-4.3897494881889765
0
LINE
8
BLACK
6
CONTINUOUS
10
5.3046347637795277
20
-4.3897494881889765
11
5.2967027952755901
21
-4.3923267322834647
0
LINE
8
BLACK
6
CONTINUOUS
10
5.2967027952755901
20
-4.3923267322834647
11
5.2884653543307083
21
-4.3936314173228341
0
LINE
8
BLACK
6
CONTINUOUS
10
5.2884653543307083
20
-4.3936314173228341
11
5.2801251968503937
21
-4.3936314173228341
0
LINE
8
BLACK
6
CONTINUOUS
10
5.2801251968503937
20
-4.3936314173228341
11
5.271887755905512
21
-4.3923267322834647
0
LINE
8
BLACK
6
CONTINUOUS
10
5.271887755905512
20
-4.3923267322834647
11
5.2639557874015743
21
-4.3897494881889765
0
LINE
8
BLACK
6
CONTINUOUS
10
5.2639557874015743
20
-4.3897494881889765
11
5.2565246850393699
21
-4.3859631496062992
0
LINE
8
BLACK
6
CONTINUOUS
10
5.2565246850393699
20
-4.3859631496062992
11
5.2497773622047239
21
-4.3810609448818898
0
LINE
8
BLACK
6
CONTINUOUS
10
5.2497773622047239
20
-4.3810609448818898
11
5.2438799999999999
21
-4.3751635826771649
0
LINE
8
BLACK
6
CONTINUOUS
10
5.2438799999999999
20
-4.3751635826771649
11
5.2389777952755905
21
-4.3684162598425198
0
LINE
8
BLACK
6
CONTINUOUS
10
5.2389777952755905
20
-4.3684162598425198
11
5.2351914566929132
21
-4.3609851574803145
0
LINE
8
BLACK
6
CONTINUOUS
10
5.2351914566929132
20
-4.3609851574803145
11
5.232614212598425
21
-4.3530531889763777
0
LINE
8
BLACK
6
CONTINUOUS
10
5.232614212598425
20
-4.3530531889763777
11
5.2313095275590547
21
-4.3448157480314959
0
LINE
8
BLACK
6
CONTINUOUS
10
5.2313095275590547
20
-4.3448157480314959
11
5.2313095275590547
21
-4.3364755905511814
0
LINE
8
BLACK
6
CONTINUOUS
10
5.2313095275590547
20
-4.3364755905511814
11
5.232614212598425
21
-4.3282381496062987
0
LINE
8
BLACK
6
CONTINUOUS
10
5.232614212598425
20
-4.3282381496062987
11
5.2351914566929132
21
-4.320306181102362
0
LINE
8
BLACK
6
CONTINUOUS
10
5.2351914566929132
20
-4.320306181102362
11
5.2389777952755905
21
-4.3128750787401575
0
LINE
8
BLACK
6
CONTINUOUS
10
5.2389777952755905
20
-4.3128750787401575
11
5.2438799999999999
21
-4.3061277559055116
0
LINE
8
BLACK
6
CONTINUOUS
10
5.2438799999999999
20
-4.3061277559055116
11
5.2497773622047239
21
-4.3002303937007875
0
LINE
8
BLACK
6
CONTINUOUS
10
5.2497773622047239
20
-4.3002303937007875
11
5.2565246850393699
21
-4.2953281889763781
0
LINE
8
BLACK
6
CONTINUOUS
10
5.2565246850393699
20
-4.2953281889763781
11
5.2639557874015743
21
-4.2915418503937008
0
LINE
8
BLACK
6
CONTINUOUS
10
5.2639557874015743
20
-4.2915418503937008
11
5.271887755905512
21
-4.2889646062992126
0
LINE
8
BLACK
6
CONTINUOUS
10
5.271887755905512
20
-4.2889646062992126
11
5.2801251968503937
21
-4.2876599212598423
0
LINE
8
BLACK
6
CONTINUOUS
10
5.2801251968503937
20
-4.2876599212598423
11
5.2884653543307083
21
-4.2876599212598423
0
LINE
8
BLACK
6
CONTINUOUS
10
5.2884653543307083
20
-4.2876599212598423
11
5.2967027952755901
21
-4.2889646062992126
0
LINE
8
BLACK
6
CONTINUOUS
10
5.4967027952755902
20
-4.2889646062992126
11
5.5046347637795279
21
-4.2915418503937008
0
LINE
8
BLACK
6
CONTINUOUS
10
5.5046347637795279
20
-4.2915418503937008
11
5.5120658661417323
21
-4.2953281889763781
0
LINE
8
BLACK
6
CONTINUOUS
10
5.5120658661417323
20
-4.2953281889763781
11
5.5188131889763774
21
-4.3002303937007875
0
LINE
8
BLACK
6
CONTINUOUS
10
5.5188131889763774
20
-4.3002303937007875
11
5.5247105511811023
21
-4.3061277559055116
0
LINE
8
BLACK
6
CONTINUOUS
10
5.5247105511811023
20
-4.3061277559055116
11
5.5296127559055117
21
-4.3128750787401575
0
LINE
8
BLACK
6
CONTINUOUS
10
5.5296127559055117
20
-4.3128750787401575
11
5.533399094488189
21
-4.320306181102362
0
LINE
8
BLACK
6
CONTINUOUS
10
5.533399094488189
20
-4.320306181102362
11
5.5359763385826772
21
-4.3282381496062987
0
LINE
8
BLACK
6
CONTINUOUS
10
5.5359763385826772
20
-4.3282381496062987
11
5.5372810236220475
21
-4.3364755905511814
0
LINE
8
BLACK
6
CONTINUOUS
10
5.5372810236220475
20
-4.3364755905511814
11
5.5372810236220475
21
-4.3448157480314959
0
LINE
8
BLACK
6
CONTINUOUS
10
5.5372810236220475
20
-4.3448157480314959
11
5.5359763385826772
21
-4.3530531889763777
0
LINE
8
BLACK
6
CONTINUOUS
10
5.5359763385826772
20
-4.3530531889763777
11
5.533399094488189
21
-4.3609851574803145
0
LINE
8
BLACK
6
CONTINUOUS
10
5.533399094488189
20
-4.3609851574803145
11
5.5296127559055117
21
-4.3684162598425198
0
LINE
8
BLACK
6
CONTINUOUS
10
5.5296127559055117
20
-4.3684162598425198
11
5.5247105511811023
21
-4.3751635826771649
0
LINE
8
BLACK
6
CONTINUOUS
10
5.5247105511811023
20
-4.3751635826771649
11
5.5188131889763774
21
-4.3810609448818898
0
LINE
8
BLACK
6
CONTINUOUS
10
5.5188131889763774
20
-4.3810609448818898
11
5.5120658661417323
21
-4.3859631496062992
0
LINE
8
BLACK
6
CONTINUOUS
10
5.5120658661417323
20
-4.3859631496062992
11
5.5046347637795279
21
-4.3897494881889765
0
LINE
8
BLACK
6
CONTINUOUS
10
5.5046347637795279
20
-4.3897494881889765
11
5.4967027952755902
21
-4.3923267322834647
0
LINE
8
BLACK
6
CONTINUOUS
10
5.4967027952755902
20
-4.3923267322834647
11
5.4884653543307085
21
-4.3936314173228341
0
LINE
8
BLACK
6
CONTINUOUS
10
5.4884653543307085
20
-4.3936314173228341
11
5.4801251968503939
21
-4.3936314173228341
0
LINE
8
BLACK
6
CONTINUOUS
10
5.4801251968503939
20
-4.3936314173228341
11
5.4718877559055121
21
-4.3923267322834647
0
LINE
8
BLACK
6
CONTINUOUS
10
5.4718877559055121
20
-4.3923267322834647
11
5.4639557874015745
21
-4.3897494881889765
0
LINE
8
BLACK
6
CONTINUOUS
10
5.4639557874015745
20
-4.3897494881889765
11
5.45652468503937
21
-4.3859631496062992
0
LINE
8
BLACK
6
CONTINUOUS
10
5.45652468503937
20
-4.3859631496062992
11
5.4497773622047241
21
-4.3810609448818898
0
LINE
8
BLACK
6
CONTINUOUS
10
5.4497773622047241
20
-4.3810609448818898
11
5.4438800000000001
21
-4.3751635826771649
0
LINE
8
BLACK
6
CONTINUOUS
10
5.4438800000000001
20
-4.3751635826771649
11
5.4389777952755907
21
-4.3684162598425198
0
LINE
8
BLACK
6
CONTINUOUS
10
5.4389777952755907
20
-4.3684162598425198
11
5.4351914566929134
21
-4.3609851574803145
0
LINE
8
BLACK
6
CONTINUOUS
10
5.4351914566929134
20
-4.3609851574803145
11
5.4326142125984251
21
-4.3530531889763777
0
LINE
8
BLACK
6
CONTINUOUS
10
5.4326142125984251
20
-4.3530531889763777
11
5.4313095275590548
21
-4.3448157480314959
0
LINE
8
BLACK
6
CONTINUOUS
10
5.4313095275590548
20
-4.3448157480314959
11
5.4313095275590548
21
-4.3364755905511814
0
LINE
8
BLACK
6
CONTINUOUS
10
5.4313095275590548
20
-4.3364755905511814
11
5.4326142125984251
21
-4.3282381496062987
0
LINE
8
BLACK
6
CONTINUOUS
10
5.4326142125984251
20
-4.3282381496062987
11
5.4351914566929134
21
-4.320306181102362
0
LINE
8
BLACK
6
CONTINUOUS
10
5.4351914566929134
20
-4.320306181102362
11
5.4389777952755907
21
-4.3128750787401575
0
LINE
8
BLACK
6
CONTINUOUS
10
5.4389777952755907
20
-4.3128750787401575
11
5.4438800000000001
21
-4.3061277559055116
0
LINE
8
BLACK
6
CONTINUOUS
10
5.4438800000000001
20
-4.3061277559055116
11
5.4497773622047241
21
-4.3002303937007875
0
LINE
8
BLACK
6
CONTINUOUS
10
5.4497773622047241
20
-4.3002303937007875
11
5.45652468503937
21
-4.2953281889763781
0
LINE
8
BLACK
6
CONTINUOUS
10
5.45652468503937
20
-4.2953281889763781
11
5.4639557874015745
21
-4.2915418503937008
0
LINE
8
BLACK
6
CONTINUOUS
10
5.4639557874015745
20
-4.2915418503937008
11
5.4718877559055121
21
-4.2889646062992126
0
LINE
8
BLACK
6
CONTINUOUS
10
5.4718877559055121
20
-4.2889646062992126
11
5.4801251968503939
21
-4.2876599212598423
0
LINE
8
BLACK
6
CONTINUOUS
10
5.4801251968503939
20
-4.2876599212598423
11
5.4884653543307085
21
-4.2876599212598423
0
LINE
8
BLACK
6
CONTINUOUS
10
5.4884653543307085
20
-4.2876599212598423
11
5.4967027952755902
21
-4.2889646062992126
0
LINE
8
BLACK
6
CONTINUOUS
10
5.896381889763779
20
-4.3649370078740155
11
5.8363818897637794
21
-4.3649370078740155
0
LINE
8
BLACK
6
CONTINUOUS
10
5.8363818897637794
20
-4.3649370078740155
11
5.8363818897637794
21
-4.3049370078740159
0
LINE
8
BLACK
6
CONTINUOUS
10
5.8363818897637794
20
-4.3049370078740159
11
5.896381889763779
21
-4.3049370078740159
0
LINE
8
BLACK
6
CONTINUOUS
10
5.896381889763779
20
-4.3049370078740159
11
5.896381889763779
21
-4.3649370078740155
0
LINE
8
BLACK
6
CONTINUOUS
10
5.9963818897637795
20
-4.3649370078740155
11
5.936381889763779
21
-4.3649370078740155
0
LINE
8
BLACK
6
CONTINUOUS
10
5.936381889763779
20
-4.3649370078740155
11
5.936381889763779
21
-4.3049370078740159
0
LINE
8
BLACK
6
CONTINUOUS
10
5.936381889763779
20
-4.3049370078740159
11
5.9963818897637795
21
-4.3049370078740159
0
LINE
8
BLACK
6
CONTINUOUS
10
5.9963818897637795
20
-4.3049370078740159
11
5.9963818897637795
21
-4.3649370078740155
0
LINE
8
BLACK
6
CONTINUOUS
10
6.1416574803149606
20
-4.3361968503937005
11
6.0816574803149601
21
-4.3361968503937005
0
LINE
8
BLACK
6
CONTINUOUS
10
6.0816574803149601
20
-4.3361968503937005
11
6.0816574803149601
21
-4.2761968503937009
0
LINE
8
BLACK
6
CONTINUOUS
10
6.0816574803149601
20
-4.2761968503937009
11
6.1416574803149606
21
-4.2761968503937009
0
LINE
8
BLACK
6
CONTINUOUS
10
6.1416574803149606
20
-4.2761968503937009
11
6.1416574803149606
21
-4.3361968503937005
0
LINE
8
BLACK
6
CONTINUOUS
10
6.2416574803149603
20
-4.3361968503937005
11
6.1816574803149607
21
-4.3361968503937005
0
LINE
8
BLACK
6
CONTINUOUS
10
6.1816574803149607
20
-4.3361968503937005
11
6.1816574803149607
21
-4.2761968503937009
0
LINE
8
BLACK
6
CONTINUOUS
10
6.1816574803149607
20
-4.2761968503937009
11
6.2416574803149603
21
-4.2761968503937009
0
LINE
8
BLACK
6
CONTINUOUS
10
6.2416574803149603
20
-4.2761968503937009
11
6.2416574803149603
21
-4.3361968503937005
0
LINE
8
BLACK
6
CONTINUOUS
10
4.952100748031496
20
-4.0923656299212601
11
4.9650136614173226
21
-4.0953129133858264
0
LINE
8
BLACK
6
CONTINUOUS
10
4.9650136614173226
20
-4.0953129133858264
11
4.9775153543307082
21
-4.0996874409448818
0
LINE
8
BLACK
6
CONTINUOUS
10
4.9775153543307082
20
-4.0996874409448818
11
4.9894487007874018
21
-4.1054342519685036
0
LINE
8
BLACK
6
CONTINUOUS
10
4.9894487007874018
20
-4.1054342519685036
11
5.0006635433070867
21
-4.1124809842519685
0
LINE
8
BLACK
6
CONTINUOUS
10
5.0006635433070867
20
-4.1124809842519685
11
5.0110188976377952
21
-4.120739133858268
0
LINE
8
BLACK
6
CONTINUOUS
10
5.0110188976377952
20
-4.120739133858268
11
5.0203844881889763
21
-4.1301047244094491
0
LINE
8
BLACK
6
CONTINUOUS
10
5.0203844881889763
20
-4.1301047244094491
11
5.0286426377952758
21
-4.1404600787401575
0
LINE
8
BLACK
6
CONTINUOUS
10
5.0286426377952758
20
-4.1404600787401575
11
5.0356893700787397
21
-4.1516749212598425
0
LINE
8
BLACK
6
CONTINUOUS
10
5.0356893700787397
20
-4.1516749212598425
11
5.0414361811023625
21
-4.1636082677165351
0
LINE
8
BLACK
6
CONTINUOUS
10
5.0414361811023625
20
-4.1636082677165351
11
5.045810708661417
21
-4.1761099606299208
0
LINE
8
BLACK
6
CONTINUOUS
10
5.045810708661417
20
-4.1761099606299208
11
5.0487579921259842
21
-4.1890228740157482
0
LINE
8
BLACK
6
CONTINUOUS
10
5.0487579921259842
20
-4.1890228740157482
11
5.0502409448818897
21
-4.2021846062992125
0
LINE
8
BLACK
6
CONTINUOUS
10
5.0502409448818897
20
-4.2021846062992125
11
5.0502409448818897
21
-4.2154295669291342
0
LINE
8
BLACK
6
CONTINUOUS
10
5.0502409448818897
20
-4.2154295669291342
11
5.0487579921259842
21
-4.2285912992125985
0
LINE
8
BLACK
6
CONTINUOUS
10
5.0487579921259842
20
-4.2285912992125985
11
5.045810708661417
21
-4.241504212598425
0
LINE
8
BLACK
6
CONTINUOUS
10
5.045810708661417
20
-4.241504212598425
11
5.0414361811023625
21
-4.2540059055118107
0
LINE
8
BLACK
6
CONTINUOUS
10
5.0414361811023625
20
-4.2540059055118107
11
5.0356893700787397
21
-4.2659392519685042
0
LINE
8
BLACK
6
CONTINUOUS
10
5.0356893700787397
20
-4.2659392519685042
11
5.0286426377952758
21
-4.2771540944881892
0
LINE
8
BLACK
6
CONTINUOUS
10
5.0286426377952758
20
-4.2771540944881892
11
5.0203844881889763
21
-4.2875094488188976
0
LINE
8
BLACK
6
CONTINUOUS
10
5.0203844881889763
20
-4.2875094488188976
11
5.0110188976377952
21
-4.2968750393700788
0
LINE
8
BLACK
6
CONTINUOUS
10
5.0110188976377952
20
-4.2968750393700788
11
5.0006635433070867
21
-4.3051331889763782
0
LINE
8
BLACK
6
CONTINUOUS
10
5.0006635433070867
20
-4.3051331889763782
11
4.9894487007874018
21
-4.3121799212598422
0
LINE
8
BLACK
6
CONTINUOUS
10
4.9894487007874018
20
-4.3121799212598422
11
4.9775153543307082
21
-4.3179267322834649
0
LINE
8
BLACK
6
CONTINUOUS
10
4.9775153543307082
20
-4.3179267322834649
11
4.9650136614173226
21
-4.3223012598425194
0
LINE
8
BLACK
6
CONTINUOUS
10
4.9650136614173226
20
-4.3223012598425194
11
4.952100748031496
21
-4.3252485433070866
0
LINE
8
BLACK
6
CONTINUOUS
10
4.952100748031496
20
-4.3252485433070866
11
4.9389390157480317
21
-4.3267314960629921
0
LINE
8
BLACK
6
CONTINUOUS
10
4.9389390157480317
20
-4.3267314960629921
11
4.9256940551181101
21
-4.3267314960629921
0
LINE
8
BLACK
6
CONTINUOUS
10
4.9256940551181101
20
-4.3267314960629921
11
4.9125323228346458
21
-4.3252485433070866
0
LINE
8
BLACK
6
CONTINUOUS
10
4.9125323228346458
20
-4.3252485433070866
11
4.8996194094488184
21
-4.3223012598425194
0
LINE
8
BLACK
6
CONTINUOUS
10
4.8996194094488184
20
-4.3223012598425194
11
4.8871177165354327
21
-4.3179267322834649
0
LINE
8
BLACK
6
CONTINUOUS
10
4.8871177165354327
20
-4.3179267322834649
11
4.8751843700787401
21
-4.3121799212598422
0
LINE
8
BLACK
6
CONTINUOUS
10
4.8751843700787401
20
-4.3121799212598422
11
4.8639695275590551
21
-4.3051331889763782
0
LINE
8
BLACK
6
CONTINUOUS
10
4.8639695275590551
20
-4.3051331889763782
11
4.8536141732283467
21
-4.2968750393700788
0
LINE
8
BLACK
6
CONTINUOUS
10
4.8536141732283467
20
-4.2968750393700788
11
4.8442485826771655
21
-4.2875094488188976
0
LINE
8
BLACK
6
CONTINUOUS
10
4.8442485826771655
20
-4.2875094488188976
11
4.8359904330708661
21
-4.2771540944881892
0
LINE
8
BLACK
6
CONTINUOUS
10
4.8359904330708661
20
-4.2771540944881892
11
4.8289437007874012
21
-4.2659392519685042
0
LINE
8
BLACK
6
CONTINUOUS
10
4.8289437007874012
20
-4.2659392519685042
11
4.8231968897637794
21
-4.2540059055118107
0
LINE
8
BLACK
6
CONTINUOUS
10
4.8231968897637794
20
-4.2540059055118107
11
4.8188223622047239
21
-4.241504212598425
0
LINE
8
BLACK
6
CONTINUOUS
10
4.8188223622047239
20
-4.241504212598425
11
4.8158750787401576
21
-4.2285912992125985
0
LINE
8
BLACK
6
CONTINUOUS
10
4.8158750787401576
20
-4.2285912992125985
11
4.8143921259842521
21
-4.2154295669291342
0
LINE
8
BLACK
6
CONTINUOUS
10
4.8143921259842521
20
-4.2154295669291342
11
4.8143921259842521
21
-4.2021846062992125
0
LINE
8
BLACK
6
CONTINUOUS
10
4.8143921259842521
20
-4.2021846062992125
11
4.8158750787401576
21
-4.1890228740157482
0
LINE
8
BLACK
6
CONTINUOUS
10
4.8158750787401576
20
-4.1890228740157482
11
4.8188223622047239
21
-4.1761099606299208
0
LINE
8
BLACK
6
CONTINUOUS
10
4.8188223622047239
20
-4.1761099606299208
11
4.8231968897637794
21
-4.1636082677165351
0
LINE
8
BLACK
6
CONTINUOUS
10
4.8231968897637794
20
-4.1636082677165351
11
4.8289437007874012
21
-4.1516749212598425
0
LINE
8
BLACK
6
CONTINUOUS
10
4.8289437007874012
20
-4.1516749212598425
11
4.8359904330708661
21
-4.1404600787401575
0
LINE
8
BLACK
6
CONTINUOUS
10
4.8359904330708661
20
-4.1404600787401575
11
4.8442485826771655
21
-4.1301047244094491
0
LINE
8
BLACK
6
CONTINUOUS
10
4.8442485826771655
20
-4.1301047244094491
11
4.8536141732283467
21
-4.120739133858268
0
LINE
8
BLACK
6
CONTINUOUS
10
4.8536141732283467
20
-4.120739133858268
11
4.8639695275590551
21
-4.1124809842519685
0
LINE
8
BLACK
6
CONTINUOUS
10
4.8639695275590551
20
-4.1124809842519685
11
4.8751843700787401
21
-4.1054342519685036
0
LINE
8
BLACK
6
CONTINUOUS
10
4.8751843700787401
20
-4.1054342519685036
11
4.8871177165354327
21
-4.0996874409448818
0
LINE
8
BLACK
6
CONTINUOUS
10
4.8871177165354327
20
-4.0996874409448818
11
4.8996194094488184
21
-4.0953129133858264
0
LINE
8
BLACK
6
CONTINUOUS
10
4.8996194094488184
20
-4.0953129133858264
11
4.9125323228346458
21
-4.0923656299212601
0
LINE
8
BLACK
6
CONTINUOUS
10
4.9125323228346458
20
-4.0923656299212601
11
4.9256940551181101
21
-4.0908826771653546
0
LINE
8
BLACK
6
CONTINUOUS
10
4.9256940551181101
20
-4.0908826771653546
11
4.9389390157480317
21
-4.0908826771653546
0
LINE
8
BLACK
6
CONTINUOUS
10
4.9389390157480317
20
-4.0908826771653546
11
4.952100748031496
21
-4.0923656299212601
0
LINE
8
BLACK
6
CONTINUOUS
10
5.39578374015748
20
-4.1927928346456689
11
5.4031281102362207
21
-4.1951791732283468
0
LINE
8
BLACK
6
CONTINUOUS
10
5.4031281102362207
20
-4.1951791732283468
11
5.4100087795275593
21
-4.198685039370079
0
LINE
8
BLACK
6
CONTINUOUS
10
5.4100087795275593
20
-4.198685039370079
11
5.4162562992125984
21
-4.2032241338582672
0
LINE
8
BLACK
6
CONTINUOUS
10
5.4162562992125984
20
-4.2032241338582672
11
5.4217168110236216
21
-4.2086846456692912
0
LINE
8
BLACK
6
CONTINUOUS
10
5.4217168110236216
20
-4.2086846456692912
11
5.4262559055118107
21
-4.2149321653543304
0
LINE
8
BLACK
6
CONTINUOUS
10
5.4262559055118107
20
-4.2149321653543304
11
5.4297617716535429
21
-4.2218128346456689
0
LINE
8
BLACK
6
CONTINUOUS
10
5.4297617716535429
20
-4.2218128346456689
11
5.4321481102362199
21
-4.2291572047244097
0
LINE
8
BLACK
6
CONTINUOUS
10
5.4321481102362199
20
-4.2291572047244097
11
5.4333561811023623
21
-4.2367844881889765
0
LINE
8
BLACK
6
CONTINUOUS
10
5.4333561811023623
20
-4.2367844881889765
11
5.4333561811023623
21
-4.2445068503937007
0
LINE
8
BLACK
6
CONTINUOUS
10
5.4333561811023623
20
-4.2445068503937007
11
5.4321481102362199
21
-4.2521341338582674
0
LINE
8
BLACK
6
CONTINUOUS
10
5.4321481102362199
20
-4.2521341338582674
11
5.4297617716535429
21
-4.2594785039370082
0
LINE
8
BLACK
6
CONTINUOUS
10
5.4297617716535429
20
-4.2594785039370082
11
5.4262559055118107
21
-4.2663591732283468
0
LINE
8
BLACK
6
CONTINUOUS
10
5.4262559055118107
20
-4.2663591732283468
11
5.4217168110236216
21
-4.2726066929133859
0
LINE
8
BLACK
6
CONTINUOUS
10
5.4217168110236216
20
-4.2726066929133859
11
5.4162562992125984
21
-4.278067204724409
0
LINE
8
BLACK
6
CONTINUOUS
10
5.4162562992125984
20
-4.278067204724409
11
5.4100087795275593
21
-4.2826062992125982
0
LINE
8
BLACK
6
CONTINUOUS
10
5.4100087795275593
20
-4.2826062992125982
11
5.4031281102362207
21
-4.2861121653543304
0
LINE
8
BLACK
6
CONTINUOUS
10
5.4031281102362207
20
-4.2861121653543304
11
5.39578374015748
21
-4.2884985039370074
0
LINE
8
BLACK
6
CONTINUOUS
10
5.39578374015748
20
-4.2884985039370074
11
5.3881564566929132
21
-4.2897065748031498
0
LINE
8
BLACK
6
CONTINUOUS
10
5.3881564566929132
20
-4.2897065748031498
11
5.380434094488189
21
-4.2897065748031498
0
LINE
8
BLACK
6
CONTINUOUS
10
5.380434094488189
20
-4.2897065748031498
11
5.3728068110236222
21
-4.2884985039370074
0
LINE
8
BLACK
6
CONTINUOUS
10
5.3728068110236222
20
-4.2884985039370074
11
5.3654624409448815
21
-4.2861121653543304
0
LINE
8
BLACK
6
CONTINUOUS
10
5.3654624409448815
20
-4.2861121653543304
11
5.3585817716535429
21
-4.2826062992125982
0
LINE
8
BLACK
6
CONTINUOUS
10
5.3585817716535429
20
-4.2826062992125982
11
5.3523342519685038
21
-4.278067204724409
0
LINE
8
BLACK
6
CONTINUOUS
10
5.3523342519685038
20
-4.278067204724409
11
5.3468737401574806
21
-4.2726066929133859
0
LINE
8
BLACK
6
CONTINUOUS
10
5.3468737401574806
20
-4.2726066929133859
11
5.3423346456692915
21
-4.2663591732283468
0
LINE
8
BLACK
6
CONTINUOUS
10
5.3423346456692915
20
-4.2663591732283468
11
5.3388287795275593
21
-4.2594785039370082
0
LINE
8
BLACK
6
CONTINUOUS
10
5.3388287795275593
20
-4.2594785039370082
11
5.3364424409448814
21
-4.2521341338582674
0
LINE
8
BLACK
6
CONTINUOUS
10
5.3364424409448814
20
-4.2521341338582674
11
5.3352343700787399
21
-4.2445068503937007
0
LINE
8
BLACK
6
CONTINUOUS
10
5.3352343700787399
20
-4.2445068503937007
11
5.3352343700787399
21
-4.2367844881889765
0
LINE
8
BLACK
6
CONTINUOUS
10
5.3352343700787399
20
-4.2367844881889765
11
5.3364424409448814
21
-4.2291572047244097
0
LINE
8
BLACK
6
CONTINUOUS
10
5.3364424409448814
20
-4.2291572047244097
11
5.3388287795275593
21
-4.2218128346456689
0
LINE
8
BLACK
6
CONTINUOUS
10
5.3388287795275593
20
-4.2218128346456689
11
5.3423346456692915
21
-4.2149321653543304
0
LINE
8
BLACK
6
CONTINUOUS
10
5.3423346456692915
20
-4.2149321653543304
11
5.3468737401574806
21
-4.2086846456692912
0
LINE
8
BLACK
6
CONTINUOUS
10
5.3468737401574806
20
-4.2086846456692912
11
5.3523342519685038
21
-4.2032241338582672
0
LINE
8
BLACK
6
CONTINUOUS
10
5.3523342519685038
20
-4.2032241338582672
11
5.3585817716535429
21
-4.198685039370079
0
LINE
8
BLACK
6
CONTINUOUS
10
5.3585817716535429
20
-4.198685039370079
11
5.3654624409448815
21
-4.1951791732283468
0
LINE
8
BLACK
6
CONTINUOUS
10
5.3654624409448815
20
-4.1951791732283468
11
5.3728068110236222
21
-4.1927928346456689
0
LINE
8
BLACK
6
CONTINUOUS
10
5.3728068110236222
20
-4.1927928346456689
11
5.380434094488189
21
-4.1915847637795274
0
LINE
8
BLACK
6
CONTINUOUS
10
5.380434094488189
20
-4.1915847637795274
11
5.3881564566929132
21
-4.1915847637795274
0
LINE
8
BLACK
6
CONTINUOUS
10
5.3881564566929132
20
-4.1915847637795274
11
5.39578374015748
21
-4.1927928346456689
0
LINE
8
BLACK
6
CONTINUOUS
10
6.1416574803149606
20
-4.2361968503937009
11
6.0816574803149601
21
-4.2361968503937009
0
LINE
8
BLACK
6
CONTINUOUS
10
6.0816574803149601
20
-4.2361968503937009
11
6.0816574803149601
21
-4.1761968503937004
0
LINE
8
BLACK
6
CONTINUOUS
10
6.0816574803149601
20
-4.1761968503937004
11
6.1416574803149606
21
-4.1761968503937004
0
LINE
8
BLACK
6
CONTINUOUS
10
6.1416574803149606
20
-4.1761968503937004
11
6.1416574803149606
21
-4.2361968503937009
0
LINE
8
BLACK
6
CONTINUOUS
10
6.2416574803149603
20
-4.2361968503937009
11
6.1816574803149607
21
-4.2361968503937009
0
LINE
8
BLACK
6
CONTINUOUS
10
6.1816574803149607
20
-4.2361968503937009
11
6.1816574803149607
21
-4.1761968503937004
0
LINE
8
BLACK
6
CONTINUOUS
10
6.1816574803149607
20
-4.1761968503937004
11
6.2416574803149603
21
-4.1761968503937004
0
LINE
8
BLACK
6
CONTINUOUS
10
6.2416574803149603
20
-4.1761968503937004
11
6.2416574803149603
21
-4.2361968503937009
0
LINE
8
BLACK
6
CONTINUOUS
10
5.2967027952755901
20
-4.0889646062992124
11
5.3046347637795277
21
-4.0915418503937007
0
LINE
8
BLACK
6
CONTINUOUS
10
5.3046347637795277
20
-4.0915418503937007
11
5.3120658661417322
21
-4.095328188976378
0
LINE
8
BLACK
6
CONTINUOUS
10
5.3120658661417322
20
-4.095328188976378
11
5.3188131889763781
21
-4.1002303937007873
0
LINE
8
BLACK
6
CONTINUOUS
10
5.3188131889763781
20
-4.1002303937007873
11
5.3247105511811021
21
-4.1061277559055114
0
LINE
8
BLACK
6
CONTINUOUS
10
5.3247105511811021
20
-4.1061277559055114
11
5.3296127559055115
21
-4.1128750787401573
0
LINE
8
BLACK
6
CONTINUOUS
10
5.3296127559055115
20
-4.1128750787401573
11
5.3333990944881888
21
-4.1203061811023618
0
LINE
8
BLACK
6
CONTINUOUS
10
5.3333990944881888
20
-4.1203061811023618
11
5.3359763385826771
21
-4.1282381496062994
0
LINE
8
BLACK
6
CONTINUOUS
10
5.3359763385826771
20
-4.1282381496062994
11
5.3372810236220474
21
-4.1364755905511812
0
LINE
8
BLACK
6
CONTINUOUS
10
5.3372810236220474
20
-4.1364755905511812
11
5.3372810236220474
21
-4.1448157480314958
0
LINE
8
BLACK
6
CONTINUOUS
10
5.3372810236220474
20
-4.1448157480314958
11
5.3359763385826771
21
-4.1530531889763775
0
LINE
8
BLACK
6
CONTINUOUS
10
5.3359763385826771
20
-4.1530531889763775
11
5.3333990944881888
21
-4.1609851574803152
0
LINE
8
BLACK
6
CONTINUOUS
10
5.3333990944881888
20
-4.1609851574803152
11
5.3296127559055115
21
-4.1684162598425196
0
LINE
8
BLACK
6
CONTINUOUS
10
5.3296127559055115
20
-4.1684162598425196
11
5.3247105511811021
21
-4.1751635826771656
0
LINE
8
BLACK
6
CONTINUOUS
10
5.3247105511811021
20
-4.1751635826771656
11
5.3188131889763781
21
-4.1810609448818896
0
LINE
8
BLACK
6
CONTINUOUS
10
5.3188131889763781
20
-4.1810609448818896
11
5.3120658661417322
21
-4.185963149606299
0
LINE
8
BLACK
6
CONTINUOUS
10
5.3120658661417322
20
-4.185963149606299
11
5.3046347637795277
21
-4.1897494881889763
0
LINE
8
BLACK
6
CONTINUOUS
10
5.3046347637795277
20
-4.1897494881889763
11
5.2967027952755901
21
-4.1923267322834645
0
LINE
8
BLACK
6
CONTINUOUS
10
5.2967027952755901
20
-4.1923267322834645
11
5.2884653543307083
21
-4.1936314173228348
0
LINE
8
BLACK
6
CONTINUOUS
10
5.2884653543307083
20
-4.1936314173228348
11
5.2801251968503937
21
-4.1936314173228348
0
LINE
8
BLACK
6
CONTINUOUS
10
5.2801251968503937
20
-4.1936314173228348
11
5.271887755905512
21
-4.1923267322834645
0
LINE
8
BLACK
6
CONTINUOUS
10
5.271887755905512
20
-4.1923267322834645
11
5.2639557874015743
21
-4.1897494881889763
0
LINE
8
BLACK
6
CONTINUOUS
10
5.2639557874015743
20
-4.1897494881889763
11
5.2565246850393699
21
-4.185963149606299
0
LINE
8
BLACK
6
CONTINUOUS
10
5.2565246850393699
20
-4.185963149606299
11
5.2497773622047239
21
-4.1810609448818896
0
LINE
8
BLACK
6
CONTINUOUS
10
5.2497773622047239
20
-4.1810609448818896
11
5.2438799999999999
21
-4.1751635826771656
0
LINE
8
BLACK
6
CONTINUOUS
10
5.2438799999999999
20
-4.1751635826771656
11
5.2389777952755905
21
-4.1684162598425196
0
LINE
8
BLACK
6
CONTINUOUS
10
5.2389777952755905
20
-4.1684162598425196
11
5.2351914566929132
21
-4.1609851574803152
0
LINE
8
BLACK
6
CONTINUOUS
10
5.2351914566929132
20
-4.1609851574803152
11
5.232614212598425
21
-4.1530531889763775
0
LINE
8
BLACK
6
CONTINUOUS
10
5.232614212598425
20
-4.1530531889763775
11
5.2313095275590547
21
-4.1448157480314958
0
LINE
8
BLACK
6
CONTINUOUS
10
5.2313095275590547
20
-4.1448157480314958
11
5.2313095275590547
21
-4.1364755905511812
0
LINE
8
BLACK
6
CONTINUOUS
10
5.2313095275590547
20
-4.1364755905511812
11
5.232614212598425
21
-4.1282381496062994
0
LINE
8
BLACK
6
CONTINUOUS
10
5.232614212598425
20
-4.1282381496062994
11
5.2351914566929132
21
-4.1203061811023618
0
LINE
8
BLACK
6
CONTINUOUS
10
5.2351914566929132
20
-4.1203061811023618
11
5.2389777952755905
21
-4.1128750787401573
0
LINE
8
BLACK
6
CONTINUOUS
10
5.2389777952755905
20
-4.1128750787401573
11
5.2438799999999999
21
-4.1061277559055114
0
LINE
8
BLACK
6
CONTINUOUS
10
5.2438799999999999
20
-4.1061277559055114
11
5.2497773622047239
21
-4.1002303937007873
0
LINE
8
BLACK
6
CONTINUOUS
10
5.2497773622047239
20
-4.1002303937007873
11
5.2565246850393699
21
-4.095328188976378
0
LINE
8
BLACK
6
CONTINUOUS
10
5.2565246850393699
20
-4.095328188976378
11
5.2639557874015743
21
-4.0915418503937007
0
LINE
8
BLACK
6
CONTINUOUS
10
5.2639557874015743
20
-4.0915418503937007
11
5.271887755905512
21
-4.0889646062992124
0
LINE
8
BLACK
6
CONTINUOUS
10
5.271887755905512
20
-4.0889646062992124
11
5.2801251968503937
21
-4.0876599212598421
0
LINE
8
BLACK
6
CONTINUOUS
10
5.2801251968503937
20
-4.0876599212598421
11
5.2884653543307083
21
-4.0876599212598421
0
LINE
8
BLACK
6
CONTINUOUS
10
5.2884653543307083
20
-4.0876599212598421
11
5.2967027952755901
21
-4.0889646062992124
0
LINE
8
BLACK
6
CONTINUOUS
10
5.4967027952755902
20
-4.0889646062992124
11
5.5046347637795279
21
-4.0915418503937007
0
LINE
8
BLACK
6
CONTINUOUS
10
5.5046347637795279
20
-4.0915418503937007
11
5.5120658661417323
21
-4.095328188976378
0
LINE
8
BLACK
6
CONTINUOUS
10
5.5120658661417323
20
-4.095328188976378
11
5.5188131889763774
21
-4.1002303937007873
0
LINE
8
BLACK
6
CONTINUOUS
10
5.5188131889763774
20
-4.1002303937007873
11
5.5247105511811023
21
-4.1061277559055114
0
LINE
8
BLACK
6
CONTINUOUS
10
5.5247105511811023
20
-4.1061277559055114
11
5.5296127559055117
21
-4.1128750787401573
0
LINE
8
BLACK
6
CONTINUOUS
10
5.5296127559055117
20
-4.1128750787401573
11
5.533399094488189
21
-4.1203061811023618
0
LINE
8
BLACK
6
CONTINUOUS
10
5.533399094488189
20
-4.1203061811023618
11
5.5359763385826772
21
-4.1282381496062994
0
LINE
8
BLACK
6
CONTINUOUS
10
5.5359763385826772
20
-4.1282381496062994
11
5.5372810236220475
21
-4.1364755905511812
0
LINE
8
BLACK
6
CONTINUOUS
10
5.5372810236220475
20
-4.1364755905511812
11
5.5372810236220475
21
-4.1448157480314958
0
LINE
8
BLACK
6
CONTINUOUS
10
5.5372810236220475
20
-4.1448157480314958
11
5.5359763385826772
21
-4.1530531889763775
0
LINE
8
BLACK
6
CONTINUOUS
10
5.5359763385826772
20
-4.1530531889763775
11
5.533399094488189
21
-4.1609851574803152
0
LINE
8
BLACK
6
CONTINUOUS
10
5.533399094488189
20
-4.1609851574803152
11
5.5296127559055117
21
-4.1684162598425196
0
LINE
8
BLACK
6
CONTINUOUS
10
5.5296127559055117
20
-4.1684162598425196
11
5.5247105511811023
21
-4.1751635826771656
0
LINE
8
BLACK
6
CONTINUOUS
10
5.5247105511811023
20
-4.1751635826771656
11
5.5188131889763774
21
-4.1810609448818896
0
LINE
8
BLACK
6
CONTINUOUS
10
5.5188131889763774
20
-4.1810609448818896
11
5.5120658661417323
21
-4.185963149606299
0
LINE
8
BLACK
6
CONTINUOUS
10
5.5120658661417323
20
-4.185963149606299
11
5.5046347637795279
21
-4.1897494881889763
0
LINE
8
BLACK
6
CONTINUOUS
10
5.5046347637795279
20
-4.1897494881889763
11
5.4967027952755902
21
-4.1923267322834645
0
LINE
8
BLACK
6
CONTINUOUS
10
5.4967027952755902
20
-4.1923267322834645
11
5.4884653543307085
21
-4.1936314173228348
0
LINE
8
BLACK
6
CONTINUOUS
10
5.4884653543307085
20
-4.1936314173228348
11
5.4801251968503939
21
-4.1936314173228348
0
LINE
8
BLACK
6
CONTINUOUS
10
5.4801251968503939
20
-4.1936314173228348
11
5.4718877559055121
21
-4.1923267322834645
0
LINE
8
BLACK
6
CONTINUOUS
10
5.4718877559055121
20
-4.1923267322834645
11
5.4639557874015745
21
-4.1897494881889763
0
LINE
8
BLACK
6
CONTINUOUS
10
5.4639557874015745
20
-4.1897494881889763
11
5.45652468503937
21
-4.185963149606299
0
LINE
8
BLACK
6
CONTINUOUS
10
5.45652468503937
20
-4.185963149606299
11
5.4497773622047241
21
-4.1810609448818896
0
LINE
8
BLACK
6
CONTINUOUS
10
5.4497773622047241
20
-4.1810609448818896
11
5.4438800000000001
21
-4.1751635826771656
0
LINE
8
BLACK
6
CONTINUOUS
10
5.4438800000000001
20
-4.1751635826771656
11
5.4389777952755907
21
-4.1684162598425196
0
LINE
8
BLACK
6
CONTINUOUS
10
5.4389777952755907
20
-4.1684162598425196
11
5.4351914566929134
21
-4.1609851574803152
0
LINE
8
BLACK
6
CONTINUOUS
10
5.4351914566929134
20
-4.1609851574803152
11
5.4326142125984251
21
-4.1530531889763775
0
LINE
8
BLACK
6
CONTINUOUS
10
5.4326142125984251
20
-4.1530531889763775
11
5.4313095275590548
21
-4.1448157480314958
0
LINE
8
BLACK
6
CONTINUOUS
10
5.4313095275590548
20
-4.1448157480314958
11
5.4313095275590548
21
-4.1364755905511812
0
LINE
8
BLACK
6
CONTINUOUS
10
5.4313095275590548
20
-4.1364755905511812
11
5.4326142125984251
21
-4.1282381496062994
0
LINE
8
BLACK
6
CONTINUOUS
10
5.4326142125984251
20
-4.1282381496062994
11
5.4351914566929134
21
-4.1203061811023618
0
LINE
8
BLACK
6
CONTINUOUS
10
5.4351914566929134
20
-4.1203061811023618
11
5.4389777952755907
21
-4.1128750787401573
0
LINE
8
BLACK
6
CONTINUOUS
10
5.4389777952755907
20
-4.1128750787401573
11
5.4438800000000001
21
-4.1061277559055114
0
LINE
8
BLACK
6
CONTINUOUS
10
5.4438800000000001
20
-4.1061277559055114
11
5.4497773622047241
21
-4.1002303937007873
0
LINE
8
BLACK
6
CONTINUOUS
10
5.4497773622047241
20
-4.1002303937007873
11
5.45652468503937
21
-4.095328188976378
0
LINE
8
BLACK
6
CONTINUOUS
10
5.45652468503937
20
-4.095328188976378
11
5.4639557874015745
21
-4.0915418503937007
0
LINE
8
BLACK
6
CONTINUOUS
10
5.4639557874015745
20
-4.0915418503937007
11
5.4718877559055121
21
-4.0889646062992124
0
LINE
8
BLACK
6
CONTINUOUS
10
5.4718877559055121
20
-4.0889646062992124
11
5.4801251968503939
21
-4.0876599212598421
0
LINE
8
BLACK
6
CONTINUOUS
10
5.4801251968503939
20
-4.0876599212598421
11
5.4884653543307085
21
-4.0876599212598421
0
LINE
8
BLACK
6
CONTINUOUS
10
5.4884653543307085
20
-4.0876599212598421
11
5.4967027952755902
21
-4.0889646062992124
0
LINE
8
BLACK
6
CONTINUOUS
10
6.1416574803149606
20
-4.1361968503937003
11
6.0816574803149601
21
-4.1361968503937003
0
LINE
8
BLACK
6
CONTINUOUS
10
6.0816574803149601
20
-4.1361968503937003
11
6.0816574803149601
21
-4.0761968503937007
0
LINE
8
BLACK
6
CONTINUOUS
10
6.0816574803149601
20
-4.0761968503937007
11
6.1416574803149606
21
-4.0761968503937007
0
LINE
8
BLACK
6
CONTINUOUS
10
6.1416574803149606
20
-4.0761968503937007
11
6.1416574803149606
21
-4.1361968503937003
0
LINE
8
BLACK
6
CONTINUOUS
10
6.2416574803149603
20
-4.1361968503937003
11
6.1816574803149607
21
-4.1361968503937003
0
LINE
8
BLACK
6
CONTINUOUS
10
6.1816574803149607
20
-4.1361968503937003
11
6.1816574803149607
21
-4.0761968503937007
0
LINE
8
BLACK
6
CONTINUOUS
10
6.1816574803149607
20
-4.0761968503937007
11
6.2416574803149603
21
-4.0761968503937007
0
LINE
8
BLACK
6
CONTINUOUS
10
6.2416574803149603
20
-4.0761968503937007
11
6.2416574803149603
21
-4.1361968503937003
0
LINE
8
BLACK
6
CONTINUOUS
10
4.952100748031496
20
-3.8128585433070867
11
4.9650136614173226
21
-3.8158058267716535
0
LINE
8
BLACK
6
CONTINUOUS
10
4.9650136614173226
20
-3.8158058267716535
11
4.9775153543307082
21
-3.8201803543307085
0
LINE
8
BLACK
6
CONTINUOUS
10
4.9775153543307082
20
-3.8201803543307085
11
4.9894487007874018
21
-3.8259271653543308
0
LINE
8
BLACK
6
CONTINUOUS
10
4.9894487007874018
20
-3.8259271653543308
11
5.0006635433070867
21
-3.8329738976377952
0
LINE
8
BLACK
6
CONTINUOUS
10
5.0006635433070867
20
-3.8329738976377952
11
5.0110188976377952
21
-3.8412320472440946
0
LINE
8
BLACK
6
CONTINUOUS
10
5.0110188976377952
20
-3.8412320472440946
11
5.0203844881889763
21
-3.8505976377952753
0
LINE
8
BLACK
6
CONTINUOUS
10
5.0203844881889763
20
-3.8505976377952753
11
5.0286426377952758
21
-3.8609529921259842
0
LINE
8
BLACK
6
CONTINUOUS
10
5.0286426377952758
20
-3.8609529921259842
11
5.0356893700787397
21
-3.8721678346456692
0
LINE
8
BLACK
6
CONTINUOUS
10
5.0356893700787397
20
-3.8721678346456692
11
5.0414361811023625
21
-3.8841011811023622
0
LINE
8
BLACK
6
CONTINUOUS
10
5.0414361811023625
20
-3.8841011811023622
11
5.045810708661417
21
-3.8966028740157479
0
LINE
8
BLACK
6
CONTINUOUS
10
5.045810708661417
20
-3.8966028740157479
11
5.0487579921259842
21
-3.9095157874015749
0
LINE
8
BLACK
6
CONTINUOUS
10
5.0487579921259842
20
-3.9095157874015749
11
5.0502409448818897
21
-3.9226775196850392
0
LINE
8
BLACK
6
CONTINUOUS
10
5.0502409448818897
20
-3.9226775196850392
11
5.0502409448818897
21
-3.9359224803149604
0
LINE
8
BLACK
6
CONTINUOUS
10
5.0502409448818897
20
-3.9359224803149604
11
5.0487579921259842
21
-3.9490842125984251
0
LINE
8
BLACK
6
CONTINUOUS
10
5.0487579921259842
20
-3.9490842125984251
11
5.045810708661417
21
-3.9619971259842517
0
LINE
8
BLACK
6
CONTINUOUS
10
5.045810708661417
20
-3.9619971259842517
11
5.0414361811023625
21
-3.9744988188976378
0
LINE
8
BLACK
6
CONTINUOUS
10
5.0414361811023625
20
-3.9744988188976378
11
5.0356893700787397
21
-3.9864321653543304
0
LINE
8
BLACK
6
CONTINUOUS
10
5.0356893700787397
20
-3.9864321653543304
11
5.0286426377952758
21
-3.9976470078740158
0
LINE
8
BLACK
6
CONTINUOUS
10
5.0286426377952758
20
-3.9976470078740158
11
5.0203844881889763
21
-4.0080023622047243
0
LINE
8
BLACK
6
CONTINUOUS
10
5.0203844881889763
20
-4.0080023622047243
11
5.0110188976377952
21
-4.0173679527559054
0
LINE
8
BLACK
6
CONTINUOUS
10
5.0110188976377952
20
-4.0173679527559054
11
5.0006635433070867
21
-4.0256261023622049
0
LINE
8
BLACK
6
CONTINUOUS
10
5.0006635433070867
20
-4.0256261023622049
11
4.9894487007874018
21
-4.0326728346456688
0
LINE
8
BLACK
6
CONTINUOUS
10
4.9894487007874018
20
-4.0326728346456688
11
4.9775153543307082
21
-4.0384196456692916
0
LINE
8
BLACK
6
CONTINUOUS
10
4.9775153543307082
20
-4.0384196456692916
11
4.9650136614173226
21
-4.0427941732283461
0
LINE
8
BLACK
6
CONTINUOUS
10
4.9650136614173226
20
-4.0427941732283461
11
4.952100748031496
21
-4.0457414566929133
0
LINE
8
BLACK
6
CONTINUOUS
10
4.952100748031496
20
-4.0457414566929133
11
4.9389390157480317
21
-4.0472244094488188
0
LINE
8
BLACK
6
CONTINUOUS
10
4.9389390157480317
20
-4.0472244094488188
11
4.9256940551181101
21
-4.0472244094488188
0
LINE
8
BLACK
6
CONTINUOUS
10
4.9256940551181101
20
-4.0472244094488188
11
4.9125323228346458
21
-4.0457414566929133
0
LINE
8
BLACK
6
CONTINUOUS
10
4.9125323228346458
20
-4.0457414566929133
11
4.8996194094488184
21
-4.0427941732283461
0
LINE
8
BLACK
6
CONTINUOUS
10
4.8996194094488184
20
-4.0427941732283461
11
4.8871177165354327
21
-4.0384196456692916
0
LINE
8
BLACK
6
CONTINUOUS
10
4.8871177165354327
20
-4.0384196456692916
11
4.8751843700787401
21
-4.0326728346456688
0
LINE
8
BLACK
6
CONTINUOUS
10
4.8751843700787401
20
-4.0326728346456688
11
4.8639695275590551
21
-4.0256261023622049
0
LINE
8
BLACK
6
CONTINUOUS
10
4.8639695275590551
20
-4.0256261023622049
11
4.8536141732283467
21
-4.0173679527559054
0
LINE
8
BLACK
6
CONTINUOUS
10
4.8536141732283467
20
-4.0173679527559054
11
4.8442485826771655
21
-4.0080023622047243
0
LINE
8
BLACK
6
CONTINUOUS
10
4.8442485826771655
20
-4.0080023622047243
11
4.8359904330708661
21
-3.9976470078740158
0
LINE
8
BLACK
6
CONTINUOUS
10
4.8359904330708661
20
-3.9976470078740158
11
4.8289437007874012
21
-3.9864321653543304
0
LINE
8
BLACK
6
CONTINUOUS
10
4.8289437007874012
20
-3.9864321653543304
11
4.8231968897637794
21
-3.9744988188976378
0
LINE
8
BLACK
6
CONTINUOUS
10
4.8231968897637794
20
-3.9744988188976378
11
4.8188223622047239
21
-3.9619971259842517
0
LINE
8
BLACK
6
CONTINUOUS
10
4.8188223622047239
20
-3.9619971259842517
11
4.8158750787401576
21
-3.9490842125984251
0
LINE
8
BLACK
6
CONTINUOUS
10
4.8158750787401576
20
-3.9490842125984251
11
4.8143921259842521
21
-3.9359224803149604
0
LINE
8
BLACK
6
CONTINUOUS
10
4.8143921259842521
20
-3.9359224803149604
11
4.8143921259842521
21
-3.9226775196850392
0
LINE
8
BLACK
6
CONTINUOUS
10
4.8143921259842521
20
-3.9226775196850392
11
4.8158750787401576
21
-3.9095157874015749
0
LINE
8
BLACK
6
CONTINUOUS
10
4.8158750787401576
20
-3.9095157874015749
11
4.8188223622047239
21
-3.8966028740157479
0
LINE
8
BLACK
6
CONTINUOUS
10
4.8188223622047239
20
-3.8966028740157479
11
4.8231968897637794
21
-3.8841011811023622
0
LINE
8
BLACK
6
CONTINUOUS
10
4.8231968897637794
20
-3.8841011811023622
11
4.8289437007874012
21
-3.8721678346456692
0
LINE
8
BLACK
6
CONTINUOUS
10
4.8289437007874012
20
-3.8721678346456692
11
4.8359904330708661
21
-3.8609529921259842
0
LINE
8
BLACK
6
CONTINUOUS
10
4.8359904330708661
20
-3.8609529921259842
11
4.8442485826771655
21
-3.8505976377952753
0
LINE
8
BLACK
6
CONTINUOUS
10
4.8442485826771655
20
-3.8505976377952753
11
4.8536141732283467
21
-3.8412320472440946
0
LINE
8
BLACK
6
CONTINUOUS
10
4.8536141732283467
20
-3.8412320472440946
11
4.8639695275590551
21
-3.8329738976377952
0
LINE
8
BLACK
6
CONTINUOUS
10
4.8639695275590551
20
-3.8329738976377952
11
4.8751843700787401
21
-3.8259271653543308
0
LINE
8
BLACK
6
CONTINUOUS
10
4.8751843700787401
20
-3.8259271653543308
11
4.8871177165354327
21
-3.8201803543307085
0
LINE
8
BLACK
6
CONTINUOUS
10
4.8871177165354327
20
-3.8201803543307085
11
4.8996194094488184
21
-3.8158058267716535
0
LINE
8
BLACK
6
CONTINUOUS
10
4.8996194094488184
20
-3.8158058267716535
11
4.9125323228346458
21
-3.8128585433070867
0
LINE
8
BLACK
6
CONTINUOUS
10
4.9125323228346458
20
-3.8128585433070867
11
4.9256940551181101
21
-3.8113755905511808
0
LINE
8
BLACK
6
CONTINUOUS
10
4.9256940551181101
20
-3.8113755905511808
11
4.9389390157480317
21
-3.8113755905511808
0
LINE
8
BLACK
6
CONTINUOUS
10
4.9389390157480317
20
-3.8113755905511808
11
4.952100748031496
21
-3.8128585433070867
0
CIRCLE
8
BLACK
10
4.9323165354330705
20
-3.9293
40
0.0068897637795276
0
CIRCLE
8
BLACK
10
6.4561456692913382
20
-4.5349370078740154
40
0.0068897637795276
0
CIRCLE
8
BLACK
10
6.5561456692913387
20
-4.5349370078740154
40
0.0068897637795276
0
CIRCLE
8
BLACK
10
6.4561456692913382
20
-4.634937007874016
40
0.0068897637795276
0
CIRCLE
8
BLACK
10
6.5561456692913387
20
-4.634937007874016
40
0.0068897637795276
0
CIRCLE
8
BLACK
10
6.4561456692913382
20
-4.7349370078740156
40
0.0068897637795276
0
CIRCLE
8
BLACK
10
6.5561456692913387
20
-4.7349370078740156
40
0.0068897637795276
0
CIRCLE
8
BLACK
10
6.4561456692913382
20
-4.8349370078740153
40
0.0068897637795276
0
CIRCLE
8
BLACK
10
6.5561456692913387
20
-4.8349370078740153
40
0.0068897637795276
0
CIRCLE
8
BLACK
10
4.9323165354330705
20
-4.7678212598425196
40
0.0068897637795276
0
CIRCLE
8
BLACK
10
5.8663818897637796
20
-4.3349370078740153
40
0.0068897637795276
0
CIRCLE
8
BLACK
10
5.9663818897637793
20
-4.3349370078740153
40
0.0068897637795276
0
CIRCLE
8
BLACK
10
5.8663818897637796
20
-4.4349370078740158
40
0.0068897637795276
0
CIRCLE
8
BLACK
10
5.9663818897637793
20
-4.4349370078740158
40
0.0068897637795276
0
CIRCLE
8
BLACK
10
5.8663818897637796
20
-4.5349370078740154
40
0.0068897637795276
0
CIRCLE
8
BLACK
10
5.9663818897637793
20
-4.5349370078740154
40
0.0068897637795276
0
CIRCLE
8
BLACK
10
5.8663818897637796
20
-4.634937007874016
40
0.0068897637795276
0
CIRCLE
8
BLACK
10
5.9663818897637793
20
-4.634937007874016
40
0.0068897637795276
0
CIRCLE
8
BLACK
10
5.8663818897637796
20
-4.7349370078740156
40
0.0068897637795276
0
CIRCLE
8
BLACK
10
5.9663818897637793
20
-4.7349370078740156
40
0.0068897637795276
0
CIRCLE
8
BLACK
10
5.8663818897637796
20
-4.8349370078740153
40
0.0068897637795276
0
CIRCLE
8
BLACK
10
5.9663818897637793
20
-4.8349370078740153
40
0.0068897637795276
0
CIRCLE
8
BLACK
10
4.9323165354330705
20
-4.2088070866141729
40
0.0068897637795276
0
CIRCLE
8
BLACK
10
4.9323165354330705
20
-4.4883141732283462
40
0.0068897637795276
0
CIRCLE
8
BLACK
10
5.3842952755905511
20
-4.2406456692913386
40
0.0068897637795276
0
CIRCLE
8
BLACK
10
5.2842952755905515
20
-4.1406456692913389
40
0.0068897637795276
0
CIRCLE
8
BLACK
10
5.2842952755905515
20
-4.3406456692913382
40
0.0068897637795276
0
CIRCLE
8
BLACK
10
5.4842952755905507
20
-4.1406456692913389
40
0.0068897637795276
0
CIRCLE
8
BLACK
10
5.4842952755905507
20
-4.3406456692913382
40
0.0068897637795276
0
CIRCLE
8
BLACK
10
6.1116574803149604
20
-4.3061968503937003
40
0.0068897637795276
0
CIRCLE
8
BLACK
10
6.2116574803149609
20
-4.3061968503937003
40
0.0068897637795276
0
CIRCLE
8
BLACK
10
6.1116574803149604
20
-4.2061968503937006
40
0.0068897637795276
0
CIRCLE
8
BLACK
10
6.2116574803149609
20
-4.2061968503937006
40
0.0068897637795276
0
CIRCLE
8
BLACK
10
6.1116574803149604
20
-4.106196850393701
40
0.0068897637795276
0
CIRCLE
8
BLACK
10
6.2116574803149609
20
-4.106196850393701
40
0.0068897637795276
0
CIRCLE
8
WHITE
10
4.9323165354330705
20
-3.9293
40
0.0068897637795276
0
CIRCLE
8
WHITE
10
6.4561456692913382
20
-4.5349370078740154
40
0.0068897637795276
0
CIRCLE
8
WHITE
10
6.5561456692913387
20
-4.5349370078740154
40
0.0068897637795276
0
CIRCLE
8
WHITE
10
6.4561456692913382
20
-4.634937007874016
40
0.0068897637795276
0
CIRCLE
8
WHITE
10
6.5561456692913387
20
-4.634937007874016
40
0.0068897637795276
0
CIRCLE
8
WHITE
10
6.4561456692913382
20
-4.7349370078740156
40
0.0068897637795276
0
CIRCLE
8
WHITE
10
6.5561456692913387
20
-4.7349370078740156
40
0.0068897637795276
0
CIRCLE
8
WHITE
10
6.4561456692913382
20
-4.8349370078740153
40
0.0068897637795276
0
CIRCLE
8
WHITE
10
6.5561456692913387
20
-4.8349370078740153
40
0.0068897637795276
0
CIRCLE
8
WHITE
10
4.9323165354330705
20
-4.7678212598425196
40
0.0068897637795276
0
CIRCLE
8
WHITE
10
5.8663818897637796
20
-4.3349370078740153
40
0.0068897637795276
0
CIRCLE
8
WHITE
10
5.9663818897637793
20
-4.3349370078740153
40
0.0068897637795276
0
CIRCLE
8
WHITE
10
5.8663818897637796
20
-4.4349370078740158
40
0.0068897637795276
0
CIRCLE
8
WHITE
10
5.9663818897637793
20
-4.4349370078740158
40
0.0068897637795276
0
CIRCLE
8
WHITE
10
5.8663818897637796
20
-4.5349370078740154
40
0.0068897637795276
0
CIRCLE
8
WHITE
10
5.9663818897637793
20
-4.5349370078740154
40
0.0068897637795276
0
CIRCLE
8
WHITE
10
5.8663818897637796
20
-4.634937007874016
40
0.0068897637795276
0
CIRCLE
8
WHITE
10
5.9663818897637793
20
-4.634937007874016
40
0.0068897637795276
0
CIRCLE
8
WHITE
10
5.8663818897637796
20
-4.7349370078740156
40
0.0068897637795276
0
CIRCLE
8
WHITE
10
5.9663818897637793
20
-4.7349370078740156
40
0.0068897637795276
0
CIRCLE
8
WHITE
10
5.8663818897637796
20
-4.8349370078740153
40
0.0068897637795276
0
CIRCLE
8
WHITE
10
5.9663818897637793
20
-4.8349370078740153
40
0.0068897637795276
0
CIRCLE
8
WHITE
10
4.9323165354330705
20
-4.2088070866141729
40
0.0068897637795276
0
CIRCLE
8
WHITE
10
4.9323165354330705
20
-4.4883141732283462
40
0.0068897637795276
0
CIRCLE
8
WHITE
10
5.3842952755905511
20
-4.2406456692913386
40
0.0068897637795276
0
CIRCLE
8
WHITE
10
5.2842952755905515
20
-4.1406456692913389
40
0.0068897637795276
0
CIRCLE
8
WHITE
10
5.2842952755905515
20
-4.3406456692913382
40
0.0068897637795276
0
CIRCLE
8
WHITE
10
5.4842952755905507
20
-4.1406456692913389
40
0.0068897637795276
0
CIRCLE
8
WHITE
10
5.4842952755905507
20
-4.3406456692913382
40
0.0068897637795276
0
CIRCLE
8
WHITE
10
6.1116574803149604
20
-4.3061968503937003
40
0.0068897637795276
0
CIRCLE
8
WHITE
10
6.2116574803149609
20
-4.3061968503937003
40
0.0068897637795276
0
CIRCLE
8
WHITE
10
6.1116574803149604
20
-4.2061968503937006
40
0.0068897637795276
0
CIRCLE
8
WHITE
10
6.2116574803149609
20
-4.2061968503937006
40
0.0068897637795276
0
CIRCLE
8
WHITE
10
6.1116574803149604
20
-4.106196850393701
40
0.0068897637795276
0
CIRCLE
8
WHITE
10
6.2116574803149609
20
-4.106196850393701
40
0.0068897637795276
  0
ENDSEC
  0
EOF
