  0
SECTION
  2
HEADER
  9
$ANGBASE
  50
0.0
  9
$ANGDIR
  70
1
  9
$MEASUREMENT
  70
0
  0
ENDSEC
  0
SECTION
  2
TABLES
  0
TABLE
  2
LTYPE
  70
4
  0
LTYPE
  5
40F
  2
CONTINUOUS
  70
0
  3
Solid line
  72
65
  73
0
  40
0.0
  0
LTYPE
  5
410
  2
DASHDOT
 70
0
  3
Dash Dot ____ _ ____ _
 72
65
 73
4
 40
2.0
 49
1.25
 49
-0.25
 49
0.25
 49
-0.25
  0
LTYPE
  5
411
  2
DASHED
 70
0
  3
Dashed __ __ __ __ __
 72
65
 73
2
 40
0.75
 49
0.5
 49
-0.25
  0
LTYPE
  5
43B
  2
DOTTED
 70
0
  3
Dotted .  .  .  .
 72
65
 73
2
 40
0.2
 49
0.0
 49
-0.2
  0
ENDTAB
  0
TABLE
  2
STYLE
  70
4
  0
STYLE
  2
KICAD
  70
0
  40
0
  41
1
  42
1
  50
0
  71
0
  3
isocp.shx
  0
STYLE
  2
KICADB
  70
0
  40
0
  41
1
  42
1
  50
0
  71
0
  3
isocp.shx
  0
STYLE
  2
KICADI
  70
0
  40
0
  41
1
  42
1
  50
15
  71
0
  3
isocp.shx
  0
STYLE
  2
KICADBI
  70
0
  40
0
  41
1
  42
1
  50
15
  71
0
  3
isocp.shx
  0
ENDTAB
  0
TABLE
  2
LAYER
  70
1
  0
LAYER
  2
BLACK
  70
0
  62
7
  6
CONTINUOUS
  0
ENDTAB
  0
ENDSEC
  0
SECTION
  2
ENTITIES
0
LINE
8
BLACK
6
CONTINUOUS
10
5.2092782283464567
20
-4.828515866141732
11
5.2098109055118105
21
-4.8290485433070867
0
LINE
8
BLACK
6
CONTINUOUS
10
5.2098109055118105
20
-4.8290485433070867
11
5.2098858267716537
21
-4.8294251968503934
0
LINE
8
BLACK
6
CONTINUOUS
10
5.2098858267716537
20
-4.8294251968503934
11
5.2098858267716537
21
-4.8869055118110234
0
LINE
8
BLACK
6
CONTINUOUS
10
5.2098858267716537
20
-4.8869055118110234
11
5.2098109055118105
21
-4.887282165354331
0
LINE
8
BLACK
6
CONTINUOUS
10
5.2098109055118105
20
-4.887282165354331
11
5.2092782283464567
21
-4.8878148425196848
0
LINE
8
BLACK
6
CONTINUOUS
10
5.2092782283464567
20
-4.8878148425196848
11
5.2089015748031491
21
-4.8878897637795271
0
LINE
8
BLACK
6
CONTINUOUS
10
5.2089015748031491
20
-4.8878897637795271
11
5.092366141732283
21
-4.8878897637795271
0
LINE
8
BLACK
6
CONTINUOUS
10
5.092366141732283
20
-4.8878897637795271
11
5.0919894881889762
21
-4.8878148425196848
0
LINE
8
BLACK
6
CONTINUOUS
10
5.0919894881889762
20
-4.8878148425196848
11
5.0914568110236216
21
-4.887282165354331
0
LINE
8
BLACK
6
CONTINUOUS
10
5.0914568110236216
20
-4.887282165354331
11
5.0913818897637793
21
-4.8869055118110234
0
LINE
8
BLACK
6
CONTINUOUS
10
5.0913818897637793
20
-4.8869055118110234
11
5.0913818897637793
21
-4.8294251968503934
0
LINE
8
BLACK
6
CONTINUOUS
10
5.0913818897637793
20
-4.8294251968503934
11
5.0914568110236216
21
-4.8290485433070867
0
LINE
8
BLACK
6
CONTINUOUS
10
5.0914568110236216
20
-4.8290485433070867
11
5.0919894881889762
21
-4.828515866141732
0
LINE
8
BLACK
6
CONTINUOUS
10
5.0919894881889762
20
-4.828515866141732
11
5.092366141732283
21
-4.8284409448818897
0
LINE
8
BLACK
6
CONTINUOUS
10
5.092366141732283
20
-4.8284409448818897
11
5.2089015748031491
21
-4.8284409448818897
0
LINE
8
BLACK
6
CONTINUOUS
10
5.2089015748031491
20
-4.8284409448818897
11
5.2092782283464567
21
-4.828515866141732
0
LINE
8
BLACK
6
CONTINUOUS
10
5.0933503937007876
20
-4.8304094488188971
11
5.0933503937007876
21
-4.8859212598425197
0
LINE
8
BLACK
6
CONTINUOUS
10
5.0933503937007876
20
-4.8859212598425197
11
5.2079173228346454
21
-4.8859212598425197
0
LINE
8
BLACK
6
CONTINUOUS
10
5.2079173228346454
20
-4.8859212598425197
11
5.2079173228346454
21
-4.8304094488188971
0
LINE
8
BLACK
6
CONTINUOUS
10
5.2079173228346454
20
-4.8304094488188971
11
5.0933503937007876
21
-4.8304094488188971
0
LINE
8
BLACK
6
CONTINUOUS
10
5.3671522440944877
20
-4.828515866141732
11
5.3676849212598423
21
-4.8290485433070867
0
LINE
8
BLACK
6
CONTINUOUS
10
5.3676849212598423
20
-4.8290485433070867
11
5.3677598425196846
21
-4.8294251968503934
0
LINE
8
BLACK
6
CONTINUOUS
10
5.3677598425196846
20
-4.8294251968503934
11
5.3677598425196846
21
-4.8869055118110234
0
LINE
8
BLACK
6
CONTINUOUS
10
5.3677598425196846
20
-4.8869055118110234
11
5.3676849212598423
21
-4.887282165354331
0
LINE
8
BLACK
6
CONTINUOUS
10
5.3676849212598423
20
-4.887282165354331
11
5.3671522440944877
21
-4.8878148425196848
0
LINE
8
BLACK
6
CONTINUOUS
10
5.3671522440944877
20
-4.8878148425196848
11
5.3667755905511809
21
-4.8878897637795271
0
LINE
8
BLACK
6
CONTINUOUS
10
5.3667755905511809
20
-4.8878897637795271
11
5.2502401574803148
21
-4.8878897637795271
0
LINE
8
BLACK
6
CONTINUOUS
10
5.2502401574803148
20
-4.8878897637795271
11
5.2498635039370081
21
-4.8878148425196848
0
LINE
8
BLACK
6
CONTINUOUS
10
5.2498635039370081
20
-4.8878148425196848
11
5.2493308267716534
21
-4.887282165354331
0
LINE
8
BLACK
6
CONTINUOUS
10
5.2493308267716534
20
-4.887282165354331
11
5.2492559055118111
21
-4.8869055118110234
0
LINE
8
BLACK
6
CONTINUOUS
10
5.2492559055118111
20
-4.8869055118110234
11
5.2492559055118111
21
-4.8294251968503934
0
LINE
8
BLACK
6
CONTINUOUS
10
5.2492559055118111
20
-4.8294251968503934
11
5.2493308267716534
21
-4.8290485433070867
0
LINE
8
BLACK
6
CONTINUOUS
10
5.2493308267716534
20
-4.8290485433070867
11
5.2498635039370081
21
-4.828515866141732
0
LINE
8
BLACK
6
CONTINUOUS
10
5.2498635039370081
20
-4.828515866141732
11
5.2502401574803148
21
-4.8284409448818897
0
LINE
8
BLACK
6
CONTINUOUS
10
5.2502401574803148
20
-4.8284409448818897
11
5.3667755905511809
21
-4.8284409448818897
0
LINE
8
BLACK
6
CONTINUOUS
10
5.3667755905511809
20
-4.8284409448818897
11
5.3671522440944877
21
-4.828515866141732
0
LINE
8
BLACK
6
CONTINUOUS
10
5.2512244094488185
20
-4.8304094488188971
11
5.2512244094488185
21
-4.8859212598425197
0
LINE
8
BLACK
6
CONTINUOUS
10
5.2512244094488185
20
-4.8859212598425197
11
5.3657913385826772
21
-4.8859212598425197
0
LINE
8
BLACK
6
CONTINUOUS
10
5.3657913385826772
20
-4.8859212598425197
11
5.3657913385826772
21
-4.8304094488188971
0
LINE
8
BLACK
6
CONTINUOUS
10
5.3657913385826772
20
-4.8304094488188971
11
5.2512244094488185
21
-4.8304094488188971
0
LINE
8
BLACK
6
CONTINUOUS
10
5.5250262598425195
20
-4.828515866141732
11
5.5255589370078741
21
-4.8290485433070867
0
LINE
8
BLACK
6
CONTINUOUS
10
5.5255589370078741
20
-4.8290485433070867
11
5.5256338582677165
21
-4.8294251968503934
0
LINE
8
BLACK
6
CONTINUOUS
10
5.5256338582677165
20
-4.8294251968503934
11
5.5256338582677165
21
-4.8869055118110234
0
LINE
8
BLACK
6
CONTINUOUS
10
5.5256338582677165
20
-4.8869055118110234
11
5.5255589370078741
21
-4.887282165354331
0
LINE
8
BLACK
6
CONTINUOUS
10
5.5255589370078741
20
-4.887282165354331
11
5.5250262598425195
21
-4.8878148425196848
0
LINE
8
BLACK
6
CONTINUOUS
10
5.5250262598425195
20
-4.8878148425196848
11
5.5246496062992128
21
-4.8878897637795271
0
LINE
8
BLACK
6
CONTINUOUS
10
5.5246496062992128
20
-4.8878897637795271
11
5.4081141732283466
21
-4.8878897637795271
0
LINE
8
BLACK
6
CONTINUOUS
10
5.4081141732283466
20
-4.8878897637795271
11
5.407737519685039
21
-4.8878148425196848
0
LINE
8
BLACK
6
CONTINUOUS
10
5.407737519685039
20
-4.8878148425196848
11
5.4072048425196853
21
-4.887282165354331
0
LINE
8
BLACK
6
CONTINUOUS
10
5.4072048425196853
20
-4.887282165354331
11
5.407129921259842
21
-4.8869055118110234
0
LINE
8
BLACK
6
CONTINUOUS
10
5.407129921259842
20
-4.8869055118110234
11
5.407129921259842
21
-4.8294251968503934
0
LINE
8
BLACK
6
CONTINUOUS
10
5.407129921259842
20
-4.8294251968503934
11
5.4072048425196853
21
-4.8290485433070867
0
LINE
8
BLACK
6
CONTINUOUS
10
5.4072048425196853
20
-4.8290485433070867
11
5.407737519685039
21
-4.828515866141732
0
LINE
8
BLACK
6
CONTINUOUS
10
5.407737519685039
20
-4.828515866141732
11
5.4081141732283466
21
-4.8284409448818897
0
LINE
8
BLACK
6
CONTINUOUS
10
5.4081141732283466
20
-4.8284409448818897
11
5.5246496062992128
21
-4.8284409448818897
0
LINE
8
BLACK
6
CONTINUOUS
10
5.5246496062992128
20
-4.8284409448818897
11
5.5250262598425195
21
-4.828515866141732
0
LINE
8
BLACK
6
CONTINUOUS
10
5.4090984251968504
20
-4.8304094488188971
11
5.4090984251968504
21
-4.8859212598425197
0
LINE
8
BLACK
6
CONTINUOUS
10
5.4090984251968504
20
-4.8859212598425197
11
5.5236653543307082
21
-4.8859212598425197
0
LINE
8
BLACK
6
CONTINUOUS
10
5.5236653543307082
20
-4.8859212598425197
11
5.5236653543307082
21
-4.8304094488188971
0
LINE
8
BLACK
6
CONTINUOUS
10
5.5236653543307082
20
-4.8304094488188971
11
5.4090984251968504
21
-4.8304094488188971
0
LINE
8
BLACK
6
CONTINUOUS
10
5.7734514566929134
20
-4.828515866141732
11
5.7739841338582671
21
-4.8290485433070867
0
LINE
8
BLACK
6
CONTINUOUS
10
5.7739841338582671
20
-4.8290485433070867
11
5.7740590551181104
21
-4.8294251968503934
0
LINE
8
BLACK
6
CONTINUOUS
10
5.7740590551181104
20
-4.8294251968503934
11
5.7740590551181104
21
-4.8869055118110234
0
LINE
8
BLACK
6
CONTINUOUS
10
5.7740590551181104
20
-4.8869055118110234
11
5.7739841338582671
21
-4.887282165354331
0
LINE
8
BLACK
6
CONTINUOUS
10
5.7739841338582671
20
-4.887282165354331
11
5.7734514566929134
21
-4.8878148425196848
0
LINE
8
BLACK
6
CONTINUOUS
10
5.7734514566929134
20
-4.8878148425196848
11
5.7730748031496057
21
-4.8878897637795271
0
LINE
8
BLACK
6
CONTINUOUS
10
5.7730748031496057
20
-4.8878897637795271
11
5.6565393700787396
21
-4.8878897637795271
0
LINE
8
BLACK
6
CONTINUOUS
10
5.6565393700787396
20
-4.8878897637795271
11
5.6561627165354329
21
-4.8878148425196848
0
LINE
8
BLACK
6
CONTINUOUS
10
5.6561627165354329
20
-4.8878148425196848
11
5.6556300393700782
21
-4.887282165354331
0
LINE
8
BLACK
6
CONTINUOUS
10
5.6556300393700782
20
-4.887282165354331
11
5.6555551181102359
21
-4.8869055118110234
0
LINE
8
BLACK
6
CONTINUOUS
10
5.6555551181102359
20
-4.8869055118110234
11
5.6555551181102359
21
-4.8294251968503934
0
LINE
8
BLACK
6
CONTINUOUS
10
5.6555551181102359
20
-4.8294251968503934
11
5.6556300393700782
21
-4.8290485433070867
0
LINE
8
BLACK
6
CONTINUOUS
10
5.6556300393700782
20
-4.8290485433070867
11
5.6561627165354329
21
-4.828515866141732
0
LINE
8
BLACK
6
CONTINUOUS
10
5.6561627165354329
20
-4.828515866141732
11
5.6565393700787396
21
-4.8284409448818897
0
LINE
8
BLACK
6
CONTINUOUS
10
5.6565393700787396
20
-4.8284409448818897
11
5.7730748031496057
21
-4.8284409448818897
0
LINE
8
BLACK
6
CONTINUOUS
10
5.7730748031496057
20
-4.8284409448818897
11
5.7734514566929134
21
-4.828515866141732
0
LINE
8
BLACK
6
CONTINUOUS
10
5.6575236220472442
20
-4.8304094488188971
11
5.6575236220472442
21
-4.8859212598425197
0
LINE
8
BLACK
6
CONTINUOUS
10
5.6575236220472442
20
-4.8859212598425197
11
5.772090551181102
21
-4.8859212598425197
0
LINE
8
BLACK
6
CONTINUOUS
10
5.772090551181102
20
-4.8859212598425197
11
5.772090551181102
21
-4.8304094488188971
0
LINE
8
BLACK
6
CONTINUOUS
10
5.772090551181102
20
-4.8304094488188971
11
5.6575236220472442
21
-4.8304094488188971
0
LINE
8
BLACK
6
CONTINUOUS
10
6.3080971259842515
20
-4.6629646850393698
11
6.3086298031496062
21
-4.6634973622047244
0
LINE
8
BLACK
6
CONTINUOUS
10
6.3086298031496062
20
-4.6634973622047244
11
6.3087047244094485
21
-4.6638740157480312
0
LINE
8
BLACK
6
CONTINUOUS
10
6.3087047244094485
20
-4.6638740157480312
11
6.3087047244094485
21
-4.676669291338583
0
LINE
8
BLACK
6
CONTINUOUS
10
6.3087047244094485
20
-4.676669291338583
11
6.3628385826771652
21
-4.676669291338583
0
LINE
8
BLACK
6
CONTINUOUS
10
6.3628385826771652
20
-4.676669291338583
11
6.3632152362204719
21
-4.6767442125984253
0
LINE
8
BLACK
6
CONTINUOUS
10
6.3632152362204719
20
-4.6767442125984253
11
6.3637479133858266
21
-4.6772768897637791
0
LINE
8
BLACK
6
CONTINUOUS
10
6.3637479133858266
20
-4.6772768897637791
11
6.3638228346456689
21
-4.6776535433070867
0
LINE
8
BLACK
6
CONTINUOUS
10
6.3638228346456689
20
-4.6776535433070867
11
6.3638228346456689
21
-4.8666299212598423
0
LINE
8
BLACK
6
CONTINUOUS
10
6.3638228346456689
20
-4.8666299212598423
11
6.3637479133858266
21
-4.8670065748031499
0
LINE
8
BLACK
6
CONTINUOUS
10
6.3637479133858266
20
-4.8670065748031499
11
6.3632152362204719
21
-4.8675392519685037
0
LINE
8
BLACK
6
CONTINUOUS
10
6.3632152362204719
20
-4.8675392519685037
11
6.3628385826771652
21
-4.867614173228346
0
LINE
8
BLACK
6
CONTINUOUS
10
6.3628385826771652
20
-4.867614173228346
11
6.3087047244094485
21
-4.867614173228346
0
LINE
8
BLACK
6
CONTINUOUS
10
6.3087047244094485
20
-4.867614173228346
11
6.3087047244094485
21
-4.8804094488188978
0
LINE
8
BLACK
6
CONTINUOUS
10
6.3087047244094485
20
-4.8804094488188978
11
6.3086298031496062
21
-4.8807861023622046
0
LINE
8
BLACK
6
CONTINUOUS
10
6.3086298031496062
20
-4.8807861023622046
11
6.3080971259842515
21
-4.8813187795275592
0
LINE
8
BLACK
6
CONTINUOUS
10
6.3080971259842515
20
-4.8813187795275592
11
6.3077204724409448
21
-4.8813937007874015
0
LINE
8
BLACK
6
CONTINUOUS
10
6.3077204724409448
20
-4.8813937007874015
11
6.1148070866141735
21
-4.8813937007874015
0
LINE
8
BLACK
6
CONTINUOUS
10
6.1148070866141735
20
-4.8813937007874015
11
6.1144304330708659
21
-4.8813187795275592
0
LINE
8
BLACK
6
CONTINUOUS
10
6.1144304330708659
20
-4.8813187795275592
11
6.1138977559055121
21
-4.8807861023622046
0
LINE
8
BLACK
6
CONTINUOUS
10
6.1138977559055121
20
-4.8807861023622046
11
6.1138228346456689
21
-4.8804094488188978
0
LINE
8
BLACK
6
CONTINUOUS
10
6.1138228346456689
20
-4.8804094488188978
11
6.1138228346456689
21
-4.867614173228346
0
LINE
8
BLACK
6
CONTINUOUS
10
6.1138228346456689
20
-4.867614173228346
11
6.0596889763779522
21
-4.867614173228346
0
LINE
8
BLACK
6
CONTINUOUS
10
6.0596889763779522
20
-4.867614173228346
11
6.0593123228346455
21
-4.8675392519685037
0
LINE
8
BLACK
6
CONTINUOUS
10
6.0593123228346455
20
-4.8675392519685037
11
6.0587796456692908
21
-4.8670065748031499
0
LINE
8
BLACK
6
CONTINUOUS
10
6.0587796456692908
20
-4.8670065748031499
11
6.0587047244094485
21
-4.8666299212598423
0
LINE
8
BLACK
6
CONTINUOUS
10
6.0587047244094485
20
-4.8666299212598423
11
6.0587047244094485
21
-4.6776535433070867
0
LINE
8
BLACK
6
CONTINUOUS
10
6.0587047244094485
20
-4.6776535433070867
11
6.0587796456692908
21
-4.6772768897637791
0
LINE
8
BLACK
6
CONTINUOUS
10
6.0587796456692908
20
-4.6772768897637791
11
6.0593123228346455
21
-4.6767442125984253
0
LINE
8
BLACK
6
CONTINUOUS
10
6.0593123228346455
20
-4.6767442125984253
11
6.0596889763779522
21
-4.676669291338583
0
LINE
8
BLACK
6
CONTINUOUS
10
6.0596889763779522
20
-4.676669291338583
11
6.1138228346456689
21
-4.676669291338583
0
LINE
8
BLACK
6
CONTINUOUS
10
6.1138228346456689
20
-4.676669291338583
11
6.1138228346456689
21
-4.6638740157480312
0
LINE
8
BLACK
6
CONTINUOUS
10
6.1138228346456689
20
-4.6638740157480312
11
6.1138977559055121
21
-4.6634973622047244
0
LINE
8
BLACK
6
CONTINUOUS
10
6.1138977559055121
20
-4.6634973622047244
11
6.1144304330708659
21
-4.6629646850393698
0
LINE
8
BLACK
6
CONTINUOUS
10
6.1144304330708659
20
-4.6629646850393698
11
6.1148070866141735
21
-4.6628897637795275
0
LINE
8
BLACK
6
CONTINUOUS
10
6.1148070866141735
20
-4.6628897637795275
11
6.3077204724409448
21
-4.6628897637795275
0
LINE
8
BLACK
6
CONTINUOUS
10
6.3077204724409448
20
-4.6628897637795275
11
6.3080971259842515
21
-4.6629646850393698
0
LINE
8
BLACK
6
CONTINUOUS
10
6.1157913385826772
20
-4.6648582677165349
11
6.1157913385826772
21
-4.6776535433070867
0
LINE
8
BLACK
6
CONTINUOUS
10
6.1157913385826772
20
-4.6776535433070867
11
6.1157164173228349
21
-4.6780301968503935
0
LINE
8
BLACK
6
CONTINUOUS
10
6.1157164173228349
20
-4.6780301968503935
11
6.1151837401574802
21
-4.6785628740157481
0
LINE
8
BLACK
6
CONTINUOUS
10
6.1151837401574802
20
-4.6785628740157481
11
6.1148070866141735
21
-4.6786377952755904
0
LINE
8
BLACK
6
CONTINUOUS
10
6.1148070866141735
20
-4.6786377952755904
11
6.0606732283464568
21
-4.6786377952755904
0
LINE
8
BLACK
6
CONTINUOUS
10
6.0606732283464568
20
-4.6786377952755904
11
6.0606732283464568
21
-4.8656456692913386
0
LINE
8
BLACK
6
CONTINUOUS
10
6.0606732283464568
20
-4.8656456692913386
11
6.1148070866141735
21
-4.8656456692913386
0
LINE
8
BLACK
6
CONTINUOUS
10
6.1148070866141735
20
-4.8656456692913386
11
6.1151837401574802
21
-4.8657205905511809
0
LINE
8
BLACK
6
CONTINUOUS
10
6.1151837401574802
20
-4.8657205905511809
11
6.1157164173228349
21
-4.8662532677165355
0
LINE
8
BLACK
6
CONTINUOUS
10
6.1157164173228349
20
-4.8662532677165355
11
6.1157913385826772
21
-4.8666299212598423
0
LINE
8
BLACK
6
CONTINUOUS
10
6.1157913385826772
20
-4.8666299212598423
11
6.1157913385826772
21
-4.8794251968503932
0
LINE
8
BLACK
6
CONTINUOUS
10
6.1157913385826772
20
-4.8794251968503932
11
6.3067362204724411
21
-4.8794251968503932
0
LINE
8
BLACK
6
CONTINUOUS
10
6.3067362204724411
20
-4.8794251968503932
11
6.3067362204724411
21
-4.8666299212598423
0
LINE
8
BLACK
6
CONTINUOUS
10
6.3067362204724411
20
-4.8666299212598423
11
6.3068111417322834
21
-4.8662532677165355
0
LINE
8
BLACK
6
CONTINUOUS
10
6.3068111417322834
20
-4.8662532677165355
11
6.3073438188976381
21
-4.8657205905511809
0
LINE
8
BLACK
6
CONTINUOUS
10
6.3073438188976381
20
-4.8657205905511809
11
6.3077204724409448
21
-4.8656456692913386
0
LINE
8
BLACK
6
CONTINUOUS
10
6.3077204724409448
20
-4.8656456692913386
11
6.3618543307086615
21
-4.8656456692913386
0
LINE
8
BLACK
6
CONTINUOUS
10
6.3618543307086615
20
-4.8656456692913386
11
6.3618543307086615
21
-4.6786377952755904
0
LINE
8
BLACK
6
CONTINUOUS
10
6.3618543307086615
20
-4.6786377952755904
11
6.3077204724409448
21
-4.6786377952755904
0
LINE
8
BLACK
6
CONTINUOUS
10
6.3077204724409448
20
-4.6786377952755904
11
6.3073438188976381
21
-4.6785628740157481
0
LINE
8
BLACK
6
CONTINUOUS
10
6.3073438188976381
20
-4.6785628740157481
11
6.3068111417322834
21
-4.6780301968503935
0
LINE
8
BLACK
6
CONTINUOUS
10
6.3068111417322834
20
-4.6780301968503935
11
6.3067362204724411
21
-4.6776535433070867
0
LINE
8
BLACK
6
CONTINUOUS
10
6.3067362204724411
20
-4.6776535433070867
11
6.3067362204724411
21
-4.6648582677165349
0
LINE
8
BLACK
6
CONTINUOUS
10
6.3067362204724411
20
-4.6648582677165349
11
6.1157913385826772
21
-4.6648582677165349
0
LINE
8
BLACK
6
CONTINUOUS
10
5.2092782283464567
20
-4.7296969685039372
11
5.2098109055118105
21
-4.7302296456692909
0
LINE
8
BLACK
6
CONTINUOUS
10
5.2098109055118105
20
-4.7302296456692909
11
5.2098858267716537
21
-4.7306062992125986
0
LINE
8
BLACK
6
CONTINUOUS
10
5.2098858267716537
20
-4.7306062992125986
11
5.2098858267716537
21
-4.7880866141732286
0
LINE
8
BLACK
6
CONTINUOUS
10
5.2098858267716537
20
-4.7880866141732286
11
5.2098109055118105
21
-4.7884632677165353
0
LINE
8
BLACK
6
CONTINUOUS
10
5.2098109055118105
20
-4.7884632677165353
11
5.2092782283464567
21
-4.78899594488189
0
LINE
8
BLACK
6
CONTINUOUS
10
5.2092782283464567
20
-4.78899594488189
11
5.2089015748031491
21
-4.7890708661417323
0
LINE
8
BLACK
6
CONTINUOUS
10
5.2089015748031491
20
-4.7890708661417323
11
5.092366141732283
21
-4.7890708661417323
0
LINE
8
BLACK
6
CONTINUOUS
10
5.092366141732283
20
-4.7890708661417323
11
5.0919894881889762
21
-4.78899594488189
0
LINE
8
BLACK
6
CONTINUOUS
10
5.0919894881889762
20
-4.78899594488189
11
5.0914568110236216
21
-4.7884632677165353
0
LINE
8
BLACK
6
CONTINUOUS
10
5.0914568110236216
20
-4.7884632677165353
11
5.0913818897637793
21
-4.7880866141732286
0
LINE
8
BLACK
6
CONTINUOUS
10
5.0913818897637793
20
-4.7880866141732286
11
5.0913818897637793
21
-4.7306062992125986
0
LINE
8
BLACK
6
CONTINUOUS
10
5.0913818897637793
20
-4.7306062992125986
11
5.0914568110236216
21
-4.7302296456692909
0
LINE
8
BLACK
6
CONTINUOUS
10
5.0914568110236216
20
-4.7302296456692909
11
5.0919894881889762
21
-4.7296969685039372
0
LINE
8
BLACK
6
CONTINUOUS
10
5.0919894881889762
20
-4.7296969685039372
11
5.092366141732283
21
-4.729622047244094
0
LINE
8
BLACK
6
CONTINUOUS
10
5.092366141732283
20
-4.729622047244094
11
5.2089015748031491
21
-4.729622047244094
0
LINE
8
BLACK
6
CONTINUOUS
10
5.2089015748031491
20
-4.729622047244094
11
5.2092782283464567
21
-4.7296969685039372
0
LINE
8
BLACK
6
CONTINUOUS
10
5.0933503937007876
20
-4.7315905511811023
11
5.0933503937007876
21
-4.787102362204724
0
LINE
8
BLACK
6
CONTINUOUS
10
5.0933503937007876
20
-4.787102362204724
11
5.2079173228346454
21
-4.787102362204724
0
LINE
8
BLACK
6
CONTINUOUS
10
5.2079173228346454
20
-4.787102362204724
11
5.2079173228346454
21
-4.7315905511811023
0
LINE
8
BLACK
6
CONTINUOUS
10
5.2079173228346454
20
-4.7315905511811023
11
5.0933503937007876
21
-4.7315905511811023
0
LINE
8
BLACK
6
CONTINUOUS
10
5.3671522440944877
20
-4.7296969685039372
11
5.3676849212598423
21
-4.7302296456692909
0
LINE
8
BLACK
6
CONTINUOUS
10
5.3676849212598423
20
-4.7302296456692909
11
5.3677598425196846
21
-4.7306062992125986
0
LINE
8
BLACK
6
CONTINUOUS
10
5.3677598425196846
20
-4.7306062992125986
11
5.3677598425196846
21
-4.7880866141732286
0
LINE
8
BLACK
6
CONTINUOUS
10
5.3677598425196846
20
-4.7880866141732286
11
5.3676849212598423
21
-4.7884632677165353
0
LINE
8
BLACK
6
CONTINUOUS
10
5.3676849212598423
20
-4.7884632677165353
11
5.3671522440944877
21
-4.78899594488189
0
LINE
8
BLACK
6
CONTINUOUS
10
5.3671522440944877
20
-4.78899594488189
11
5.3667755905511809
21
-4.7890708661417323
0
LINE
8
BLACK
6
CONTINUOUS
10
5.3667755905511809
20
-4.7890708661417323
11
5.2502401574803148
21
-4.7890708661417323
0
LINE
8
BLACK
6
CONTINUOUS
10
5.2502401574803148
20
-4.7890708661417323
11
5.2498635039370081
21
-4.78899594488189
0
LINE
8
BLACK
6
CONTINUOUS
10
5.2498635039370081
20
-4.78899594488189
11
5.2493308267716534
21
-4.7884632677165353
0
LINE
8
BLACK
6
CONTINUOUS
10
5.2493308267716534
20
-4.7884632677165353
11
5.2492559055118111
21
-4.7880866141732286
0
LINE
8
BLACK
6
CONTINUOUS
10
5.2492559055118111
20
-4.7880866141732286
11
5.2492559055118111
21
-4.7306062992125986
0
LINE
8
BLACK
6
CONTINUOUS
10
5.2492559055118111
20
-4.7306062992125986
11
5.2493308267716534
21
-4.7302296456692909
0
LINE
8
BLACK
6
CONTINUOUS
10
5.2493308267716534
20
-4.7302296456692909
11
5.2498635039370081
21
-4.7296969685039372
0
LINE
8
BLACK
6
CONTINUOUS
10
5.2498635039370081
20
-4.7296969685039372
11
5.2502401574803148
21
-4.729622047244094
0
LINE
8
BLACK
6
CONTINUOUS
10
5.2502401574803148
20
-4.729622047244094
11
5.3667755905511809
21
-4.729622047244094
0
LINE
8
BLACK
6
CONTINUOUS
10
5.3667755905511809
20
-4.729622047244094
11
5.3671522440944877
21
-4.7296969685039372
0
LINE
8
BLACK
6
CONTINUOUS
10
5.2512244094488185
20
-4.7315905511811023
11
5.2512244094488185
21
-4.787102362204724
0
LINE
8
BLACK
6
CONTINUOUS
10
5.2512244094488185
20
-4.787102362204724
11
5.3657913385826772
21
-4.787102362204724
0
LINE
8
BLACK
6
CONTINUOUS
10
5.3657913385826772
20
-4.787102362204724
11
5.3657913385826772
21
-4.7315905511811023
0
LINE
8
BLACK
6
CONTINUOUS
10
5.3657913385826772
20
-4.7315905511811023
11
5.2512244094488185
21
-4.7315905511811023
0
LINE
8
BLACK
6
CONTINUOUS
10
5.5250262598425195
20
-4.7296969685039372
11
5.5255589370078741
21
-4.7302296456692909
0
LINE
8
BLACK
6
CONTINUOUS
10
5.5255589370078741
20
-4.7302296456692909
11
5.5256338582677165
21
-4.7306062992125986
0
LINE
8
BLACK
6
CONTINUOUS
10
5.5256338582677165
20
-4.7306062992125986
11
5.5256338582677165
21
-4.7880866141732286
0
LINE
8
BLACK
6
CONTINUOUS
10
5.5256338582677165
20
-4.7880866141732286
11
5.5255589370078741
21
-4.7884632677165353
0
LINE
8
BLACK
6
CONTINUOUS
10
5.5255589370078741
20
-4.7884632677165353
11
5.5250262598425195
21
-4.78899594488189
0
LINE
8
BLACK
6
CONTINUOUS
10
5.5250262598425195
20
-4.78899594488189
11
5.5246496062992128
21
-4.7890708661417323
0
LINE
8
BLACK
6
CONTINUOUS
10
5.5246496062992128
20
-4.7890708661417323
11
5.4081141732283466
21
-4.7890708661417323
0
LINE
8
BLACK
6
CONTINUOUS
10
5.4081141732283466
20
-4.7890708661417323
11
5.407737519685039
21
-4.78899594488189
0
LINE
8
BLACK
6
CONTINUOUS
10
5.407737519685039
20
-4.78899594488189
11
5.4072048425196853
21
-4.7884632677165353
0
LINE
8
BLACK
6
CONTINUOUS
10
5.4072048425196853
20
-4.7884632677165353
11
5.407129921259842
21
-4.7880866141732286
0
LINE
8
BLACK
6
CONTINUOUS
10
5.407129921259842
20
-4.7880866141732286
11
5.407129921259842
21
-4.7306062992125986
0
LINE
8
BLACK
6
CONTINUOUS
10
5.407129921259842
20
-4.7306062992125986
11
5.4072048425196853
21
-4.7302296456692909
0
LINE
8
BLACK
6
CONTINUOUS
10
5.4072048425196853
20
-4.7302296456692909
11
5.407737519685039
21
-4.7296969685039372
0
LINE
8
BLACK
6
CONTINUOUS
10
5.407737519685039
20
-4.7296969685039372
11
5.4081141732283466
21
-4.729622047244094
0
LINE
8
BLACK
6
CONTINUOUS
10
5.4081141732283466
20
-4.729622047244094
11
5.5246496062992128
21
-4.729622047244094
0
LINE
8
BLACK
6
CONTINUOUS
10
5.5246496062992128
20
-4.729622047244094
11
5.5250262598425195
21
-4.7296969685039372
0
LINE
8
BLACK
6
CONTINUOUS
10
5.4090984251968504
20
-4.7315905511811023
11
5.4090984251968504
21
-4.787102362204724
0
LINE
8
BLACK
6
CONTINUOUS
10
5.4090984251968504
20
-4.787102362204724
11
5.5236653543307082
21
-4.787102362204724
0
LINE
8
BLACK
6
CONTINUOUS
10
5.5236653543307082
20
-4.787102362204724
11
5.5236653543307082
21
-4.7315905511811023
0
LINE
8
BLACK
6
CONTINUOUS
10
5.5236653543307082
20
-4.7315905511811023
11
5.4090984251968504
21
-4.7315905511811023
0
LINE
8
BLACK
6
CONTINUOUS
10
5.7734514566929134
20
-4.7296969685039372
11
5.7739841338582671
21
-4.7302296456692909
0
LINE
8
BLACK
6
CONTINUOUS
10
5.7739841338582671
20
-4.7302296456692909
11
5.7740590551181104
21
-4.7306062992125986
0
LINE
8
BLACK
6
CONTINUOUS
10
5.7740590551181104
20
-4.7306062992125986
11
5.7740590551181104
21
-4.7880866141732286
0
LINE
8
BLACK
6
CONTINUOUS
10
5.7740590551181104
20
-4.7880866141732286
11
5.7739841338582671
21
-4.7884632677165353
0
LINE
8
BLACK
6
CONTINUOUS
10
5.7739841338582671
20
-4.7884632677165353
11
5.7734514566929134
21
-4.78899594488189
0
LINE
8
BLACK
6
CONTINUOUS
10
5.7734514566929134
20
-4.78899594488189
11
5.7730748031496057
21
-4.7890708661417323
0
LINE
8
BLACK
6
CONTINUOUS
10
5.7730748031496057
20
-4.7890708661417323
11
5.6565393700787396
21
-4.7890708661417323
0
LINE
8
BLACK
6
CONTINUOUS
10
5.6565393700787396
20
-4.7890708661417323
11
5.6561627165354329
21
-4.78899594488189
0
LINE
8
BLACK
6
CONTINUOUS
10
5.6561627165354329
20
-4.78899594488189
11
5.6556300393700782
21
-4.7884632677165353
0
LINE
8
BLACK
6
CONTINUOUS
10
5.6556300393700782
20
-4.7884632677165353
11
5.6555551181102359
21
-4.7880866141732286
0
LINE
8
BLACK
6
CONTINUOUS
10
5.6555551181102359
20
-4.7880866141732286
11
5.6555551181102359
21
-4.7306062992125986
0
LINE
8
BLACK
6
CONTINUOUS
10
5.6555551181102359
20
-4.7306062992125986
11
5.6556300393700782
21
-4.7302296456692909
0
LINE
8
BLACK
6
CONTINUOUS
10
5.6556300393700782
20
-4.7302296456692909
11
5.6561627165354329
21
-4.7296969685039372
0
LINE
8
BLACK
6
CONTINUOUS
10
5.6561627165354329
20
-4.7296969685039372
11
5.6565393700787396
21
-4.729622047244094
0
LINE
8
BLACK
6
CONTINUOUS
10
5.6565393700787396
20
-4.729622047244094
11
5.7730748031496057
21
-4.729622047244094
0
LINE
8
BLACK
6
CONTINUOUS
10
5.7730748031496057
20
-4.729622047244094
11
5.7734514566929134
21
-4.7296969685039372
0
LINE
8
BLACK
6
CONTINUOUS
10
5.6575236220472442
20
-4.7315905511811023
11
5.6575236220472442
21
-4.787102362204724
0
LINE
8
BLACK
6
CONTINUOUS
10
5.6575236220472442
20
-4.787102362204724
11
5.772090551181102
21
-4.787102362204724
0
LINE
8
BLACK
6
CONTINUOUS
10
5.772090551181102
20
-4.787102362204724
11
5.772090551181102
21
-4.7315905511811023
0
LINE
8
BLACK
6
CONTINUOUS
10
5.772090551181102
20
-4.7315905511811023
11
5.6575236220472442
21
-4.7315905511811023
0
LINE
8
BLACK
6
CONTINUOUS
10
5.2092782283464567
20
-4.6308780708661414
11
5.2098109055118105
21
-4.6314107480314961
0
LINE
8
BLACK
6
CONTINUOUS
10
5.2098109055118105
20
-4.6314107480314961
11
5.2098858267716537
21
-4.6317874015748028
0
LINE
8
BLACK
6
CONTINUOUS
10
5.2098858267716537
20
-4.6317874015748028
11
5.2098858267716537
21
-4.6892677165354328
0
LINE
8
BLACK
6
CONTINUOUS
10
5.2098858267716537
20
-4.6892677165354328
11
5.2098109055118105
21
-4.6896443700787405
0
LINE
8
BLACK
6
CONTINUOUS
10
5.2098109055118105
20
-4.6896443700787405
11
5.2092782283464567
21
-4.6901770472440942
0
LINE
8
BLACK
6
CONTINUOUS
10
5.2092782283464567
20
-4.6901770472440942
11
5.2089015748031491
21
-4.6902519685039366
0
LINE
8
BLACK
6
CONTINUOUS
10
5.2089015748031491
20
-4.6902519685039366
11
5.092366141732283
21
-4.6902519685039366
0
LINE
8
BLACK
6
CONTINUOUS
10
5.092366141732283
20
-4.6902519685039366
11
5.0919894881889762
21
-4.6901770472440942
0
LINE
8
BLACK
6
CONTINUOUS
10
5.0919894881889762
20
-4.6901770472440942
11
5.0914568110236216
21
-4.6896443700787405
0
LINE
8
BLACK
6
CONTINUOUS
10
5.0914568110236216
20
-4.6896443700787405
11
5.0913818897637793
21
-4.6892677165354328
0
LINE
8
BLACK
6
CONTINUOUS
10
5.0913818897637793
20
-4.6892677165354328
11
5.0913818897637793
21
-4.6317874015748028
0
LINE
8
BLACK
6
CONTINUOUS
10
5.0913818897637793
20
-4.6317874015748028
11
5.0914568110236216
21
-4.6314107480314961
0
LINE
8
BLACK
6
CONTINUOUS
10
5.0914568110236216
20
-4.6314107480314961
11
5.0919894881889762
21
-4.6308780708661414
0
LINE
8
BLACK
6
CONTINUOUS
10
5.0919894881889762
20
-4.6308780708661414
11
5.092366141732283
21
-4.6308031496062991
0
LINE
8
BLACK
6
CONTINUOUS
10
5.092366141732283
20
-4.6308031496062991
11
5.2089015748031491
21
-4.6308031496062991
0
LINE
8
BLACK
6
CONTINUOUS
10
5.2089015748031491
20
-4.6308031496062991
11
5.2092782283464567
21
-4.6308780708661414
0
LINE
8
BLACK
6
CONTINUOUS
10
5.0933503937007876
20
-4.6327716535433066
11
5.0933503937007876
21
-4.6882834645669291
0
LINE
8
BLACK
6
CONTINUOUS
10
5.0933503937007876
20
-4.6882834645669291
11
5.2079173228346454
21
-4.6882834645669291
0
LINE
8
BLACK
6
CONTINUOUS
10
5.2079173228346454
20
-4.6882834645669291
11
5.2079173228346454
21
-4.6327716535433066
0
LINE
8
BLACK
6
CONTINUOUS
10
5.2079173228346454
20
-4.6327716535433066
11
5.0933503937007876
21
-4.6327716535433066
0
LINE
8
BLACK
6
CONTINUOUS
10
5.3671522440944877
20
-4.6308780708661414
11
5.3676849212598423
21
-4.6314107480314961
0
LINE
8
BLACK
6
CONTINUOUS
10
5.3676849212598423
20
-4.6314107480314961
11
5.3677598425196846
21
-4.6317874015748028
0
LINE
8
BLACK
6
CONTINUOUS
10
5.3677598425196846
20
-4.6317874015748028
11
5.3677598425196846
21
-4.6892677165354328
0
LINE
8
BLACK
6
CONTINUOUS
10
5.3677598425196846
20
-4.6892677165354328
11
5.3676849212598423
21
-4.6896443700787405
0
LINE
8
BLACK
6
CONTINUOUS
10
5.3676849212598423
20
-4.6896443700787405
11
5.3671522440944877
21
-4.6901770472440942
0
LINE
8
BLACK
6
CONTINUOUS
10
5.3671522440944877
20
-4.6901770472440942
11
5.3667755905511809
21
-4.6902519685039366
0
LINE
8
BLACK
6
CONTINUOUS
10
5.3667755905511809
20
-4.6902519685039366
11
5.2502401574803148
21
-4.6902519685039366
0
LINE
8
BLACK
6
CONTINUOUS
10
5.2502401574803148
20
-4.6902519685039366
11
5.2498635039370081
21
-4.6901770472440942
0
LINE
8
BLACK
6
CONTINUOUS
10
5.2498635039370081
20
-4.6901770472440942
11
5.2493308267716534
21
-4.6896443700787405
0
LINE
8
BLACK
6
CONTINUOUS
10
5.2493308267716534
20
-4.6896443700787405
11
5.2492559055118111
21
-4.6892677165354328
0
LINE
8
BLACK
6
CONTINUOUS
10
5.2492559055118111
20
-4.6892677165354328
11
5.2492559055118111
21
-4.6317874015748028
0
LINE
8
BLACK
6
CONTINUOUS
10
5.2492559055118111
20
-4.6317874015748028
11
5.2493308267716534
21
-4.6314107480314961
0
LINE
8
BLACK
6
CONTINUOUS
10
5.2493308267716534
20
-4.6314107480314961
11
5.2498635039370081
21
-4.6308780708661414
0
LINE
8
BLACK
6
CONTINUOUS
10
5.2498635039370081
20
-4.6308780708661414
11
5.2502401574803148
21
-4.6308031496062991
0
LINE
8
BLACK
6
CONTINUOUS
10
5.2502401574803148
20
-4.6308031496062991
11
5.3667755905511809
21
-4.6308031496062991
0
LINE
8
BLACK
6
CONTINUOUS
10
5.3667755905511809
20
-4.6308031496062991
11
5.3671522440944877
21
-4.6308780708661414
0
LINE
8
BLACK
6
CONTINUOUS
10
5.2512244094488185
20
-4.6327716535433066
11
5.2512244094488185
21
-4.6882834645669291
0
LINE
8
BLACK
6
CONTINUOUS
10
5.2512244094488185
20
-4.6882834645669291
11
5.3657913385826772
21
-4.6882834645669291
0
LINE
8
BLACK
6
CONTINUOUS
10
5.3657913385826772
20
-4.6882834645669291
11
5.3657913385826772
21
-4.6327716535433066
0
LINE
8
BLACK
6
CONTINUOUS
10
5.3657913385826772
20
-4.6327716535433066
11
5.2512244094488185
21
-4.6327716535433066
0
LINE
8
BLACK
6
CONTINUOUS
10
5.5250262598425195
20
-4.6308780708661414
11
5.5255589370078741
21
-4.6314107480314961
0
LINE
8
BLACK
6
CONTINUOUS
10
5.5255589370078741
20
-4.6314107480314961
11
5.5256338582677165
21
-4.6317874015748028
0
LINE
8
BLACK
6
CONTINUOUS
10
5.5256338582677165
20
-4.6317874015748028
11
5.5256338582677165
21
-4.6892677165354328
0
LINE
8
BLACK
6
CONTINUOUS
10
5.5256338582677165
20
-4.6892677165354328
11
5.5255589370078741
21
-4.6896443700787405
0
LINE
8
BLACK
6
CONTINUOUS
10
5.5255589370078741
20
-4.6896443700787405
11
5.5250262598425195
21
-4.6901770472440942
0
LINE
8
BLACK
6
CONTINUOUS
10
5.5250262598425195
20
-4.6901770472440942
11
5.5246496062992128
21
-4.6902519685039366
0
LINE
8
BLACK
6
CONTINUOUS
10
5.5246496062992128
20
-4.6902519685039366
11
5.4081141732283466
21
-4.6902519685039366
0
LINE
8
BLACK
6
CONTINUOUS
10
5.4081141732283466
20
-4.6902519685039366
11
5.407737519685039
21
-4.6901770472440942
0
LINE
8
BLACK
6
CONTINUOUS
10
5.407737519685039
20
-4.6901770472440942
11
5.4072048425196853
21
-4.6896443700787405
0
LINE
8
BLACK
6
CONTINUOUS
10
5.4072048425196853
20
-4.6896443700787405
11
5.407129921259842
21
-4.6892677165354328
0
LINE
8
BLACK
6
CONTINUOUS
10
5.407129921259842
20
-4.6892677165354328
11
5.407129921259842
21
-4.6317874015748028
0
LINE
8
BLACK
6
CONTINUOUS
10
5.407129921259842
20
-4.6317874015748028
11
5.4072048425196853
21
-4.6314107480314961
0
LINE
8
BLACK
6
CONTINUOUS
10
5.4072048425196853
20
-4.6314107480314961
11
5.407737519685039
21
-4.6308780708661414
0
LINE
8
BLACK
6
CONTINUOUS
10
5.407737519685039
20
-4.6308780708661414
11
5.4081141732283466
21
-4.6308031496062991
0
LINE
8
BLACK
6
CONTINUOUS
10
5.4081141732283466
20
-4.6308031496062991
11
5.5246496062992128
21
-4.6308031496062991
0
LINE
8
BLACK
6
CONTINUOUS
10
5.5246496062992128
20
-4.6308031496062991
11
5.5250262598425195
21
-4.6308780708661414
0
LINE
8
BLACK
6
CONTINUOUS
10
5.4090984251968504
20
-4.6327716535433066
11
5.4090984251968504
21
-4.6882834645669291
0
LINE
8
BLACK
6
CONTINUOUS
10
5.4090984251968504
20
-4.6882834645669291
11
5.5236653543307082
21
-4.6882834645669291
0
LINE
8
BLACK
6
CONTINUOUS
10
5.5236653543307082
20
-4.6882834645669291
11
5.5236653543307082
21
-4.6327716535433066
0
LINE
8
BLACK
6
CONTINUOUS
10
5.5236653543307082
20
-4.6327716535433066
11
5.4090984251968504
21
-4.6327716535433066
0
LINE
8
BLACK
6
CONTINUOUS
10
5.7734514566929134
20
-4.6308780708661414
11
5.7739841338582671
21
-4.6314107480314961
0
LINE
8
BLACK
6
CONTINUOUS
10
5.7739841338582671
20
-4.6314107480314961
11
5.7740590551181104
21
-4.6317874015748028
0
LINE
8
BLACK
6
CONTINUOUS
10
5.7740590551181104
20
-4.6317874015748028
11
5.7740590551181104
21
-4.6892677165354328
0
LINE
8
BLACK
6
CONTINUOUS
10
5.7740590551181104
20
-4.6892677165354328
11
5.7739841338582671
21
-4.6896443700787405
0
LINE
8
BLACK
6
CONTINUOUS
10
5.7739841338582671
20
-4.6896443700787405
11
5.7734514566929134
21
-4.6901770472440942
0
LINE
8
BLACK
6
CONTINUOUS
10
5.7734514566929134
20
-4.6901770472440942
11
5.7730748031496057
21
-4.6902519685039366
0
LINE
8
BLACK
6
CONTINUOUS
10
5.7730748031496057
20
-4.6902519685039366
11
5.6565393700787396
21
-4.6902519685039366
0
LINE
8
BLACK
6
CONTINUOUS
10
5.6565393700787396
20
-4.6902519685039366
11
5.6561627165354329
21
-4.6901770472440942
0
LINE
8
BLACK
6
CONTINUOUS
10
5.6561627165354329
20
-4.6901770472440942
11
5.6556300393700782
21
-4.6896443700787405
0
LINE
8
BLACK
6
CONTINUOUS
10
5.6556300393700782
20
-4.6896443700787405
11
5.6555551181102359
21
-4.6892677165354328
0
LINE
8
BLACK
6
CONTINUOUS
10
5.6555551181102359
20
-4.6892677165354328
11
5.6555551181102359
21
-4.6317874015748028
0
LINE
8
BLACK
6
CONTINUOUS
10
5.6555551181102359
20
-4.6317874015748028
11
5.6556300393700782
21
-4.6314107480314961
0
LINE
8
BLACK
6
CONTINUOUS
10
5.6556300393700782
20
-4.6314107480314961
11
5.6561627165354329
21
-4.6308780708661414
0
LINE
8
BLACK
6
CONTINUOUS
10
5.6561627165354329
20
-4.6308780708661414
11
5.6565393700787396
21
-4.6308031496062991
0
LINE
8
BLACK
6
CONTINUOUS
10
5.6565393700787396
20
-4.6308031496062991
11
5.7730748031496057
21
-4.6308031496062991
0
LINE
8
BLACK
6
CONTINUOUS
10
5.7730748031496057
20
-4.6308031496062991
11
5.7734514566929134
21
-4.6308780708661414
0
LINE
8
BLACK
6
CONTINUOUS
10
5.6575236220472442
20
-4.6327716535433066
11
5.6575236220472442
21
-4.6882834645669291
0
LINE
8
BLACK
6
CONTINUOUS
10
5.6575236220472442
20
-4.6882834645669291
11
5.772090551181102
21
-4.6882834645669291
0
LINE
8
BLACK
6
CONTINUOUS
10
5.772090551181102
20
-4.6882834645669291
11
5.772090551181102
21
-4.6327716535433066
0
LINE
8
BLACK
6
CONTINUOUS
10
5.772090551181102
20
-4.6327716535433066
11
5.6575236220472442
21
-4.6327716535433066
0
LINE
8
BLACK
6
CONTINUOUS
10
6.3080971259842515
20
-4.3985946062992127
11
6.3086298031496062
21
-4.3991272834645665
0
LINE
8
BLACK
6
CONTINUOUS
10
6.3086298031496062
20
-4.3991272834645665
11
6.3087047244094485
21
-4.3995039370078741
0
LINE
8
BLACK
6
CONTINUOUS
10
6.3087047244094485
20
-4.3995039370078741
11
6.3087047244094485
21
-4.4122992125984251
0
LINE
8
BLACK
6
CONTINUOUS
10
6.3087047244094485
20
-4.4122992125984251
11
6.3628385826771652
21
-4.4122992125984251
0
LINE
8
BLACK
6
CONTINUOUS
10
6.3628385826771652
20
-4.4122992125984251
11
6.3632152362204719
21
-4.4123741338582674
0
LINE
8
BLACK
6
CONTINUOUS
10
6.3632152362204719
20
-4.4123741338582674
11
6.3637479133858266
21
-4.412906811023622
0
LINE
8
BLACK
6
CONTINUOUS
10
6.3637479133858266
20
-4.412906811023622
11
6.3638228346456689
21
-4.4132834645669288
0
LINE
8
BLACK
6
CONTINUOUS
10
6.3638228346456689
20
-4.4132834645669288
11
6.3638228346456689
21
-4.6022598425196852
0
LINE
8
BLACK
6
CONTINUOUS
10
6.3638228346456689
20
-4.6022598425196852
11
6.3637479133858266
21
-4.602636496062992
0
LINE
8
BLACK
6
CONTINUOUS
10
6.3637479133858266
20
-4.602636496062992
11
6.3632152362204719
21
-4.6031691732283466
0
LINE
8
BLACK
6
CONTINUOUS
10
6.3632152362204719
20
-4.6031691732283466
11
6.3628385826771652
21
-4.6032440944881889
0
LINE
8
BLACK
6
CONTINUOUS
10
6.3628385826771652
20
-4.6032440944881889
11
6.3087047244094485
21
-4.6032440944881889
0
LINE
8
BLACK
6
CONTINUOUS
10
6.3087047244094485
20
-4.6032440944881889
11
6.3087047244094485
21
-4.6160393700787399
0
LINE
8
BLACK
6
CONTINUOUS
10
6.3087047244094485
20
-4.6160393700787399
11
6.3086298031496062
21
-4.6164160236220475
0
LINE
8
BLACK
6
CONTINUOUS
10
6.3086298031496062
20
-4.6164160236220475
11
6.3080971259842515
21
-4.6169487007874013
0
LINE
8
BLACK
6
CONTINUOUS
10
6.3080971259842515
20
-4.6169487007874013
11
6.3077204724409448
21
-4.6170236220472436
0
LINE
8
BLACK
6
CONTINUOUS
10
6.3077204724409448
20
-4.6170236220472436
11
6.1148070866141735
21
-4.6170236220472436
0
LINE
8
BLACK
6
CONTINUOUS
10
6.1148070866141735
20
-4.6170236220472436
11
6.1144304330708659
21
-4.6169487007874013
0
LINE
8
BLACK
6
CONTINUOUS
10
6.1144304330708659
20
-4.6169487007874013
11
6.1138977559055121
21
-4.6164160236220475
0
LINE
8
BLACK
6
CONTINUOUS
10
6.1138977559055121
20
-4.6164160236220475
11
6.1138228346456689
21
-4.6160393700787399
0
LINE
8
BLACK
6
CONTINUOUS
10
6.1138228346456689
20
-4.6160393700787399
11
6.1138228346456689
21
-4.6032440944881889
0
LINE
8
BLACK
6
CONTINUOUS
10
6.1138228346456689
20
-4.6032440944881889
11
6.0596889763779522
21
-4.6032440944881889
0
LINE
8
BLACK
6
CONTINUOUS
10
6.0596889763779522
20
-4.6032440944881889
11
6.0593123228346455
21
-4.6031691732283466
0
LINE
8
BLACK
6
CONTINUOUS
10
6.0593123228346455
20
-4.6031691732283466
11
6.0587796456692908
21
-4.602636496062992
0
LINE
8
BLACK
6
CONTINUOUS
10
6.0587796456692908
20
-4.602636496062992
11
6.0587047244094485
21
-4.6022598425196852
0
LINE
8
BLACK
6
CONTINUOUS
10
6.0587047244094485
20
-4.6022598425196852
11
6.0587047244094485
21
-4.4132834645669288
0
LINE
8
BLACK
6
CONTINUOUS
10
6.0587047244094485
20
-4.4132834645669288
11
6.0587796456692908
21
-4.412906811023622
0
LINE
8
BLACK
6
CONTINUOUS
10
6.0587796456692908
20
-4.412906811023622
11
6.0593123228346455
21
-4.4123741338582674
0
LINE
8
BLACK
6
CONTINUOUS
10
6.0593123228346455
20
-4.4123741338582674
11
6.0596889763779522
21
-4.4122992125984251
0
LINE
8
BLACK
6
CONTINUOUS
10
6.0596889763779522
20
-4.4122992125984251
11
6.1138228346456689
21
-4.4122992125984251
0
LINE
8
BLACK
6
CONTINUOUS
10
6.1138228346456689
20
-4.4122992125984251
11
6.1138228346456689
21
-4.3995039370078741
0
LINE
8
BLACK
6
CONTINUOUS
10
6.1138228346456689
20
-4.3995039370078741
11
6.1138977559055121
21
-4.3991272834645665
0
LINE
8
BLACK
6
CONTINUOUS
10
6.1138977559055121
20
-4.3991272834645665
11
6.1144304330708659
21
-4.3985946062992127
0
LINE
8
BLACK
6
CONTINUOUS
10
6.1144304330708659
20
-4.3985946062992127
11
6.1148070866141735
21
-4.3985196850393704
0
LINE
8
BLACK
6
CONTINUOUS
10
6.1148070866141735
20
-4.3985196850393704
11
6.3077204724409448
21
-4.3985196850393704
0
LINE
8
BLACK
6
CONTINUOUS
10
6.3077204724409448
20
-4.3985196850393704
11
6.3080971259842515
21
-4.3985946062992127
0
LINE
8
BLACK
6
CONTINUOUS
10
6.1157913385826772
20
-4.4004881889763778
11
6.1157913385826772
21
-4.4132834645669288
0
LINE
8
BLACK
6
CONTINUOUS
10
6.1157913385826772
20
-4.4132834645669288
11
6.1157164173228349
21
-4.4136601181102364
0
LINE
8
BLACK
6
CONTINUOUS
10
6.1157164173228349
20
-4.4136601181102364
11
6.1151837401574802
21
-4.4141927952755902
0
LINE
8
BLACK
6
CONTINUOUS
10
6.1151837401574802
20
-4.4141927952755902
11
6.1148070866141735
21
-4.4142677165354334
0
LINE
8
BLACK
6
CONTINUOUS
10
6.1148070866141735
20
-4.4142677165354334
11
6.0606732283464568
21
-4.4142677165354334
0
LINE
8
BLACK
6
CONTINUOUS
10
6.0606732283464568
20
-4.4142677165354334
11
6.0606732283464568
21
-4.6012755905511806
0
LINE
8
BLACK
6
CONTINUOUS
10
6.0606732283464568
20
-4.6012755905511806
11
6.1148070866141735
21
-4.6012755905511806
0
LINE
8
BLACK
6
CONTINUOUS
10
6.1148070866141735
20
-4.6012755905511806
11
6.1151837401574802
21
-4.6013505118110238
0
LINE
8
BLACK
6
CONTINUOUS
10
6.1151837401574802
20
-4.6013505118110238
11
6.1157164173228349
21
-4.6018831889763776
0
LINE
8
BLACK
6
CONTINUOUS
10
6.1157164173228349
20
-4.6018831889763776
11
6.1157913385826772
21
-4.6022598425196852
0
LINE
8
BLACK
6
CONTINUOUS
10
6.1157913385826772
20
-4.6022598425196852
11
6.1157913385826772
21
-4.6150551181102362
0
LINE
8
BLACK
6
CONTINUOUS
10
6.1157913385826772
20
-4.6150551181102362
11
6.3067362204724411
21
-4.6150551181102362
0
LINE
8
BLACK
6
CONTINUOUS
10
6.3067362204724411
20
-4.6150551181102362
11
6.3067362204724411
21
-4.6022598425196852
0
LINE
8
BLACK
6
CONTINUOUS
10
6.3067362204724411
20
-4.6022598425196852
11
6.3068111417322834
21
-4.6018831889763776
0
LINE
8
BLACK
6
CONTINUOUS
10
6.3068111417322834
20
-4.6018831889763776
11
6.3073438188976381
21
-4.6013505118110238
0
LINE
8
BLACK
6
CONTINUOUS
10
6.3073438188976381
20
-4.6013505118110238
11
6.3077204724409448
21
-4.6012755905511806
0
LINE
8
BLACK
6
CONTINUOUS
10
6.3077204724409448
20
-4.6012755905511806
11
6.3618543307086615
21
-4.6012755905511806
0
LINE
8
BLACK
6
CONTINUOUS
10
6.3618543307086615
20
-4.6012755905511806
11
6.3618543307086615
21
-4.4142677165354334
0
LINE
8
BLACK
6
CONTINUOUS
10
6.3618543307086615
20
-4.4142677165354334
11
6.3077204724409448
21
-4.4142677165354334
0
LINE
8
BLACK
6
CONTINUOUS
10
6.3077204724409448
20
-4.4142677165354334
11
6.3073438188976381
21
-4.4141927952755902
0
LINE
8
BLACK
6
CONTINUOUS
10
6.3073438188976381
20
-4.4141927952755902
11
6.3068111417322834
21
-4.4136601181102364
0
LINE
8
BLACK
6
CONTINUOUS
10
6.3068111417322834
20
-4.4136601181102364
11
6.3067362204724411
21
-4.4132834645669288
0
LINE
8
BLACK
6
CONTINUOUS
10
6.3067362204724411
20
-4.4132834645669288
11
6.3067362204724411
21
-4.4004881889763778
0
LINE
8
BLACK
6
CONTINUOUS
10
6.3067362204724411
20
-4.4004881889763778
11
6.1157913385826772
21
-4.4004881889763778
0
LINE
8
BLACK
6
CONTINUOUS
10
5.2092782283464567
20
-4.5320591732283466
11
5.2098109055118105
21
-4.5325918503937004
0
LINE
8
BLACK
6
CONTINUOUS
10
5.2098109055118105
20
-4.5325918503937004
11
5.2098858267716537
21
-4.532968503937008
0
LINE
8
BLACK
6
CONTINUOUS
10
5.2098858267716537
20
-4.532968503937008
11
5.2098858267716537
21
-4.590448818897638
0
LINE
8
BLACK
6
CONTINUOUS
10
5.2098858267716537
20
-4.590448818897638
11
5.2098109055118105
21
-4.5908254724409447
0
LINE
8
BLACK
6
CONTINUOUS
10
5.2098109055118105
20
-4.5908254724409447
11
5.2092782283464567
21
-4.5913581496062994
0
LINE
8
BLACK
6
CONTINUOUS
10
5.2092782283464567
20
-4.5913581496062994
11
5.2089015748031491
21
-4.5914330708661417
0
LINE
8
BLACK
6
CONTINUOUS
10
5.2089015748031491
20
-4.5914330708661417
11
5.092366141732283
21
-4.5914330708661417
0
LINE
8
BLACK
6
CONTINUOUS
10
5.092366141732283
20
-4.5914330708661417
11
5.0919894881889762
21
-4.5913581496062994
0
LINE
8
BLACK
6
CONTINUOUS
10
5.0919894881889762
20
-4.5913581496062994
11
5.0914568110236216
21
-4.5908254724409447
0
LINE
8
BLACK
6
CONTINUOUS
10
5.0914568110236216
20
-4.5908254724409447
11
5.0913818897637793
21
-4.590448818897638
0
LINE
8
BLACK
6
CONTINUOUS
10
5.0913818897637793
20
-4.590448818897638
11
5.0913818897637793
21
-4.532968503937008
0
LINE
8
BLACK
6
CONTINUOUS
10
5.0913818897637793
20
-4.532968503937008
11
5.0914568110236216
21
-4.5325918503937004
0
LINE
8
BLACK
6
CONTINUOUS
10
5.0914568110236216
20
-4.5325918503937004
11
5.0919894881889762
21
-4.5320591732283466
0
LINE
8
BLACK
6
CONTINUOUS
10
5.0919894881889762
20
-4.5320591732283466
11
5.092366141732283
21
-4.5319842519685034
0
LINE
8
BLACK
6
CONTINUOUS
10
5.092366141732283
20
-4.5319842519685034
11
5.2089015748031491
21
-4.5319842519685034
0
LINE
8
BLACK
6
CONTINUOUS
10
5.2089015748031491
20
-4.5319842519685034
11
5.2092782283464567
21
-4.5320591732283466
0
LINE
8
BLACK
6
CONTINUOUS
10
5.0933503937007876
20
-4.5339527559055117
11
5.0933503937007876
21
-4.5894645669291334
0
LINE
8
BLACK
6
CONTINUOUS
10
5.0933503937007876
20
-4.5894645669291334
11
5.2079173228346454
21
-4.5894645669291334
0
LINE
8
BLACK
6
CONTINUOUS
10
5.2079173228346454
20
-4.5894645669291334
11
5.2079173228346454
21
-4.5339527559055117
0
LINE
8
BLACK
6
CONTINUOUS
10
5.2079173228346454
20
-4.5339527559055117
11
5.0933503937007876
21
-4.5339527559055117
0
LINE
8
BLACK
6
CONTINUOUS
10
5.3671522440944877
20
-4.5320591732283466
11
5.3676849212598423
21
-4.5325918503937004
0
LINE
8
BLACK
6
CONTINUOUS
10
5.3676849212598423
20
-4.5325918503937004
11
5.3677598425196846
21
-4.532968503937008
0
LINE
8
BLACK
6
CONTINUOUS
10
5.3677598425196846
20
-4.532968503937008
11
5.3677598425196846
21
-4.590448818897638
0
LINE
8
BLACK
6
CONTINUOUS
10
5.3677598425196846
20
-4.590448818897638
11
5.3676849212598423
21
-4.5908254724409447
0
LINE
8
BLACK
6
CONTINUOUS
10
5.3676849212598423
20
-4.5908254724409447
11
5.3671522440944877
21
-4.5913581496062994
0
LINE
8
BLACK
6
CONTINUOUS
10
5.3671522440944877
20
-4.5913581496062994
11
5.3667755905511809
21
-4.5914330708661417
0
LINE
8
BLACK
6
CONTINUOUS
10
5.3667755905511809
20
-4.5914330708661417
11
5.2502401574803148
21
-4.5914330708661417
0
LINE
8
BLACK
6
CONTINUOUS
10
5.2502401574803148
20
-4.5914330708661417
11
5.2498635039370081
21
-4.5913581496062994
0
LINE
8
BLACK
6
CONTINUOUS
10
5.2498635039370081
20
-4.5913581496062994
11
5.2493308267716534
21
-4.5908254724409447
0
LINE
8
BLACK
6
CONTINUOUS
10
5.2493308267716534
20
-4.5908254724409447
11
5.2492559055118111
21
-4.590448818897638
0
LINE
8
BLACK
6
CONTINUOUS
10
5.2492559055118111
20
-4.590448818897638
11
5.2492559055118111
21
-4.532968503937008
0
LINE
8
BLACK
6
CONTINUOUS
10
5.2492559055118111
20
-4.532968503937008
11
5.2493308267716534
21
-4.5325918503937004
0
LINE
8
BLACK
6
CONTINUOUS
10
5.2493308267716534
20
-4.5325918503937004
11
5.2498635039370081
21
-4.5320591732283466
0
LINE
8
BLACK
6
CONTINUOUS
10
5.2498635039370081
20
-4.5320591732283466
11
5.2502401574803148
21
-4.5319842519685034
0
LINE
8
BLACK
6
CONTINUOUS
10
5.2502401574803148
20
-4.5319842519685034
11
5.3667755905511809
21
-4.5319842519685034
0
LINE
8
BLACK
6
CONTINUOUS
10
5.3667755905511809
20
-4.5319842519685034
11
5.3671522440944877
21
-4.5320591732283466
0
LINE
8
BLACK
6
CONTINUOUS
10
5.2512244094488185
20
-4.5339527559055117
11
5.2512244094488185
21
-4.5894645669291334
0
LINE
8
BLACK
6
CONTINUOUS
10
5.2512244094488185
20
-4.5894645669291334
11
5.3657913385826772
21
-4.5894645669291334
0
LINE
8
BLACK
6
CONTINUOUS
10
5.3657913385826772
20
-4.5894645669291334
11
5.3657913385826772
21
-4.5339527559055117
0
LINE
8
BLACK
6
CONTINUOUS
10
5.3657913385826772
20
-4.5339527559055117
11
5.2512244094488185
21
-4.5339527559055117
0
LINE
8
BLACK
6
CONTINUOUS
10
5.7734514566929134
20
-4.5320591732283466
11
5.7739841338582671
21
-4.5325918503937004
0
LINE
8
BLACK
6
CONTINUOUS
10
5.7739841338582671
20
-4.5325918503937004
11
5.7740590551181104
21
-4.532968503937008
0
LINE
8
BLACK
6
CONTINUOUS
10
5.7740590551181104
20
-4.532968503937008
11
5.7740590551181104
21
-4.590448818897638
0
LINE
8
BLACK
6
CONTINUOUS
10
5.7740590551181104
20
-4.590448818897638
11
5.7739841338582671
21
-4.5908254724409447
0
LINE
8
BLACK
6
CONTINUOUS
10
5.7739841338582671
20
-4.5908254724409447
11
5.7734514566929134
21
-4.5913581496062994
0
LINE
8
BLACK
6
CONTINUOUS
10
5.7734514566929134
20
-4.5913581496062994
11
5.7730748031496057
21
-4.5914330708661417
0
LINE
8
BLACK
6
CONTINUOUS
10
5.7730748031496057
20
-4.5914330708661417
11
5.6565393700787396
21
-4.5914330708661417
0
LINE
8
BLACK
6
CONTINUOUS
10
5.6565393700787396
20
-4.5914330708661417
11
5.6561627165354329
21
-4.5913581496062994
0
LINE
8
BLACK
6
CONTINUOUS
10
5.6561627165354329
20
-4.5913581496062994
11
5.6556300393700782
21
-4.5908254724409447
0
LINE
8
BLACK
6
CONTINUOUS
10
5.6556300393700782
20
-4.5908254724409447
11
5.6555551181102359
21
-4.590448818897638
0
LINE
8
BLACK
6
CONTINUOUS
10
5.6555551181102359
20
-4.590448818897638
11
5.6555551181102359
21
-4.532968503937008
0
LINE
8
BLACK
6
CONTINUOUS
10
5.6555551181102359
20
-4.532968503937008
11
5.6556300393700782
21
-4.5325918503937004
0
LINE
8
BLACK
6
CONTINUOUS
10
5.6556300393700782
20
-4.5325918503937004
11
5.6561627165354329
21
-4.5320591732283466
0
LINE
8
BLACK
6
CONTINUOUS
10
5.6561627165354329
20
-4.5320591732283466
11
5.6565393700787396
21
-4.5319842519685034
0
LINE
8
BLACK
6
CONTINUOUS
10
5.6565393700787396
20
-4.5319842519685034
11
5.7730748031496057
21
-4.5319842519685034
0
LINE
8
BLACK
6
CONTINUOUS
10
5.7730748031496057
20
-4.5319842519685034
11
5.7734514566929134
21
-4.5320591732283466
0
LINE
8
BLACK
6
CONTINUOUS
10
5.6575236220472442
20
-4.5339527559055117
11
5.6575236220472442
21
-4.5894645669291334
0
LINE
8
BLACK
6
CONTINUOUS
10
5.6575236220472442
20
-4.5894645669291334
11
5.772090551181102
21
-4.5894645669291334
0
LINE
8
BLACK
6
CONTINUOUS
10
5.772090551181102
20
-4.5894645669291334
11
5.772090551181102
21
-4.5339527559055117
0
LINE
8
BLACK
6
CONTINUOUS
10
5.772090551181102
20
-4.5339527559055117
11
5.6575236220472442
21
-4.5339527559055117
0
LINE
8
BLACK
6
CONTINUOUS
10
5.2092782283464567
20
-4.4332402755905509
11
5.2098109055118105
21
-4.4337729527559055
0
LINE
8
BLACK
6
CONTINUOUS
10
5.2098109055118105
20
-4.4337729527559055
11
5.2098858267716537
21
-4.4341496062992123
0
LINE
8
BLACK
6
CONTINUOUS
10
5.2098858267716537
20
-4.4341496062992123
11
5.2098858267716537
21
-4.4916299212598423
0
LINE
8
BLACK
6
CONTINUOUS
10
5.2098858267716537
20
-4.4916299212598423
11
5.2098109055118105
21
-4.4920065748031499
0
LINE
8
BLACK
6
CONTINUOUS
10
5.2098109055118105
20
-4.4920065748031499
11
5.2092782283464567
21
-4.4925392519685037
0
LINE
8
BLACK
6
CONTINUOUS
10
5.2092782283464567
20
-4.4925392519685037
11
5.2089015748031491
21
-4.492614173228346
0
LINE
8
BLACK
6
CONTINUOUS
10
5.2089015748031491
20
-4.492614173228346
11
5.092366141732283
21
-4.492614173228346
0
LINE
8
BLACK
6
CONTINUOUS
10
5.092366141732283
20
-4.492614173228346
11
5.0919894881889762
21
-4.4925392519685037
0
LINE
8
BLACK
6
CONTINUOUS
10
5.0919894881889762
20
-4.4925392519685037
11
5.0914568110236216
21
-4.4920065748031499
0
LINE
8
BLACK
6
CONTINUOUS
10
5.0914568110236216
20
-4.4920065748031499
11
5.0913818897637793
21
-4.4916299212598423
0
LINE
8
BLACK
6
CONTINUOUS
10
5.0913818897637793
20
-4.4916299212598423
11
5.0913818897637793
21
-4.4341496062992123
0
LINE
8
BLACK
6
CONTINUOUS
10
5.0913818897637793
20
-4.4341496062992123
11
5.0914568110236216
21
-4.4337729527559055
0
LINE
8
BLACK
6
CONTINUOUS
10
5.0914568110236216
20
-4.4337729527559055
11
5.0919894881889762
21
-4.4332402755905509
0
LINE
8
BLACK
6
CONTINUOUS
10
5.0919894881889762
20
-4.4332402755905509
11
5.092366141732283
21
-4.4331653543307086
0
LINE
8
BLACK
6
CONTINUOUS
10
5.092366141732283
20
-4.4331653543307086
11
5.2089015748031491
21
-4.4331653543307086
0
LINE
8
BLACK
6
CONTINUOUS
10
5.2089015748031491
20
-4.4331653543307086
11
5.2092782283464567
21
-4.4332402755905509
0
LINE
8
BLACK
6
CONTINUOUS
10
5.0933503937007876
20
-4.435133858267716
11
5.0933503937007876
21
-4.4906456692913386
0
LINE
8
BLACK
6
CONTINUOUS
10
5.0933503937007876
20
-4.4906456692913386
11
5.2079173228346454
21
-4.4906456692913386
0
LINE
8
BLACK
6
CONTINUOUS
10
5.2079173228346454
20
-4.4906456692913386
11
5.2079173228346454
21
-4.435133858267716
0
LINE
8
BLACK
6
CONTINUOUS
10
5.2079173228346454
20
-4.435133858267716
11
5.0933503937007876
21
-4.435133858267716
0
LINE
8
BLACK
6
CONTINUOUS
10
5.3671522440944877
20
-4.4332402755905509
11
5.3676849212598423
21
-4.4337729527559055
0
LINE
8
BLACK
6
CONTINUOUS
10
5.3676849212598423
20
-4.4337729527559055
11
5.3677598425196846
21
-4.4341496062992123
0
LINE
8
BLACK
6
CONTINUOUS
10
5.3677598425196846
20
-4.4341496062992123
11
5.3677598425196846
21
-4.4916299212598423
0
LINE
8
BLACK
6
CONTINUOUS
10
5.3677598425196846
20
-4.4916299212598423
11
5.3676849212598423
21
-4.4920065748031499
0
LINE
8
BLACK
6
CONTINUOUS
10
5.3676849212598423
20
-4.4920065748031499
11
5.3671522440944877
21
-4.4925392519685037
0
LINE
8
BLACK
6
CONTINUOUS
10
5.3671522440944877
20
-4.4925392519685037
11
5.3667755905511809
21
-4.492614173228346
0
LINE
8
BLACK
6
CONTINUOUS
10
5.3667755905511809
20
-4.492614173228346
11
5.2502401574803148
21
-4.492614173228346
0
LINE
8
BLACK
6
CONTINUOUS
10
5.2502401574803148
20
-4.492614173228346
11
5.2498635039370081
21
-4.4925392519685037
0
LINE
8
BLACK
6
CONTINUOUS
10
5.2498635039370081
20
-4.4925392519685037
11
5.2493308267716534
21
-4.4920065748031499
0
LINE
8
BLACK
6
CONTINUOUS
10
5.2493308267716534
20
-4.4920065748031499
11
5.2492559055118111
21
-4.4916299212598423
0
LINE
8
BLACK
6
CONTINUOUS
10
5.2492559055118111
20
-4.4916299212598423
11
5.2492559055118111
21
-4.4341496062992123
0
LINE
8
BLACK
6
CONTINUOUS
10
5.2492559055118111
20
-4.4341496062992123
11
5.2493308267716534
21
-4.4337729527559055
0
LINE
8
BLACK
6
CONTINUOUS
10
5.2493308267716534
20
-4.4337729527559055
11
5.2498635039370081
21
-4.4332402755905509
0
LINE
8
BLACK
6
CONTINUOUS
10
5.2498635039370081
20
-4.4332402755905509
11
5.2502401574803148
21
-4.4331653543307086
0
LINE
8
BLACK
6
CONTINUOUS
10
5.2502401574803148
20
-4.4331653543307086
11
5.3667755905511809
21
-4.4331653543307086
0
LINE
8
BLACK
6
CONTINUOUS
10
5.3667755905511809
20
-4.4331653543307086
11
5.3671522440944877
21
-4.4332402755905509
0
LINE
8
BLACK
6
CONTINUOUS
10
5.2512244094488185
20
-4.435133858267716
11
5.2512244094488185
21
-4.4906456692913386
0
LINE
8
BLACK
6
CONTINUOUS
10
5.2512244094488185
20
-4.4906456692913386
11
5.3657913385826772
21
-4.4906456692913386
0
LINE
8
BLACK
6
CONTINUOUS
10
5.3657913385826772
20
-4.4906456692913386
11
5.3657913385826772
21
-4.435133858267716
0
LINE
8
BLACK
6
CONTINUOUS
10
5.3657913385826772
20
-4.435133858267716
11
5.2512244094488185
21
-4.435133858267716
0
LINE
8
BLACK
6
CONTINUOUS
10
5.7734514566929134
20
-4.4332402755905509
11
5.7739841338582671
21
-4.4337729527559055
0
LINE
8
BLACK
6
CONTINUOUS
10
5.7739841338582671
20
-4.4337729527559055
11
5.7740590551181104
21
-4.4341496062992123
0
LINE
8
BLACK
6
CONTINUOUS
10
5.7740590551181104
20
-4.4341496062992123
11
5.7740590551181104
21
-4.4916299212598423
0
LINE
8
BLACK
6
CONTINUOUS
10
5.7740590551181104
20
-4.4916299212598423
11
5.7739841338582671
21
-4.4920065748031499
0
LINE
8
BLACK
6
CONTINUOUS
10
5.7739841338582671
20
-4.4920065748031499
11
5.7734514566929134
21
-4.4925392519685037
0
LINE
8
BLACK
6
CONTINUOUS
10
5.7734514566929134
20
-4.4925392519685037
11
5.7730748031496057
21
-4.492614173228346
0
LINE
8
BLACK
6
CONTINUOUS
10
5.7730748031496057
20
-4.492614173228346
11
5.6565393700787396
21
-4.492614173228346
0
LINE
8
BLACK
6
CONTINUOUS
10
5.6565393700787396
20
-4.492614173228346
11
5.6561627165354329
21
-4.4925392519685037
0
LINE
8
BLACK
6
CONTINUOUS
10
5.6561627165354329
20
-4.4925392519685037
11
5.6556300393700782
21
-4.4920065748031499
0
LINE
8
BLACK
6
CONTINUOUS
10
5.6556300393700782
20
-4.4920065748031499
11
5.6555551181102359
21
-4.4916299212598423
0
LINE
8
BLACK
6
CONTINUOUS
10
5.6555551181102359
20
-4.4916299212598423
11
5.6555551181102359
21
-4.4341496062992123
0
LINE
8
BLACK
6
CONTINUOUS
10
5.6555551181102359
20
-4.4341496062992123
11
5.6556300393700782
21
-4.4337729527559055
0
LINE
8
BLACK
6
CONTINUOUS
10
5.6556300393700782
20
-4.4337729527559055
11
5.6561627165354329
21
-4.4332402755905509
0
LINE
8
BLACK
6
CONTINUOUS
10
5.6561627165354329
20
-4.4332402755905509
11
5.6565393700787396
21
-4.4331653543307086
0
LINE
8
BLACK
6
CONTINUOUS
10
5.6565393700787396
20
-4.4331653543307086
11
5.7730748031496057
21
-4.4331653543307086
0
LINE
8
BLACK
6
CONTINUOUS
10
5.7730748031496057
20
-4.4331653543307086
11
5.7734514566929134
21
-4.4332402755905509
0
LINE
8
BLACK
6
CONTINUOUS
10
5.6575236220472442
20
-4.435133858267716
11
5.6575236220472442
21
-4.4906456692913386
0
LINE
8
BLACK
6
CONTINUOUS
10
5.6575236220472442
20
-4.4906456692913386
11
5.772090551181102
21
-4.4906456692913386
0
LINE
8
BLACK
6
CONTINUOUS
10
5.772090551181102
20
-4.4906456692913386
11
5.772090551181102
21
-4.435133858267716
0
LINE
8
BLACK
6
CONTINUOUS
10
5.772090551181102
20
-4.435133858267716
11
5.6575236220472442
21
-4.435133858267716
0
LINE
8
BLACK
6
CONTINUOUS
10
5.7734514566929134
20
-4.3344213779527561
11
5.7739841338582671
21
-4.3349540551181098
0
LINE
8
BLACK
6
CONTINUOUS
10
5.7739841338582671
20
-4.3349540551181098
11
5.7740590551181104
21
-4.3353307086614175
0
LINE
8
BLACK
6
CONTINUOUS
10
5.7740590551181104
20
-4.3353307086614175
11
5.7740590551181104
21
-4.3928110236220475
0
LINE
8
BLACK
6
CONTINUOUS
10
5.7740590551181104
20
-4.3928110236220475
11
5.7739841338582671
21
-4.3931876771653542
0
LINE
8
BLACK
6
CONTINUOUS
10
5.7739841338582671
20
-4.3931876771653542
11
5.7734514566929134
21
-4.3937203543307088
0
LINE
8
BLACK
6
CONTINUOUS
10
5.7734514566929134
20
-4.3937203543307088
11
5.7730748031496057
21
-4.3937952755905512
0
LINE
8
BLACK
6
CONTINUOUS
10
5.7730748031496057
20
-4.3937952755905512
11
5.6565393700787396
21
-4.3937952755905512
0
LINE
8
BLACK
6
CONTINUOUS
10
5.6565393700787396
20
-4.3937952755905512
11
5.6561627165354329
21
-4.3937203543307088
0
LINE
8
BLACK
6
CONTINUOUS
10
5.6561627165354329
20
-4.3937203543307088
11
5.6556300393700782
21
-4.3931876771653542
0
LINE
8
BLACK
6
CONTINUOUS
10
5.6556300393700782
20
-4.3931876771653542
11
5.6555551181102359
21
-4.3928110236220475
0
LINE
8
BLACK
6
CONTINUOUS
10
5.6555551181102359
20
-4.3928110236220475
11
5.6555551181102359
21
-4.3353307086614175
0
LINE
8
BLACK
6
CONTINUOUS
10
5.6555551181102359
20
-4.3353307086614175
11
5.6556300393700782
21
-4.3349540551181098
0
LINE
8
BLACK
6
CONTINUOUS
10
5.6556300393700782
20
-4.3349540551181098
11
5.6561627165354329
21
-4.3344213779527561
0
LINE
8
BLACK
6
CONTINUOUS
10
5.6561627165354329
20
-4.3344213779527561
11
5.6565393700787396
21
-4.3343464566929129
0
LINE
8
BLACK
6
CONTINUOUS
10
5.6565393700787396
20
-4.3343464566929129
11
5.7730748031496057
21
-4.3343464566929129
0
LINE
8
BLACK
6
CONTINUOUS
10
5.7730748031496057
20
-4.3343464566929129
11
5.7734514566929134
21
-4.3344213779527561
0
LINE
8
BLACK
6
CONTINUOUS
10
5.6575236220472442
20
-4.3363149606299212
11
5.6575236220472442
21
-4.3918267716535428
0
LINE
8
BLACK
6
CONTINUOUS
10
5.6575236220472442
20
-4.3918267716535428
11
5.772090551181102
21
-4.3918267716535428
0
LINE
8
BLACK
6
CONTINUOUS
10
5.772090551181102
20
-4.3918267716535428
11
5.772090551181102
21
-4.3363149606299212
0
LINE
8
BLACK
6
CONTINUOUS
10
5.772090551181102
20
-4.3363149606299212
11
5.6575236220472442
21
-4.3363149606299212
0
LINE
8
BLACK
6
CONTINUOUS
10
5.1532969685039367
20
-4.2947885039370082
11
5.1607882283464566
21
-4.297222598425197
0
LINE
8
BLACK
6
CONTINUOUS
10
5.1607882283464566
20
-4.297222598425197
11
5.1678065354330709
21
-4.3007985826771655
0
LINE
8
BLACK
6
CONTINUOUS
10
5.1678065354330709
20
-4.3007985826771655
11
5.1741789763779522
21
-4.3054284251968502
0
LINE
8
BLACK
6
CONTINUOUS
10
5.1741789763779522
20
-4.3054284251968502
11
5.1797487401574802
21
-4.3109981889763782
0
LINE
8
BLACK
6
CONTINUOUS
10
5.1797487401574802
20
-4.3109981889763782
11
5.1843785826771649
21
-4.3173706299212595
0
LINE
8
BLACK
6
CONTINUOUS
10
5.1843785826771649
20
-4.3173706299212595
11
5.1879545669291334
21
-4.3243889370078739
0
LINE
8
BLACK
6
CONTINUOUS
10
5.1879545669291334
20
-4.3243889370078739
11
5.1903886614173231
21
-4.3318801968503937
0
LINE
8
BLACK
6
CONTINUOUS
10
5.1903886614173231
20
-4.3318801968503937
11
5.191620866141732
21
-4.339660039370079
0
LINE
8
BLACK
6
CONTINUOUS
10
5.191620866141732
20
-4.339660039370079
11
5.191620866141732
21
-4.3475368110236223
0
LINE
8
BLACK
6
CONTINUOUS
10
5.191620866141732
20
-4.3475368110236223
11
5.1903886614173231
21
-4.3553166535433068
0
LINE
8
BLACK
6
CONTINUOUS
10
5.1903886614173231
20
-4.3553166535433068
11
5.1879545669291334
21
-4.3628079133858266
0
LINE
8
BLACK
6
CONTINUOUS
10
5.1879545669291334
20
-4.3628079133858266
11
5.1843785826771649
21
-4.369826220472441
0
LINE
8
BLACK
6
CONTINUOUS
10
5.1843785826771649
20
-4.369826220472441
11
5.1797487401574802
21
-4.3761986614173232
0
LINE
8
BLACK
6
CONTINUOUS
10
5.1797487401574802
20
-4.3761986614173232
11
5.1741789763779522
21
-4.3817684251968503
0
LINE
8
BLACK
6
CONTINUOUS
10
5.1741789763779522
20
-4.3817684251968503
11
5.1678065354330709
21
-4.386398267716535
0
LINE
8
BLACK
6
CONTINUOUS
10
5.1678065354330709
20
-4.386398267716535
11
5.1607882283464566
21
-4.3899742519685034
0
LINE
8
BLACK
6
CONTINUOUS
10
5.1607882283464566
20
-4.3899742519685034
11
5.1532969685039367
21
-4.3924083464566932
0
LINE
8
BLACK
6
CONTINUOUS
10
5.1532969685039367
20
-4.3924083464566932
11
5.1455171259842523
21
-4.3936405511811021
0
LINE
8
BLACK
6
CONTINUOUS
10
5.1455171259842523
20
-4.3936405511811021
11
5.137640354330709
21
-4.3936405511811021
0
LINE
8
BLACK
6
CONTINUOUS
10
5.137640354330709
20
-4.3936405511811021
11
5.1298605118110236
21
-4.3924083464566932
0
LINE
8
BLACK
6
CONTINUOUS
10
5.1298605118110236
20
-4.3924083464566932
11
5.1223692519685038
21
-4.3899742519685034
0
LINE
8
BLACK
6
CONTINUOUS
10
5.1223692519685038
20
-4.3899742519685034
11
5.1153509448818895
21
-4.386398267716535
0
LINE
8
BLACK
6
CONTINUOUS
10
5.1153509448818895
20
-4.386398267716535
11
5.1089785039370081
21
-4.3817684251968503
0
LINE
8
BLACK
6
CONTINUOUS
10
5.1089785039370081
20
-4.3817684251968503
11
5.1034087401574801
21
-4.3761986614173232
0
LINE
8
BLACK
6
CONTINUOUS
10
5.1034087401574801
20
-4.3761986614173232
11
5.0987788976377955
21
-4.369826220472441
0
LINE
8
BLACK
6
CONTINUOUS
10
5.0987788976377955
20
-4.369826220472441
11
5.095202913385827
21
-4.3628079133858266
0
LINE
8
BLACK
6
CONTINUOUS
10
5.095202913385827
20
-4.3628079133858266
11
5.0927688188976381
21
-4.3553166535433068
0
LINE
8
BLACK
6
CONTINUOUS
10
5.0927688188976381
20
-4.3553166535433068
11
5.0915366141732283
21
-4.3475368110236223
0
LINE
8
BLACK
6
CONTINUOUS
10
5.0915366141732283
20
-4.3475368110236223
11
5.0915366141732283
21
-4.3398027559055121
0
LINE
8
BLACK
6
CONTINUOUS
10
5.0915366141732283
20
-4.3398027559055121
11
5.0915366141732283
21
-4.339660039370079
0
LINE
8
BLACK
6
CONTINUOUS
10
5.0915366141732283
20
-4.339660039370079
11
5.0927688188976381
21
-4.3318801968503937
0
LINE
8
BLACK
6
CONTINUOUS
10
5.0927688188976381
20
-4.3318801968503937
11
5.095202913385827
21
-4.3243889370078739
0
LINE
8
BLACK
6
CONTINUOUS
10
5.095202913385827
20
-4.3243889370078739
11
5.0987788976377955
21
-4.3173706299212595
0
LINE
8
BLACK
6
CONTINUOUS
10
5.0987788976377955
20
-4.3173706299212595
11
5.1034087401574801
21
-4.3109981889763782
0
LINE
8
BLACK
6
CONTINUOUS
10
5.1034087401574801
20
-4.3109981889763782
11
5.1089785039370081
21
-4.3054284251968502
0
LINE
8
BLACK
6
CONTINUOUS
10
5.1089785039370081
20
-4.3054284251968502
11
5.1153509448818895
21
-4.3007985826771655
0
LINE
8
BLACK
6
CONTINUOUS
10
5.1153509448818895
20
-4.3007985826771655
11
5.1223692519685038
21
-4.297222598425197
0
LINE
8
BLACK
6
CONTINUOUS
10
5.1223692519685038
20
-4.297222598425197
11
5.1298605118110236
21
-4.2947885039370082
0
LINE
8
BLACK
6
CONTINUOUS
10
5.1298605118110236
20
-4.2947885039370082
11
5.137640354330709
21
-4.2935562992125984
0
LINE
8
BLACK
6
CONTINUOUS
10
5.137640354330709
20
-4.2935562992125984
11
5.1455171259842523
21
-4.2935562992125984
0
LINE
8
BLACK
6
CONTINUOUS
10
5.1455171259842523
20
-4.2935562992125984
11
5.1532969685039367
21
-4.2947885039370082
0
LINE
8
BLACK
6
CONTINUOUS
10
5.0933503937007876
20
-4.3473940944881893
11
5.0945379527559052
21
-4.3548919291338581
0
LINE
8
BLACK
6
CONTINUOUS
10
5.0945379527559052
20
-4.3548919291338581
11
5.096883779527559
21
-4.3621116929133859
0
LINE
8
BLACK
6
CONTINUOUS
10
5.096883779527559
20
-4.3621116929133859
11
5.1003301574803146
21
-4.3688755905511814
0
LINE
8
BLACK
6
CONTINUOUS
10
5.1003301574803146
20
-4.3688755905511814
11
5.1047922047244096
21
-4.3750170866141733
0
LINE
8
BLACK
6
CONTINUOUS
10
5.1047922047244096
20
-4.3750170866141733
11
5.1101600787401571
21
-4.3803849606299208
0
LINE
8
BLACK
6
CONTINUOUS
10
5.1101600787401571
20
-4.3803849606299208
11
5.1163015748031491
21
-4.3848470078740158
0
LINE
8
BLACK
6
CONTINUOUS
10
5.1163015748031491
20
-4.3848470078740158
11
5.1230654724409446
21
-4.3882933858267714
0
LINE
8
BLACK
6
CONTINUOUS
10
5.1230654724409446
20
-4.3882933858267714
11
5.1302852362204723
21
-4.3906392125984253
0
LINE
8
BLACK
6
CONTINUOUS
10
5.1302852362204723
20
-4.3906392125984253
11
5.1377830708661421
21
-4.3918267716535428
0
LINE
8
BLACK
6
CONTINUOUS
10
5.1377830708661421
20
-4.3918267716535428
11
5.1453744094488192
21
-4.3918267716535428
0
LINE
8
BLACK
6
CONTINUOUS
10
5.1453744094488192
20
-4.3918267716535428
11
5.1528722440944881
21
-4.3906392125984253
0
LINE
8
BLACK
6
CONTINUOUS
10
5.1528722440944881
20
-4.3906392125984253
11
5.1600920078740158
21
-4.3882933858267714
0
LINE
8
BLACK
6
CONTINUOUS
10
5.1600920078740158
20
-4.3882933858267714
11
5.1668559055118113
21
-4.3848470078740158
0
LINE
8
BLACK
6
CONTINUOUS
10
5.1668559055118113
20
-4.3848470078740158
11
5.1729974015748033
21
-4.3803849606299208
0
LINE
8
BLACK
6
CONTINUOUS
10
5.1729974015748033
20
-4.3803849606299208
11
5.1783652755905507
21
-4.3750170866141733
0
LINE
8
BLACK
6
CONTINUOUS
10
5.1783652755905507
20
-4.3750170866141733
11
5.1828273228346458
21
-4.3688755905511814
0
LINE
8
BLACK
6
CONTINUOUS
10
5.1828273228346458
20
-4.3688755905511814
11
5.1862737007874014
21
-4.3621116929133859
0
LINE
8
BLACK
6
CONTINUOUS
10
5.1862737007874014
20
-4.3621116929133859
11
5.1886195275590552
21
-4.3548919291338581
0
LINE
8
BLACK
6
CONTINUOUS
10
5.1886195275590552
20
-4.3548919291338581
11
5.1898070866141728
21
-4.3473940944881893
0
LINE
8
BLACK
6
CONTINUOUS
10
5.1898070866141728
20
-4.3473940944881893
11
5.1898070866141728
21
-4.3398027559055121
0
LINE
8
BLACK
6
CONTINUOUS
10
5.1898070866141728
20
-4.3398027559055121
11
5.1886195275590552
21
-4.3323049212598423
0
LINE
8
BLACK
6
CONTINUOUS
10
5.1886195275590552
20
-4.3323049212598423
11
5.1862737007874014
21
-4.3250851574803146
0
LINE
8
BLACK
6
CONTINUOUS
10
5.1862737007874014
20
-4.3250851574803146
11
5.1828273228346458
21
-4.31832125984252
0
LINE
8
BLACK
6
CONTINUOUS
10
5.1828273228346458
20
-4.31832125984252
11
5.1783652755905507
21
-4.3121797637795272
0
LINE
8
BLACK
6
CONTINUOUS
10
5.1783652755905507
20
-4.3121797637795272
11
5.1729974015748033
21
-4.3068118897637797
0
LINE
8
BLACK
6
CONTINUOUS
10
5.1729974015748033
20
-4.3068118897637797
11
5.1668559055118113
21
-4.3023498425196847
0
LINE
8
BLACK
6
CONTINUOUS
10
5.1668559055118113
20
-4.3023498425196847
11
5.1600920078740158
21
-4.2989034645669291
0
LINE
8
BLACK
6
CONTINUOUS
10
5.1600920078740158
20
-4.2989034645669291
11
5.1528722440944881
21
-4.2965576377952752
0
LINE
8
BLACK
6
CONTINUOUS
10
5.1528722440944881
20
-4.2965576377952752
11
5.1453744094488192
21
-4.2953700787401576
0
LINE
8
BLACK
6
CONTINUOUS
10
5.1453744094488192
20
-4.2953700787401576
11
5.1377830708661421
21
-4.2953700787401576
0
LINE
8
BLACK
6
CONTINUOUS
10
5.1377830708661421
20
-4.2953700787401576
11
5.1302852362204723
21
-4.2965576377952752
0
LINE
8
BLACK
6
CONTINUOUS
10
5.1302852362204723
20
-4.2965576377952752
11
5.1230654724409446
21
-4.2989034645669291
0
LINE
8
BLACK
6
CONTINUOUS
10
5.1230654724409446
20
-4.2989034645669291
11
5.1163015748031491
21
-4.3023498425196847
0
LINE
8
BLACK
6
CONTINUOUS
10
5.1163015748031491
20
-4.3023498425196847
11
5.1101600787401571
21
-4.3068118897637797
0
LINE
8
BLACK
6
CONTINUOUS
10
5.1101600787401571
20
-4.3068118897637797
11
5.1047922047244096
21
-4.3121797637795272
0
LINE
8
BLACK
6
CONTINUOUS
10
5.1047922047244096
20
-4.3121797637795272
11
5.1003301574803146
21
-4.31832125984252
0
LINE
8
BLACK
6
CONTINUOUS
10
5.1003301574803146
20
-4.31832125984252
11
5.096883779527559
21
-4.3250851574803146
0
LINE
8
BLACK
6
CONTINUOUS
10
5.096883779527559
20
-4.3250851574803146
11
5.0945379527559052
21
-4.3323049212598423
0
LINE
8
BLACK
6
CONTINUOUS
10
5.0945379527559052
20
-4.3323049212598423
11
5.0933503937007876
21
-4.3398027559055121
0
LINE
8
BLACK
6
CONTINUOUS
10
5.0933503937007876
20
-4.3398027559055121
11
5.0933503937007876
21
-4.3473940944881893
0
LINE
8
BLACK
6
CONTINUOUS
10
6.5681364960629915
20
-4.0816654724409451
11
6.5686691732283462
21
-4.0821981496062989
0
LINE
8
BLACK
6
CONTINUOUS
10
6.5686691732283462
20
-4.0821981496062989
11
6.5687440944881885
21
-4.0825748031496065
0
LINE
8
BLACK
6
CONTINUOUS
10
6.5687440944881885
20
-4.0825748031496065
11
6.5687440944881885
21
-4.0863149606299212
0
LINE
8
BLACK
6
CONTINUOUS
10
6.5687440944881885
20
-4.0863149606299212
11
6.6228779527559052
21
-4.0863149606299212
0
LINE
8
BLACK
6
CONTINUOUS
10
6.6228779527559052
20
-4.0863149606299212
11
6.6232546062992128
21
-4.0863898818897635
0
LINE
8
BLACK
6
CONTINUOUS
10
6.6232546062992128
20
-4.0863898818897635
11
6.6237872834645666
21
-4.0869225590551181
0
LINE
8
BLACK
6
CONTINUOUS
10
6.6237872834645666
20
-4.0869225590551181
11
6.6238622047244089
21
-4.0872992125984249
0
LINE
8
BLACK
6
CONTINUOUS
10
6.6238622047244089
20
-4.0872992125984249
11
6.6238622047244089
21
-4.35344094488189
0
LINE
8
BLACK
6
CONTINUOUS
10
6.6238622047244089
20
-4.35344094488189
11
6.6237872834645666
21
-4.3538175984251968
0
LINE
8
BLACK
6
CONTINUOUS
10
6.6237872834645666
20
-4.3538175984251968
11
6.6232546062992128
21
-4.3543502755905514
0
LINE
8
BLACK
6
CONTINUOUS
10
6.6232546062992128
20
-4.3543502755905514
11
6.6228779527559052
21
-4.3544251968503938
0
LINE
8
BLACK
6
CONTINUOUS
10
6.6228779527559052
20
-4.3544251968503938
11
6.5687440944881885
21
-4.3544251968503938
0
LINE
8
BLACK
6
CONTINUOUS
10
6.5687440944881885
20
-4.3544251968503938
11
6.5687440944881885
21
-4.3581653543307084
0
LINE
8
BLACK
6
CONTINUOUS
10
6.5687440944881885
20
-4.3581653543307084
11
6.5686691732283462
21
-4.358542007874016
0
LINE
8
BLACK
6
CONTINUOUS
10
6.5686691732283462
20
-4.358542007874016
11
6.5681364960629915
21
-4.3590746850393698
0
LINE
8
BLACK
6
CONTINUOUS
10
6.5681364960629915
20
-4.3590746850393698
11
6.5677598425196848
21
-4.3591496062992121
0
LINE
8
BLACK
6
CONTINUOUS
10
6.5677598425196848
20
-4.3591496062992121
11
6.3748464566929135
21
-4.3591496062992121
0
LINE
8
BLACK
6
CONTINUOUS
10
6.3748464566929135
20
-4.3591496062992121
11
6.3744698031496059
21
-4.3590746850393698
0
LINE
8
BLACK
6
CONTINUOUS
10
6.3744698031496059
20
-4.3590746850393698
11
6.3739371259842521
21
-4.358542007874016
0
LINE
8
BLACK
6
CONTINUOUS
10
6.3739371259842521
20
-4.358542007874016
11
6.3738622047244089
21
-4.3581653543307084
0
LINE
8
BLACK
6
CONTINUOUS
10
6.3738622047244089
20
-4.3581653543307084
11
6.3738622047244089
21
-4.3544251968503938
0
LINE
8
BLACK
6
CONTINUOUS
10
6.3738622047244089
20
-4.3544251968503938
11
6.3197283464566931
21
-4.3544251968503938
0
LINE
8
BLACK
6
CONTINUOUS
10
6.3197283464566931
20
-4.3544251968503938
11
6.3193516929133855
21
-4.3543502755905514
0
LINE
8
BLACK
6
CONTINUOUS
10
6.3193516929133855
20
-4.3543502755905514
11
6.3188190157480317
21
-4.3538175984251968
0
LINE
8
BLACK
6
CONTINUOUS
10
6.3188190157480317
20
-4.3538175984251968
11
6.3187440944881885
21
-4.35344094488189
0
LINE
8
BLACK
6
CONTINUOUS
10
6.3187440944881885
20
-4.35344094488189
11
6.3187440944881885
21
-4.0872992125984249
0
LINE
8
BLACK
6
CONTINUOUS
10
6.3187440944881885
20
-4.0872992125984249
11
6.3188190157480317
21
-4.0869225590551181
0
LINE
8
BLACK
6
CONTINUOUS
10
6.3188190157480317
20
-4.0869225590551181
11
6.3193516929133855
21
-4.0863898818897635
0
LINE
8
BLACK
6
CONTINUOUS
10
6.3193516929133855
20
-4.0863898818897635
11
6.3197283464566931
21
-4.0863149606299212
0
LINE
8
BLACK
6
CONTINUOUS
10
6.3197283464566931
20
-4.0863149606299212
11
6.3738622047244089
21
-4.0863149606299212
0
LINE
8
BLACK
6
CONTINUOUS
10
6.3738622047244089
20
-4.0863149606299212
11
6.3738622047244089
21
-4.0825748031496065
0
LINE
8
BLACK
6
CONTINUOUS
10
6.3738622047244089
20
-4.0825748031496065
11
6.3739371259842521
21
-4.0821981496062989
0
LINE
8
BLACK
6
CONTINUOUS
10
6.3739371259842521
20
-4.0821981496062989
11
6.3744698031496059
21
-4.0816654724409451
0
LINE
8
BLACK
6
CONTINUOUS
10
6.3744698031496059
20
-4.0816654724409451
11
6.3748464566929135
21
-4.0815905511811019
0
LINE
8
BLACK
6
CONTINUOUS
10
6.3748464566929135
20
-4.0815905511811019
11
6.5677598425196848
21
-4.0815905511811019
0
LINE
8
BLACK
6
CONTINUOUS
10
6.5677598425196848
20
-4.0815905511811019
11
6.5681364960629915
21
-4.0816654724409451
0
LINE
8
BLACK
6
CONTINUOUS
10
6.3758307086614172
20
-4.0835590551181102
11
6.3758307086614172
21
-4.0872992125984249
0
LINE
8
BLACK
6
CONTINUOUS
10
6.3758307086614172
20
-4.0872992125984249
11
6.3757557874015749
21
-4.0876758661417325
0
LINE
8
BLACK
6
CONTINUOUS
10
6.3757557874015749
20
-4.0876758661417325
11
6.3752231102362202
21
-4.0882085433070863
0
LINE
8
BLACK
6
CONTINUOUS
10
6.3752231102362202
20
-4.0882085433070863
11
6.3748464566929135
21
-4.0882834645669295
0
LINE
8
BLACK
6
CONTINUOUS
10
6.3748464566929135
20
-4.0882834645669295
11
6.3207125984251968
21
-4.0882834645669295
0
LINE
8
BLACK
6
CONTINUOUS
10
6.3207125984251968
20
-4.0882834645669295
11
6.3207125984251968
21
-4.3524566929133854
0
LINE
8
BLACK
6
CONTINUOUS
10
6.3207125984251968
20
-4.3524566929133854
11
6.3748464566929135
21
-4.3524566929133854
0
LINE
8
BLACK
6
CONTINUOUS
10
6.3748464566929135
20
-4.3524566929133854
11
6.3752231102362202
21
-4.3525316141732286
0
LINE
8
BLACK
6
CONTINUOUS
10
6.3752231102362202
20
-4.3525316141732286
11
6.3757557874015749
21
-4.3530642913385824
0
LINE
8
BLACK
6
CONTINUOUS
10
6.3757557874015749
20
-4.3530642913385824
11
6.3758307086614172
21
-4.35344094488189
0
LINE
8
BLACK
6
CONTINUOUS
10
6.3758307086614172
20
-4.35344094488189
11
6.3758307086614172
21
-4.3571811023622047
0
LINE
8
BLACK
6
CONTINUOUS
10
6.3758307086614172
20
-4.3571811023622047
11
6.5667755905511811
21
-4.3571811023622047
0
LINE
8
BLACK
6
CONTINUOUS
10
6.5667755905511811
20
-4.3571811023622047
11
6.5667755905511811
21
-4.35344094488189
0
LINE
8
BLACK
6
CONTINUOUS
10
6.5667755905511811
20
-4.35344094488189
11
6.5668505118110234
21
-4.3530642913385824
0
LINE
8
BLACK
6
CONTINUOUS
10
6.5668505118110234
20
-4.3530642913385824
11
6.5673831889763781
21
-4.3525316141732286
0
LINE
8
BLACK
6
CONTINUOUS
10
6.5673831889763781
20
-4.3525316141732286
11
6.5677598425196848
21
-4.3524566929133854
0
LINE
8
BLACK
6
CONTINUOUS
10
6.5677598425196848
20
-4.3524566929133854
11
6.6218937007874015
21
-4.3524566929133854
0
LINE
8
BLACK
6
CONTINUOUS
10
6.6218937007874015
20
-4.3524566929133854
11
6.6218937007874015
21
-4.0882834645669295
0
LINE
8
BLACK
6
CONTINUOUS
10
6.6218937007874015
20
-4.0882834645669295
11
6.5677598425196848
21
-4.0882834645669295
0
LINE
8
BLACK
6
CONTINUOUS
10
6.5677598425196848
20
-4.0882834645669295
11
6.5673831889763781
21
-4.0882085433070863
0
LINE
8
BLACK
6
CONTINUOUS
10
6.5673831889763781
20
-4.0882085433070863
11
6.5668505118110234
21
-4.0876758661417325
0
LINE
8
BLACK
6
CONTINUOUS
10
6.5668505118110234
20
-4.0876758661417325
11
6.5667755905511811
21
-4.0872992125984249
0
LINE
8
BLACK
6
CONTINUOUS
10
6.5667755905511811
20
-4.0872992125984249
11
6.5667755905511811
21
-4.0835590551181102
0
LINE
8
BLACK
6
CONTINUOUS
10
6.5667755905511811
20
-4.0835590551181102
11
6.3758307086614172
21
-4.0835590551181102
0
LINE
8
BLACK
6
CONTINUOUS
10
5.7734514566929134
20
-4.2356024803149603
11
5.7739841338582671
21
-4.236135157480315
0
LINE
8
BLACK
6
CONTINUOUS
10
5.7739841338582671
20
-4.236135157480315
11
5.7740590551181104
21
-4.2365118110236217
0
LINE
8
BLACK
6
CONTINUOUS
10
5.7740590551181104
20
-4.2365118110236217
11
5.7740590551181104
21
-4.2939921259842517
0
LINE
8
BLACK
6
CONTINUOUS
10
5.7740590551181104
20
-4.2939921259842517
11
5.7739841338582671
21
-4.2943687795275594
0
LINE
8
BLACK
6
CONTINUOUS
10
5.7739841338582671
20
-4.2943687795275594
11
5.7734514566929134
21
-4.2949014566929131
0
LINE
8
BLACK
6
CONTINUOUS
10
5.7734514566929134
20
-4.2949014566929131
11
5.7730748031496057
21
-4.2949763779527554
0
LINE
8
BLACK
6
CONTINUOUS
10
5.7730748031496057
20
-4.2949763779527554
11
5.6565393700787396
21
-4.2949763779527554
0
LINE
8
BLACK
6
CONTINUOUS
10
5.6565393700787396
20
-4.2949763779527554
11
5.6561627165354329
21
-4.2949014566929131
0
LINE
8
BLACK
6
CONTINUOUS
10
5.6561627165354329
20
-4.2949014566929131
11
5.6556300393700782
21
-4.2943687795275594
0
LINE
8
BLACK
6
CONTINUOUS
10
5.6556300393700782
20
-4.2943687795275594
11
5.6555551181102359
21
-4.2939921259842517
0
LINE
8
BLACK
6
CONTINUOUS
10
5.6555551181102359
20
-4.2939921259842517
11
5.6555551181102359
21
-4.2365118110236217
0
LINE
8
BLACK
6
CONTINUOUS
10
5.6555551181102359
20
-4.2365118110236217
11
5.6556300393700782
21
-4.236135157480315
0
LINE
8
BLACK
6
CONTINUOUS
10
5.6556300393700782
20
-4.236135157480315
11
5.6561627165354329
21
-4.2356024803149603
0
LINE
8
BLACK
6
CONTINUOUS
10
5.6561627165354329
20
-4.2356024803149603
11
5.6565393700787396
21
-4.235527559055118
0
LINE
8
BLACK
6
CONTINUOUS
10
5.6565393700787396
20
-4.235527559055118
11
5.7730748031496057
21
-4.235527559055118
0
LINE
8
BLACK
6
CONTINUOUS
10
5.7730748031496057
20
-4.235527559055118
11
5.7734514566929134
21
-4.2356024803149603
0
LINE
8
BLACK
6
CONTINUOUS
10
5.6575236220472442
20
-4.2374960629921254
11
5.6575236220472442
21
-4.293007874015748
0
LINE
8
BLACK
6
CONTINUOUS
10
5.6575236220472442
20
-4.293007874015748
11
5.772090551181102
21
-4.293007874015748
0
LINE
8
BLACK
6
CONTINUOUS
10
5.772090551181102
20
-4.293007874015748
11
5.772090551181102
21
-4.2374960629921254
0
LINE
8
BLACK
6
CONTINUOUS
10
5.772090551181102
20
-4.2374960629921254
11
5.6575236220472442
21
-4.2374960629921254
0
LINE
8
BLACK
6
CONTINUOUS
10
5.1532969685039367
20
-4.1550247244094489
11
5.1607882283464566
21
-4.1574588188976378
0
LINE
8
BLACK
6
CONTINUOUS
10
5.1607882283464566
20
-4.1574588188976378
11
5.1678065354330709
21
-4.1610348031496063
0
LINE
8
BLACK
6
CONTINUOUS
10
5.1678065354330709
20
-4.1610348031496063
11
5.1741789763779522
21
-4.165664645669291
0
LINE
8
BLACK
6
CONTINUOUS
10
5.1741789763779522
20
-4.165664645669291
11
5.1797487401574802
21
-4.171234409448819
0
LINE
8
BLACK
6
CONTINUOUS
10
5.1797487401574802
20
-4.171234409448819
11
5.1843785826771649
21
-4.1776068503937003
0
LINE
8
BLACK
6
CONTINUOUS
10
5.1843785826771649
20
-4.1776068503937003
11
5.1879545669291334
21
-4.1846251574803146
0
LINE
8
BLACK
6
CONTINUOUS
10
5.1879545669291334
20
-4.1846251574803146
11
5.1903886614173231
21
-4.1921164173228345
0
LINE
8
BLACK
6
CONTINUOUS
10
5.1903886614173231
20
-4.1921164173228345
11
5.191620866141732
21
-4.1998962598425198
0
LINE
8
BLACK
6
CONTINUOUS
10
5.191620866141732
20
-4.1998962598425198
11
5.191620866141732
21
-4.2077730314960631
0
LINE
8
BLACK
6
CONTINUOUS
10
5.191620866141732
20
-4.2077730314960631
11
5.1903886614173231
21
-4.2155528740157475
0
LINE
8
BLACK
6
CONTINUOUS
10
5.1903886614173231
20
-4.2155528740157475
11
5.1879545669291334
21
-4.2230441338582674
0
LINE
8
BLACK
6
CONTINUOUS
10
5.1879545669291334
20
-4.2230441338582674
11
5.1843785826771649
21
-4.2300624409448817
0
LINE
8
BLACK
6
CONTINUOUS
10
5.1843785826771649
20
-4.2300624409448817
11
5.1797487401574802
21
-4.2364348818897639
0
LINE
8
BLACK
6
CONTINUOUS
10
5.1797487401574802
20
-4.2364348818897639
11
5.1741789763779522
21
-4.242004645669291
0
LINE
8
BLACK
6
CONTINUOUS
10
5.1741789763779522
20
-4.242004645669291
11
5.1678065354330709
21
-4.2466344881889766
0
LINE
8
BLACK
6
CONTINUOUS
10
5.1678065354330709
20
-4.2466344881889766
11
5.1607882283464566
21
-4.2502104724409451
0
LINE
8
BLACK
6
CONTINUOUS
10
5.1607882283464566
20
-4.2502104724409451
11
5.1532969685039367
21
-4.252644566929134
0
LINE
8
BLACK
6
CONTINUOUS
10
5.1532969685039367
20
-4.252644566929134
11
5.1455171259842523
21
-4.2538767716535428
0
LINE
8
BLACK
6
CONTINUOUS
10
5.1455171259842523
20
-4.2538767716535428
11
5.137640354330709
21
-4.2538767716535428
0
LINE
8
BLACK
6
CONTINUOUS
10
5.137640354330709
20
-4.2538767716535428
11
5.1298605118110236
21
-4.252644566929134
0
LINE
8
BLACK
6
CONTINUOUS
10
5.1298605118110236
20
-4.252644566929134
11
5.1223692519685038
21
-4.2502104724409451
0
LINE
8
BLACK
6
CONTINUOUS
10
5.1223692519685038
20
-4.2502104724409451
11
5.1153509448818895
21
-4.2466344881889766
0
LINE
8
BLACK
6
CONTINUOUS
10
5.1153509448818895
20
-4.2466344881889766
11
5.1089785039370081
21
-4.242004645669291
0
LINE
8
BLACK
6
CONTINUOUS
10
5.1089785039370081
20
-4.242004645669291
11
5.1034087401574801
21
-4.2364348818897639
0
LINE
8
BLACK
6
CONTINUOUS
10
5.1034087401574801
20
-4.2364348818897639
11
5.0987788976377955
21
-4.2300624409448817
0
LINE
8
BLACK
6
CONTINUOUS
10
5.0987788976377955
20
-4.2300624409448817
11
5.095202913385827
21
-4.2230441338582674
0
LINE
8
BLACK
6
CONTINUOUS
10
5.095202913385827
20
-4.2230441338582674
11
5.0927688188976381
21
-4.2155528740157475
0
LINE
8
BLACK
6
CONTINUOUS
10
5.0927688188976381
20
-4.2155528740157475
11
5.0915366141732283
21
-4.2077730314960631
0
LINE
8
BLACK
6
CONTINUOUS
10
5.0915366141732283
20
-4.2077730314960631
11
5.0915366141732283
21
-4.2000389763779529
0
LINE
8
BLACK
6
CONTINUOUS
10
5.0915366141732283
20
-4.2000389763779529
11
5.0915366141732283
21
-4.1998962598425198
0
LINE
8
BLACK
6
CONTINUOUS
10
5.0915366141732283
20
-4.1998962598425198
11
5.0927688188976381
21
-4.1921164173228345
0
LINE
8
BLACK
6
CONTINUOUS
10
5.0927688188976381
20
-4.1921164173228345
11
5.095202913385827
21
-4.1846251574803146
0
LINE
8
BLACK
6
CONTINUOUS
10
5.095202913385827
20
-4.1846251574803146
11
5.0987788976377955
21
-4.1776068503937003
0
LINE
8
BLACK
6
CONTINUOUS
10
5.0987788976377955
20
-4.1776068503937003
11
5.1034087401574801
21
-4.171234409448819
0
LINE
8
BLACK
6
CONTINUOUS
10
5.1034087401574801
20
-4.171234409448819
11
5.1089785039370081
21
-4.165664645669291
0
LINE
8
BLACK
6
CONTINUOUS
10
5.1089785039370081
20
-4.165664645669291
11
5.1153509448818895
21
-4.1610348031496063
0
LINE
8
BLACK
6
CONTINUOUS
10
5.1153509448818895
20
-4.1610348031496063
11
5.1223692519685038
21
-4.1574588188976378
0
LINE
8
BLACK
6
CONTINUOUS
10
5.1223692519685038
20
-4.1574588188976378
11
5.1298605118110236
21
-4.1550247244094489
0
LINE
8
BLACK
6
CONTINUOUS
10
5.1298605118110236
20
-4.1550247244094489
11
5.137640354330709
21
-4.1537925196850392
0
LINE
8
BLACK
6
CONTINUOUS
10
5.137640354330709
20
-4.1537925196850392
11
5.1455171259842523
21
-4.1537925196850392
0
LINE
8
BLACK
6
CONTINUOUS
10
5.1455171259842523
20
-4.1537925196850392
11
5.1532969685039367
21
-4.1550247244094489
0
LINE
8
BLACK
6
CONTINUOUS
10
5.0933503937007876
20
-4.20763031496063
11
5.0945379527559052
21
-4.2151281496062989
0
LINE
8
BLACK
6
CONTINUOUS
10
5.0945379527559052
20
-4.2151281496062989
11
5.096883779527559
21
-4.2223479133858266
0
LINE
8
BLACK
6
CONTINUOUS
10
5.096883779527559
20
-4.2223479133858266
11
5.1003301574803146
21
-4.2291118110236221
0
LINE
8
BLACK
6
CONTINUOUS
10
5.1003301574803146
20
-4.2291118110236221
11
5.1047922047244096
21
-4.2352533070866141
0
LINE
8
BLACK
6
CONTINUOUS
10
5.1047922047244096
20
-4.2352533070866141
11
5.1101600787401571
21
-4.2406211811023624
0
LINE
8
BLACK
6
CONTINUOUS
10
5.1101600787401571
20
-4.2406211811023624
11
5.1163015748031491
21
-4.2450832283464566
0
LINE
8
BLACK
6
CONTINUOUS
10
5.1163015748031491
20
-4.2450832283464566
11
5.1230654724409446
21
-4.2485296062992122
0
LINE
8
BLACK
6
CONTINUOUS
10
5.1230654724409446
20
-4.2485296062992122
11
5.1302852362204723
21
-4.250875433070866
0
LINE
8
BLACK
6
CONTINUOUS
10
5.1302852362204723
20
-4.250875433070866
11
5.1377830708661421
21
-4.2520629921259845
0
LINE
8
BLACK
6
CONTINUOUS
10
5.1377830708661421
20
-4.2520629921259845
11
5.1453744094488192
21
-4.2520629921259845
0
LINE
8
BLACK
6
CONTINUOUS
10
5.1453744094488192
20
-4.2520629921259845
11
5.1528722440944881
21
-4.250875433070866
0
LINE
8
BLACK
6
CONTINUOUS
10
5.1528722440944881
20
-4.250875433070866
11
5.1600920078740158
21
-4.2485296062992122
0
LINE
8
BLACK
6
CONTINUOUS
10
5.1600920078740158
20
-4.2485296062992122
11
5.1668559055118113
21
-4.2450832283464566
0
LINE
8
BLACK
6
CONTINUOUS
10
5.1668559055118113
20
-4.2450832283464566
11
5.1729974015748033
21
-4.2406211811023624
0
LINE
8
BLACK
6
CONTINUOUS
10
5.1729974015748033
20
-4.2406211811023624
11
5.1783652755905507
21
-4.2352533070866141
0
LINE
8
BLACK
6
CONTINUOUS
10
5.1783652755905507
20
-4.2352533070866141
11
5.1828273228346458
21
-4.2291118110236221
0
LINE
8
BLACK
6
CONTINUOUS
10
5.1828273228346458
20
-4.2291118110236221
11
5.1862737007874014
21
-4.2223479133858266
0
LINE
8
BLACK
6
CONTINUOUS
10
5.1862737007874014
20
-4.2223479133858266
11
5.1886195275590552
21
-4.2151281496062989
0
LINE
8
BLACK
6
CONTINUOUS
10
5.1886195275590552
20
-4.2151281496062989
11
5.1898070866141728
21
-4.20763031496063
0
LINE
8
BLACK
6
CONTINUOUS
10
5.1898070866141728
20
-4.20763031496063
11
5.1898070866141728
21
-4.2000389763779529
0
LINE
8
BLACK
6
CONTINUOUS
10
5.1898070866141728
20
-4.2000389763779529
11
5.1886195275590552
21
-4.1925411417322831
0
LINE
8
BLACK
6
CONTINUOUS
10
5.1886195275590552
20
-4.1925411417322831
11
5.1862737007874014
21
-4.1853213779527554
0
LINE
8
BLACK
6
CONTINUOUS
10
5.1862737007874014
20
-4.1853213779527554
11
5.1828273228346458
21
-4.1785574803149608
0
LINE
8
BLACK
6
CONTINUOUS
10
5.1828273228346458
20
-4.1785574803149608
11
5.1783652755905507
21
-4.1724159842519688
0
LINE
8
BLACK
6
CONTINUOUS
10
5.1783652755905507
20
-4.1724159842519688
11
5.1729974015748033
21
-4.1670481102362205
0
LINE
8
BLACK
6
CONTINUOUS
10
5.1729974015748033
20
-4.1670481102362205
11
5.1668559055118113
21
-4.1625860629921263
0
LINE
8
BLACK
6
CONTINUOUS
10
5.1668559055118113
20
-4.1625860629921263
11
5.1600920078740158
21
-4.1591396850393698
0
LINE
8
BLACK
6
CONTINUOUS
10
5.1600920078740158
20
-4.1591396850393698
11
5.1528722440944881
21
-4.1567938582677169
0
LINE
8
BLACK
6
CONTINUOUS
10
5.1528722440944881
20
-4.1567938582677169
11
5.1453744094488192
21
-4.1556062992125984
0
LINE
8
BLACK
6
CONTINUOUS
10
5.1453744094488192
20
-4.1556062992125984
11
5.1377830708661421
21
-4.1556062992125984
0
LINE
8
BLACK
6
CONTINUOUS
10
5.1377830708661421
20
-4.1556062992125984
11
5.1302852362204723
21
-4.1567938582677169
0
LINE
8
BLACK
6
CONTINUOUS
10
5.1302852362204723
20
-4.1567938582677169
11
5.1230654724409446
21
-4.1591396850393698
0
LINE
8
BLACK
6
CONTINUOUS
10
5.1230654724409446
20
-4.1591396850393698
11
5.1163015748031491
21
-4.1625860629921263
0
LINE
8
BLACK
6
CONTINUOUS
10
5.1163015748031491
20
-4.1625860629921263
11
5.1101600787401571
21
-4.1670481102362205
0
LINE
8
BLACK
6
CONTINUOUS
10
5.1101600787401571
20
-4.1670481102362205
11
5.1047922047244096
21
-4.1724159842519688
0
LINE
8
BLACK
6
CONTINUOUS
10
5.1047922047244096
20
-4.1724159842519688
11
5.1003301574803146
21
-4.1785574803149608
0
LINE
8
BLACK
6
CONTINUOUS
10
5.1003301574803146
20
-4.1785574803149608
11
5.096883779527559
21
-4.1853213779527554
0
LINE
8
BLACK
6
CONTINUOUS
10
5.096883779527559
20
-4.1853213779527554
11
5.0945379527559052
21
-4.1925411417322831
0
LINE
8
BLACK
6
CONTINUOUS
10
5.0945379527559052
20
-4.1925411417322831
11
5.0933503937007876
21
-4.2000389763779529
0
LINE
8
BLACK
6
CONTINUOUS
10
5.0933503937007876
20
-4.2000389763779529
11
5.0933503937007876
21
-4.20763031496063
0
LINE
8
BLACK
6
CONTINUOUS
10
5.9368372834645671
20
-4.0999725590551179
11
5.9373699606299208
21
-4.1005052362204726
0
LINE
8
BLACK
6
CONTINUOUS
10
5.9373699606299208
20
-4.1005052362204726
11
5.937444881889764
21
-4.1008818897637793
0
LINE
8
BLACK
6
CONTINUOUS
10
5.937444881889764
20
-4.1008818897637793
11
5.937444881889764
21
-4.1077716535433071
0
LINE
8
BLACK
6
CONTINUOUS
10
5.937444881889764
20
-4.1077716535433071
11
5.9758307086614169
21
-4.1077716535433071
0
LINE
8
BLACK
6
CONTINUOUS
10
5.9758307086614169
20
-4.1077716535433071
11
5.9762073622047245
21
-4.1078465748031494
0
LINE
8
BLACK
6
CONTINUOUS
10
5.9762073622047245
20
-4.1078465748031494
11
5.9767400393700783
21
-4.1083792519685041
0
LINE
8
BLACK
6
CONTINUOUS
10
5.9767400393700783
20
-4.1083792519685041
11
5.9768149606299215
21
-4.1087559055118108
0
LINE
8
BLACK
6
CONTINUOUS
10
5.9768149606299215
20
-4.1087559055118108
11
5.9768149606299215
21
-4.1524566929133861
0
LINE
8
BLACK
6
CONTINUOUS
10
5.9768149606299215
20
-4.1524566929133861
11
5.9767400393700783
21
-4.1528333464566929
0
LINE
8
BLACK
6
CONTINUOUS
10
5.9767400393700783
20
-4.1528333464566929
11
5.9762073622047245
21
-4.1533660236220475
0
LINE
8
BLACK
6
CONTINUOUS
10
5.9762073622047245
20
-4.1533660236220475
11
5.9758307086614169
21
-4.1534409448818899
0
LINE
8
BLACK
6
CONTINUOUS
10
5.9758307086614169
20
-4.1534409448818899
11
5.937444881889764
21
-4.1534409448818899
0
LINE
8
BLACK
6
CONTINUOUS
10
5.937444881889764
20
-4.1534409448818899
11
5.937444881889764
21
-4.1821811023622049
0
LINE
8
BLACK
6
CONTINUOUS
10
5.937444881889764
20
-4.1821811023622049
11
5.9758307086614169
21
-4.1821811023622049
0
LINE
8
BLACK
6
CONTINUOUS
10
5.9758307086614169
20
-4.1821811023622049
11
5.9762073622047245
21
-4.1822560236220472
0
LINE
8
BLACK
6
CONTINUOUS
10
5.9762073622047245
20
-4.1822560236220472
11
5.9767400393700783
21
-4.1827887007874018
0
LINE
8
BLACK
6
CONTINUOUS
10
5.9767400393700783
20
-4.1827887007874018
11
5.9768149606299215
21
-4.1831653543307086
0
LINE
8
BLACK
6
CONTINUOUS
10
5.9768149606299215
20
-4.1831653543307086
11
5.9768149606299215
21
-4.226866141732283
0
LINE
8
BLACK
6
CONTINUOUS
10
5.9768149606299215
20
-4.226866141732283
11
5.9767400393700783
21
-4.2272427952755907
0
LINE
8
BLACK
6
CONTINUOUS
10
5.9767400393700783
20
-4.2272427952755907
11
5.9762073622047245
21
-4.2277754724409444
0
LINE
8
BLACK
6
CONTINUOUS
10
5.9762073622047245
20
-4.2277754724409444
11
5.9758307086614169
21
-4.2278503937007876
0
LINE
8
BLACK
6
CONTINUOUS
10
5.9758307086614169
20
-4.2278503937007876
11
5.937444881889764
21
-4.2278503937007876
0
LINE
8
BLACK
6
CONTINUOUS
10
5.937444881889764
20
-4.2278503937007876
11
5.937444881889764
21
-4.2347401574803145
0
LINE
8
BLACK
6
CONTINUOUS
10
5.937444881889764
20
-4.2347401574803145
11
5.9373699606299208
21
-4.2351168110236221
0
LINE
8
BLACK
6
CONTINUOUS
10
5.9373699606299208
20
-4.2351168110236221
11
5.9368372834645671
21
-4.2356494881889759
0
LINE
8
BLACK
6
CONTINUOUS
10
5.9368372834645671
20
-4.2356494881889759
11
5.9364606299212594
21
-4.2357244094488191
0
LINE
8
BLACK
6
CONTINUOUS
10
5.9364606299212594
20
-4.2357244094488191
11
5.8537834645669289
21
-4.2357244094488191
0
LINE
8
BLACK
6
CONTINUOUS
10
5.8537834645669289
20
-4.2357244094488191
11
5.8534068110236221
21
-4.2356494881889759
0
LINE
8
BLACK
6
CONTINUOUS
10
5.8534068110236221
20
-4.2356494881889759
11
5.8528741338582675
21
-4.2351168110236221
0
LINE
8
BLACK
6
CONTINUOUS
10
5.8528741338582675
20
-4.2351168110236221
11
5.8527992125984252
21
-4.2347401574803145
0
LINE
8
BLACK
6
CONTINUOUS
10
5.8527992125984252
20
-4.2347401574803145
11
5.8527992125984252
21
-4.2278503937007876
0
LINE
8
BLACK
6
CONTINUOUS
10
5.8527992125984252
20
-4.2278503937007876
11
5.8144133858267715
21
-4.2278503937007876
0
LINE
8
BLACK
6
CONTINUOUS
10
5.8144133858267715
20
-4.2278503937007876
11
5.8140367322834647
21
-4.2277754724409444
0
LINE
8
BLACK
6
CONTINUOUS
10
5.8140367322834647
20
-4.2277754724409444
11
5.8135040551181101
21
-4.2272427952755907
0
LINE
8
BLACK
6
CONTINUOUS
10
5.8135040551181101
20
-4.2272427952755907
11
5.8134291338582678
21
-4.226866141732283
0
LINE
8
BLACK
6
CONTINUOUS
10
5.8134291338582678
20
-4.226866141732283
11
5.8134291338582678
21
-4.1087559055118108
0
LINE
8
BLACK
6
CONTINUOUS
10
5.8134291338582678
20
-4.1087559055118108
11
5.8135040551181101
21
-4.1083792519685041
0
LINE
8
BLACK
6
CONTINUOUS
10
5.8135040551181101
20
-4.1083792519685041
11
5.8140367322834647
21
-4.1078465748031494
0
LINE
8
BLACK
6
CONTINUOUS
10
5.8140367322834647
20
-4.1078465748031494
11
5.8144133858267715
21
-4.1077716535433071
0
LINE
8
BLACK
6
CONTINUOUS
10
5.8144133858267715
20
-4.1077716535433071
11
5.8527992125984252
21
-4.1077716535433071
0
LINE
8
BLACK
6
CONTINUOUS
10
5.8527992125984252
20
-4.1077716535433071
11
5.8527992125984252
21
-4.1008818897637793
0
LINE
8
BLACK
6
CONTINUOUS
10
5.8527992125984252
20
-4.1008818897637793
11
5.8528741338582675
21
-4.1005052362204726
0
LINE
8
BLACK
6
CONTINUOUS
10
5.8528741338582675
20
-4.1005052362204726
11
5.8534068110236221
21
-4.0999725590551179
0
LINE
8
BLACK
6
CONTINUOUS
10
5.8534068110236221
20
-4.0999725590551179
11
5.8537834645669289
21
-4.0998976377952756
0
LINE
8
BLACK
6
CONTINUOUS
10
5.8537834645669289
20
-4.0998976377952756
11
5.9364606299212594
21
-4.0998976377952756
0
LINE
8
BLACK
6
CONTINUOUS
10
5.9364606299212594
20
-4.0998976377952756
11
5.9368372834645671
21
-4.0999725590551179
0
LINE
8
BLACK
6
CONTINUOUS
10
5.8547677165354326
20
-4.101866141732283
11
5.8547677165354326
21
-4.1087559055118108
0
LINE
8
BLACK
6
CONTINUOUS
10
5.8547677165354326
20
-4.1087559055118108
11
5.8546927952755903
21
-4.1091325590551184
0
LINE
8
BLACK
6
CONTINUOUS
10
5.8546927952755903
20
-4.1091325590551184
11
5.8541601181102365
21
-4.1096652362204722
0
LINE
8
BLACK
6
CONTINUOUS
10
5.8541601181102365
20
-4.1096652362204722
11
5.8537834645669289
21
-4.1097401574803145
0
LINE
8
BLACK
6
CONTINUOUS
10
5.8537834645669289
20
-4.1097401574803145
11
5.8153976377952752
21
-4.1097401574803145
0
LINE
8
BLACK
6
CONTINUOUS
10
5.8153976377952752
20
-4.1097401574803145
11
5.8153976377952752
21
-4.2258818897637793
0
LINE
8
BLACK
6
CONTINUOUS
10
5.8153976377952752
20
-4.2258818897637793
11
5.8537834645669289
21
-4.2258818897637793
0
LINE
8
BLACK
6
CONTINUOUS
10
5.8537834645669289
20
-4.2258818897637793
11
5.8541601181102365
21
-4.2259568110236216
0
LINE
8
BLACK
6
CONTINUOUS
10
5.8541601181102365
20
-4.2259568110236216
11
5.8546927952755903
21
-4.2264894881889763
0
LINE
8
BLACK
6
CONTINUOUS
10
5.8546927952755903
20
-4.2264894881889763
11
5.8547677165354326
21
-4.226866141732283
0
LINE
8
BLACK
6
CONTINUOUS
10
5.8547677165354326
20
-4.226866141732283
11
5.8547677165354326
21
-4.2337559055118108
0
LINE
8
BLACK
6
CONTINUOUS
10
5.8547677165354326
20
-4.2337559055118108
11
5.9354763779527557
21
-4.2337559055118108
0
LINE
8
BLACK
6
CONTINUOUS
10
5.9354763779527557
20
-4.2337559055118108
11
5.9354763779527557
21
-4.226866141732283
0
LINE
8
BLACK
6
CONTINUOUS
10
5.9354763779527557
20
-4.226866141732283
11
5.9355512992125981
21
-4.2264894881889763
0
LINE
8
BLACK
6
CONTINUOUS
10
5.9355512992125981
20
-4.2264894881889763
11
5.9360839763779527
21
-4.2259568110236216
0
LINE
8
BLACK
6
CONTINUOUS
10
5.9360839763779527
20
-4.2259568110236216
11
5.9364606299212594
21
-4.2258818897637793
0
LINE
8
BLACK
6
CONTINUOUS
10
5.9364606299212594
20
-4.2258818897637793
11
5.9748464566929131
21
-4.2258818897637793
0
LINE
8
BLACK
6
CONTINUOUS
10
5.9748464566929131
20
-4.2258818897637793
11
5.9748464566929131
21
-4.1841496062992123
0
LINE
8
BLACK
6
CONTINUOUS
10
5.9748464566929131
20
-4.1841496062992123
11
5.9364606299212594
21
-4.1841496062992123
0
LINE
8
BLACK
6
CONTINUOUS
10
5.9364606299212594
20
-4.1841496062992123
11
5.9360839763779527
21
-4.18407468503937
0
LINE
8
BLACK
6
CONTINUOUS
10
5.9360839763779527
20
-4.18407468503937
11
5.9355512992125981
21
-4.1835420078740153
0
LINE
8
BLACK
6
CONTINUOUS
10
5.9355512992125981
20
-4.1835420078740153
11
5.9354763779527557
21
-4.1831653543307086
0
LINE
8
BLACK
6
CONTINUOUS
10
5.9354763779527557
20
-4.1831653543307086
11
5.9354763779527557
21
-4.1524566929133861
0
LINE
8
BLACK
6
CONTINUOUS
10
5.9354763779527557
20
-4.1524566929133861
11
5.9355512992125981
21
-4.1520800393700785
0
LINE
8
BLACK
6
CONTINUOUS
10
5.9355512992125981
20
-4.1520800393700785
11
5.9360839763779527
21
-4.1515473622047248
0
LINE
8
BLACK
6
CONTINUOUS
10
5.9360839763779527
20
-4.1515473622047248
11
5.9364606299212594
21
-4.1514724409448815
0
LINE
8
BLACK
6
CONTINUOUS
10
5.9364606299212594
20
-4.1514724409448815
11
5.9748464566929131
21
-4.1514724409448815
0
LINE
8
BLACK
6
CONTINUOUS
10
5.9748464566929131
20
-4.1514724409448815
11
5.9748464566929131
21
-4.1097401574803145
0
LINE
8
BLACK
6
CONTINUOUS
10
5.9748464566929131
20
-4.1097401574803145
11
5.9364606299212594
21
-4.1097401574803145
0
LINE
8
BLACK
6
CONTINUOUS
10
5.9364606299212594
20
-4.1097401574803145
11
5.9360839763779527
21
-4.1096652362204722
0
LINE
8
BLACK
6
CONTINUOUS
10
5.9360839763779527
20
-4.1096652362204722
11
5.9355512992125981
21
-4.1091325590551184
0
LINE
8
BLACK
6
CONTINUOUS
10
5.9355512992125981
20
-4.1091325590551184
11
5.9354763779527557
21
-4.1087559055118108
0
LINE
8
BLACK
6
CONTINUOUS
10
5.9354763779527557
20
-4.1087559055118108
11
5.9354763779527557
21
-4.101866141732283
0
LINE
8
BLACK
6
CONTINUOUS
10
5.9354763779527557
20
-4.101866141732283
11
5.8547677165354326
21
-4.101866141732283
0
LINE
8
BLACK
6
CONTINUOUS
10
5.1532969685039367
20
-4.0152609448818897
11
5.1607882283464566
21
-4.0176950393700785
0
LINE
8
BLACK
6
CONTINUOUS
10
5.1607882283464566
20
-4.0176950393700785
11
5.1678065354330709
21
-4.021271023622047
0
LINE
8
BLACK
6
CONTINUOUS
10
5.1678065354330709
20
-4.021271023622047
11
5.1741789763779522
21
-4.0259008661417326
0
LINE
8
BLACK
6
CONTINUOUS
10
5.1741789763779522
20
-4.0259008661417326
11
5.1797487401574802
21
-4.0314706299212597
0
LINE
8
BLACK
6
CONTINUOUS
10
5.1797487401574802
20
-4.0314706299212597
11
5.1843785826771649
21
-4.0378430708661419
0
LINE
8
BLACK
6
CONTINUOUS
10
5.1843785826771649
20
-4.0378430708661419
11
5.1879545669291334
21
-4.0448613779527562
0
LINE
8
BLACK
6
CONTINUOUS
10
5.1879545669291334
20
-4.0448613779527562
11
5.1903886614173231
21
-4.0523526377952752
0
LINE
8
BLACK
6
CONTINUOUS
10
5.1903886614173231
20
-4.0523526377952752
11
5.191620866141732
21
-4.0601324803149605
0
LINE
8
BLACK
6
CONTINUOUS
10
5.191620866141732
20
-4.0601324803149605
11
5.191620866141732
21
-4.0680092519685038
0
LINE
8
BLACK
6
CONTINUOUS
10
5.191620866141732
20
-4.0680092519685038
11
5.1903886614173231
21
-4.0757890944881892
0
LINE
8
BLACK
6
CONTINUOUS
10
5.1903886614173231
20
-4.0757890944881892
11
5.1879545669291334
21
-4.0832803543307081
0
LINE
8
BLACK
6
CONTINUOUS
10
5.1879545669291334
20
-4.0832803543307081
11
5.1843785826771649
21
-4.0902986614173225
0
LINE
8
BLACK
6
CONTINUOUS
10
5.1843785826771649
20
-4.0902986614173225
11
5.1797487401574802
21
-4.0966711023622047
0
LINE
8
BLACK
6
CONTINUOUS
10
5.1797487401574802
20
-4.0966711023622047
11
5.1741789763779522
21
-4.1022408661417318
0
LINE
8
BLACK
6
CONTINUOUS
10
5.1741789763779522
20
-4.1022408661417318
11
5.1678065354330709
21
-4.1068707086614173
0
LINE
8
BLACK
6
CONTINUOUS
10
5.1678065354330709
20
-4.1068707086614173
11
5.1607882283464566
21
-4.1104466929133858
0
LINE
8
BLACK
6
CONTINUOUS
10
5.1607882283464566
20
-4.1104466929133858
11
5.1532969685039367
21
-4.1128807874015747
0
LINE
8
BLACK
6
CONTINUOUS
10
5.1532969685039367
20
-4.1128807874015747
11
5.1455171259842523
21
-4.1141129921259845
0
LINE
8
BLACK
6
CONTINUOUS
10
5.1455171259842523
20
-4.1141129921259845
11
5.137640354330709
21
-4.1141129921259845
0
LINE
8
BLACK
6
CONTINUOUS
10
5.137640354330709
20
-4.1141129921259845
11
5.1298605118110236
21
-4.1128807874015747
0
LINE
8
BLACK
6
CONTINUOUS
10
5.1298605118110236
20
-4.1128807874015747
11
5.1223692519685038
21
-4.1104466929133858
0
LINE
8
BLACK
6
CONTINUOUS
10
5.1223692519685038
20
-4.1104466929133858
11
5.1153509448818895
21
-4.1068707086614173
0
LINE
8
BLACK
6
CONTINUOUS
10
5.1153509448818895
20
-4.1068707086614173
11
5.1089785039370081
21
-4.1022408661417318
0
LINE
8
BLACK
6
CONTINUOUS
10
5.1089785039370081
20
-4.1022408661417318
11
5.1034087401574801
21
-4.0966711023622047
0
LINE
8
BLACK
6
CONTINUOUS
10
5.1034087401574801
20
-4.0966711023622047
11
5.0987788976377955
21
-4.0902986614173225
0
LINE
8
BLACK
6
CONTINUOUS
10
5.0987788976377955
20
-4.0902986614173225
11
5.095202913385827
21
-4.0832803543307081
0
LINE
8
BLACK
6
CONTINUOUS
10
5.095202913385827
20
-4.0832803543307081
11
5.0927688188976381
21
-4.0757890944881892
0
LINE
8
BLACK
6
CONTINUOUS
10
5.0927688188976381
20
-4.0757890944881892
11
5.0915366141732283
21
-4.0680092519685038
0
LINE
8
BLACK
6
CONTINUOUS
10
5.0915366141732283
20
-4.0680092519685038
11
5.0915366141732283
21
-4.0602751968503936
0
LINE
8
BLACK
6
CONTINUOUS
10
5.0915366141732283
20
-4.0602751968503936
11
5.0915366141732283
21
-4.0601324803149605
0
LINE
8
BLACK
6
CONTINUOUS
10
5.0915366141732283
20
-4.0601324803149605
11
5.0927688188976381
21
-4.0523526377952752
0
LINE
8
BLACK
6
CONTINUOUS
10
5.0927688188976381
20
-4.0523526377952752
11
5.095202913385827
21
-4.0448613779527562
0
LINE
8
BLACK
6
CONTINUOUS
10
5.095202913385827
20
-4.0448613779527562
11
5.0987788976377955
21
-4.0378430708661419
0
LINE
8
BLACK
6
CONTINUOUS
10
5.0987788976377955
20
-4.0378430708661419
11
5.1034087401574801
21
-4.0314706299212597
0
LINE
8
BLACK
6
CONTINUOUS
10
5.1034087401574801
20
-4.0314706299212597
11
5.1089785039370081
21
-4.0259008661417326
0
LINE
8
BLACK
6
CONTINUOUS
10
5.1089785039370081
20
-4.0259008661417326
11
5.1153509448818895
21
-4.021271023622047
0
LINE
8
BLACK
6
CONTINUOUS
10
5.1153509448818895
20
-4.021271023622047
11
5.1223692519685038
21
-4.0176950393700785
0
LINE
8
BLACK
6
CONTINUOUS
10
5.1223692519685038
20
-4.0176950393700785
11
5.1298605118110236
21
-4.0152609448818897
0
LINE
8
BLACK
6
CONTINUOUS
10
5.1298605118110236
20
-4.0152609448818897
11
5.137640354330709
21
-4.0140287401574799
0
LINE
8
BLACK
6
CONTINUOUS
10
5.137640354330709
20
-4.0140287401574799
11
5.1455171259842523
21
-4.0140287401574799
0
LINE
8
BLACK
6
CONTINUOUS
10
5.1455171259842523
20
-4.0140287401574799
11
5.1532969685039367
21
-4.0152609448818897
0
LINE
8
BLACK
6
CONTINUOUS
10
5.0933503937007876
20
-4.0678665354330708
11
5.0945379527559052
21
-4.0753643700787396
0
LINE
8
BLACK
6
CONTINUOUS
10
5.0945379527559052
20
-4.0753643700787396
11
5.096883779527559
21
-4.0825841338582674
0
LINE
8
BLACK
6
CONTINUOUS
10
5.096883779527559
20
-4.0825841338582674
11
5.1003301574803146
21
-4.0893480314960629
0
LINE
8
BLACK
6
CONTINUOUS
10
5.1003301574803146
20
-4.0893480314960629
11
5.1047922047244096
21
-4.0954895275590548
0
LINE
8
BLACK
6
CONTINUOUS
10
5.1047922047244096
20
-4.0954895275590548
11
5.1101600787401571
21
-4.1008574015748032
0
LINE
8
BLACK
6
CONTINUOUS
10
5.1101600787401571
20
-4.1008574015748032
11
5.1163015748031491
21
-4.1053194488188973
0
LINE
8
BLACK
6
CONTINUOUS
10
5.1163015748031491
20
-4.1053194488188973
11
5.1230654724409446
21
-4.1087658267716538
0
LINE
8
BLACK
6
CONTINUOUS
10
5.1230654724409446
20
-4.1087658267716538
11
5.1302852362204723
21
-4.1111116535433068
0
LINE
8
BLACK
6
CONTINUOUS
10
5.1302852362204723
20
-4.1111116535433068
11
5.1377830708661421
21
-4.1122992125984252
0
LINE
8
BLACK
6
CONTINUOUS
10
5.1377830708661421
20
-4.1122992125984252
11
5.1453744094488192
21
-4.1122992125984252
0
LINE
8
BLACK
6
CONTINUOUS
10
5.1453744094488192
20
-4.1122992125984252
11
5.1528722440944881
21
-4.1111116535433068
0
LINE
8
BLACK
6
CONTINUOUS
10
5.1528722440944881
20
-4.1111116535433068
11
5.1600920078740158
21
-4.1087658267716538
0
LINE
8
BLACK
6
CONTINUOUS
10
5.1600920078740158
20
-4.1087658267716538
11
5.1668559055118113
21
-4.1053194488188973
0
LINE
8
BLACK
6
CONTINUOUS
10
5.1668559055118113
20
-4.1053194488188973
11
5.1729974015748033
21
-4.1008574015748032
0
LINE
8
BLACK
6
CONTINUOUS
10
5.1729974015748033
20
-4.1008574015748032
11
5.1783652755905507
21
-4.0954895275590548
0
LINE
8
BLACK
6
CONTINUOUS
10
5.1783652755905507
20
-4.0954895275590548
11
5.1828273228346458
21
-4.0893480314960629
0
LINE
8
BLACK
6
CONTINUOUS
10
5.1828273228346458
20
-4.0893480314960629
11
5.1862737007874014
21
-4.0825841338582674
0
LINE
8
BLACK
6
CONTINUOUS
10
5.1862737007874014
20
-4.0825841338582674
11
5.1886195275590552
21
-4.0753643700787396
0
LINE
8
BLACK
6
CONTINUOUS
10
5.1886195275590552
20
-4.0753643700787396
11
5.1898070866141728
21
-4.0678665354330708
0
LINE
8
BLACK
6
CONTINUOUS
10
5.1898070866141728
20
-4.0678665354330708
11
5.1898070866141728
21
-4.0602751968503936
0
LINE
8
BLACK
6
CONTINUOUS
10
5.1898070866141728
20
-4.0602751968503936
11
5.1886195275590552
21
-4.0527773622047247
0
LINE
8
BLACK
6
CONTINUOUS
10
5.1886195275590552
20
-4.0527773622047247
11
5.1862737007874014
21
-4.045557598425197
0
LINE
8
BLACK
6
CONTINUOUS
10
5.1862737007874014
20
-4.045557598425197
11
5.1828273228346458
21
-4.0387937007874015
0
LINE
8
BLACK
6
CONTINUOUS
10
5.1828273228346458
20
-4.0387937007874015
11
5.1783652755905507
21
-4.0326522047244096
0
LINE
8
BLACK
6
CONTINUOUS
10
5.1783652755905507
20
-4.0326522047244096
11
5.1729974015748033
21
-4.0272843307086612
0
LINE
8
BLACK
6
CONTINUOUS
10
5.1729974015748033
20
-4.0272843307086612
11
5.1668559055118113
21
-4.0228222834645671
0
LINE
8
BLACK
6
CONTINUOUS
10
5.1668559055118113
20
-4.0228222834645671
11
5.1600920078740158
21
-4.0193759055118106
0
LINE
8
BLACK
6
CONTINUOUS
10
5.1600920078740158
20
-4.0193759055118106
11
5.1528722440944881
21
-4.0170300787401576
0
LINE
8
BLACK
6
CONTINUOUS
10
5.1528722440944881
20
-4.0170300787401576
11
5.1453744094488192
21
-4.0158425196850391
0
LINE
8
BLACK
6
CONTINUOUS
10
5.1453744094488192
20
-4.0158425196850391
11
5.1377830708661421
21
-4.0158425196850391
0
LINE
8
BLACK
6
CONTINUOUS
10
5.1377830708661421
20
-4.0158425196850391
11
5.1302852362204723
21
-4.0170300787401576
0
LINE
8
BLACK
6
CONTINUOUS
10
5.1302852362204723
20
-4.0170300787401576
11
5.1230654724409446
21
-4.0193759055118106
0
LINE
8
BLACK
6
CONTINUOUS
10
5.1230654724409446
20
-4.0193759055118106
11
5.1163015748031491
21
-4.0228222834645671
0
LINE
8
BLACK
6
CONTINUOUS
10
5.1163015748031491
20
-4.0228222834645671
11
5.1101600787401571
21
-4.0272843307086612
0
LINE
8
BLACK
6
CONTINUOUS
10
5.1101600787401571
20
-4.0272843307086612
11
5.1047922047244096
21
-4.0326522047244096
0
LINE
8
BLACK
6
CONTINUOUS
10
5.1047922047244096
20
-4.0326522047244096
11
5.1003301574803146
21
-4.0387937007874015
0
LINE
8
BLACK
6
CONTINUOUS
10
5.1003301574803146
20
-4.0387937007874015
11
5.096883779527559
21
-4.045557598425197
0
LINE
8
BLACK
6
CONTINUOUS
10
5.096883779527559
20
-4.045557598425197
11
5.0945379527559052
21
-4.0527773622047247
0
LINE
8
BLACK
6
CONTINUOUS
10
5.0945379527559052
20
-4.0527773622047247
11
5.0933503937007876
21
-4.0602751968503936
0
LINE
8
BLACK
6
CONTINUOUS
10
5.0933503937007876
20
-4.0602751968503936
11
5.0933503937007876
21
-4.0678665354330708
0
LINE
8
BLACK
6
CONTINUOUS
10
5.9486483070866143
20
-3.982256023622047
11
5.9491809842519681
21
-3.9827887007874017
0
LINE
8
BLACK
6
CONTINUOUS
10
5.9491809842519681
20
-3.9827887007874017
11
5.9492559055118113
21
-3.9831653543307084
0
LINE
8
BLACK
6
CONTINUOUS
10
5.9492559055118113
20
-3.9831653543307084
11
5.9492559055118113
21
-4.0579685039370075
0
LINE
8
BLACK
6
CONTINUOUS
10
5.9492559055118113
20
-4.0579685039370075
11
5.9491809842519681
21
-4.0583451574803151
0
LINE
8
BLACK
6
CONTINUOUS
10
5.9491809842519681
20
-4.0583451574803151
11
5.9486483070866143
21
-4.0588778346456689
0
LINE
8
BLACK
6
CONTINUOUS
10
5.9486483070866143
20
-4.0588778346456689
11
5.9482716535433067
21
-4.0589527559055121
0
LINE
8
BLACK
6
CONTINUOUS
10
5.9482716535433067
20
-4.0589527559055121
11
5.8159881889763776
21
-4.0589527559055121
0
LINE
8
BLACK
6
CONTINUOUS
10
5.8159881889763776
20
-4.0589527559055121
11
5.8156115354330709
21
-4.0588778346456689
0
LINE
8
BLACK
6
CONTINUOUS
10
5.8156115354330709
20
-4.0588778346456689
11
5.8150788582677162
21
-4.0583451574803151
0
LINE
8
BLACK
6
CONTINUOUS
10
5.8150788582677162
20
-4.0583451574803151
11
5.8150039370078739
21
-4.0579685039370075
0
LINE
8
BLACK
6
CONTINUOUS
10
5.8150039370078739
20
-4.0579685039370075
11
5.8150039370078739
21
-3.9831653543307084
0
LINE
8
BLACK
6
CONTINUOUS
10
5.8150039370078739
20
-3.9831653543307084
11
5.8150788582677162
21
-3.9827887007874017
0
LINE
8
BLACK
6
CONTINUOUS
10
5.8150788582677162
20
-3.9827887007874017
11
5.8156115354330709
21
-3.982256023622047
0
LINE
8
BLACK
6
CONTINUOUS
10
5.8156115354330709
20
-3.982256023622047
11
5.8159881889763776
21
-3.9821811023622047
0
LINE
8
BLACK
6
CONTINUOUS
10
5.8159881889763776
20
-3.9821811023622047
11
5.9482716535433067
21
-3.9821811023622047
0
LINE
8
BLACK
6
CONTINUOUS
10
5.9482716535433067
20
-3.9821811023622047
11
5.9486483070866143
21
-3.982256023622047
0
LINE
8
BLACK
6
CONTINUOUS
10
5.8169724409448822
20
-3.9841496062992126
11
5.8169724409448822
21
-4.0569842519685038
0
LINE
8
BLACK
6
CONTINUOUS
10
5.8169724409448822
20
-4.0569842519685038
11
5.947287401574803
21
-4.0569842519685038
0
LINE
8
BLACK
6
CONTINUOUS
10
5.947287401574803
20
-4.0569842519685038
11
5.947287401574803
21
-3.9841496062992126
0
LINE
8
BLACK
6
CONTINUOUS
10
5.947287401574803
20
-3.9841496062992126
11
5.8169724409448822
21
-3.9841496062992126
0
LINE
8
BLACK
6
CONTINUOUS
10
5.3703018503937008
20
-3.9281221653543308
11
5.3708345275590554
21
-3.928654842519685
0
LINE
8
BLACK
6
CONTINUOUS
10
5.3708345275590554
20
-3.928654842519685
11
5.3709094488188978
21
-3.9290314960629922
0
LINE
8
BLACK
6
CONTINUOUS
10
5.3709094488188978
20
-3.9290314960629922
11
5.3709094488188978
21
-4.0471417322834649
0
LINE
8
BLACK
6
CONTINUOUS
10
5.3709094488188978
20
-4.0471417322834649
11
5.3708345275590554
21
-4.0475183858267716
0
LINE
8
BLACK
6
CONTINUOUS
10
5.3708345275590554
20
-4.0475183858267716
11
5.3703018503937008
21
-4.0480510629921262
0
LINE
8
BLACK
6
CONTINUOUS
10
5.3703018503937008
20
-4.0480510629921262
11
5.3699251968503932
21
-4.0481259842519686
0
LINE
8
BLACK
6
CONTINUOUS
10
5.3699251968503932
20
-4.0481259842519686
11
5.2321299212598422
21
-4.0481259842519686
0
LINE
8
BLACK
6
CONTINUOUS
10
5.2321299212598422
20
-4.0481259842519686
11
5.2317532677165355
21
-4.0480510629921262
0
LINE
8
BLACK
6
CONTINUOUS
10
5.2317532677165355
20
-4.0480510629921262
11
5.2312205905511808
21
-4.0475183858267716
0
LINE
8
BLACK
6
CONTINUOUS
10
5.2312205905511808
20
-4.0475183858267716
11
5.2311456692913385
21
-4.0471417322834649
0
LINE
8
BLACK
6
CONTINUOUS
10
5.2311456692913385
20
-4.0471417322834649
11
5.2311456692913385
21
-3.9290314960629922
0
LINE
8
BLACK
6
CONTINUOUS
10
5.2311456692913385
20
-3.9290314960629922
11
5.2312205905511808
21
-3.928654842519685
0
LINE
8
BLACK
6
CONTINUOUS
10
5.2312205905511808
20
-3.928654842519685
11
5.2317532677165355
21
-3.9281221653543308
0
LINE
8
BLACK
6
CONTINUOUS
10
5.2317532677165355
20
-3.9281221653543308
11
5.2321299212598422
21
-3.928047244094488
0
LINE
8
BLACK
6
CONTINUOUS
10
5.2321299212598422
20
-3.928047244094488
11
5.3699251968503932
21
-3.928047244094488
0
LINE
8
BLACK
6
CONTINUOUS
10
5.3699251968503932
20
-3.928047244094488
11
5.3703018503937008
21
-3.9281221653543308
0
LINE
8
BLACK
6
CONTINUOUS
10
5.2331141732283459
20
-3.9300157480314959
11
5.2331141732283459
21
-4.0461574803149603
0
LINE
8
BLACK
6
CONTINUOUS
10
5.2331141732283459
20
-4.0461574803149603
11
5.3689409448818894
21
-4.0461574803149603
0
LINE
8
BLACK
6
CONTINUOUS
10
5.3689409448818894
20
-4.0461574803149603
11
5.3689409448818894
21
-3.9300157480314959
0
LINE
8
BLACK
6
CONTINUOUS
10
5.3689409448818894
20
-3.9300157480314959
11
5.2331141732283459
21
-3.9300157480314959
0
LINE
8
BLACK
6
CONTINUOUS
10
5.4192795275590546
20
-3.9371259842519684
11
5.4802795275590546
21
-3.9371259842519684
0
LINE
8
BLACK
6
CONTINUOUS
10
5.4802795275590546
20
-3.9371259842519684
11
5.4862795275590548
21
-3.9371259842519684
0
LINE
8
BLACK
6
CONTINUOUS
10
5.4862795275590548
20
-3.9371259842519684
11
5.4868648031496061
21
-3.937183622047244
0
LINE
8
BLACK
6
CONTINUOUS
10
5.4868648031496061
20
-3.937183622047244
11
5.4879462204724412
21
-3.9376315748031496
0
LINE
8
BLACK
6
CONTINUOUS
10
5.4879462204724412
20
-3.9376315748031496
11
5.4887739370078741
21
-3.9384592913385825
0
LINE
8
BLACK
6
CONTINUOUS
10
5.4887739370078741
20
-3.9384592913385825
11
5.4892218897637797
21
-3.9395407086614171
0
LINE
8
BLACK
6
CONTINUOUS
10
5.4892218897637797
20
-3.9395407086614171
11
5.4892795275590549
21
-3.9401259842519685
0
LINE
8
BLACK
6
CONTINUOUS
10
5.4892795275590549
20
-3.9401259842519685
11
5.4892795275590549
21
-3.9746259842519684
0
LINE
8
BLACK
6
CONTINUOUS
10
5.4892795275590549
20
-3.9746259842519684
11
5.4892795275590549
21
-4.010625984251968
0
LINE
8
BLACK
6
CONTINUOUS
10
5.4892795275590549
20
-4.010625984251968
11
5.4892795275590549
21
-4.0451259842519685
0
LINE
8
BLACK
6
CONTINUOUS
10
5.4892795275590549
20
-4.0451259842519685
11
5.4892218897637797
21
-4.0457112598425198
0
LINE
8
BLACK
6
CONTINUOUS
10
5.4892218897637797
20
-4.0457112598425198
11
5.4887739370078741
21
-4.046792677165354
0
LINE
8
BLACK
6
CONTINUOUS
10
5.4887739370078741
20
-4.046792677165354
11
5.4879462204724412
21
-4.0476203937007877
0
LINE
8
BLACK
6
CONTINUOUS
10
5.4879462204724412
20
-4.0476203937007877
11
5.4868648031496061
21
-4.0480683464566924
0
LINE
8
BLACK
6
CONTINUOUS
10
5.4868648031496061
20
-4.0480683464566924
11
5.4862795275590548
21
-4.0481259842519686
0
LINE
8
BLACK
6
CONTINUOUS
10
5.4862795275590548
20
-4.0481259842519686
11
5.4802795275590546
21
-4.0481259842519686
0
LINE
8
BLACK
6
CONTINUOUS
10
5.4802795275590546
20
-4.0481259842519686
11
5.4192795275590546
21
-4.0481259842519686
0
LINE
8
BLACK
6
CONTINUOUS
10
5.4192795275590546
20
-4.0481259842519686
11
5.4132795275590553
21
-4.0481259842519686
0
LINE
8
BLACK
6
CONTINUOUS
10
5.4132795275590553
20
-4.0481259842519686
11
5.412694251968504
21
-4.0480683464566924
0
LINE
8
BLACK
6
CONTINUOUS
10
5.412694251968504
20
-4.0480683464566924
11
5.4116128346456689
21
-4.0476203937007877
0
LINE
8
BLACK
6
CONTINUOUS
10
5.4116128346456689
20
-4.0476203937007877
11
5.410785118110236
21
-4.046792677165354
0
LINE
8
BLACK
6
CONTINUOUS
10
5.410785118110236
20
-4.046792677165354
11
5.4103371653543304
21
-4.0457112598425198
0
LINE
8
BLACK
6
CONTINUOUS
10
5.4103371653543304
20
-4.0457112598425198
11
5.4102795275590552
21
-4.0451259842519685
0
LINE
8
BLACK
6
CONTINUOUS
10
5.4102795275590552
20
-4.0451259842519685
11
5.4102795275590552
21
-4.010625984251968
0
LINE
8
BLACK
6
CONTINUOUS
10
5.4102795275590552
20
-4.010625984251968
11
5.4102795275590552
21
-3.9746259842519684
0
LINE
8
BLACK
6
CONTINUOUS
10
5.4102795275590552
20
-3.9746259842519684
11
5.4102795275590552
21
-3.9401259842519685
0
LINE
8
BLACK
6
CONTINUOUS
10
5.4102795275590552
20
-3.9401259842519685
11
5.4103371653543304
21
-3.9395407086614171
0
LINE
8
BLACK
6
CONTINUOUS
10
5.4103371653543304
20
-3.9395407086614171
11
5.410785118110236
21
-3.9384592913385825
0
LINE
8
BLACK
6
CONTINUOUS
10
5.410785118110236
20
-3.9384592913385825
11
5.4116128346456689
21
-3.9376315748031496
0
LINE
8
BLACK
6
CONTINUOUS
10
5.4116128346456689
20
-3.9376315748031496
11
5.412694251968504
21
-3.937183622047244
0
LINE
8
BLACK
6
CONTINUOUS
10
5.412694251968504
20
-3.937183622047244
11
5.4132795275590553
21
-3.9371259842519684
0
LINE
8
BLACK
6
CONTINUOUS
10
5.4132795275590553
20
-3.9371259842519684
11
5.4192795275590546
21
-3.9371259842519684
0
LINE
8
BLACK
6
CONTINUOUS
10
5.4162795275590554
20
-3.9431259842519686
11
5.4162795275590554
21
-3.9746259842519684
0
LINE
8
BLACK
6
CONTINUOUS
10
5.4162795275590554
20
-3.9746259842519684
11
5.4162795275590554
21
-4.010625984251968
0
LINE
8
BLACK
6
CONTINUOUS
10
5.4162795275590554
20
-4.010625984251968
11
5.4162795275590554
21
-4.0421259842519683
0
LINE
8
BLACK
6
CONTINUOUS
10
5.4162795275590554
20
-4.0421259842519683
11
5.4192795275590546
21
-4.0421259842519683
0
LINE
8
BLACK
6
CONTINUOUS
10
5.4192795275590546
20
-4.0421259842519683
11
5.4802795275590546
21
-4.0421259842519683
0
LINE
8
BLACK
6
CONTINUOUS
10
5.4802795275590546
20
-4.0421259842519683
11
5.4832795275590547
21
-4.0421259842519683
0
LINE
8
BLACK
6
CONTINUOUS
10
5.4832795275590547
20
-4.0421259842519683
11
5.4832795275590547
21
-4.010625984251968
0
LINE
8
BLACK
6
CONTINUOUS
10
5.4832795275590547
20
-4.010625984251968
11
5.4832795275590547
21
-3.9746259842519684
0
LINE
8
BLACK
6
CONTINUOUS
10
5.4832795275590547
20
-3.9746259842519684
11
5.4832795275590547
21
-3.9431259842519686
0
LINE
8
BLACK
6
CONTINUOUS
10
5.4832795275590547
20
-3.9431259842519686
11
5.4802795275590546
21
-3.9431259842519686
0
LINE
8
BLACK
6
CONTINUOUS
10
5.4802795275590546
20
-3.9431259842519686
11
5.4192795275590546
21
-3.9431259842519686
0
LINE
8
BLACK
6
CONTINUOUS
10
5.4192795275590546
20
-3.9431259842519686
11
5.4162795275590554
21
-3.9431259842519686
0
LINE
8
BLACK
6
CONTINUOUS
10
6.4055380708661414
20
-3.985208779527559
11
6.406070748031496
21
-3.9857414566929132
0
LINE
8
BLACK
6
CONTINUOUS
10
6.406070748031496
20
-3.9857414566929132
11
6.4061456692913383
21
-3.9861181102362204
0
LINE
8
BLACK
6
CONTINUOUS
10
6.4061456692913383
20
-3.9861181102362204
11
6.4061456692913383
21
-4.0412362204724408
0
LINE
8
BLACK
6
CONTINUOUS
10
6.4061456692913383
20
-4.0412362204724408
11
6.406070748031496
21
-4.0416128740157475
0
LINE
8
BLACK
6
CONTINUOUS
10
6.406070748031496
20
-4.0416128740157475
11
6.4055380708661414
21
-4.0421455511811022
0
LINE
8
BLACK
6
CONTINUOUS
10
6.4055380708661414
20
-4.0421455511811022
11
6.4051614173228346
21
-4.0422204724409445
0
LINE
8
BLACK
6
CONTINUOUS
10
6.4051614173228346
20
-4.0422204724409445
11
6.3067362204724411
21
-4.0422204724409445
0
LINE
8
BLACK
6
CONTINUOUS
10
6.3067362204724411
20
-4.0422204724409445
11
6.3063595669291335
21
-4.0421455511811022
0
LINE
8
BLACK
6
CONTINUOUS
10
6.3063595669291335
20
-4.0421455511811022
11
6.3058268897637797
21
-4.0416128740157475
0
LINE
8
BLACK
6
CONTINUOUS
10
6.3058268897637797
20
-4.0416128740157475
11
6.3057519685039365
21
-4.0412362204724408
0
LINE
8
BLACK
6
CONTINUOUS
10
6.3057519685039365
20
-4.0412362204724408
11
6.3057519685039365
21
-3.9861181102362204
0
LINE
8
BLACK
6
CONTINUOUS
10
6.3057519685039365
20
-3.9861181102362204
11
6.3058268897637797
21
-3.9857414566929132
0
LINE
8
BLACK
6
CONTINUOUS
10
6.3058268897637797
20
-3.9857414566929132
11
6.3063595669291335
21
-3.985208779527559
0
LINE
8
BLACK
6
CONTINUOUS
10
6.3063595669291335
20
-3.985208779527559
11
6.3067362204724411
21
-3.9851338582677163
0
LINE
8
BLACK
6
CONTINUOUS
10
6.3067362204724411
20
-3.9851338582677163
11
6.4051614173228346
21
-3.9851338582677163
0
LINE
8
BLACK
6
CONTINUOUS
10
6.4051614173228346
20
-3.9851338582677163
11
6.4055380708661414
21
-3.985208779527559
0
LINE
8
BLACK
6
CONTINUOUS
10
6.3077204724409448
20
-3.9871023622047241
11
6.3077204724409448
21
-4.0402519685039371
0
LINE
8
BLACK
6
CONTINUOUS
10
6.3077204724409448
20
-4.0402519685039371
11
6.4041771653543309
21
-4.0402519685039371
0
LINE
8
BLACK
6
CONTINUOUS
10
6.4041771653543309
20
-4.0402519685039371
11
6.4041771653543309
21
-3.9871023622047241
0
LINE
8
BLACK
6
CONTINUOUS
10
6.4041771653543309
20
-3.9871023622047241
11
6.3077204724409448
21
-3.9871023622047241
0
LINE
8
BLACK
6
CONTINUOUS
10
5.4623481102362206
20
-3.8191549606299211
11
5.4696567716535434
21
-3.8221823228346454
0
LINE
8
BLACK
6
CONTINUOUS
10
5.4696567716535434
20
-3.8221823228346454
11
5.4762343700787399
21
-3.8265773228346456
0
LINE
8
BLACK
6
CONTINUOUS
10
5.4762343700787399
20
-3.8265773228346456
11
5.4818281889763778
21
-3.8321711417322835
0
LINE
8
BLACK
6
CONTINUOUS
10
5.4818281889763778
20
-3.8321711417322835
11
5.4862231889763775
21
-3.83874874015748
0
LINE
8
BLACK
6
CONTINUOUS
10
5.4862231889763775
20
-3.83874874015748
11
5.4892505511811018
21
-3.8460574015748032
0
LINE
8
BLACK
6
CONTINUOUS
10
5.4892505511811018
20
-3.8460574015748032
11
5.4907938582677165
21
-3.8538162204724409
0
LINE
8
BLACK
6
CONTINUOUS
10
5.4907938582677165
20
-3.8538162204724409
11
5.4907938582677165
21
-3.8617270866141733
0
LINE
8
BLACK
6
CONTINUOUS
10
5.4907938582677165
20
-3.8617270866141733
11
5.4892505511811018
21
-3.8694859055118109
0
LINE
8
BLACK
6
CONTINUOUS
10
5.4892505511811018
20
-3.8694859055118109
11
5.4862231889763775
21
-3.8767945669291337
0
LINE
8
BLACK
6
CONTINUOUS
10
5.4862231889763775
20
-3.8767945669291337
11
5.4818281889763778
21
-3.8833721653543307
0
LINE
8
BLACK
6
CONTINUOUS
10
5.4818281889763778
20
-3.8833721653543307
11
5.4762343700787399
21
-3.8889659842519686
0
LINE
8
BLACK
6
CONTINUOUS
10
5.4762343700787399
20
-3.8889659842519686
11
5.4696567716535434
21
-3.8933609842519683
0
LINE
8
BLACK
6
CONTINUOUS
10
5.4696567716535434
20
-3.8933609842519683
11
5.4623481102362206
21
-3.8963883464566926
0
LINE
8
BLACK
6
CONTINUOUS
10
5.4623481102362206
20
-3.8963883464566926
11
5.4545892913385829
21
-3.8979316535433068
0
LINE
8
BLACK
6
CONTINUOUS
10
5.4545892913385829
20
-3.8979316535433068
11
5.4466784251968505
21
-3.8979316535433068
0
LINE
8
BLACK
6
CONTINUOUS
10
5.4466784251968505
20
-3.8979316535433068
11
5.4389196062992129
21
-3.8963883464566926
0
LINE
8
BLACK
6
CONTINUOUS
10
5.4389196062992129
20
-3.8963883464566926
11
5.4316109448818892
21
-3.8933609842519683
0
LINE
8
BLACK
6
CONTINUOUS
10
5.4316109448818892
20
-3.8933609842519683
11
5.4250333464566927
21
-3.8889659842519686
0
LINE
8
BLACK
6
CONTINUOUS
10
5.4250333464566927
20
-3.8889659842519686
11
5.4194395275590548
21
-3.8833721653543307
0
LINE
8
BLACK
6
CONTINUOUS
10
5.4194395275590548
20
-3.8833721653543307
11
5.4150445275590551
21
-3.8767945669291337
0
LINE
8
BLACK
6
CONTINUOUS
10
5.4150445275590551
20
-3.8767945669291337
11
5.4120171653543307
21
-3.8694859055118109
0
LINE
8
BLACK
6
CONTINUOUS
10
5.4120171653543307
20
-3.8694859055118109
11
5.4104738582677161
21
-3.8617270866141733
0
LINE
8
BLACK
6
CONTINUOUS
10
5.4104738582677161
20
-3.8617270866141733
11
5.4104738582677161
21
-3.8539909842519684
0
LINE
8
BLACK
6
CONTINUOUS
10
5.4104738582677161
20
-3.8539909842519684
11
5.4104738582677161
21
-3.8538162204724409
0
LINE
8
BLACK
6
CONTINUOUS
10
5.4104738582677161
20
-3.8538162204724409
11
5.4120171653543307
21
-3.8460574015748032
0
LINE
8
BLACK
6
CONTINUOUS
10
5.4120171653543307
20
-3.8460574015748032
11
5.4150445275590551
21
-3.83874874015748
0
LINE
8
BLACK
6
CONTINUOUS
10
5.4150445275590551
20
-3.83874874015748
11
5.4194395275590548
21
-3.8321711417322835
0
LINE
8
BLACK
6
CONTINUOUS
10
5.4194395275590548
20
-3.8321711417322835
11
5.4250333464566927
21
-3.8265773228346456
0
LINE
8
BLACK
6
CONTINUOUS
10
5.4250333464566927
20
-3.8265773228346456
11
5.4316109448818892
21
-3.8221823228346454
0
LINE
8
BLACK
6
CONTINUOUS
10
5.4316109448818892
20
-3.8221823228346454
11
5.4389196062992129
21
-3.8191549606299211
0
LINE
8
BLACK
6
CONTINUOUS
10
5.4389196062992129
20
-3.8191549606299211
11
5.4466784251968505
21
-3.8176116535433069
0
LINE
8
BLACK
6
CONTINUOUS
10
5.4466784251968505
20
-3.8176116535433069
11
5.4545892913385829
21
-3.8176116535433069
0
LINE
8
BLACK
6
CONTINUOUS
10
5.4545892913385829
20
-3.8176116535433069
11
5.4623481102362206
21
-3.8191549606299211
0
LINE
8
BLACK
6
CONTINUOUS
10
5.4122480314960626
20
-3.8615523228346458
11
5.413723149606299
21
-3.8689683858267716
0
LINE
8
BLACK
6
CONTINUOUS
10
5.413723149606299
20
-3.8689683858267716
11
5.4166167716535432
21
-3.8759541732283465
0
LINE
8
BLACK
6
CONTINUOUS
10
5.4166167716535432
20
-3.8759541732283465
11
5.4208176377952757
21
-3.8822412204724408
0
LINE
8
BLACK
6
CONTINUOUS
10
5.4208176377952757
20
-3.8822412204724408
11
5.4261642913385826
21
-3.8875878740157481
0
LINE
8
BLACK
6
CONTINUOUS
10
5.4261642913385826
20
-3.8875878740157481
11
5.4324513385826769
21
-3.8917887401574802
0
LINE
8
BLACK
6
CONTINUOUS
10
5.4324513385826769
20
-3.8917887401574802
11
5.4394371259842522
21
-3.8946823622047244
0
LINE
8
BLACK
6
CONTINUOUS
10
5.4394371259842522
20
-3.8946823622047244
11
5.4468531889763776
21
-3.8961574803149603
0
LINE
8
BLACK
6
CONTINUOUS
10
5.4468531889763776
20
-3.8961574803149603
11
5.454414527559055
21
-3.8961574803149603
0
LINE
8
BLACK
6
CONTINUOUS
10
5.454414527559055
20
-3.8961574803149603
11
5.4618305905511813
21
-3.8946823622047244
0
LINE
8
BLACK
6
CONTINUOUS
10
5.4618305905511813
20
-3.8946823622047244
11
5.4688163779527557
21
-3.8917887401574802
0
LINE
8
BLACK
6
CONTINUOUS
10
5.4688163779527557
20
-3.8917887401574802
11
5.47510342519685
21
-3.8875878740157481
0
LINE
8
BLACK
6
CONTINUOUS
10
5.47510342519685
20
-3.8875878740157481
11
5.4804500787401578
21
-3.8822412204724408
0
LINE
8
BLACK
6
CONTINUOUS
10
5.4804500787401578
20
-3.8822412204724408
11
5.4846509448818894
21
-3.8759541732283465
0
LINE
8
BLACK
6
CONTINUOUS
10
5.4846509448818894
20
-3.8759541732283465
11
5.4875445669291336
21
-3.8689683858267716
0
LINE
8
BLACK
6
CONTINUOUS
10
5.4875445669291336
20
-3.8689683858267716
11
5.48901968503937
21
-3.8615523228346458
0
LINE
8
BLACK
6
CONTINUOUS
10
5.48901968503937
20
-3.8615523228346458
11
5.48901968503937
21
-3.8539909842519684
0
LINE
8
BLACK
6
CONTINUOUS
10
5.48901968503937
20
-3.8539909842519684
11
5.4875445669291336
21
-3.8465749212598426
0
LINE
8
BLACK
6
CONTINUOUS
10
5.4875445669291336
20
-3.8465749212598426
11
5.4846509448818894
21
-3.8395891338582677
0
LINE
8
BLACK
6
CONTINUOUS
10
5.4846509448818894
20
-3.8395891338582677
11
5.4804500787401578
21
-3.8333020866141729
0
LINE
8
BLACK
6
CONTINUOUS
10
5.4804500787401578
20
-3.8333020866141729
11
5.47510342519685
21
-3.8279554330708661
0
LINE
8
BLACK
6
CONTINUOUS
10
5.47510342519685
20
-3.8279554330708661
11
5.4688163779527557
21
-3.823754566929134
0
LINE
8
BLACK
6
CONTINUOUS
10
5.4688163779527557
20
-3.823754566929134
11
5.4618305905511813
21
-3.8208609448818898
0
LINE
8
BLACK
6
CONTINUOUS
10
5.4618305905511813
20
-3.8208609448818898
11
5.454414527559055
21
-3.8193858267716534
0
LINE
8
BLACK
6
CONTINUOUS
10
5.454414527559055
20
-3.8193858267716534
11
5.4468531889763776
21
-3.8193858267716534
0
LINE
8
BLACK
6
CONTINUOUS
10
5.4468531889763776
20
-3.8193858267716534
11
5.4394371259842522
21
-3.8208609448818898
0
LINE
8
BLACK
6
CONTINUOUS
10
5.4394371259842522
20
-3.8208609448818898
11
5.4324513385826769
21
-3.823754566929134
0
LINE
8
BLACK
6
CONTINUOUS
10
5.4324513385826769
20
-3.823754566929134
11
5.4261642913385826
21
-3.8279554330708661
0
LINE
8
BLACK
6
CONTINUOUS
10
5.4261642913385826
20
-3.8279554330708661
11
5.4208176377952757
21
-3.8333020866141729
0
LINE
8
BLACK
6
CONTINUOUS
10
5.4208176377952757
20
-3.8333020866141729
11
5.4166167716535432
21
-3.8395891338582677
0
LINE
8
BLACK
6
CONTINUOUS
10
5.4166167716535432
20
-3.8395891338582677
11
5.413723149606299
21
-3.8465749212598426
0
LINE
8
BLACK
6
CONTINUOUS
10
5.413723149606299
20
-3.8465749212598426
11
5.4122480314960626
21
-3.8539909842519684
0
LINE
8
BLACK
6
CONTINUOUS
10
5.4122480314960626
20
-3.8539909842519684
11
5.4122480314960626
21
-3.8615523228346458
0
CIRCLE
8
BLACK
10
4.9323165354330705
20
-3.9293
40
0.0068897637795276
0
CIRCLE
8
BLACK
10
6.4561456692913382
20
-4.5349370078740154
40
0.0068897637795276
0
CIRCLE
8
BLACK
10
6.5561456692913387
20
-4.5349370078740154
40
0.0068897637795276
0
CIRCLE
8
BLACK
10
6.4561456692913382
20
-4.634937007874016
40
0.0068897637795276
0
CIRCLE
8
BLACK
10
6.5561456692913387
20
-4.634937007874016
40
0.0068897637795276
0
CIRCLE
8
BLACK
10
6.4561456692913382
20
-4.7349370078740156
40
0.0068897637795276
0
CIRCLE
8
BLACK
10
6.5561456692913387
20
-4.7349370078740156
40
0.0068897637795276
0
CIRCLE
8
BLACK
10
6.4561456692913382
20
-4.8349370078740153
40
0.0068897637795276
0
CIRCLE
8
BLACK
10
6.5561456692913387
20
-4.8349370078740153
40
0.0068897637795276
0
CIRCLE
8
BLACK
10
4.9323165354330705
20
-4.7678212598425196
40
0.0068897637795276
0
CIRCLE
8
BLACK
10
5.8663818897637796
20
-4.3349370078740153
40
0.0068897637795276
0
CIRCLE
8
BLACK
10
5.9663818897637793
20
-4.3349370078740153
40
0.0068897637795276
0
CIRCLE
8
BLACK
10
5.8663818897637796
20
-4.4349370078740158
40
0.0068897637795276
0
CIRCLE
8
BLACK
10
5.9663818897637793
20
-4.4349370078740158
40
0.0068897637795276
0
CIRCLE
8
BLACK
10
5.8663818897637796
20
-4.5349370078740154
40
0.0068897637795276
0
CIRCLE
8
BLACK
10
5.9663818897637793
20
-4.5349370078740154
40
0.0068897637795276
0
CIRCLE
8
BLACK
10
5.8663818897637796
20
-4.634937007874016
40
0.0068897637795276
0
CIRCLE
8
BLACK
10
5.9663818897637793
20
-4.634937007874016
40
0.0068897637795276
0
CIRCLE
8
BLACK
10
5.8663818897637796
20
-4.7349370078740156
40
0.0068897637795276
0
CIRCLE
8
BLACK
10
5.9663818897637793
20
-4.7349370078740156
40
0.0068897637795276
0
CIRCLE
8
BLACK
10
5.8663818897637796
20
-4.8349370078740153
40
0.0068897637795276
0
CIRCLE
8
BLACK
10
5.9663818897637793
20
-4.8349370078740153
40
0.0068897637795276
0
CIRCLE
8
BLACK
10
4.9323165354330705
20
-4.2088070866141729
40
0.0068897637795276
0
CIRCLE
8
BLACK
10
4.9323165354330705
20
-4.4883141732283462
40
0.0068897637795276
0
CIRCLE
8
BLACK
10
5.3842952755905511
20
-4.2406456692913386
40
0.0068897637795276
0
CIRCLE
8
BLACK
10
5.2842952755905515
20
-4.1406456692913389
40
0.0068897637795276
0
CIRCLE
8
BLACK
10
5.2842952755905515
20
-4.3406456692913382
40
0.0068897637795276
0
CIRCLE
8
BLACK
10
5.4842952755905507
20
-4.1406456692913389
40
0.0068897637795276
0
CIRCLE
8
BLACK
10
5.4842952755905507
20
-4.3406456692913382
40
0.0068897637795276
0
CIRCLE
8
BLACK
10
6.1116574803149604
20
-4.3061968503937003
40
0.0068897637795276
0
CIRCLE
8
BLACK
10
6.2116574803149609
20
-4.3061968503937003
40
0.0068897637795276
0
CIRCLE
8
BLACK
10
6.1116574803149604
20
-4.2061968503937006
40
0.0068897637795276
0
CIRCLE
8
BLACK
10
6.2116574803149609
20
-4.2061968503937006
40
0.0068897637795276
0
CIRCLE
8
BLACK
10
6.1116574803149604
20
-4.106196850393701
40
0.0068897637795276
0
CIRCLE
8
BLACK
10
6.2116574803149609
20
-4.106196850393701
40
0.0068897637795276
0
CIRCLE
8
BLACK
10
4.9323165354330705
20
-3.9293
40
0.0068897637795276
0
CIRCLE
8
BLACK
10
6.4561456692913382
20
-4.5349370078740154
40
0.0068897637795276
0
CIRCLE
8
BLACK
10
6.5561456692913387
20
-4.5349370078740154
40
0.0068897637795276
0
CIRCLE
8
BLACK
10
6.4561456692913382
20
-4.634937007874016
40
0.0068897637795276
0
CIRCLE
8
BLACK
10
6.5561456692913387
20
-4.634937007874016
40
0.0068897637795276
0
CIRCLE
8
BLACK
10
6.4561456692913382
20
-4.7349370078740156
40
0.0068897637795276
0
CIRCLE
8
BLACK
10
6.5561456692913387
20
-4.7349370078740156
40
0.0068897637795276
0
CIRCLE
8
BLACK
10
6.4561456692913382
20
-4.8349370078740153
40
0.0068897637795276
0
CIRCLE
8
BLACK
10
6.5561456692913387
20
-4.8349370078740153
40
0.0068897637795276
0
CIRCLE
8
BLACK
10
4.9323165354330705
20
-4.7678212598425196
40
0.0068897637795276
0
CIRCLE
8
BLACK
10
5.8663818897637796
20
-4.3349370078740153
40
0.0068897637795276
0
CIRCLE
8
BLACK
10
5.9663818897637793
20
-4.3349370078740153
40
0.0068897637795276
0
CIRCLE
8
BLACK
10
5.8663818897637796
20
-4.4349370078740158
40
0.0068897637795276
0
CIRCLE
8
BLACK
10
5.9663818897637793
20
-4.4349370078740158
40
0.0068897637795276
0
CIRCLE
8
BLACK
10
5.8663818897637796
20
-4.5349370078740154
40
0.0068897637795276
0
CIRCLE
8
BLACK
10
5.9663818897637793
20
-4.5349370078740154
40
0.0068897637795276
0
CIRCLE
8
BLACK
10
5.8663818897637796
20
-4.634937007874016
40
0.0068897637795276
0
CIRCLE
8
BLACK
10
5.9663818897637793
20
-4.634937007874016
40
0.0068897637795276
0
CIRCLE
8
BLACK
10
5.8663818897637796
20
-4.7349370078740156
40
0.0068897637795276
0
CIRCLE
8
BLACK
10
5.9663818897637793
20
-4.7349370078740156
40
0.0068897637795276
0
CIRCLE
8
BLACK
10
5.8663818897637796
20
-4.8349370078740153
40
0.0068897637795276
0
CIRCLE
8
BLACK
10
5.9663818897637793
20
-4.8349370078740153
40
0.0068897637795276
0
CIRCLE
8
BLACK
10
4.9323165354330705
20
-4.2088070866141729
40
0.0068897637795276
0
CIRCLE
8
BLACK
10
4.9323165354330705
20
-4.4883141732283462
40
0.0068897637795276
0
CIRCLE
8
BLACK
10
5.3842952755905511
20
-4.2406456692913386
40
0.0068897637795276
0
CIRCLE
8
BLACK
10
5.2842952755905515
20
-4.1406456692913389
40
0.0068897637795276
0
CIRCLE
8
BLACK
10
5.2842952755905515
20
-4.3406456692913382
40
0.0068897637795276
0
CIRCLE
8
BLACK
10
5.4842952755905507
20
-4.1406456692913389
40
0.0068897637795276
0
CIRCLE
8
BLACK
10
5.4842952755905507
20
-4.3406456692913382
40
0.0068897637795276
0
CIRCLE
8
BLACK
10
6.1116574803149604
20
-4.3061968503937003
40
0.0068897637795276
0
CIRCLE
8
BLACK
10
6.2116574803149609
20
-4.3061968503937003
40
0.0068897637795276
0
CIRCLE
8
BLACK
10
6.1116574803149604
20
-4.2061968503937006
40
0.0068897637795276
0
CIRCLE
8
BLACK
10
6.2116574803149609
20
-4.2061968503937006
40
0.0068897637795276
0
CIRCLE
8
BLACK
10
6.1116574803149604
20
-4.106196850393701
40
0.0068897637795276
0
CIRCLE
8
BLACK
10
6.2116574803149609
20
-4.106196850393701
40
0.0068897637795276
  0
ENDSEC
  0
EOF
