  0
SECTION
  2
HEADER
  9
$ANGBASE
  50
0.0
  9
$ANGDIR
  70
1
  9
$MEASUREMENT
  70
0
  0
ENDSEC
  0
SECTION
  2
TABLES
  0
TABLE
  2
LTYPE
  70
4
  0
LTYPE
  5
40F
  2
CONTINUOUS
  70
0
  3
Solid line
  72
65
  73
0
  40
0.0
  0
LTYPE
  5
410
  2
DASHDOT
 70
0
  3
Dash Dot ____ _ ____ _
 72
65
 73
4
 40
2.0
 49
1.25
 49
-0.25
 49
0.25
 49
-0.25
  0
LTYPE
  5
411
  2
DASHED
 70
0
  3
Dashed __ __ __ __ __
 72
65
 73
2
 40
0.75
 49
0.5
 49
-0.25
  0
LTYPE
  5
43B
  2
DOTTED
 70
0
  3
Dotted .  .  .  .
 72
65
 73
2
 40
0.2
 49
0.0
 49
-0.2
  0
ENDTAB
  0
TABLE
  2
STYLE
  70
4
  0
STYLE
  2
KICAD
  70
0
  40
0
  41
1
  42
1
  50
0
  71
0
  3
isocp.shx
  0
STYLE
  2
KICADB
  70
0
  40
0
  41
1
  42
1
  50
0
  71
0
  3
isocp.shx
  0
STYLE
  2
KICADI
  70
0
  40
0
  41
1
  42
1
  50
15
  71
0
  3
isocp.shx
  0
STYLE
  2
KICADBI
  70
0
  40
0
  41
1
  42
1
  50
15
  71
0
  3
isocp.shx
  0
ENDTAB
  0
TABLE
  2
LAYER
  70
1
  0
LAYER
  2
BLACK
  70
0
  62
7
  6
CONTINUOUS
  0
ENDTAB
  0
ENDSEC
  0
SECTION
  2
ENTITIES
0
CIRCLE
8
BLACK
10
4.9323165354330705
20
-3.9293
40
0.0068897637795276
0
CIRCLE
8
BLACK
10
6.4561456692913382
20
-4.5349370078740154
40
0.0068897637795276
0
CIRCLE
8
BLACK
10
6.5561456692913387
20
-4.5349370078740154
40
0.0068897637795276
0
CIRCLE
8
BLACK
10
6.4561456692913382
20
-4.634937007874016
40
0.0068897637795276
0
CIRCLE
8
BLACK
10
6.5561456692913387
20
-4.634937007874016
40
0.0068897637795276
0
CIRCLE
8
BLACK
10
6.4561456692913382
20
-4.7349370078740156
40
0.0068897637795276
0
CIRCLE
8
BLACK
10
6.5561456692913387
20
-4.7349370078740156
40
0.0068897637795276
0
CIRCLE
8
BLACK
10
6.4561456692913382
20
-4.8349370078740153
40
0.0068897637795276
0
CIRCLE
8
BLACK
10
6.5561456692913387
20
-4.8349370078740153
40
0.0068897637795276
0
CIRCLE
8
BLACK
10
4.9323165354330705
20
-4.7678212598425196
40
0.0068897637795276
0
CIRCLE
8
BLACK
10
5.8663818897637796
20
-4.3349370078740153
40
0.0068897637795276
0
CIRCLE
8
BLACK
10
5.9663818897637793
20
-4.3349370078740153
40
0.0068897637795276
0
CIRCLE
8
BLACK
10
5.8663818897637796
20
-4.4349370078740158
40
0.0068897637795276
0
CIRCLE
8
BLACK
10
5.9663818897637793
20
-4.4349370078740158
40
0.0068897637795276
0
CIRCLE
8
BLACK
10
5.8663818897637796
20
-4.5349370078740154
40
0.0068897637795276
0
CIRCLE
8
BLACK
10
5.9663818897637793
20
-4.5349370078740154
40
0.0068897637795276
0
CIRCLE
8
BLACK
10
5.8663818897637796
20
-4.634937007874016
40
0.0068897637795276
0
CIRCLE
8
BLACK
10
5.9663818897637793
20
-4.634937007874016
40
0.0068897637795276
0
CIRCLE
8
BLACK
10
5.8663818897637796
20
-4.7349370078740156
40
0.0068897637795276
0
CIRCLE
8
BLACK
10
5.9663818897637793
20
-4.7349370078740156
40
0.0068897637795276
0
CIRCLE
8
BLACK
10
5.8663818897637796
20
-4.8349370078740153
40
0.0068897637795276
0
CIRCLE
8
BLACK
10
5.9663818897637793
20
-4.8349370078740153
40
0.0068897637795276
0
CIRCLE
8
BLACK
10
4.9323165354330705
20
-4.2088070866141729
40
0.0068897637795276
0
CIRCLE
8
BLACK
10
4.9323165354330705
20
-4.4883141732283462
40
0.0068897637795276
0
CIRCLE
8
BLACK
10
5.3842952755905511
20
-4.2406456692913386
40
0.0068897637795276
0
CIRCLE
8
BLACK
10
5.2842952755905515
20
-4.1406456692913389
40
0.0068897637795276
0
CIRCLE
8
BLACK
10
5.2842952755905515
20
-4.3406456692913382
40
0.0068897637795276
0
CIRCLE
8
BLACK
10
5.4842952755905507
20
-4.1406456692913389
40
0.0068897637795276
0
CIRCLE
8
BLACK
10
5.4842952755905507
20
-4.3406456692913382
40
0.0068897637795276
0
CIRCLE
8
BLACK
10
6.1116574803149604
20
-4.3061968503937003
40
0.0068897637795276
0
CIRCLE
8
BLACK
10
6.2116574803149609
20
-4.3061968503937003
40
0.0068897637795276
0
CIRCLE
8
BLACK
10
6.1116574803149604
20
-4.2061968503937006
40
0.0068897637795276
0
CIRCLE
8
BLACK
10
6.2116574803149609
20
-4.2061968503937006
40
0.0068897637795276
0
CIRCLE
8
BLACK
10
6.1116574803149604
20
-4.106196850393701
40
0.0068897637795276
0
CIRCLE
8
BLACK
10
6.2116574803149609
20
-4.106196850393701
40
0.0068897637795276
0
CIRCLE
8
BLACK
10
4.9323165354330705
20
-3.9293
40
0.0068897637795276
0
CIRCLE
8
BLACK
10
6.4561456692913382
20
-4.5349370078740154
40
0.0068897637795276
0
CIRCLE
8
BLACK
10
6.5561456692913387
20
-4.5349370078740154
40
0.0068897637795276
0
CIRCLE
8
BLACK
10
6.4561456692913382
20
-4.634937007874016
40
0.0068897637795276
0
CIRCLE
8
BLACK
10
6.5561456692913387
20
-4.634937007874016
40
0.0068897637795276
0
CIRCLE
8
BLACK
10
6.4561456692913382
20
-4.7349370078740156
40
0.0068897637795276
0
CIRCLE
8
BLACK
10
6.5561456692913387
20
-4.7349370078740156
40
0.0068897637795276
0
CIRCLE
8
BLACK
10
6.4561456692913382
20
-4.8349370078740153
40
0.0068897637795276
0
CIRCLE
8
BLACK
10
6.5561456692913387
20
-4.8349370078740153
40
0.0068897637795276
0
CIRCLE
8
BLACK
10
4.9323165354330705
20
-4.7678212598425196
40
0.0068897637795276
0
CIRCLE
8
BLACK
10
5.8663818897637796
20
-4.3349370078740153
40
0.0068897637795276
0
CIRCLE
8
BLACK
10
5.9663818897637793
20
-4.3349370078740153
40
0.0068897637795276
0
CIRCLE
8
BLACK
10
5.8663818897637796
20
-4.4349370078740158
40
0.0068897637795276
0
CIRCLE
8
BLACK
10
5.9663818897637793
20
-4.4349370078740158
40
0.0068897637795276
0
CIRCLE
8
BLACK
10
5.8663818897637796
20
-4.5349370078740154
40
0.0068897637795276
0
CIRCLE
8
BLACK
10
5.9663818897637793
20
-4.5349370078740154
40
0.0068897637795276
0
CIRCLE
8
BLACK
10
5.8663818897637796
20
-4.634937007874016
40
0.0068897637795276
0
CIRCLE
8
BLACK
10
5.9663818897637793
20
-4.634937007874016
40
0.0068897637795276
0
CIRCLE
8
BLACK
10
5.8663818897637796
20
-4.7349370078740156
40
0.0068897637795276
0
CIRCLE
8
BLACK
10
5.9663818897637793
20
-4.7349370078740156
40
0.0068897637795276
0
CIRCLE
8
BLACK
10
5.8663818897637796
20
-4.8349370078740153
40
0.0068897637795276
0
CIRCLE
8
BLACK
10
5.9663818897637793
20
-4.8349370078740153
40
0.0068897637795276
0
CIRCLE
8
BLACK
10
4.9323165354330705
20
-4.2088070866141729
40
0.0068897637795276
0
CIRCLE
8
BLACK
10
4.9323165354330705
20
-4.4883141732283462
40
0.0068897637795276
0
CIRCLE
8
BLACK
10
5.3842952755905511
20
-4.2406456692913386
40
0.0068897637795276
0
CIRCLE
8
BLACK
10
5.2842952755905515
20
-4.1406456692913389
40
0.0068897637795276
0
CIRCLE
8
BLACK
10
5.2842952755905515
20
-4.3406456692913382
40
0.0068897637795276
0
CIRCLE
8
BLACK
10
5.4842952755905507
20
-4.1406456692913389
40
0.0068897637795276
0
CIRCLE
8
BLACK
10
5.4842952755905507
20
-4.3406456692913382
40
0.0068897637795276
0
CIRCLE
8
BLACK
10
6.1116574803149604
20
-4.3061968503937003
40
0.0068897637795276
0
CIRCLE
8
BLACK
10
6.2116574803149609
20
-4.3061968503937003
40
0.0068897637795276
0
CIRCLE
8
BLACK
10
6.1116574803149604
20
-4.2061968503937006
40
0.0068897637795276
0
CIRCLE
8
BLACK
10
6.2116574803149609
20
-4.2061968503937006
40
0.0068897637795276
0
CIRCLE
8
BLACK
10
6.1116574803149604
20
-4.106196850393701
40
0.0068897637795276
0
CIRCLE
8
BLACK
10
6.2116574803149609
20
-4.106196850393701
40
0.0068897637795276
  0
ENDSEC
  0
EOF
