M48
; DRILL file {KiCad 9.0.7+1} date 2026-02-15T00:03:44+0000
; FORMAT={3:3/ absolute / metric / suppress leading zeros}
; #@! TF.CreationDate,2026-02-15T00:03:44+00:00
; #@! TF.GenerationSoftware,Kicad,Pcbnew,9.0.7+1
; #@! TF.FileFunction,Plated,1,2,PTH
FMAT,2
METRIC,TZ
; #@! TA.AperFunction,Plated,PTH,ComponentDrill
T1C0.889
; #@! TA.AperFunction,Plated,PTH,ComponentDrill
T2C1.500
; #@! TA.AperFunction,Plated,PTH,ComponentDrill
T3C1.700
; #@! TA.AperFunction,Plated,PTH,ComponentDrill
T4C3.000
%
G90
G05
T1
X149006Y-110107
X149006Y-112647
X149006Y-115187
X149006Y-117727
X149006Y-120267
X149006Y-122807
X151546Y-110107
X151546Y-112647
X151546Y-115187
X151546Y-117727
X151546Y-120267
X151546Y-122807
X155236Y-104297
X155236Y-106837
X155236Y-109377
X157776Y-104297
X157776Y-106837
X157776Y-109377
X163986Y-115187
X163986Y-117727
X163986Y-120267
X163986Y-122807
X166526Y-115187
X166526Y-117727
X166526Y-120267
X166526Y-122807
T2
X136761Y-107712
T3
X134221Y-105172
X134221Y-110252
X139301Y-105172
X139301Y-110252
T4
X125281Y-99804
X125281Y-106904
X125281Y-114003
X125281Y-121103
M30
