%TF.GenerationSoftware,KiCad,Pcbnew,9.0.7+1*%
%TF.CreationDate,2026-02-15T00:03:43+00:00*%
%TF.ProjectId,BLE03,424c4530-332e-46b6-9963-61645f706362,rev?*%
%TF.SameCoordinates,Original*%
%TF.FileFunction,Paste,Bot*%
%TF.FilePolarity,Positive*%
%FSLAX46Y46*%
G04 Gerber Fmt 4.6, Leading zero omitted, Abs format (unit mm)*
G04 Created by KiCad (PCBNEW 9.0.7+1) date 2026-02-15 00:03:43*
%MOMM*%
%LPD*%
G01*
G04 APERTURE LIST*
G04 Aperture macros list*
%AMRoundRect*
0 Rectangle with rounded corners*
0 $1 Rounding radius*
0 $2 $3 $4 $5 $6 $7 $8 $9 X,Y pos of 4 corners*
0 Add a 4 corners polygon primitive as box body*
4,1,4,$2,$3,$4,$5,$6,$7,$8,$9,$2,$3,0*
0 Add four circle primitives for the rounded corners*
1,1,$1+$1,$2,$3*
1,1,$1+$1,$4,$5*
1,1,$1+$1,$6,$7*
1,1,$1+$1,$8,$9*
0 Add four rect primitives between the rounded corners*
20,1,$1+$1,$2,$3,$4,$5,0*
20,1,$1+$1,$4,$5,$6,$7,0*
20,1,$1+$1,$6,$7,$8,$9,0*
20,1,$1+$1,$8,$9,$2,$3,0*%
G04 Aperture macros list end*
%ADD10RoundRect,0.100000X-0.637500X-0.100000X0.637500X-0.100000X0.637500X0.100000X-0.637500X0.100000X0*%
%ADD11RoundRect,0.225000X-0.225000X-0.250000X0.225000X-0.250000X0.225000X0.250000X-0.225000X0.250000X0*%
%ADD12RoundRect,0.150000X0.150000X0.200000X-0.150000X0.200000X-0.150000X-0.200000X0.150000X-0.200000X0*%
%ADD13RoundRect,0.243750X-0.243750X-0.456250X0.243750X-0.456250X0.243750X0.456250X-0.243750X0.456250X0*%
%ADD14RoundRect,0.200000X-0.200000X-0.275000X0.200000X-0.275000X0.200000X0.275000X-0.200000X0.275000X0*%
%ADD15RoundRect,0.150000X-0.512500X-0.150000X0.512500X-0.150000X0.512500X0.150000X-0.512500X0.150000X0*%
%ADD16RoundRect,0.218750X-0.218750X-0.256250X0.218750X-0.256250X0.218750X0.256250X-0.218750X0.256250X0*%
%ADD17R,0.406400X0.406400*%
%ADD18R,1.041400X0.508000*%
%ADD19RoundRect,0.225000X-0.325000X-0.225000X0.325000X-0.225000X0.325000X0.225000X-0.325000X0.225000X0*%
G04 APERTURE END LIST*
D10*
%TO.C,U3*%
X154903600Y-116447400D03*
X154903600Y-115797400D03*
X154903600Y-115147400D03*
X154903600Y-114497400D03*
X154903600Y-113847400D03*
X154903600Y-113197400D03*
X154903600Y-112547400D03*
X160628600Y-112547400D03*
X160628600Y-113197400D03*
X160628600Y-113847400D03*
X160628600Y-114497400D03*
X160628600Y-115147400D03*
X160628600Y-115797400D03*
X160628600Y-116447400D03*
%TD*%
D11*
%TO.C,C10*%
X134061100Y-113357400D03*
X135611100Y-113357400D03*
%TD*%
%TO.C,C11*%
X144381100Y-123397400D03*
X145931100Y-123397400D03*
%TD*%
D12*
%TO.C,D2*%
X160741100Y-101947400D03*
X162141100Y-101947400D03*
%TD*%
D11*
%TO.C,C6*%
X134061100Y-123397400D03*
X135611100Y-123397400D03*
%TD*%
%TO.C,C2*%
X130051100Y-120887400D03*
X131601100Y-120887400D03*
%TD*%
D13*
%TO.C,D1*%
X148468600Y-102122400D03*
X150343600Y-102122400D03*
%TD*%
D11*
%TO.C,C1*%
X130051100Y-123397400D03*
X131601100Y-123397400D03*
%TD*%
D14*
%TO.C,R2*%
X144331100Y-115867400D03*
X145981100Y-115867400D03*
%TD*%
D11*
%TO.C,C4*%
X130051100Y-115867400D03*
X131601100Y-115867400D03*
%TD*%
D10*
%TO.C,U2*%
X154903600Y-123162400D03*
X154903600Y-122512400D03*
X154903600Y-121862400D03*
X154903600Y-121212400D03*
X154903600Y-120562400D03*
X154903600Y-119912400D03*
X154903600Y-119262400D03*
X160628600Y-119262400D03*
X160628600Y-119912400D03*
X160628600Y-120562400D03*
X160628600Y-121212400D03*
X160628600Y-121862400D03*
X160628600Y-122512400D03*
X160628600Y-123162400D03*
%TD*%
%TO.C,U5*%
X161508600Y-110122400D03*
X161508600Y-109472400D03*
X161508600Y-108822400D03*
X161508600Y-108172400D03*
X161508600Y-107522400D03*
X161508600Y-106872400D03*
X161508600Y-106222400D03*
X161508600Y-105572400D03*
X161508600Y-104922400D03*
X161508600Y-104272400D03*
X167233600Y-104272400D03*
X167233600Y-104922400D03*
X167233600Y-105572400D03*
X167233600Y-106222400D03*
X167233600Y-106872400D03*
X167233600Y-107522400D03*
X167233600Y-108172400D03*
X167233600Y-108822400D03*
X167233600Y-109472400D03*
X167233600Y-110122400D03*
%TD*%
D14*
%TO.C,R3*%
X144331100Y-113357400D03*
X145981100Y-113357400D03*
%TD*%
%TO.C,R5*%
X144331100Y-108337400D03*
X145981100Y-108337400D03*
%TD*%
D15*
%TO.C,U4*%
X148598600Y-106812400D03*
X148598600Y-105862400D03*
X148598600Y-104912400D03*
X150873600Y-104912400D03*
X150873600Y-106812400D03*
%TD*%
D11*
%TO.C,C13*%
X138071100Y-123397400D03*
X139621100Y-123397400D03*
%TD*%
D16*
%TO.C,C14*%
X144368600Y-118377400D03*
X145943600Y-118377400D03*
%TD*%
D17*
%TO.C,U6*%
X138157700Y-101412700D03*
D18*
X138424400Y-100815800D03*
D17*
X138691100Y-101412700D03*
D18*
X138424400Y-102009600D03*
%TD*%
D11*
%TO.C,C9*%
X134061100Y-115867400D03*
X135611100Y-115867400D03*
%TD*%
%TO.C,C3*%
X130051100Y-118377400D03*
X131601100Y-118377400D03*
%TD*%
%TO.C,C8*%
X134061100Y-118377400D03*
X135611100Y-118377400D03*
%TD*%
%TO.C,C15*%
X138071100Y-120887400D03*
X139621100Y-120887400D03*
%TD*%
D14*
%TO.C,R1*%
X138021100Y-118377400D03*
X139671100Y-118377400D03*
%TD*%
D11*
%TO.C,C5*%
X130051100Y-113357400D03*
X131601100Y-113357400D03*
%TD*%
%TO.C,C7*%
X134061100Y-120887400D03*
X135611100Y-120887400D03*
%TD*%
D19*
%TO.C,Y2*%
X133796100Y-100647400D03*
X135496100Y-100647400D03*
X135496100Y-101947400D03*
X133796100Y-101947400D03*
%TD*%
D14*
%TO.C,R4*%
X144331100Y-110847400D03*
X145981100Y-110847400D03*
%TD*%
D11*
%TO.C,C12*%
X144381100Y-120887400D03*
X145931100Y-120887400D03*
%TD*%
M02*
