%TF.GenerationSoftware,KiCad,Pcbnew,9.0.7+1*%
%TF.CreationDate,2026-02-15T00:03:43+00:00*%
%TF.ProjectId,BLE03,424c4530-332e-46b6-9963-61645f706362,rev?*%
%TF.SameCoordinates,Original*%
%TF.FileFunction,Legend,Top*%
%TF.FilePolarity,Positive*%
%FSLAX46Y46*%
G04 Gerber Fmt 4.6, Leading zero omitted, Abs format (unit mm)*
G04 Created by KiCad (PCBNEW 9.0.7+1) date 2026-02-15 00:03:43*
%MOMM*%
%LPD*%
G01*
G04 APERTURE LIST*
%ADD10C,0.150000*%
%ADD11C,0.050000*%
%ADD12R,1.524000X1.524000*%
G04 APERTURE END LIST*
D10*
X137168957Y-126033528D02*
X137168957Y-124533528D01*
X137168957Y-125247814D02*
X138026100Y-125247814D01*
X138026100Y-126033528D02*
X138026100Y-124533528D01*
X138740386Y-125247814D02*
X139240386Y-125247814D01*
X139454672Y-126033528D02*
X138740386Y-126033528D01*
X138740386Y-126033528D02*
X138740386Y-124533528D01*
X138740386Y-124533528D02*
X139454672Y-124533528D01*
X140026101Y-125604957D02*
X140740387Y-125604957D01*
X139883244Y-126033528D02*
X140383244Y-124533528D01*
X140383244Y-124533528D02*
X140883244Y-126033528D01*
X141383243Y-126033528D02*
X141383243Y-124533528D01*
X141383243Y-124533528D02*
X141740386Y-124533528D01*
X141740386Y-124533528D02*
X141954672Y-124604957D01*
X141954672Y-124604957D02*
X142097529Y-124747814D01*
X142097529Y-124747814D02*
X142168958Y-124890671D01*
X142168958Y-124890671D02*
X142240386Y-125176385D01*
X142240386Y-125176385D02*
X142240386Y-125390671D01*
X142240386Y-125390671D02*
X142168958Y-125676385D01*
X142168958Y-125676385D02*
X142097529Y-125819242D01*
X142097529Y-125819242D02*
X141954672Y-125962100D01*
X141954672Y-125962100D02*
X141740386Y-126033528D01*
X141740386Y-126033528D02*
X141383243Y-126033528D01*
X142883243Y-125247814D02*
X143383243Y-125247814D01*
X143597529Y-126033528D02*
X142883243Y-126033528D01*
X142883243Y-126033528D02*
X142883243Y-124533528D01*
X142883243Y-124533528D02*
X143597529Y-124533528D01*
X145097529Y-126033528D02*
X144597529Y-125319242D01*
X144240386Y-126033528D02*
X144240386Y-124533528D01*
X144240386Y-124533528D02*
X144811815Y-124533528D01*
X144811815Y-124533528D02*
X144954672Y-124604957D01*
X144954672Y-124604957D02*
X145026101Y-124676385D01*
X145026101Y-124676385D02*
X145097529Y-124819242D01*
X145097529Y-124819242D02*
X145097529Y-125033528D01*
X145097529Y-125033528D02*
X145026101Y-125176385D01*
X145026101Y-125176385D02*
X144954672Y-125247814D01*
X144954672Y-125247814D02*
X144811815Y-125319242D01*
X144811815Y-125319242D02*
X144240386Y-125319242D01*
X145383244Y-126176385D02*
X146526101Y-126176385D01*
X146811815Y-124676385D02*
X146883243Y-124604957D01*
X146883243Y-124604957D02*
X147026101Y-124533528D01*
X147026101Y-124533528D02*
X147383243Y-124533528D01*
X147383243Y-124533528D02*
X147526101Y-124604957D01*
X147526101Y-124604957D02*
X147597529Y-124676385D01*
X147597529Y-124676385D02*
X147668958Y-124819242D01*
X147668958Y-124819242D02*
X147668958Y-124962100D01*
X147668958Y-124962100D02*
X147597529Y-125176385D01*
X147597529Y-125176385D02*
X146740386Y-126033528D01*
X146740386Y-126033528D02*
X147668958Y-126033528D01*
X148168957Y-126033528D02*
X148954672Y-125033528D01*
X148168957Y-125033528D02*
X148954672Y-126033528D01*
X149811815Y-124533528D02*
X149954672Y-124533528D01*
X149954672Y-124533528D02*
X150097529Y-124604957D01*
X150097529Y-124604957D02*
X150168958Y-124676385D01*
X150168958Y-124676385D02*
X150240386Y-124819242D01*
X150240386Y-124819242D02*
X150311815Y-125104957D01*
X150311815Y-125104957D02*
X150311815Y-125462100D01*
X150311815Y-125462100D02*
X150240386Y-125747814D01*
X150240386Y-125747814D02*
X150168958Y-125890671D01*
X150168958Y-125890671D02*
X150097529Y-125962100D01*
X150097529Y-125962100D02*
X149954672Y-126033528D01*
X149954672Y-126033528D02*
X149811815Y-126033528D01*
X149811815Y-126033528D02*
X149668958Y-125962100D01*
X149668958Y-125962100D02*
X149597529Y-125890671D01*
X149597529Y-125890671D02*
X149526100Y-125747814D01*
X149526100Y-125747814D02*
X149454672Y-125462100D01*
X149454672Y-125462100D02*
X149454672Y-125104957D01*
X149454672Y-125104957D02*
X149526100Y-124819242D01*
X149526100Y-124819242D02*
X149597529Y-124676385D01*
X149597529Y-124676385D02*
X149668958Y-124604957D01*
X149668958Y-124604957D02*
X149811815Y-124533528D01*
X151597529Y-124533528D02*
X151311814Y-124533528D01*
X151311814Y-124533528D02*
X151168957Y-124604957D01*
X151168957Y-124604957D02*
X151097529Y-124676385D01*
X151097529Y-124676385D02*
X150954671Y-124890671D01*
X150954671Y-124890671D02*
X150883243Y-125176385D01*
X150883243Y-125176385D02*
X150883243Y-125747814D01*
X150883243Y-125747814D02*
X150954671Y-125890671D01*
X150954671Y-125890671D02*
X151026100Y-125962100D01*
X151026100Y-125962100D02*
X151168957Y-126033528D01*
X151168957Y-126033528D02*
X151454671Y-126033528D01*
X151454671Y-126033528D02*
X151597529Y-125962100D01*
X151597529Y-125962100D02*
X151668957Y-125890671D01*
X151668957Y-125890671D02*
X151740386Y-125747814D01*
X151740386Y-125747814D02*
X151740386Y-125390671D01*
X151740386Y-125390671D02*
X151668957Y-125247814D01*
X151668957Y-125247814D02*
X151597529Y-125176385D01*
X151597529Y-125176385D02*
X151454671Y-125104957D01*
X151454671Y-125104957D02*
X151168957Y-125104957D01*
X151168957Y-125104957D02*
X151026100Y-125176385D01*
X151026100Y-125176385D02*
X150954671Y-125247814D01*
X150954671Y-125247814D02*
X150883243Y-125390671D01*
X152026100Y-126176385D02*
X153168957Y-126176385D01*
X153526099Y-126033528D02*
X153526099Y-124533528D01*
X153526099Y-124533528D02*
X154097528Y-124533528D01*
X154097528Y-124533528D02*
X154240385Y-124604957D01*
X154240385Y-124604957D02*
X154311814Y-124676385D01*
X154311814Y-124676385D02*
X154383242Y-124819242D01*
X154383242Y-124819242D02*
X154383242Y-125033528D01*
X154383242Y-125033528D02*
X154311814Y-125176385D01*
X154311814Y-125176385D02*
X154240385Y-125247814D01*
X154240385Y-125247814D02*
X154097528Y-125319242D01*
X154097528Y-125319242D02*
X153526099Y-125319242D01*
X154954671Y-125604957D02*
X155668957Y-125604957D01*
X154811814Y-126033528D02*
X155311814Y-124533528D01*
X155311814Y-124533528D02*
X155811814Y-126033528D01*
X157168956Y-126033528D02*
X156668956Y-125319242D01*
X156311813Y-126033528D02*
X156311813Y-124533528D01*
X156311813Y-124533528D02*
X156883242Y-124533528D01*
X156883242Y-124533528D02*
X157026099Y-124604957D01*
X157026099Y-124604957D02*
X157097528Y-124676385D01*
X157097528Y-124676385D02*
X157168956Y-124819242D01*
X157168956Y-124819242D02*
X157168956Y-125033528D01*
X157168956Y-125033528D02*
X157097528Y-125176385D01*
X157097528Y-125176385D02*
X157026099Y-125247814D01*
X157026099Y-125247814D02*
X156883242Y-125319242D01*
X156883242Y-125319242D02*
X156311813Y-125319242D01*
X157740385Y-125604957D02*
X158454671Y-125604957D01*
X157597528Y-126033528D02*
X158097528Y-124533528D01*
X158097528Y-124533528D02*
X158597528Y-126033528D01*
X159811813Y-126033528D02*
X159097527Y-126033528D01*
X159097527Y-126033528D02*
X159097527Y-124533528D01*
X161026099Y-126033528D02*
X160311813Y-126033528D01*
X160311813Y-126033528D02*
X160311813Y-124533528D01*
X161526099Y-125247814D02*
X162026099Y-125247814D01*
X162240385Y-126033528D02*
X161526099Y-126033528D01*
X161526099Y-126033528D02*
X161526099Y-124533528D01*
X161526099Y-124533528D02*
X162240385Y-124533528D01*
X163597528Y-126033528D02*
X162883242Y-126033528D01*
X162883242Y-126033528D02*
X162883242Y-124533528D01*
D11*
X147497957Y-110336109D02*
X147212243Y-110336109D01*
X147355100Y-110336109D02*
X147355100Y-109836109D01*
X147355100Y-109836109D02*
X147307481Y-109907538D01*
X147307481Y-109907538D02*
X147259862Y-109955157D01*
X147259862Y-109955157D02*
X147212243Y-109978966D01*
D10*
X136261100Y-101798528D02*
X136261100Y-102869957D01*
X136261100Y-102869957D02*
X136189671Y-103084242D01*
X136189671Y-103084242D02*
X136046814Y-103227100D01*
X136046814Y-103227100D02*
X135832528Y-103298528D01*
X135832528Y-103298528D02*
X135689671Y-103298528D01*
X137618243Y-102298528D02*
X137618243Y-103298528D01*
X137261100Y-101727100D02*
X136903957Y-102798528D01*
X136903957Y-102798528D02*
X137832528Y-102798528D01*
%TO.C,J3*%
X162716100Y-113917400D02*
X167796100Y-113917400D01*
X162716100Y-124077400D02*
X162716100Y-113917400D01*
X167796100Y-113917400D02*
X167796100Y-124077400D01*
X167796100Y-124077400D02*
X162716100Y-124077400D01*
%TO.C,J5*%
X147736100Y-108837400D02*
X152816100Y-108837400D01*
X147736100Y-124077400D02*
X147736100Y-108837400D01*
X152816100Y-108837400D02*
X152816100Y-124077400D01*
X152816100Y-124077400D02*
X147736100Y-124077400D01*
%TO.C,J4*%
X133261100Y-106696400D02*
X133261100Y-108728400D01*
X135745100Y-111187000D02*
X137777100Y-111187000D01*
X137777100Y-104212400D02*
X135745100Y-104212400D01*
X140261100Y-108728400D02*
X140261100Y-106696400D01*
%TD*%
D12*
%TO.C,J5*%
X149006100Y-110107400D03*
X151546100Y-110107400D03*
X149006100Y-112647400D03*
X151546100Y-112647400D03*
X149006100Y-115187400D03*
X151546100Y-115187400D03*
X149006100Y-117727400D03*
X151546100Y-117727400D03*
X149006100Y-120267400D03*
X151546100Y-120267400D03*
X149006100Y-122807400D03*
X151546100Y-122807400D03*
%TD*%
M02*
