%TF.GenerationSoftware,KiCad,Pcbnew,9.0.7+1*%
%TF.CreationDate,2026-02-14T23:41:35+00:00*%
%TF.ProjectId,BLE03,424c4530-332e-46b6-9963-61645f706362,rev?*%
%TF.SameCoordinates,Original*%
%TF.FileFunction,Copper,L2,Bot*%
%TF.FilePolarity,Positive*%
%FSLAX46Y46*%
G04 Gerber Fmt 4.6, Leading zero omitted, Abs format (unit mm)*
G04 Created by KiCad (PCBNEW 9.0.7+1) date 2026-02-14 23:41:35*
%MOMM*%
%LPD*%
G01*
G04 APERTURE LIST*
G04 Aperture macros list*
%AMRoundRect*
0 Rectangle with rounded corners*
0 $1 Rounding radius*
0 $2 $3 $4 $5 $6 $7 $8 $9 X,Y pos of 4 corners*
0 Add a 4 corners polygon primitive as box body*
4,1,4,$2,$3,$4,$5,$6,$7,$8,$9,$2,$3,0*
0 Add four circle primitives for the rounded corners*
1,1,$1+$1,$2,$3*
1,1,$1+$1,$4,$5*
1,1,$1+$1,$6,$7*
1,1,$1+$1,$8,$9*
0 Add four rect primitives between the rounded corners*
20,1,$1+$1,$2,$3,$4,$5,0*
20,1,$1+$1,$4,$5,$6,$7,0*
20,1,$1+$1,$6,$7,$8,$9,0*
20,1,$1+$1,$8,$9,$2,$3,0*%
G04 Aperture macros list end*
%TA.AperFunction,ComponentPad*%
%ADD10C,6.000000*%
%TD*%
%TA.AperFunction,ComponentPad*%
%ADD11R,1.524000X1.524000*%
%TD*%
%TA.AperFunction,ComponentPad*%
%ADD12C,2.500000*%
%TD*%
%TA.AperFunction,ComponentPad*%
%ADD13C,2.700000*%
%TD*%
%TA.AperFunction,SMDPad,CuDef*%
%ADD14RoundRect,0.100000X-0.637500X-0.100000X0.637500X-0.100000X0.637500X0.100000X-0.637500X0.100000X0*%
%TD*%
%TA.AperFunction,SMDPad,CuDef*%
%ADD15C,1.000000*%
%TD*%
%TA.AperFunction,SMDPad,CuDef*%
%ADD16RoundRect,0.225000X-0.225000X-0.250000X0.225000X-0.250000X0.225000X0.250000X-0.225000X0.250000X0*%
%TD*%
%TA.AperFunction,SMDPad,CuDef*%
%ADD17RoundRect,0.150000X0.150000X0.200000X-0.150000X0.200000X-0.150000X-0.200000X0.150000X-0.200000X0*%
%TD*%
%TA.AperFunction,SMDPad,CuDef*%
%ADD18RoundRect,0.243750X-0.243750X-0.456250X0.243750X-0.456250X0.243750X0.456250X-0.243750X0.456250X0*%
%TD*%
%TA.AperFunction,SMDPad,CuDef*%
%ADD19RoundRect,0.200000X-0.200000X-0.275000X0.200000X-0.275000X0.200000X0.275000X-0.200000X0.275000X0*%
%TD*%
%TA.AperFunction,SMDPad,CuDef*%
%ADD20RoundRect,0.150000X-0.512500X-0.150000X0.512500X-0.150000X0.512500X0.150000X-0.512500X0.150000X0*%
%TD*%
%TA.AperFunction,SMDPad,CuDef*%
%ADD21RoundRect,0.218750X-0.218750X-0.256250X0.218750X-0.256250X0.218750X0.256250X-0.218750X0.256250X0*%
%TD*%
%TA.AperFunction,SMDPad,CuDef*%
%ADD22R,0.406400X0.406400*%
%TD*%
%TA.AperFunction,SMDPad,CuDef*%
%ADD23R,1.041400X0.508000*%
%TD*%
%TA.AperFunction,SMDPad,CuDef*%
%ADD24RoundRect,0.225000X-0.325000X-0.225000X0.325000X-0.225000X0.325000X0.225000X-0.325000X0.225000X0*%
%TD*%
G04 APERTURE END LIST*
D10*
%TO.P,M1,1*%
%TO.N,GND*%
X125280840Y-99804220D03*
%TD*%
D11*
%TO.P,J3,1*%
%TO.N,Net-(U3-B4)*%
X163986100Y-115187400D03*
%TO.P,J3,2*%
X166526100Y-115187400D03*
%TO.P,J3,3*%
%TO.N,Net-(U3-B3)*%
X163986100Y-117727400D03*
%TO.P,J3,4*%
X166526100Y-117727400D03*
%TO.P,J3,5*%
%TO.N,Net-(U3-B2)*%
X163986100Y-120267400D03*
%TO.P,J3,6*%
X166526100Y-120267400D03*
%TO.P,J3,7*%
%TO.N,Net-(U3-B1)*%
X163986100Y-122807400D03*
%TO.P,J3,8*%
X166526100Y-122807400D03*
%TD*%
D10*
%TO.P,M4,1*%
%TO.N,GND*%
X125280840Y-121102660D03*
%TD*%
D11*
%TO.P,J5,1*%
%TO.N,GND*%
X149006100Y-110107400D03*
%TO.P,J5,2*%
X151546100Y-110107400D03*
%TO.P,J5,3*%
%TO.N,Net-(U2-B4)*%
X149006100Y-112647400D03*
%TO.P,J5,4*%
X151546100Y-112647400D03*
%TO.P,J5,5*%
%TO.N,Net-(U2-B3)*%
X149006100Y-115187400D03*
%TO.P,J5,6*%
X151546100Y-115187400D03*
%TO.P,J5,7*%
%TO.N,Net-(U2-B2)*%
X149006100Y-117727400D03*
%TO.P,J5,8*%
X151546100Y-117727400D03*
%TO.P,J5,9*%
%TO.N,Net-(U2-B1)*%
X149006100Y-120267400D03*
%TO.P,J5,10*%
X151546100Y-120267400D03*
%TO.P,J5,11*%
%TO.N,Net-(J5-Pad11)*%
X149006100Y-122807400D03*
%TO.P,J5,12*%
X151546100Y-122807400D03*
%TD*%
D10*
%TO.P,M2,1*%
%TO.N,GND*%
X125280840Y-106903700D03*
%TD*%
%TO.P,M3,1*%
%TO.N,GND*%
X125280840Y-114003180D03*
%TD*%
D12*
%TO.P,J4,1,In*%
%TO.N,Net-(J4-In)*%
X136761100Y-107712400D03*
D13*
%TO.P,J4,2,Ext*%
%TO.N,GND*%
X134221100Y-105172400D03*
X134221100Y-110252400D03*
X139301100Y-105172400D03*
X139301100Y-110252400D03*
%TD*%
D14*
%TO.P,U3,1,V_{CCA}*%
%TO.N,+1V8*%
X154903600Y-116447400D03*
%TO.P,U3,2,A1*%
%TO.N,UART_RX*%
X154903600Y-115797400D03*
%TO.P,U3,3,A2*%
%TO.N,UART_TX*%
X154903600Y-115147400D03*
%TO.P,U3,4,A3*%
%TO.N,UART_CTS*%
X154903600Y-114497400D03*
%TO.P,U3,5,A4*%
%TO.N,UART_RTS*%
X154903600Y-113847400D03*
%TO.P,U3,6,NC*%
%TO.N,unconnected-(U3-NC-Pad6)*%
X154903600Y-113197400D03*
%TO.P,U3,7,GND*%
%TO.N,GND*%
X154903600Y-112547400D03*
%TO.P,U3,8,OE*%
%TO.N,Net-(U3-OE)*%
X160628600Y-112547400D03*
%TO.P,U3,9,NC*%
%TO.N,unconnected-(U3-NC-Pad9)*%
X160628600Y-113197400D03*
%TO.P,U3,10,B4*%
%TO.N,Net-(U3-B4)*%
X160628600Y-113847400D03*
%TO.P,U3,11,B3*%
%TO.N,Net-(U3-B3)*%
X160628600Y-114497400D03*
%TO.P,U3,12,B2*%
%TO.N,Net-(U3-B2)*%
X160628600Y-115147400D03*
%TO.P,U3,13,B1*%
%TO.N,Net-(U3-B1)*%
X160628600Y-115797400D03*
%TO.P,U3,14,V_{CCB}*%
%TO.N,VCC*%
X160628600Y-116447400D03*
%TD*%
D15*
%TO.P,TP1,1,1*%
%TO.N,Net-(U1-LOGGER)*%
X138446100Y-97987400D03*
%TD*%
D16*
%TO.P,C10,1*%
%TO.N,Net-(U1-HFXT_M)*%
X134061100Y-113357400D03*
%TO.P,C10,2*%
%TO.N,GND*%
X135611100Y-113357400D03*
%TD*%
%TO.P,C11,1*%
%TO.N,VCC*%
X144381100Y-123397400D03*
%TO.P,C11,2*%
%TO.N,GND*%
X145931100Y-123397400D03*
%TD*%
D17*
%TO.P,D2,1,K*%
%TO.N,VCC*%
X160741100Y-101947400D03*
%TO.P,D2,2,A*%
%TO.N,GND*%
X162141100Y-101947400D03*
%TD*%
D16*
%TO.P,C6,1*%
%TO.N,+3.3V*%
X134061100Y-123397400D03*
%TO.P,C6,2*%
%TO.N,GND*%
X135611100Y-123397400D03*
%TD*%
%TO.P,C2,1*%
%TO.N,+1V8*%
X130051100Y-120887400D03*
%TO.P,C2,2*%
%TO.N,GND*%
X131601100Y-120887400D03*
%TD*%
D18*
%TO.P,D1,1,K*%
%TO.N,GND*%
X148468600Y-102122400D03*
%TO.P,D1,2,A*%
%TO.N,Net-(D1-A)*%
X150343600Y-102122400D03*
%TD*%
D16*
%TO.P,C1,1*%
%TO.N,+1V8*%
X130051100Y-123397400D03*
%TO.P,C1,2*%
%TO.N,GND*%
X131601100Y-123397400D03*
%TD*%
D19*
%TO.P,R2,1*%
%TO.N,+1V8*%
X144331100Y-115867400D03*
%TO.P,R2,2*%
%TO.N,Net-(U2-OE)*%
X145981100Y-115867400D03*
%TD*%
D11*
%TO.P,J2,1*%
%TO.N,GND*%
X155236100Y-109377400D03*
%TO.P,J2,2*%
X157776100Y-109377400D03*
%TO.P,J2,3*%
%TO.N,VCC*%
X155236100Y-106837400D03*
%TO.P,J2,4*%
X157776100Y-106837400D03*
%TO.P,J2,5*%
%TO.N,GND*%
X155236100Y-104297400D03*
%TO.P,J2,6*%
X157776100Y-104297400D03*
%TD*%
D16*
%TO.P,C4,1*%
%TO.N,+1V8*%
X130051100Y-115867400D03*
%TO.P,C4,2*%
%TO.N,GND*%
X131601100Y-115867400D03*
%TD*%
D14*
%TO.P,U2,1,V_{CCA}*%
%TO.N,+1V8*%
X154903600Y-123162400D03*
%TO.P,U2,2,A1*%
%TO.N,SWCLK*%
X154903600Y-122512400D03*
%TO.P,U2,3,A2*%
%TO.N,SWDIO*%
X154903600Y-121862400D03*
%TO.P,U2,4,A3*%
%TO.N,NRESET*%
X154903600Y-121212400D03*
%TO.P,U2,5,A4*%
%TO.N,unconnected-(U2-A4-Pad5)*%
X154903600Y-120562400D03*
%TO.P,U2,6,NC*%
%TO.N,unconnected-(U2-NC-Pad6)*%
X154903600Y-119912400D03*
%TO.P,U2,7,GND*%
%TO.N,GND*%
X154903600Y-119262400D03*
%TO.P,U2,8,OE*%
%TO.N,Net-(U2-OE)*%
X160628600Y-119262400D03*
%TO.P,U2,9,NC*%
%TO.N,unconnected-(U2-NC-Pad9)*%
X160628600Y-119912400D03*
%TO.P,U2,10,B4*%
%TO.N,Net-(U2-B4)*%
X160628600Y-120562400D03*
%TO.P,U2,11,B3*%
%TO.N,Net-(U2-B3)*%
X160628600Y-121212400D03*
%TO.P,U2,12,B2*%
%TO.N,Net-(U2-B2)*%
X160628600Y-121862400D03*
%TO.P,U2,13,B1*%
%TO.N,Net-(U2-B1)*%
X160628600Y-122512400D03*
%TO.P,U2,14,V_{CCB}*%
%TO.N,VCC*%
X160628600Y-123162400D03*
%TD*%
%TO.P,U5,1,A1*%
%TO.N,unconnected-(U5-A1-Pad1)*%
X161508600Y-110122400D03*
%TO.P,U5,2,VCCA*%
%TO.N,VCC*%
X161508600Y-109472400D03*
%TO.P,U5,3,A2*%
%TO.N,unconnected-(U5-A2-Pad3)*%
X161508600Y-108822400D03*
%TO.P,U5,4,A3*%
%TO.N,unconnected-(U5-A3-Pad4)*%
X161508600Y-108172400D03*
%TO.P,U5,5,A4*%
%TO.N,unconnected-(U5-A4-Pad5)*%
X161508600Y-107522400D03*
%TO.P,U5,6,A5*%
%TO.N,unconnected-(U5-A5-Pad6)*%
X161508600Y-106872400D03*
%TO.P,U5,7,A6*%
%TO.N,unconnected-(U5-A6-Pad7)*%
X161508600Y-106222400D03*
%TO.P,U5,8,A7*%
%TO.N,unconnected-(U5-A7-Pad8)*%
X161508600Y-105572400D03*
%TO.P,U5,9,A8*%
%TO.N,unconnected-(U5-A8-Pad9)*%
X161508600Y-104922400D03*
%TO.P,U5,10,OE*%
%TO.N,Net-(U5-OE)*%
X161508600Y-104272400D03*
%TO.P,U5,11,GND*%
%TO.N,GND*%
X167233600Y-104272400D03*
%TO.P,U5,12,B8*%
%TO.N,unconnected-(U5-B8-Pad12)*%
X167233600Y-104922400D03*
%TO.P,U5,13,B7*%
%TO.N,HOST_IRQ_WIFI*%
X167233600Y-105572400D03*
%TO.P,U5,14,B6*%
%TO.N,SDIO_D0*%
X167233600Y-106222400D03*
%TO.P,U5,15,B5*%
%TO.N,SDIO_D1*%
X167233600Y-106872400D03*
%TO.P,U5,16,B4*%
%TO.N,SDIO_D2*%
X167233600Y-107522400D03*
%TO.P,U5,17,B3*%
%TO.N,SDIO_D3*%
X167233600Y-108172400D03*
%TO.P,U5,18,B2*%
%TO.N,SDIO_CLK*%
X167233600Y-108822400D03*
%TO.P,U5,19,VCCB*%
%TO.N,+1V8*%
X167233600Y-109472400D03*
%TO.P,U5,20,B1*%
%TO.N,SDIO_CMD*%
X167233600Y-110122400D03*
%TD*%
D19*
%TO.P,R3,1*%
%TO.N,+1V8*%
X144331100Y-113357400D03*
%TO.P,R3,2*%
%TO.N,Net-(U3-OE)*%
X145981100Y-113357400D03*
%TD*%
D15*
%TO.P,FID1,*%
%TO.N,*%
X130596100Y-110327400D03*
%TD*%
D19*
%TO.P,R5,1*%
%TO.N,+1V8*%
X144331100Y-108337400D03*
%TO.P,R5,2*%
%TO.N,Net-(U5-OE)*%
X145981100Y-108337400D03*
%TD*%
D20*
%TO.P,U4,1,VIN*%
%TO.N,VCC*%
X148598600Y-106812400D03*
%TO.P,U4,2,GND*%
%TO.N,GND*%
X148598600Y-105862400D03*
%TO.P,U4,3,EN*%
%TO.N,VCC*%
X148598600Y-104912400D03*
%TO.P,U4,4,NC*%
%TO.N,unconnected-(U4-NC-Pad4)*%
X150873600Y-104912400D03*
%TO.P,U4,5,VOUT*%
%TO.N,+1V8*%
X150873600Y-106812400D03*
%TD*%
D16*
%TO.P,C13,1*%
%TO.N,+1V8*%
X138071100Y-123397400D03*
%TO.P,C13,2*%
%TO.N,GND*%
X139621100Y-123397400D03*
%TD*%
D21*
%TO.P,C14,1*%
%TO.N,+1V8*%
X144368600Y-118377400D03*
%TO.P,C14,2*%
%TO.N,GND*%
X145943600Y-118377400D03*
%TD*%
D15*
%TO.P,FID2,*%
%TO.N,*%
X130596100Y-106777400D03*
%TD*%
D22*
%TO.P,U6,1,IN*%
%TO.N,Net-(U6-IN)*%
X138157700Y-101412700D03*
D23*
%TO.P,U6,2,GND*%
%TO.N,GND*%
X138424400Y-100815800D03*
D22*
%TO.P,U6,3,OUT*%
%TO.N,Net-(J4-In)*%
X138691100Y-101412700D03*
D23*
%TO.P,U6,4,GND*%
%TO.N,GND*%
X138424400Y-102009600D03*
%TD*%
D16*
%TO.P,C9,1*%
%TO.N,Net-(C9-Pad1)*%
X134061100Y-115867400D03*
%TO.P,C9,2*%
%TO.N,GND*%
X135611100Y-115867400D03*
%TD*%
%TO.P,C3,1*%
%TO.N,+1V8*%
X130051100Y-118377400D03*
%TO.P,C3,2*%
%TO.N,GND*%
X131601100Y-118377400D03*
%TD*%
%TO.P,C8,1*%
%TO.N,Net-(U1-DIG_LDO_OUT)*%
X134061100Y-118377400D03*
%TO.P,C8,2*%
%TO.N,GND*%
X135611100Y-118377400D03*
%TD*%
D15*
%TO.P,FID3,*%
%TO.N,*%
X130596100Y-103227400D03*
%TD*%
D16*
%TO.P,C15,1*%
%TO.N,/RF_BG*%
X138071100Y-120887400D03*
%TO.P,C15,2*%
%TO.N,Net-(U6-IN)*%
X139621100Y-120887400D03*
%TD*%
D19*
%TO.P,R1,1*%
%TO.N,Net-(U1-HFXT_P)*%
X138021100Y-118377400D03*
%TO.P,R1,2*%
%TO.N,Net-(C9-Pad1)*%
X139671100Y-118377400D03*
%TD*%
D16*
%TO.P,C5,1*%
%TO.N,+1V8*%
X130051100Y-113357400D03*
%TO.P,C5,2*%
%TO.N,GND*%
X131601100Y-113357400D03*
%TD*%
%TO.P,C7,1*%
%TO.N,Net-(U1-PA_LDO_OUT)*%
X134061100Y-120887400D03*
%TO.P,C7,2*%
%TO.N,GND*%
X135611100Y-120887400D03*
%TD*%
D24*
%TO.P,Y2,1,VIO*%
%TO.N,+1V8*%
X133796100Y-100647400D03*
%TO.P,Y2,2,GND*%
%TO.N,GND*%
X135496100Y-100647400D03*
%TO.P,Y2,3,OUT*%
%TO.N,SLOW_CLK_IN*%
X135496100Y-101947400D03*
%TO.P,Y2,4,Vcc*%
%TO.N,+1V8*%
X133796100Y-101947400D03*
%TD*%
D19*
%TO.P,R4,1*%
%TO.N,VCC*%
X144331100Y-110847400D03*
%TO.P,R4,2*%
%TO.N,Net-(D1-A)*%
X145981100Y-110847400D03*
%TD*%
D16*
%TO.P,C12,1*%
%TO.N,VCC*%
X144381100Y-120887400D03*
%TO.P,C12,2*%
%TO.N,GND*%
X145931100Y-120887400D03*
%TD*%
M02*
